<svg width="38" height="38" viewBox="0 0 38 38" fill="none" xmlns="http://www.w3.org/2000/svg">
<path d="M18.6606 0.111895C18.5757 0.194545 16.5841 2.16344 16.5841 4.62813L16.5844 4.67847C16.612 7.16683 18.6737 9.13017 18.7614 9.21251C18.835 9.28158 18.9408 9.32069 19.0516 9.31987C19.1624 9.31904 19.2674 9.27828 19.3394 9.20809C19.4243 9.12544 21.4164 7.15685 21.4167 4.69174L21.4164 4.64141C21.3881 2.15315 19.3263 0.189811 19.2387 0.107469C19.1649 0.0383017 19.0592 -0.000810674 18.9483 1.27441e-05C18.8376 0.000939089 18.7326 0.0416983 18.6606 0.111895Z" fill="#00D88C"/>
<path d="M0.0651646 13.0292C0.137794 13.1195 1.87768 15.2477 4.7264 15.9108L4.7847 15.9241C7.66825 16.5715 10.4923 15.4451 10.6108 15.3968C10.7105 15.3564 10.7841 15.282 10.813 15.1928C10.8419 15.1037 10.823 15.0085 10.7613 14.9318C10.6887 14.8416 8.94938 12.7129 6.10017 12.0496L6.04187 12.0362C3.15833 11.3895 0.334313 12.5158 0.215611 12.5641C0.115808 12.6045 0.0421903 12.679 0.0132869 12.7682C-0.015493 12.8572 0.00340519 12.9525 0.0651646 13.0292Z" fill="#00D88C"/>
<path d="M37.9351 13.0287C37.8624 13.119 36.1226 15.2472 33.2738 15.9103L33.2155 15.9237C30.332 16.571 27.508 15.4446 27.3894 15.3964C27.2897 15.3559 27.2161 15.2815 27.1872 15.1924C27.1583 15.1032 27.1772 15.008 27.239 14.9313C27.3116 14.8411 29.0508 12.7124 31.9001 12.0491L31.9584 12.0357C34.8419 11.389 37.6659 12.5153 37.7846 12.5636C37.8844 12.604 37.958 12.6785 37.9869 12.7677C38.0157 12.8567 37.9968 12.952 37.9351 13.0287Z" fill="#00D88C"/>
<path d="M32.26 4.20174C32.0836 4.21316 27.9099 4.5097 25.075 6.87208L25.0172 6.92056C22.1814 9.32761 21.8992 12.8561 21.8887 13.005C21.8797 13.1301 21.9361 13.2519 22.0433 13.3397C22.1506 13.4275 22.298 13.4722 22.4477 13.4625C22.624 13.451 26.7978 13.1554 29.6337 10.7927L29.6913 10.7443C32.5263 8.33663 32.8085 4.80818 32.8191 4.65925C32.828 4.53409 32.7716 4.41212 32.6644 4.32432C32.5573 4.23684 32.4097 4.19206 32.26 4.20174Z" fill="#00D88C"/>
<path d="M5.74014 4.20174C5.91652 4.21316 10.0902 4.5097 12.9251 6.87208L12.9829 6.92056C15.8187 9.32761 16.1009 12.8561 16.1114 13.005C16.1204 13.1301 16.064 13.2519 15.9568 13.3397C15.8495 13.4275 15.7021 13.4722 15.5524 13.4625C15.3761 13.451 11.2021 13.1554 8.36639 10.7927L8.30883 10.7443C5.47383 8.33663 5.19159 4.80818 5.18097 4.65925C5.17207 4.53409 5.22852 4.41212 5.33574 4.32432C5.44283 4.23684 5.59043 4.19206 5.74014 4.20174Z" fill="#00D88C"/>
<path d="M3.54227 26.4785C3.55598 26.3314 3.91184 22.8536 6.74684 20.4913L6.80502 20.4432C9.69363 18.0802 13.928 17.845 14.1067 17.8362C14.2568 17.8287 14.4032 17.8758 14.5084 17.9651C14.6138 18.0543 14.6674 18.1773 14.6558 18.3022C14.6419 18.4491 14.2872 21.9272 11.4518 24.2902L11.3937 24.3381C8.50439 26.7005 4.27004 26.9357 4.09131 26.9446C3.94111 26.952 3.79474 26.9049 3.68938 26.8156C3.58439 26.7263 3.53066 26.6032 3.54227 26.4785Z" fill="#00D88C"/>
<path d="M34.4576 26.4785C34.4439 26.3314 34.0881 22.8536 31.2531 20.4913L31.1949 20.4432C28.3063 18.0802 24.0719 17.845 23.8932 17.8362C23.7431 17.8287 23.5969 17.8758 23.4915 17.9651C23.3863 18.0543 23.3325 18.1773 23.3441 18.3022C23.358 18.4491 23.7127 21.9272 26.5481 24.2902L26.6062 24.3381C29.4955 26.7005 33.7299 26.9357 33.9086 26.9446C34.0588 26.952 34.2052 26.9049 34.3105 26.8156C34.4155 26.7263 34.4692 26.6032 34.4576 26.4785Z" fill="#00D88C"/>
<path d="M22.4066 37.9998C22.4962 38.0206 15.8828 36.8447 15.8828 36.8447L17.3287 24.9031C17.4964 23.282 17.3512 21.6925 16.8036 20.1447C16.4408 19.1191 15.9331 18.1045 15.1926 17.2543C14.8408 16.8245 14.4349 16.4328 13.9968 16.0751C13.8924 15.9912 13.0411 15.5035 13.0411 15.4337C13.0411 15.4432 14.0776 15.7959 14.1716 15.8385C14.8107 16.1334 15.4174 16.4885 15.9683 16.9056C16.7649 17.5086 17.4509 18.2016 18.0479 18.9642L19.0605 10.6016L20.0859 18.9986C20.6358 18.2952 21.2641 17.6587 21.9735 17.0718C22.5333 16.6504 23.1112 16.2612 23.7543 15.949C23.8558 15.8997 25.119 15.4355 25.119 15.4337C25.119 15.4973 24.431 15.8692 24.3405 15.9373C23.8913 16.2754 23.4835 16.6611 23.1197 17.075C22.317 17.9885 21.7488 19.0357 21.3565 20.1447C20.766 21.8135 20.6259 23.5222 20.8531 25.2795L22.4066 37.9998Z" fill="#F2994A"/>
</svg>
