<svg width="99" height="112" viewBox="0 0 99 112" fill="none" xmlns="http://www.w3.org/2000/svg">
<g clip-path="url(#clip0)" filter="url(#filter0_d)">
<path d="M85.7458 72.1081C83.1655 79.1013 79.2632 85.1819 74.1457 90.1792C68.3208 95.8672 60.6933 100.387 51.475 103.611C51.1726 103.717 50.8569 103.803 50.5397 103.867C50.1208 103.949 49.6945 103.994 49.2719 104H49.1892C48.7387 104 48.2861 103.955 47.8371 103.867C47.52 103.803 47.2087 103.717 46.9077 103.613C37.6784 100.394 30.0414 95.8767 24.2106 90.1887C19.091 85.1914 15.1894 79.1145 12.6127 72.1213C7.9274 59.4065 8.194 45.3996 8.4086 34.1438L8.41227 33.9709C8.45548 33.0415 8.48331 32.0651 8.49869 30.987C8.57706 25.6938 12.7856 21.3147 18.0795 21.0195C29.1171 20.4035 37.6557 16.8037 44.9514 9.69258L45.0151 9.63398C46.2265 8.5229 47.7529 7.97798 49.2719 8.00068C50.7368 8.01972 52.1958 8.56391 53.364 9.63398L53.4262 9.69258C60.7234 16.8037 69.2619 20.4035 80.2995 21.0195C85.5935 21.3147 89.802 25.6938 89.8804 30.987C89.8957 32.0725 89.9236 33.0473 89.9668 33.9709L89.969 34.0442C90.1828 45.3213 90.448 59.3559 85.7458 72.1081Z" fill="#FF6041"/>
<path d="M85.7457 72.1081C83.1654 79.1013 79.263 85.1818 74.1456 90.1791C68.3206 95.8671 60.6932 100.387 51.4749 103.611C51.1724 103.717 50.8568 103.803 50.5396 103.867C50.1207 103.949 49.6944 103.994 49.2718 104V8.00061C50.7366 8.01965 52.1956 8.56384 53.3638 9.63391L53.4261 9.69251C60.7232 16.8036 69.2618 20.4035 80.2994 21.0194C85.5934 21.3146 89.8019 25.6937 89.8802 30.987C89.8956 32.0724 89.9235 33.0473 89.9667 33.9708L89.9689 34.0441C90.1827 45.3212 90.4479 59.3559 85.7457 72.1081Z" fill="#FC3F19"/>
<path d="M73.1128 56.0001C73.1128 69.164 62.4246 79.8793 49.2718 79.9262H49.1875C35.9959 79.9262 25.2615 69.1925 25.2615 56.0001C25.2615 42.8085 35.9959 32.0748 49.1875 32.0748H49.2718C62.4246 32.1217 73.1128 42.837 73.1128 56.0001Z" fill="white"/>
<path d="M73.1129 56.0001C73.1129 69.164 62.4246 79.8793 49.2718 79.9262V32.0748C62.4246 32.1217 73.1129 42.837 73.1129 56.0001Z" fill="#E1EBF0"/>
<path d="M52.0871 46.1749V57.2352C52.0871 58.7902 50.8251 60.0521 49.2702 60.0521C47.7138 60.0521 46.4533 58.7902 46.4533 57.2352V46.1749C46.4533 44.6178 47.7138 43.358 49.2702 43.358C50.8251 43.358 52.0871 44.6178 52.0871 46.1749Z" fill="#B4D2D7"/>
<path d="M52.0871 65.8247C52.0871 65.917 52.0812 66.0107 52.0739 66.103C52.0644 66.1931 52.0497 66.2847 52.0329 66.377C52.0139 66.4648 51.9911 66.5549 51.9648 66.6436C51.937 66.7314 51.9069 66.8179 51.871 66.9028C51.8359 66.9871 51.7963 67.072 51.7531 67.1526C51.7099 67.2332 51.663 67.3123 51.6118 67.3892C51.5612 67.4661 51.507 67.5415 51.4484 67.6104C51.3906 67.6836 51.3268 67.7517 51.2631 67.8169C51.1972 67.8828 51.1276 67.9451 51.0566 68.0029C50.9848 68.0615 50.9101 68.1157 50.8347 68.1663C50.7578 68.2175 50.6786 68.2659 50.5959 68.3091C50.5153 68.3523 50.4326 68.3918 50.3483 68.4255C50.2641 68.4614 50.1755 68.4929 50.0876 68.5193C50.0012 68.5457 49.9111 68.5684 49.821 68.5874C49.7302 68.6057 49.6386 68.6189 49.5485 68.6284C49.4562 68.6379 49.3625 68.6416 49.2702 68.6416C49.1786 68.6416 49.0864 68.6379 48.9941 68.6284C48.9025 68.6189 48.8102 68.6057 48.7202 68.5874C48.6301 68.5684 48.54 68.5457 48.4536 68.5193C48.3649 68.4929 48.277 68.4614 48.1928 68.4255C48.1078 68.3918 48.0251 68.3523 47.9445 68.3091C47.8618 68.2659 47.7834 68.2175 47.7065 68.1663C47.631 68.1157 47.5556 68.0615 47.4846 68.0029C47.4135 67.9451 47.3439 67.8828 47.278 67.8169C47.2143 67.7517 47.1506 67.6836 47.092 67.6104C47.0341 67.5415 46.9792 67.4661 46.9286 67.3892C46.8781 67.3123 46.8312 67.2332 46.788 67.1526C46.7448 67.072 46.7053 66.9871 46.6694 66.9028C46.6342 66.8179 46.6042 66.7314 46.5756 66.6436C46.5493 66.5549 46.5266 66.4648 46.5082 66.377C46.4914 66.2847 46.476 66.1931 46.4665 66.103C46.4592 66.0107 46.4533 65.917 46.4533 65.8247C46.4533 65.7332 46.4592 65.6409 46.4665 65.5486C46.476 65.457 46.4914 65.3647 46.5082 65.2747C46.5266 65.186 46.5493 65.0959 46.5756 65.0081C46.6042 64.9194 46.6342 64.833 46.6694 64.7488C46.7053 64.6646 46.7448 64.5796 46.788 64.499C46.8312 64.4185 46.8781 64.3379 46.9286 64.2625C46.9792 64.1855 47.0341 64.1101 47.092 64.0391C47.1506 63.9673 47.2143 63.8984 47.278 63.834C47.3439 63.7688 47.4135 63.7065 47.4846 63.6465C47.5556 63.5901 47.631 63.5337 47.7065 63.4832C47.7834 63.4326 47.8618 63.3857 47.9445 63.3425C48.0251 63.2993 48.1078 63.2598 48.1928 63.2239C48.277 63.1902 48.3649 63.158 48.4536 63.1323C48.54 63.1038 48.6301 63.0811 48.7202 63.0642C48.8102 63.0459 48.9025 63.0327 48.9941 63.0232C49.0842 63.0137 49.1786 63.0078 49.2702 63.0078C49.3625 63.0078 49.4562 63.0137 49.5485 63.0232C49.6386 63.0327 49.7302 63.0459 49.821 63.0642C49.9111 63.0811 50.0012 63.1038 50.0876 63.1323C50.1755 63.158 50.2641 63.1902 50.3483 63.2239C50.4326 63.2598 50.5153 63.2993 50.5959 63.3425C50.6786 63.3857 50.7578 63.4326 50.8347 63.4832C50.9101 63.5337 50.9848 63.5901 51.0566 63.6465C51.1276 63.7065 51.1972 63.7688 51.2631 63.834C51.3268 63.8984 51.3906 63.9673 51.4484 64.0391C51.507 64.1101 51.5612 64.1855 51.6118 64.2625C51.663 64.3379 51.7099 64.4185 51.7531 64.499C51.7963 64.5796 51.8359 64.6646 51.871 64.7488C51.9069 64.833 51.937 64.9194 51.9648 65.0081C51.9911 65.0959 52.0139 65.186 52.0329 65.2747C52.0497 65.3647 52.0644 65.457 52.0739 65.5486C52.0812 65.6409 52.0871 65.7332 52.0871 65.8247Z" fill="#B4D2D7"/>
<path d="M52.0747 65.5486C52.082 65.6409 52.0879 65.7332 52.0879 65.8247C52.0879 65.917 52.082 66.0107 52.0747 66.103C52.0652 66.1931 52.0505 66.2847 52.0337 66.377C52.0146 66.4648 51.9919 66.5549 51.9656 66.6436C51.9377 66.7314 51.9077 66.8179 51.8718 66.9028C51.8367 66.9871 51.7971 67.072 51.7539 67.1526C51.7107 67.2332 51.6638 67.3123 51.6125 67.3892C51.562 67.4661 51.5078 67.5415 51.4492 67.6104C51.3914 67.6836 51.3276 67.7517 51.2639 67.8169C51.198 67.8828 51.1284 67.9451 51.0574 68.0029C50.9856 68.0615 50.9109 68.1157 50.8354 68.1663C50.7585 68.2175 50.6794 68.2659 50.5967 68.3091C50.5161 68.3523 50.4333 68.3918 50.3491 68.4255C50.2649 68.4614 50.1763 68.4929 50.0884 68.5193C50.002 68.5457 49.9119 68.5684 49.8218 68.5874C49.731 68.6057 49.6394 68.6189 49.5493 68.6284C49.457 68.6379 49.3633 68.6416 49.271 68.6416V63.0078C49.3633 63.0078 49.457 63.0137 49.5493 63.0232C49.6394 63.0327 49.731 63.0459 49.8218 63.0642C49.9119 63.0811 50.002 63.1038 50.0884 63.1323C50.1763 63.158 50.2649 63.1902 50.3491 63.2239C50.4333 63.2598 50.5161 63.2993 50.5967 63.3425C50.6794 63.3857 50.7585 63.4326 50.8354 63.4832C50.9109 63.5337 50.9856 63.5901 51.0574 63.6465C51.1284 63.7065 51.198 63.7688 51.2639 63.834C51.3276 63.8984 51.3914 63.9673 51.4492 64.0391C51.5078 64.1101 51.562 64.1855 51.6125 64.2625C51.6638 64.3379 51.7107 64.4185 51.7539 64.499C51.7971 64.5796 51.8367 64.6646 51.8718 64.7488C51.9077 64.833 51.9377 64.9194 51.9656 65.0081C51.9919 65.0959 52.0146 65.186 52.0337 65.2747C52.0505 65.3647 52.0652 65.457 52.0747 65.5486Z" fill="#6FA5AA"/>
<path d="M52.0879 46.1749V57.2352C52.0879 58.7902 50.8259 60.0521 49.271 60.0521V43.358C50.8259 43.358 52.0879 44.6178 52.0879 46.1749Z" fill="#6FA5AA"/>
</g>
<defs>
<filter id="filter0_d" x="-7" y="0" width="112" height="112" filterUnits="userSpaceOnUse" color-interpolation-filters="sRGB">
<feFlood flood-opacity="0" result="BackgroundImageFix"/>
<feColorMatrix in="SourceAlpha" type="matrix" values="0 0 0 0 0 0 0 0 0 0 0 0 0 0 0 0 0 0 127 0"/>
<feOffset/>
<feGaussianBlur stdDeviation="4"/>
<feColorMatrix type="matrix" values="0 0 0 0 0 0 0 0 0 0 0 0 0 0 0 0 0 0 0.25 0"/>
<feBlend mode="normal" in2="BackgroundImageFix" result="effect1_dropShadow"/>
<feBlend mode="normal" in="SourceGraphic" in2="effect1_dropShadow" result="shape"/>
</filter>
<clipPath id="clip0">
<rect width="96" height="96" fill="white" transform="translate(1 8)"/>
</clipPath>
</defs>
</svg>
