<svg width="82" height="82" viewBox="0 0 82 82" fill="none" xmlns="http://www.w3.org/2000/svg">
<path d="M57.9328 82C57.9328 76.3564 55.6556 70.7246 51.6273 66.7551C50.7239 65.8655 50.0933 65.4201 50.0933 65.4201H31.945C31.945 65.4201 31.3144 65.8655 30.4116 66.7551C26.3858 70.7221 24.1055 76.3614 24.1055 82H57.9328Z" fill="#52B2DE"/>
<path d="M66.7101 10.4677C59.8434 3.71738 50.7195 0 41.0194 0C31.3193 0 22.1954 3.71738 15.3287 10.4677C8.43886 17.2406 4.64453 26.2519 4.64453 35.8412C4.64453 55.5911 21.4522 71.6818 41.0194 71.6818C60.6198 71.6818 77.3943 55.5836 77.3943 35.8412C77.3943 26.2519 73.5999 17.2406 66.7101 10.4677Z" fill="#394048"/>
<path d="M23.3139 25.6525C19.056 27.5387 15.8104 29.8485 13.5488 31.7916C10.7636 34.184 9.44353 37.8801 10.1198 41.4867C12.8193 55.8489 25.6256 66.7282 41.0193 66.7282C56.4131 66.7282 69.2193 55.8489 71.9189 41.4867C72.5951 37.8801 71.2751 34.184 68.4899 31.7916C67.106 30.6042 65.3556 29.2773 63.2304 27.9973L23.3139 25.6525Z" fill="#F5CDB6"/>
<path d="M15.0696 41.4867C14.3934 37.8801 15.7134 34.184 18.498 31.7916C20.6588 29.9355 23.7187 27.7464 27.6988 25.9103L23.3139 25.6525C19.056 27.5387 15.8104 29.8485 13.5488 31.7916C10.7636 34.184 9.44353 37.8801 10.1198 41.4867C12.8193 55.8489 25.6256 66.7282 41.0193 66.7282C41.8527 66.7282 42.6772 66.6944 43.4943 66.6319C29.2197 65.5389 17.6228 55.0719 15.0696 41.4867Z" fill="#E2B3A3"/>
<path d="M55.2726 43.9585C54.5894 43.9585 54.0352 43.4048 54.0352 42.7211V39.9502C54.0352 39.2664 54.5894 38.7128 55.2726 38.7128C55.9564 38.7128 56.5101 39.2664 56.5101 39.9502V42.7211C56.5101 43.4048 55.9564 43.9585 55.2726 43.9585Z" fill="#394048"/>
<path d="M57.1601 48.0325H53.3852C52.702 48.0325 52.1477 47.4782 52.1477 46.795C52.1477 46.1119 52.702 45.5576 53.3852 45.5576H57.1601C57.8433 45.5576 58.3976 46.1119 58.3976 46.795C58.3976 47.4782 57.8433 48.0325 57.1601 48.0325Z" fill="#E98E8F"/>
<path d="M26.766 43.9585C26.0822 43.9585 25.5286 43.4048 25.5286 42.7211V39.9502C25.5286 39.2664 26.0822 38.7128 26.766 38.7128C27.4492 38.7128 28.0035 39.2664 28.0035 39.9502V42.7211C28.0035 43.4048 27.4492 43.9585 26.766 43.9585Z" fill="#394048"/>
<path d="M28.6529 48.0325H24.8786C24.1954 48.0325 23.6411 47.4782 23.6411 46.795C23.6411 46.1119 24.1954 45.5576 24.8786 45.5576H28.6529C29.3367 45.5576 29.8903 46.1119 29.8903 46.795C29.8903 47.4782 29.3367 48.0325 28.6529 48.0325Z" fill="#E98E8F"/>
<path d="M41.0196 47.8761C39.6689 47.8761 38.4002 47.3106 37.5387 46.3252C37.0889 45.8103 37.1415 45.0283 37.6557 44.5785C38.1706 44.1293 38.952 44.1813 39.4018 44.6961C39.7934 45.1441 40.3834 45.4012 41.0196 45.4012C41.6559 45.4012 42.2458 45.1441 42.6375 44.6961C43.0873 44.1813 43.8693 44.1293 44.3835 44.5785C44.8978 45.0283 44.951 45.8103 44.5005 46.3252C43.6391 47.3106 42.3703 47.8761 41.0196 47.8761Z" fill="#394048"/>
<path d="M10.1199 41.4867C10.1562 41.6769 10.1943 41.8658 10.2337 42.0548C10.2375 42.0723 10.2406 42.0904 10.2444 42.1086C10.7517 40.0535 11.8903 38.166 13.5488 36.7415C15.8104 34.7983 19.0561 32.4879 23.3146 30.6024C27.9854 28.5335 33.8737 26.9757 41.0194 26.9757C50.6945 26.9757 58.0679 29.8304 63.2304 32.9471C65.3556 34.2271 67.1061 35.5534 68.4906 36.7415C70.1478 38.1641 71.1882 40.0078 71.7938 42.0829C72.8373 38.079 71.0643 33.9118 67.9538 31.3406C66.4661 30.1106 64.8839 28.9933 63.2304 27.9973L23.314 25.6525C19.7874 27.2147 16.4754 29.2767 13.5488 31.7916C10.808 34.1464 9.4536 37.9326 10.1199 41.4867Z" fill="#E2B3A3"/>
<path d="M63.2304 27.9973C63.2304 27.9973 54.7134 37.491 32.6049 37.491C32.6049 37.491 34.1439 33.3563 35.464 29.8354C35.464 29.8354 27.9898 35.8406 19.9551 35.8406C19.9551 35.8406 21.9451 32.2471 23.314 25.6525C27.9854 23.5836 33.8737 22.0259 41.0194 22.0259C50.6944 22.0259 58.0679 24.8805 63.2304 27.9973Z" fill="#8C6A5A"/>
<path d="M23.314 30.6024C27.9854 28.5335 33.8737 26.9757 41.0194 26.9757C48.548 26.9757 54.6821 28.7043 59.4661 30.9396C62.0605 29.2998 63.2304 27.9973 63.2304 27.9973C58.8743 25.3672 52.9448 22.9242 45.3861 22.2254C43.9347 22.0909 42.4771 22.0259 41.0194 22.0259C34.9497 22.0259 28.8738 23.1901 23.314 25.6525C22.8492 27.8916 22.313 29.7834 21.8069 31.3074C22.2949 31.0672 22.7966 30.8313 23.314 30.6024Z" fill="#816253"/>
<path d="M48.9895 66.7289H33.0484C30.621 66.7289 28.6528 68.697 28.6528 71.1244V82H53.3851V71.1244C53.3857 68.6964 51.4175 66.7289 48.9895 66.7289Z" fill="#D6D6D6"/>
<path d="M37.9982 66.7289H33.0484C30.621 66.7289 28.6528 68.697 28.6528 71.1244V82H33.6027V71.1244C33.6027 68.697 35.5708 66.7289 37.9982 66.7289Z" fill="#BFBFBF"/>
<path d="M43.5687 74.8167C43.5687 76.225 42.4276 77.3661 41.0193 77.3661C39.6111 77.3661 38.47 76.225 38.47 74.8167C38.47 73.4091 39.6111 72.2674 41.0193 72.2674C42.4276 72.2674 43.5687 73.4091 43.5687 74.8167Z" fill="#E8E8E8"/>
</svg>
