<svg width="82" height="82" viewBox="0 0 82 82" fill="none" xmlns="http://www.w3.org/2000/svg">
    <g clip-path="url(#clip0)">
    <path d="M23.7252 75.737C25.6473 70.295 29.4343 67.0112 29.4343 67.0112H52.5656C52.5656 67.0112 56.3526 70.295 58.2747 75.737L50.7401 82H31.2598L23.7252 75.737Z" fill="#FF748F"/>
    <path d="M27.025 75.737C28.9471 70.295 32.7341 67.0112 32.7341 67.0112H29.4343C29.4343 67.0112 25.6473 70.295 23.7252 75.737H27.025Z" fill="#F9496E"/>
    <path d="M31.2598 75.737V82H22.6306C22.6306 79.6911 23.0698 77.5887 23.7252 75.737H31.2598Z" fill="#FFDCCE"/>
    <path d="M23.7252 75.737C23.0697 77.5887 22.6306 79.6911 22.6306 81.9998H25.9304C25.9304 79.691 26.3696 77.5887 27.025 75.737H23.7252Z" fill="#FFCABD"/>
    <path d="M59.3693 82H50.7401V75.737H58.2747C58.9301 77.5887 59.3693 79.6911 59.3693 82Z" fill="#FFDCCE"/>
    <path d="M40.9999 74.9739C44.1434 74.9739 46.6917 72.4256 46.6917 69.2821C46.6917 66.1386 44.1434 63.5903 40.9999 63.5903C37.8564 63.5903 35.3081 66.1386 35.3081 69.2821C35.3081 72.4256 37.8564 74.9739 40.9999 74.9739Z" fill="#FFCABD"/>
    <path d="M9.2253 50.0761L2.8255 44.5199L5.29062 49.379L9.2253 50.0761Z" fill="#4F4C5F"/>
    <path d="M68.4147 50.8752C75.1996 50.8752 80.6998 45.3749 80.6998 38.59C80.6998 31.8051 75.1996 26.3048 68.4147 26.3048C61.6298 26.3048 56.1295 31.8051 56.1295 38.59C56.1295 45.3749 61.6298 50.8752 68.4147 50.8752Z" fill="#FF748F"/>
    <path d="M13.5853 50.8752C20.3702 50.8752 25.8705 45.3749 25.8705 38.59C25.8705 31.8051 20.3702 26.3048 13.5853 26.3048C6.80042 26.3048 1.30017 31.8051 1.30017 38.59C1.30017 45.3749 6.80042 50.8752 13.5853 50.8752Z" fill="#FF748F"/>
    <path d="M68.4146 26.3048C64.3857 26.3048 60.8097 28.2443 58.5695 31.2405C61.4129 32.4176 64.0693 34.0376 66.4247 36.0551C68.012 37.4146 70.0185 38.1633 72.0749 38.1633C74.4811 38.1633 76.8083 37.1285 78.4589 35.3242L79.7679 33.8936C77.9233 29.4393 73.5357 26.3048 68.4146 26.3048Z" fill="#F9496E"/>
    <path d="M15.5754 36.0551C17.9309 34.0376 20.5871 32.4176 23.4305 31.2407C21.1903 28.2445 17.6143 26.305 13.5854 26.305C8.46429 26.305 4.07672 29.4395 2.23196 33.8937L3.54099 35.3245C5.19172 37.1287 7.51857 38.1635 9.92495 38.1635C11.9814 38.1633 13.988 37.4146 15.5754 36.0551Z" fill="#F9496E"/>
    <path d="M41 69.2821C57.8466 69.2821 71.5034 55.6253 71.5034 38.7788C71.5034 21.9322 57.8466 8.27542 41 8.27542C24.1535 8.27542 10.4967 21.9322 10.4967 38.7788C10.4967 55.6253 24.1535 69.2821 41 69.2821Z" fill="#FFDCCE"/>
    <path d="M29.8492 0.537659L32.9066 10.9434L25.8995 21.8869L9.54318 26.2132L13.2066 12.9129C15.1085 6.01252 21.1816 1.07866 28.3256 0.633683L29.8492 0.537659Z" fill="#4F4C5F"/>
    <path d="M19.4761 11.2631C20.7847 6.5153 24.068 2.69876 28.316 0.634567C21.176 1.0835 15.1075 6.01571 13.2065 12.913L9.54309 26.2133L15.8152 24.5541L19.4761 11.2631Z" fill="#423E4F"/>
    <path d="M72.457 26.2132L56.1007 21.8869L49.3637 11.8256L52.1512 0.537659L53.6745 0.633683C60.8186 1.07866 66.8917 6.01252 68.7935 12.9129L72.457 26.2132Z" fill="#4F4C5F"/>
    <path d="M56.1006 21.8869L40.9999 17.893L25.8992 21.8869L29.8489 0.537705L35.9183 0.159218C39.3029 -0.0531237 42.6968 -0.0531237 46.0814 0.159218L52.1509 0.537705L56.1006 21.8869Z" fill="#FF748F"/>
    <path d="M40.9311 16.5107L13.8613 24.8455C11.8039 28.8451 10.6028 33.3573 10.5046 38.1412C12.3556 38.0143 14.1374 37.2862 15.5749 36.0549C19.5116 32.683 24.2842 30.4116 29.3767 29.4861L35.7352 28.3307C37.4749 28.0146 39.2462 27.8542 41 27.8542C42.7537 27.8542 44.5249 28.0146 46.2644 28.3307L52.6229 29.4861C57.7155 30.4116 62.488 32.683 66.4246 36.0549C67.8622 37.286 69.6441 38.0143 71.495 38.1412C71.3946 33.2525 70.1437 28.6467 68.0029 24.5825L40.9311 16.5107Z" fill="#FFCABD"/>
    <path d="M76.2964 23.8388C70.3183 18.6078 63.1087 15.126 55.2139 13.6916L48.8554 12.5361C43.643 11.5891 38.3569 11.5891 33.1444 12.5361L26.7858 13.6916C18.8912 15.126 11.6815 18.6076 5.70327 23.8386C3.93095 25.3895 3.77206 28.2445 5.37511 29.9967L7.19264 31.9832C8.58334 33.5031 10.8048 33.6237 12.355 32.2958C16.9183 28.3872 22.5339 25.699 28.4917 24.6164L34.8502 23.4609C38.9306 22.7195 43.0687 22.7193 47.1492 23.4609L53.5078 24.6164C59.4656 25.699 65.0812 28.387 69.6445 32.2958C71.1949 33.6238 73.4163 33.5031 74.807 31.9832L76.6245 29.9967C78.2277 28.2445 78.0688 25.3895 76.2964 23.8388Z" fill="#E8E8E8"/>
    <path d="M40.9313 62.6031C40.9313 63.96 39.8301 65.0611 38.4732 65.0611H31.9842L29.751 62.6031L31.9842 60.1451H38.4732C39.8301 60.1452 40.9313 61.2447 40.9313 62.6031Z" fill="#FF748F"/>
    <path d="M25.4703 39.9795C24.7869 39.9795 24.2328 39.4254 24.2328 38.7421V35.7224C24.2328 35.039 24.7869 34.485 25.4703 34.485C26.1537 34.485 26.7077 35.039 26.7077 35.7224V38.7421C26.7077 39.4256 26.1537 39.9795 25.4703 39.9795Z" fill="#423E4F"/>
    <path d="M27.5265 43.9177H23.4136C22.7302 43.9177 22.1762 43.3636 22.1762 42.6802C22.1762 41.9968 22.7302 41.4428 23.4136 41.4428H27.5263C28.2097 41.4428 28.7637 41.9968 28.7637 42.6802C28.7639 43.3638 28.2099 43.9177 27.5265 43.9177Z" fill="#FF9DB0"/>
    <path d="M56.5299 39.9795C55.8465 39.9795 55.2925 39.4254 55.2925 38.7421V35.7224C55.2925 35.039 55.8465 34.485 56.5299 34.485C57.2133 34.485 57.7674 35.039 57.7674 35.7224V38.7421C57.7674 39.4256 57.2133 39.9795 56.5299 39.9795Z" fill="#423E4F"/>
    <path d="M58.5863 43.9177H54.4736C53.7902 43.9177 53.2362 43.3636 53.2362 42.6802C53.2362 41.9968 53.7902 41.4428 54.4736 41.4428H58.5863C59.2697 41.4428 59.8237 41.9968 59.8237 42.6802C59.8237 43.3638 59.2697 43.9177 58.5863 43.9177Z" fill="#FF9DB0"/>
    <path d="M41 48.6747C44.8044 53.43 50.4097 51.4594 53.366 49.8977C54.0831 49.5189 54.1341 48.5232 53.4698 48.0583C51.7752 46.8725 50.7886 44.276 49.3888 42.9715C47.214 40.9447 43.4675 39.7134 41.0002 41.9503C38.5329 39.7134 34.7863 40.9446 32.6116 42.9715C31.2118 44.276 30.225 46.8725 28.5306 48.0583C27.8662 48.5232 27.9173 49.5189 28.6344 49.8977C31.5903 51.4594 37.1957 53.4302 41 48.6747Z" fill="#4F4C5F"/>
    <path d="M13.5393 60.1451C12.3758 60.1451 11.3893 59.3127 11.1943 58.1674L9.2253 50.0761C6.49125 49.0378 4.22445 47.0528 2.8255 44.5201L6.34886 58.9983C6.95025 62.5116 9.97517 65.0613 13.5393 65.0613H31.984V60.1453H13.5393V60.1451Z" fill="#4F4C5F"/>
    <path d="M9.22529 50.0761C6.49125 49.0378 4.22445 47.0528 2.8255 44.5201L5.02119 53.5427C6.7092 54.5133 8.57622 55.2061 10.5596 55.5589L9.22529 50.0761Z" fill="#423E4F"/>
    </g>
    <defs>
    <clipPath id="clip0">
    <rect width="82" height="82" fill="white"/>
    </clipPath>
    </defs>
    </svg>
