<svg width="32" height="32" viewBox="0 0 32 32" fill="none" xmlns="http://www.w3.org/2000/svg">
<path d="M25.3333 14.6666H6.66667C5.19391 14.6666 4 15.8605 4 17.3332V26.6666C4 28.1393 5.19391 29.3332 6.66667 29.3332H25.3333C26.8061 29.3332 28 28.1393 28 26.6666V17.3332C28 15.8605 26.8061 14.6666 25.3333 14.6666Z" stroke="#262626" stroke-width="3" stroke-linecap="round" stroke-linejoin="round"/>
<path d="M9.33325 14.6666V9.33323C9.33325 7.56512 10.0356 5.86943 11.2859 4.61919C12.5361 3.36894 14.2318 2.66656 15.9999 2.66656C17.768 2.66656 19.4637 3.36894 20.714 4.61919C21.9642 5.86943 22.6666 7.56512 22.6666 9.33323V14.6666" stroke="#262626" stroke-width="3" stroke-linecap="round" stroke-linejoin="round"/>
</svg>
