<svg width="156" height="44" viewBox="0 0 156 44" fill="none" xmlns="http://www.w3.org/2000/svg">
<path d="M66.349 14.5336V31.2856H62.989V14.5336H66.349ZM79.8927 21.3016V24.1336H69.7167V21.3016H79.8927ZM89.4449 31.4536C88.2769 31.4536 87.2209 31.2536 86.2769 30.8536C85.3489 30.4536 84.6129 29.8776 84.0689 29.1256C83.5249 28.3736 83.2449 27.4856 83.2289 26.4616H86.8289C86.8769 27.1496 87.1169 27.6936 87.5489 28.0936C87.9969 28.4936 88.6049 28.6936 89.3729 28.6936C90.1569 28.6936 90.7729 28.5096 91.2209 28.1416C91.6689 27.7576 91.8929 27.2616 91.8929 26.6536C91.8929 26.1576 91.7409 25.7496 91.4369 25.4296C91.1329 25.1096 90.7489 24.8616 90.2849 24.6856C89.8369 24.4936 89.2129 24.2856 88.4129 24.0616C87.3249 23.7416 86.4369 23.4296 85.7489 23.1256C85.0769 22.8056 84.4929 22.3336 83.9969 21.7096C83.5169 21.0696 83.2769 20.2216 83.2769 19.1656C83.2769 18.1736 83.5249 17.3096 84.0209 16.5736C84.5169 15.8376 85.2129 15.2776 86.1089 14.8936C87.0049 14.4936 88.0289 14.2936 89.1809 14.2936C90.9089 14.2936 92.3089 14.7176 93.3809 15.5656C94.4689 16.3976 95.0689 17.5656 95.1809 19.0696H91.4849C91.4529 18.4936 91.2049 18.0216 90.7409 17.6536C90.2929 17.2696 89.6929 17.0776 88.9409 17.0776C88.2849 17.0776 87.7569 17.2456 87.3569 17.5816C86.9729 17.9176 86.7809 18.4056 86.7809 19.0456C86.7809 19.4936 86.9249 19.8696 87.2129 20.1736C87.5169 20.4616 87.8849 20.7016 88.3169 20.8936C88.7649 21.0696 89.3889 21.2776 90.1889 21.5176C91.2769 21.8376 92.1649 22.1576 92.8529 22.4776C93.5409 22.7976 94.1329 23.2776 94.6289 23.9176C95.1249 24.5576 95.3729 25.3976 95.3729 26.4376C95.3729 27.3336 95.1409 28.1656 94.6769 28.9336C94.2129 29.7016 93.5329 30.3176 92.6369 30.7816C91.7409 31.2296 90.6769 31.4536 89.4449 31.4536ZM102.198 20.7496V27.1816C102.198 27.6296 102.302 27.9576 102.51 28.1656C102.734 28.3576 103.102 28.4536 103.614 28.4536H105.174V31.2856H103.062C100.23 31.2856 98.8139 29.9096 98.8139 27.1576V20.7496H97.2299V17.9896H98.8139V14.7016H102.198V17.9896H105.174V20.7496H102.198ZM119.951 24.3496C119.951 24.8296 119.919 25.2616 119.855 25.6456H110.135C110.215 26.6056 110.551 27.3576 111.143 27.9016C111.735 28.4456 112.463 28.7176 113.327 28.7176C114.575 28.7176 115.463 28.1816 115.991 27.1096H119.615C119.231 28.3896 118.495 29.4456 117.407 30.2776C116.319 31.0936 114.983 31.5016 113.399 31.5016C112.119 31.5016 110.967 31.2216 109.943 30.6616C108.935 30.0856 108.143 29.2776 107.567 28.2376C107.007 27.1976 106.727 25.9976 106.727 24.6376C106.727 23.2616 107.007 22.0536 107.567 21.0136C108.127 19.9736 108.911 19.1736 109.919 18.6136C110.927 18.0536 112.087 17.7736 113.399 17.7736C114.663 17.7736 115.791 18.0456 116.783 18.5896C117.791 19.1336 118.567 19.9096 119.111 20.9176C119.671 21.9096 119.951 23.0536 119.951 24.3496ZM116.471 23.3896C116.455 22.5256 116.143 21.8376 115.535 21.3256C114.927 20.7976 114.183 20.5336 113.303 20.5336C112.471 20.5336 111.767 20.7896 111.191 21.3016C110.631 21.7976 110.287 22.4936 110.159 23.3896H116.471ZM138.915 17.7976C140.547 17.7976 141.859 18.3016 142.851 19.3096C143.859 20.3016 144.363 21.6936 144.363 23.4856V31.2856H141.003V23.9416C141.003 22.9016 140.739 22.1096 140.211 21.5656C139.683 21.0056 138.963 20.7256 138.051 20.7256C137.139 20.7256 136.411 21.0056 135.867 21.5656C135.339 22.1096 135.075 22.9016 135.075 23.9416V31.2856H131.715V23.9416C131.715 22.9016 131.451 22.1096 130.923 21.5656C130.395 21.0056 129.675 20.7256 128.763 20.7256C127.835 20.7256 127.099 21.0056 126.555 21.5656C126.027 22.1096 125.763 22.9016 125.763 23.9416V31.2856H122.403V17.9896H125.763V19.5976C126.195 19.0376 126.747 18.5976 127.419 18.2776C128.107 17.9576 128.859 17.7976 129.675 17.7976C130.715 17.7976 131.643 18.0216 132.459 18.4696C133.275 18.9016 133.907 19.5256 134.355 20.3416C134.787 19.5736 135.411 18.9576 136.227 18.4936C137.059 18.0296 137.955 17.7976 138.915 17.7976Z" fill="white"/>
<path d="M22.6605 3.11189C22.5756 3.19455 20.584 5.16344 20.584 7.62813L20.5842 7.67847C20.6119 10.1668 22.6736 12.1302 22.7613 12.2125C22.8349 12.2816 22.9407 12.3207 23.0515 12.3199C23.1623 12.319 23.2673 12.2783 23.3393 12.2081C23.4242 12.1254 25.4163 10.1569 25.4165 7.69174L25.4163 7.64141C25.388 5.15315 23.3262 3.18981 23.2385 3.10747C23.1648 3.0383 23.0591 2.99919 22.9481 3.00001C22.8375 3.00094 22.7325 3.0417 22.6605 3.11189Z" fill="#00D88C"/>
<path d="M4.06504 16.0292C4.13767 16.1195 5.87756 18.2477 8.72628 18.9108L8.78458 18.9241C11.6681 19.5715 14.4921 18.4451 14.6107 18.3968C14.7104 18.3564 14.784 18.282 14.8129 18.1928C14.8418 18.1037 14.8229 18.0085 14.7612 17.9318C14.6885 17.8416 12.9493 15.7129 10.1001 15.0496L10.0418 15.0362C7.1582 14.3895 4.33419 15.5158 4.21549 15.5641C4.11569 15.6045 4.04207 15.679 4.01316 15.7682C3.98438 15.8572 4.00328 15.9525 4.06504 16.0292Z" fill="#00D88C"/>
<path d="M41.9349 16.0287C41.8623 16.119 40.1224 18.2472 37.2737 18.9103L37.2154 18.9237C34.3319 19.571 31.5079 18.4446 31.3893 18.3964C31.2896 18.3559 31.216 18.2815 31.1871 18.1924C31.1582 18.1032 31.1771 18.008 31.2388 17.9313C31.3115 17.8411 33.0507 15.7124 35.8999 15.0491L35.9582 15.0357C38.8418 14.389 41.6658 15.5153 41.7845 15.5636C41.8843 15.604 41.9579 15.6785 41.9868 15.7677C42.0156 15.8567 41.9967 15.952 41.9349 16.0287Z" fill="#00D88C"/>
<path d="M36.2599 7.20149C36.0835 7.21292 31.9098 7.50945 29.0749 9.87184L29.0171 9.92032C26.1814 12.3274 25.8991 15.8558 25.8886 16.0048C25.8796 16.1298 25.9361 16.2517 26.0433 16.3395C26.1505 16.4273 26.298 16.4719 26.4477 16.4623C26.6239 16.4507 30.7978 16.1551 33.6336 13.7924L33.6912 13.7441C36.5262 11.3364 36.8084 7.80794 36.8191 7.659C36.828 7.53384 36.7715 7.41188 36.6643 7.32408C36.5572 7.23659 36.4096 7.19182 36.2599 7.20149Z" fill="#00D88C"/>
<path d="M9.74026 7.20149C9.91664 7.21292 14.0903 7.50945 16.9252 9.87184L16.983 9.92032C19.8188 12.3274 20.101 15.8558 20.1115 16.0048C20.1205 16.1298 20.0641 16.2517 19.9569 16.3395C19.8497 16.4273 19.7022 16.4719 19.5525 16.4623C19.3762 16.4507 15.2023 16.1551 12.3665 13.7924L12.309 13.7441C9.47395 11.3364 9.19171 7.80794 9.18109 7.659C9.17219 7.53384 9.22864 7.41188 9.33586 7.32408C9.44295 7.23659 9.59055 7.19182 9.74026 7.20149Z" fill="#00D88C"/>
<path d="M7.54208 29.4785C7.5558 29.3314 7.91165 25.8536 10.7467 23.4913L10.8048 23.4432C13.6934 21.0802 17.9278 20.845 18.1065 20.8362C18.2566 20.8287 18.403 20.8758 18.5082 20.9651C18.6136 21.0543 18.6672 21.1773 18.6556 21.3022C18.6417 21.4491 18.287 24.9272 15.4516 27.2902L15.3936 27.3381C12.5042 29.7005 8.26986 29.9357 8.09113 29.9446C7.94093 29.952 7.79456 29.9049 7.6892 29.8156C7.5842 29.7263 7.53047 29.6032 7.54208 29.4785Z" fill="#00D88C"/>
<path d="M38.4573 29.4785C38.4436 29.3314 38.0878 25.8536 35.2528 23.4913L35.1946 23.4432C32.306 21.0802 28.0716 20.845 27.8929 20.8362C27.7428 20.8287 27.5966 20.8758 27.4912 20.9651C27.386 21.0543 27.3322 21.1773 27.3438 21.3022C27.3577 21.4491 27.7124 24.9272 30.5478 27.2902L30.6059 27.3381C33.4952 29.7005 37.7296 29.9357 37.9083 29.9446C38.0585 29.952 38.2049 29.9049 38.3102 29.8156C38.4152 29.7263 38.4689 29.6032 38.4573 29.4785Z" fill="#00D88C"/>
<path d="M26.4065 40.9998C26.4962 41.0206 19.8827 39.8447 19.8827 39.8447L21.3287 27.9031C21.4964 26.282 21.3511 24.6925 20.8035 23.1447C20.4407 22.1191 19.933 21.1045 19.1925 20.2543C18.8407 19.8245 18.4349 19.4328 17.9967 19.0751C17.8924 18.9912 17.041 18.5035 17.041 18.4337C17.041 18.4432 18.0775 18.7959 18.1716 18.8385C18.8106 19.1334 19.4174 19.4885 19.9683 19.9056C20.7648 20.5086 21.4509 21.2016 22.0478 21.9642L23.0604 13.6016L24.0859 21.9986C24.6358 21.2952 25.2641 20.6587 25.9735 20.0718C26.5333 19.6504 27.1112 19.2612 27.7542 18.949C27.8558 18.8997 29.1189 18.4355 29.1189 18.4337C29.1189 18.4973 28.431 18.8692 28.3404 18.9373C27.8913 19.2754 27.4834 19.6611 27.1197 20.075C26.3169 20.9885 25.7487 22.0357 25.3564 23.1447C24.7659 24.8135 24.6258 26.5222 24.853 28.2795L26.4065 40.9998Z" fill="#F2994A"/>
</svg>