<svg width="226" height="160" viewBox="0 0 226 160" fill="none" xmlns="http://www.w3.org/2000/svg">
<path opacity="0.1" d="M212.896 38.2031H191.383C190.36 38.2031 189.522 37.4401 189.522 36.5077C189.522 35.5753 190.358 34.8122 191.383 34.8122H195.105C194.082 34.8122 193.244 34.0492 193.244 33.1168C193.244 32.1844 194.08 31.4232 195.105 31.4232H192.45C191.426 31.4232 190.588 30.6601 190.588 29.7277C190.588 28.7953 191.424 28.0323 192.45 28.0323H203.678C201.186 26.9752 198.28 26.2251 194.919 25.8325C164.302 22.2461 153.37 24.6172 149.509 27.0571C144.708 30.1296 139.369 32.2635 133.773 33.3457C114.883 36.8985 79.5557 41.1734 47.5356 31.9759C31.6214 27.4069 19.7941 35.1398 12.7034 48.039H216.631C216.365 44.2871 215.568 40.8217 214.105 37.79C213.76 38.0597 213.334 38.2052 212.896 38.2031Z" fill="#056AD4"/>
<path opacity="0.1" d="M5.4621 72.4044C4.63667 79.9975 4.91815 87.6702 6.29773 95.1823L195.176 101.48C200.38 96.0431 204.798 89.9039 208.299 83.2416L5.4621 72.4044ZM80.1608 88.6536H76.4386C77.4603 88.6536 78.2997 89.4167 78.2997 90.3491C78.2997 91.2815 77.4622 92.0427 76.4386 92.0427H54.9355C53.9138 92.0427 53.0744 91.2815 53.0744 90.3491C53.0744 89.4167 53.9119 88.6536 54.9355 88.6536H58.6577C57.636 88.6536 56.7966 87.8906 56.7966 86.9582C56.7966 86.0258 57.6341 85.2627 58.6577 85.2627H55.9982C54.9765 85.2627 54.1371 84.5015 54.1371 83.5691C54.1371 82.6367 54.9746 81.8737 55.9982 81.8737H77.5106C78.5342 81.8737 79.3717 82.6367 79.3717 83.5691C79.3717 84.5015 78.5361 85.2627 77.5106 85.2627H80.1608C81.1844 85.2627 82.0219 86.0258 82.0219 86.9582C82.0219 87.8906 81.19 88.6536 80.1608 88.6536Z" fill="#056AD4"/>
<path opacity="0.1" d="M216.64 48.1562L10.4309 52.729C7.91847 58.6081 6.25652 65.2541 5.48975 72.1439H213.026C214.377 68.1125 215.379 63.9724 216.022 59.7695C216.64 55.7197 216.888 51.804 216.64 48.1562ZM47.3587 63.1399H43.6366C44.6583 63.1399 45.4977 63.903 45.4977 64.8354C45.4977 65.7678 44.6602 66.5308 43.6366 66.5308H22.1261C21.1043 66.5308 20.265 65.7678 20.265 64.8354C20.265 63.903 21.1025 63.1399 22.1261 63.1399H25.8482C24.8265 63.1399 23.9871 62.3787 23.9871 61.4463C23.9871 60.5139 24.8246 59.7509 25.8482 59.7509H23.1887C22.167 59.7509 21.3276 58.9878 21.3276 58.0554C21.3276 57.123 22.1651 56.3599 23.1887 56.3599H44.7011C45.7247 56.3599 46.5622 57.123 46.5622 58.0554C46.5622 58.9878 45.7266 59.7509 44.7011 59.7509H47.3587C48.3805 59.7509 49.2198 60.5139 49.2198 61.4463C49.2198 62.3787 48.3805 63.1399 47.3587 63.1399Z" fill="#056AD4"/>
<path opacity="0.1" d="M7.2876 99.6545C10.6376 112.71 17.7302 123.996 28.9395 129.466C52.2441 140.835 104.77 134.971 143.977 128.241C164.263 124.759 182.081 115.157 195.033 101.627L7.2876 99.6545Z" fill="#056AD4"/>
<path d="M112.926 158.303C112.091 158.303 111.247 158.29 110.419 158.264L110.438 157.663C111.627 157.7 112.84 157.71 114.035 157.693L114.043 158.295C113.671 158.3 113.299 158.303 112.926 158.303ZM117.664 158.163L117.629 157.563C118.82 157.492 120.026 157.394 121.213 157.269L121.276 157.868C120.079 157.993 118.864 158.093 117.664 158.163V158.163ZM106.801 158.07C105.601 157.978 104.387 157.857 103.195 157.711L103.268 157.114C104.452 157.259 105.655 157.378 106.847 157.47L106.801 158.07ZM124.87 157.408L124.78 156.813C125.963 156.633 127.155 156.425 128.322 156.193L128.439 156.783C127.263 157.017 126.062 157.227 124.87 157.408ZM99.6094 157.188C98.4234 156.987 97.2262 156.756 96.0512 156.501L96.1789 155.912C97.3449 156.166 98.5329 156.395 99.71 156.594L99.6094 157.188ZM131.977 155.995L131.832 155.411C132.993 155.124 134.161 154.806 135.303 154.468L135.474 155.045C134.323 155.386 133.147 155.706 131.977 155.995ZM92.5286 155.65C91.3652 155.341 90.1944 155 89.0488 154.638L89.2301 154.064C90.3671 154.424 91.5289 154.762 92.6832 155.068L92.5286 155.65ZM138.923 153.934L138.726 153.366C139.853 152.974 140.986 152.551 142.095 152.107L142.318 152.666C141.201 153.113 140.059 153.54 138.923 153.934L138.923 153.934ZM85.6104 153.463C84.4805 153.048 83.3435 152.6 82.2314 152.131L82.4651 151.576C83.5687 152.041 84.6968 152.486 85.8182 152.898L85.6104 153.463ZM145.644 151.246L145.394 150.698C146.476 150.206 147.564 149.681 148.627 149.138L148.901 149.674C147.83 150.221 146.734 150.75 145.644 151.246ZM78.9184 150.645C77.8323 150.128 76.7421 149.577 75.6784 149.009L75.962 148.478C77.0177 149.042 78.0994 149.589 79.1773 150.102L78.9184 150.645ZM152.084 147.954L151.786 147.431C152.823 146.839 153.859 146.216 154.864 145.581L155.186 146.089C154.173 146.73 153.13 147.357 152.084 147.954ZM72.5179 147.226C71.4849 146.611 70.4503 145.963 69.4433 145.3L69.7745 144.797C70.7738 145.456 71.8004 146.099 72.8256 146.709L72.5179 147.226ZM158.2 144.084L157.856 143.591C158.833 142.908 159.808 142.193 160.754 141.466L161.121 141.943C160.168 142.676 159.185 143.396 158.2 144.084ZM66.4607 143.236C65.4892 142.531 64.5188 141.792 63.5761 141.039L63.9517 140.569C64.8872 141.315 65.8503 142.049 66.8143 142.749L66.4607 143.236ZM163.941 139.671L163.553 139.211C164.464 138.443 165.371 137.642 166.248 136.831L166.656 137.273C165.773 138.09 164.859 138.897 163.941 139.671ZM60.7952 138.713C59.8904 137.92 58.9915 137.096 58.1236 136.263L58.5404 135.829C59.4018 136.656 60.2938 137.474 61.1917 138.26L60.7952 138.713ZM169.26 134.752L168.832 134.329C169.671 133.478 170.502 132.598 171.3 131.712L171.747 132.115C170.943 133.007 170.106 133.894 169.26 134.752V134.752ZM55.567 133.695C54.7368 132.822 53.917 131.92 53.1302 131.013L53.5849 130.619C54.3656 131.518 55.1791 132.414 56.0031 133.28L55.567 133.695ZM174.112 129.367L173.647 128.985C174.405 128.062 175.152 127.109 175.867 126.153L176.349 126.514C175.629 127.477 174.876 128.437 174.112 129.367ZM50.8185 128.224C50.073 127.282 49.339 126.31 48.6367 125.334L49.1252 124.982C49.8222 125.951 50.5506 126.916 51.2905 127.851L50.8185 128.224ZM178.454 123.561L177.956 123.223C178.627 122.234 179.285 121.217 179.91 120.199L180.423 120.514C179.793 121.54 179.13 122.565 178.454 123.561ZM46.5897 122.348C45.9338 121.342 45.2919 120.308 44.6817 119.272L45.2001 118.967C45.8058 119.994 46.4429 121.021 47.0937 122.019L46.5897 122.348ZM182.251 117.379L181.724 117.088C182.302 116.042 182.863 114.968 183.393 113.896L183.933 114.163C183.399 115.243 182.833 116.325 182.251 117.379ZM42.9166 116.113C42.3553 115.052 41.811 113.964 41.2989 112.878L41.8432 112.621C42.3515 113.699 42.8915 114.779 43.4486 115.832L42.9166 116.113ZM185.465 110.872L184.914 110.63C185.393 109.535 185.854 108.413 186.283 107.296L186.845 107.512C186.413 108.638 185.948 109.768 185.465 110.872V110.872ZM39.8315 109.573C39.3701 108.466 38.9282 107.333 38.5182 106.205L39.084 105.999C39.4907 107.118 39.9292 108.243 40.387 109.341L39.8315 109.573ZM188.068 104.091L187.496 103.902C187.872 102.77 188.227 101.613 188.55 100.463L189.129 100.626C188.803 101.785 188.446 102.951 188.068 104.091L188.068 104.091ZM37.3588 102.772C37.0007 101.625 36.6641 100.453 36.3586 99.2885L36.9408 99.1357C37.244 100.291 37.578 101.454 37.9333 102.593L37.3588 102.772ZM190.03 97.1154L189.443 96.9791C189.713 95.819 189.959 94.6343 190.176 93.4584L190.768 93.5671C190.55 94.7525 190.301 95.946 190.03 97.1154L190.03 97.1154ZM35.5204 95.7629C35.2694 94.5873 35.0422 93.3896 34.8453 92.2025L35.439 92.1038C35.6345 93.282 35.86 94.4706 36.1091 95.6371L35.5204 95.7629ZM191.341 89.9895L190.745 89.9078C190.907 88.7289 191.043 87.5269 191.151 86.3348L191.751 86.3889C191.642 87.5903 191.504 88.8015 191.341 89.9895L191.341 89.9895ZM34.3342 88.6152C34.1922 87.4237 34.0757 86.2102 33.9877 85.0084L34.5881 84.9643C34.6753 86.1573 34.7911 87.3614 34.932 88.544L34.3342 88.6152ZM191.996 82.7738L191.394 82.7468C191.448 81.5542 191.475 80.3444 191.475 79.1515H192.077C192.077 80.3536 192.05 81.5724 191.996 82.7739L191.996 82.7738ZM33.8053 81.389C33.7847 80.651 33.7743 79.898 33.7742 79.1515C33.7742 78.6883 33.7781 78.226 33.7861 77.7646L34.388 77.7752C34.38 78.2331 34.3761 78.6918 34.3761 79.1515C34.3762 79.8924 34.3867 80.6398 34.4069 81.3725L33.8053 81.389ZM191.471 78.3118C191.459 77.1184 191.419 75.9089 191.352 74.7165L191.953 74.683C192.02 75.8845 192.06 77.1032 192.073 78.3054L191.471 78.3118ZM34.5309 74.1818L33.9301 74.1441C34.0052 72.9415 34.109 71.7268 34.2381 70.5337L34.8365 70.5985C34.7082 71.7826 34.6055 72.9881 34.5309 74.1818ZM191.071 71.1316C190.951 69.945 190.801 68.7444 190.627 67.5629L191.222 67.4751C191.398 68.6655 191.549 69.8752 191.67 71.0708L191.071 71.1316ZM35.3051 67.0332L34.7103 66.9412C34.8947 65.7504 35.109 64.5503 35.3472 63.3736L35.937 63.493C35.7007 64.6606 35.4881 65.8517 35.3051 67.0332ZM190.019 64.0189C189.79 62.8448 189.531 61.6628 189.249 60.506L189.834 60.3638C190.117 61.5294 190.378 62.7204 190.61 63.9034L190.019 64.0189ZM36.7309 59.9857L36.147 59.8393C36.4393 58.6736 36.763 57.4981 37.1093 56.3454L37.6856 56.5185C37.3422 57.6624 37.0209 58.8289 36.7309 59.9857ZM188.318 57.0323C187.982 55.8862 187.616 54.7333 187.228 53.6053L187.797 53.4096C188.188 54.5463 188.558 55.7082 188.896 56.863L188.318 57.0323ZM38.8029 53.0897L38.2351 52.8901C38.6351 51.7523 39.067 50.609 39.5187 49.492L40.0768 49.7177C39.6285 50.826 39.1998 51.9607 38.8029 53.0897H38.8029ZM185.981 50.2322C185.541 49.1245 185.071 48.0128 184.583 46.9279L185.132 46.6807C185.624 47.774 186.098 48.8942 186.54 50.0103L185.981 50.2322ZM41.5044 46.4093L40.9575 46.158C41.4602 45.0632 41.9952 43.9653 42.5478 42.8949L43.0827 43.1709C42.5343 44.2332 42.0033 45.3227 41.5044 46.4093ZM183.035 43.6899C182.496 42.6273 181.925 41.5625 181.338 40.5255L181.862 40.229C182.454 41.2741 183.029 42.347 183.571 43.4178L183.035 43.6899ZM44.808 40.0094L44.2864 39.709C44.8868 38.6664 45.52 37.6228 46.1685 36.6073L46.6758 36.9312C46.0323 37.939 45.4038 38.9747 44.8081 40.0094H44.808ZM179.499 37.4407C178.863 36.4282 178.197 35.4195 177.519 34.4426L178.013 34.0996C178.696 35.084 179.367 36.1004 180.008 37.1207L179.499 37.4407ZM48.6823 33.9425L48.1903 33.5957C48.8842 32.6116 49.6097 31.6307 50.3471 30.6802L50.8226 31.049C50.0909 31.9925 49.3707 32.9659 48.6823 33.9425ZM175.404 31.5372C174.679 30.5872 173.923 29.6427 173.158 28.7302L173.62 28.3435C174.39 29.2632 175.152 30.2147 175.883 31.1719L175.404 31.5372ZM53.0923 28.2571L52.6341 27.8668C53.4128 26.9522 54.2244 26.0418 55.0463 25.161L55.4863 25.5716C54.6707 26.4458 53.8653 27.3494 53.0923 28.2571ZM170.787 26.0276C169.979 25.1475 169.14 24.2752 168.295 23.4352L168.719 23.0082C169.571 23.8547 170.416 24.7335 171.23 25.6202L170.787 26.0276ZM57.9993 22.9988L57.5784 22.5685C58.4391 21.7265 59.3298 20.894 60.2254 20.0943L60.6263 20.5433C59.7374 21.3369 58.8535 22.163 57.9993 22.9988H57.9993ZM165.687 20.9583C164.801 20.1547 163.886 19.362 162.968 18.6024L163.352 18.1386C164.276 18.904 165.198 19.7026 166.091 20.5125L165.687 20.9583ZM63.3618 18.2101L62.9818 17.7433C63.9128 16.9852 64.8748 16.2375 65.8415 15.521L66.2 16.0045C65.2406 16.7157 64.2857 17.4577 63.3618 18.2101ZM160.144 16.3721C159.188 15.6522 158.204 14.9458 157.22 14.2726L157.56 13.7759C158.551 14.4541 159.543 15.1658 160.506 15.8913L160.144 16.3721ZM69.1348 13.9313L68.7989 13.4319C69.7952 12.7615 70.8209 12.1051 71.8477 11.4804L72.1604 11.9947C71.1416 12.6146 70.1236 13.2662 69.1348 13.9313ZM154.203 12.3088C153.186 11.6793 152.141 11.0656 151.098 10.4845L151.391 9.95875C152.442 10.5442 153.495 11.1627 154.52 11.7968L154.203 12.3088ZM75.2706 10.199L74.9817 9.67086C76.0358 9.09408 77.1166 8.53449 78.1941 8.00738L78.4586 8.54815C77.3894 9.07116 76.3168 9.62649 75.2706 10.199L75.2706 10.199ZM147.913 8.80444C146.842 8.27086 145.744 7.75534 144.652 7.27232L144.895 6.72184C145.996 7.20855 147.102 7.72802 148.181 8.26572L147.913 8.80444ZM81.7177 7.04558L81.4785 6.49334C82.58 6.01589 83.7068 5.55799 84.8275 5.13227L85.0412 5.69509C83.929 6.11743 82.8108 6.5718 81.7177 7.04557L81.7177 7.04558ZM141.323 5.89157C140.208 5.45939 139.068 5.04704 137.932 4.66615L138.124 4.09539C139.268 4.47938 140.417 4.89481 141.54 5.33052L141.323 5.89157ZM88.4316 4.49612L88.2441 3.92419C89.388 3.54917 90.555 3.19604 91.7127 2.87495L91.8736 3.45482C90.7248 3.77355 89.5666 4.12387 88.4316 4.49611L88.4316 4.49612ZM134.497 3.60118C133.349 3.27393 132.178 2.96915 131.017 2.69538L131.155 2.10963C132.325 2.38546 133.505 2.69259 134.662 3.0222L134.497 3.60118ZM95.3602 2.57326L95.2262 1.98648C96.3989 1.71859 97.5934 1.47451 98.7765 1.26113L98.8835 1.85335C97.7092 2.06524 96.5239 2.30742 95.3602 2.57325V2.57326ZM127.499 1.95121C126.327 1.73123 125.133 1.5355 123.95 1.36943L124.034 0.773403C125.225 0.94078 126.429 1.13799 127.61 1.35959L127.499 1.95121ZM102.436 1.29626L102.357 0.69963C103.548 0.540628 104.76 0.406904 105.958 0.302575L106.011 0.902136C104.821 1.00587 103.619 1.13842 102.436 1.29625L102.436 1.29626ZM120.378 0.95092C119.193 0.839235 117.986 0.753121 116.791 0.695368L116.821 0.0940513C118.024 0.152379 119.24 0.239098 120.435 0.351652L120.378 0.95092ZM109.6 0.671268L109.574 0.0699516C110.681 0.0238058 111.808 0.000294314 112.926 0L113.198 0.000428675L113.196 0.602346L112.926 0.601901C111.817 0.602195 110.697 0.625558 109.6 0.67126V0.671268Z" fill="#E6E6E6"/>
<path d="M113.115 157.892V124.978C113.116 124.517 113.299 124.075 113.625 123.749C113.951 123.423 114.393 123.24 114.854 123.239H118.803C119.265 123.24 119.707 123.423 120.033 123.749C120.359 124.075 120.542 124.517 120.543 124.978V157.892C120.542 158.353 120.359 158.795 120.033 159.121C119.707 159.447 119.265 159.631 118.803 159.631H114.854C114.393 159.631 113.951 159.447 113.625 159.121C113.299 158.795 113.116 158.353 113.115 157.892Z" fill="#2F2E41"/>
<path d="M105.304 157.892V124.978C105.305 124.517 105.488 124.075 105.814 123.749C106.14 123.423 106.582 123.24 107.044 123.239H110.993C111.454 123.24 111.896 123.423 112.222 123.749C112.548 124.075 112.731 124.517 112.732 124.978V157.892C112.731 158.353 112.548 158.795 112.222 159.121C111.896 159.447 111.454 159.631 110.993 159.631H107.044C106.582 159.631 106.14 159.447 105.814 159.121C105.488 158.795 105.305 158.353 105.304 157.892Z" fill="#2F2E41"/>
<path d="M120.918 114.112H104.929C104.042 114.112 103.323 114.831 103.323 115.718V133.779C103.323 134.666 104.042 135.385 104.929 135.385H120.918C121.805 135.385 122.523 134.666 122.523 133.779V115.718C122.523 114.831 121.805 114.112 120.918 114.112Z" fill="#2F2E41"/>
<path d="M86.0431 62.4014C86.0431 62.4014 77.9739 66.15 71.1455 68.636C66.9081 59.0705 60.8036 59.4285 60.8036 59.4285L57.1026 61.9768L57.77 65.7991L57.5879 72.0483L56.6172 75.3246L58.0102 75.5763L58.7971 75.719L58.9158 75.6117C58.7194 76.3898 58.6399 77.1927 58.68 77.9942L93.6877 72.5338C93.6877 72.5338 92.4743 66.8913 86.0431 62.4014Z" fill="#E6E6E6"/>
<path d="M75.7058 111.6L78.0529 114.776C78.5799 115.489 79.5851 115.64 80.2981 115.113L106.767 95.5507C107.48 95.0237 107.631 94.0185 107.104 93.3055L104.757 90.1296C104.23 89.4166 103.225 89.2658 102.512 89.7927L76.0427 109.355C75.3297 109.882 75.1788 110.887 75.7058 111.6Z" fill="#056AD4"/>
<path d="M120.808 89.0508L117.32 90.902C116.537 91.3176 116.239 92.2894 116.654 93.0726L132.083 122.146C132.499 122.929 133.471 123.227 134.254 122.811L137.742 120.96C138.525 120.545 138.823 119.573 138.407 118.79L122.979 89.7163C122.563 88.9332 121.591 88.6352 120.808 89.0508Z" fill="#056AD4"/>
<path d="M130.587 101.954L124.89 105.731C124.019 106.193 122.977 105.932 122.561 105.149L116.269 93.2932C115.854 92.5101 116.223 91.5006 117.093 91.0386L120.971 88.9808C121.842 88.5188 122.884 88.7792 123.3 89.5623L131.411 99.6993C131.827 100.482 131.458 101.492 130.587 101.954Z" fill="#CCCCCC"/>
<path d="M91.7644 98.4809L95.4673 103.398C95.7587 103.709 96.1615 103.891 96.587 103.904C97.0126 103.918 97.426 103.762 97.7365 103.47L107.523 94.2846C107.833 93.9932 108.015 93.5905 108.029 93.1649C108.042 92.7394 107.886 92.3259 107.595 92.0155L104.892 89.1361C104.601 88.8256 104.198 88.6437 103.772 88.6302C103.347 88.6167 102.933 88.7729 102.623 89.0642L91.8363 96.2118C91.5258 96.5031 91.3439 96.9059 91.3304 97.3315C91.3169 97.757 91.473 98.1705 91.7644 98.4809Z" fill="#CCCCCC"/>
<path d="M121.895 88.5778H103.952C103.065 88.5778 102.346 89.2965 102.346 90.1831V128.304C102.346 129.19 103.065 129.909 103.952 129.909H121.895C122.781 129.909 123.5 129.19 123.5 128.304V90.1831C123.5 89.2965 122.781 88.5778 121.895 88.5778Z" fill="#CCCCCC"/>
<path d="M112.819 86.09C120.727 86.09 127.138 79.6789 127.138 71.7704C127.138 63.862 120.727 57.4509 112.819 57.4509C104.91 57.4509 98.499 63.862 98.499 71.7704C98.499 79.6789 104.91 86.09 112.819 86.09Z" fill="#056AD4"/>
<path d="M114.488 76.5516C113.603 76.5267 112.502 76.4959 111.655 75.8766C111.402 75.6846 111.194 75.4397 111.047 75.159C110.899 74.8783 110.814 74.5686 110.798 74.2517C110.783 74.0265 110.82 73.8009 110.906 73.5924C110.993 73.3839 111.126 73.1982 111.296 73.0498C111.739 72.6756 112.386 72.5873 113.083 72.7927L112.361 67.5147L112.891 67.442L113.74 73.6468L113.297 73.4438C112.784 73.2081 112.079 73.0884 111.641 73.4584C111.534 73.5551 111.45 73.6753 111.397 73.8096C111.343 73.9439 111.322 74.0888 111.333 74.2329C111.346 74.4687 111.41 74.699 111.52 74.9081C111.63 75.1172 111.783 75.3001 111.97 75.4445C112.629 75.9263 113.507 75.9887 114.503 76.0164L114.488 76.5516Z" fill="#2F2E41"/>
<path d="M109.739 67.9697H106.857V68.5048H109.739V67.9697Z" fill="#2F2E41"/>
<path d="M118.836 67.9697H115.954V68.5048H118.836V67.9697Z" fill="#2F2E41"/>
<path d="M103.359 60.5805C101.038 60.3158 99.2407 58.0921 99.0433 55.8359C98.8084 53.1517 100.372 50.6023 102.516 49.0961C104.759 47.5209 107.553 46.8631 110.257 46.7183C115.531 46.4558 120.714 48.1642 124.798 51.5112C126.824 53.1938 128.716 55.337 129.433 57.9258C130.056 60.1741 129.549 62.721 127.741 64.2956C127.293 64.6815 126.771 64.9705 126.206 65.1443C125.642 65.3181 125.047 65.3731 124.46 65.3056C123.057 65.1599 121.763 64.4222 120.642 63.6074C118.462 62.0226 116.673 59.8147 114.017 58.9865C112.07 58.3793 109.543 58.9138 108.353 60.6747C108.083 61.0778 107.908 61.5369 107.841 62.0175C107.817 62.12 107.832 62.228 107.884 62.3196C107.936 62.4113 108.021 62.4797 108.122 62.5111C108.224 62.5388 108.334 62.5249 108.426 62.4724C108.519 62.4199 108.587 62.3331 108.615 62.2308C108.928 60.0129 111.655 59.1853 113.569 59.6918C116.359 60.4303 118.232 62.9202 120.521 64.5022C121.725 65.3339 123.094 65.9989 124.57 66.1182C125.843 66.2181 127.106 65.8301 128.103 65.033C130.058 63.4887 130.806 60.8325 130.374 58.441C129.873 55.6717 128.009 53.2982 125.964 51.4606C121.818 47.7747 116.435 45.7863 110.889 45.8916C108.06 45.9565 105.108 46.5406 102.671 48.0358C100.306 49.4862 98.4793 51.9127 98.2404 54.7333C98.0302 57.216 99.3622 59.8127 101.649 60.9004C102.188 61.1557 102.766 61.3189 103.359 61.3832C103.871 61.4416 103.867 60.6384 103.359 60.5805H103.359Z" fill="#2F2E41"/>
<path d="M58.7713 75.2337L60.4701 74.6876C60.6522 74.3388 60.3191 74.5626 60.478 74.2235C64.776 65.0541 60.8038 59.4286 60.8038 59.4286L57.731 61.5444C57.7234 61.527 57.7172 61.509 57.7096 61.4915C57.7096 61.4915 57.1635 60.2781 56.3141 61.1881C56.3141 61.1881 58.9837 67.6801 56.0107 75.7494L59.469 77.3269L60.8038 75.7494L60.8342 75.5977L58.4454 75.3806L58.7713 75.2337Z" fill="#CCCCCC"/>
<path d="M107.218 109.301C93.5665 106.267 80.8557 112.547 80.8557 112.547L80.8211 112.516L75.7593 107.996L55.9802 75.719L60.8036 75.7493C74.2121 67.7406 93.0811 68.8327 93.0811 68.8327C101.211 78.0549 107.218 109.301 107.218 109.301Z" fill="#3F3D56"/>
<path opacity="0.1" d="M80.8211 112.516L75.7593 107.997L55.9802 75.7191L60.8036 75.7495C60.8036 75.7495 80.0282 101.14 80.8211 112.516Z" fill="black"/>
<path d="M83.0427 87.3314C87.1752 86.0638 89.8722 82.9068 89.0664 80.2799C88.2607 77.653 84.2575 76.551 80.1249 77.8186C75.9924 79.0861 73.2955 82.2432 74.1012 84.87C74.9069 87.4969 78.9102 88.5989 83.0427 87.3314Z" fill="#056AD4"/>
<path d="M40.7891 60.069C39.6991 64.0982 35.9657 66.5936 35.9657 66.5936C35.9657 66.5936 33.9994 62.5563 35.0894 58.5271C36.1794 54.4978 39.9128 52.0024 39.9128 52.0024C39.9128 52.0024 41.8791 56.0397 40.7891 60.069Z" fill="#CCCCCC"/>
<path d="M30.8731 60.069C31.9631 64.0982 35.6965 66.5936 35.6965 66.5936C35.6965 66.5936 37.6628 62.5563 36.5728 58.5271C35.4828 54.4978 31.7494 52.0024 31.7494 52.0024C31.7494 52.0024 29.7831 56.0397 30.8731 60.069Z" fill="#CCCCCC"/>
<path d="M32.4749 59.203C35.4658 62.1146 35.8311 66.5903 35.8311 66.5903C35.8311 66.5903 31.3472 66.3455 28.3563 63.4339C25.3653 60.5224 25 56.0466 25 56.0466C25 56.0466 29.4839 56.2915 32.4749 59.203Z" fill="#3F3D56"/>
<path d="M39.1873 59.203C36.1964 62.1146 35.8311 66.5903 35.8311 66.5903C35.8311 66.5903 40.315 66.3455 43.3059 63.4339C46.2969 60.5224 46.6622 56.0466 46.6622 56.0466C46.6622 56.0466 42.1782 56.2915 39.1873 59.203Z" fill="#3F3D56"/>
<path d="M190.889 105.554C189.799 109.583 186.066 112.079 186.066 112.079C186.066 112.079 184.1 108.041 185.19 104.012C186.28 99.9828 190.013 97.4874 190.013 97.4874C190.013 97.4874 191.979 101.525 190.889 105.554Z" fill="#CCCCCC"/>
<path d="M180.973 105.554C182.063 109.583 185.797 112.079 185.797 112.079C185.797 112.079 187.763 108.041 186.673 104.012C185.583 99.9828 181.85 97.4874 181.85 97.4874C181.85 97.4874 179.883 101.525 180.973 105.554Z" fill="#CCCCCC"/>
<path d="M182.575 104.688C185.566 107.6 185.931 112.075 185.931 112.075C185.931 112.075 181.448 111.83 178.457 108.919C175.466 106.007 175.1 101.532 175.1 101.532C175.1 101.532 179.584 101.776 182.575 104.688Z" fill="#3F3D56"/>
<path d="M189.288 104.688C186.297 107.6 185.931 112.075 185.931 112.075C185.931 112.075 190.415 111.83 193.406 108.919C196.397 106.007 196.763 101.532 196.763 101.532C196.763 101.532 192.279 101.776 189.288 104.688Z" fill="#3F3D56"/>
<path d="M144.321 159.465H82.2476V160H144.321V159.465Z" fill="#3F3D56"/>
</svg>
