<svg width="212" height="162" viewBox="0 0 212 162" fill="none" xmlns="http://www.w3.org/2000/svg">
<g clip-path="url(#clip0)">
<path opacity="0.1" d="M207.893 16.2039H186.381C185.357 16.2039 184.52 15.4408 184.52 14.5084C184.52 13.576 185.355 12.813 186.381 12.813H190.103C189.08 12.813 188.242 12.0499 188.242 11.1175C188.242 10.1851 189.078 9.42391 190.103 9.42391H187.447C186.424 9.42391 185.586 8.66086 185.586 7.72845C185.586 6.79605 186.422 6.033 187.447 6.033H198.675C196.183 4.9759 193.278 4.22588 189.917 3.83319C159.3 0.246862 148.368 2.61789 144.506 5.05779C139.706 8.1303 134.367 10.2642 128.771 11.3464C109.881 14.8992 74.5535 19.1742 42.5334 9.97665C26.6192 5.40767 14.7919 13.1405 7.70117 26.0397H211.629C211.362 22.2878 210.566 18.8224 209.103 15.7907C208.758 16.0604 208.332 16.206 207.893 16.2039Z" fill="#056AD4"/>
<path opacity="0.1" d="M0.459905 50.4052C-0.365522 57.9982 -0.0840425 65.6709 1.29554 73.1831L190.174 79.481C195.378 74.0438 199.795 67.9046 203.297 61.2423L0.459905 50.4052ZM75.1586 66.6543H71.4364C72.4581 66.6543 73.2975 67.4174 73.2975 68.3498C73.2975 69.2822 72.46 70.0434 71.4364 70.0434H49.9333C48.9116 70.0434 48.0722 69.2822 48.0722 68.3498C48.0722 67.4174 48.9097 66.6543 49.9333 66.6543H53.6555C52.6338 66.6543 51.7944 65.8913 51.7944 64.9589C51.7944 64.0265 52.6319 63.2634 53.6555 63.2634H50.996C49.9743 63.2634 49.1349 62.5023 49.1349 61.5698C49.1349 60.6374 49.9724 59.8744 50.996 59.8744H72.5084C73.532 59.8744 74.3695 60.6374 74.3695 61.5698C74.3695 62.5023 73.5339 63.2634 72.5084 63.2634H75.1586C76.1822 63.2634 77.0197 64.0265 77.0197 64.9589C77.0197 65.8913 76.1878 66.6543 75.1586 66.6543Z" fill="#056AD4"/>
<path opacity="0.1" d="M211.638 26.157L5.42875 30.7297C2.91628 36.6089 1.25432 43.2548 0.487549 50.1446H208.024C209.375 46.1132 210.377 41.9732 211.02 37.7702C211.638 33.7205 211.885 29.8047 211.638 26.157ZM42.3566 41.1406H38.6344C39.6561 41.1406 40.4955 41.9037 40.4955 42.8361C40.4955 43.7685 39.658 44.5315 38.6344 44.5315H17.1239C16.1021 44.5315 15.2628 43.7685 15.2628 42.8361C15.2628 41.9037 16.1003 41.1406 17.1239 41.1406H20.846C19.8243 41.1406 18.9849 40.3795 18.9849 39.447C18.9849 38.5146 19.8224 37.7516 20.846 37.7516H18.1865C17.1648 37.7516 16.3254 36.9885 16.3254 36.0561C16.3254 35.1237 17.1629 34.3607 18.1865 34.3607H39.6989C40.7225 34.3607 41.56 35.1237 41.56 36.0561C41.56 36.9885 40.7244 37.7516 39.6989 37.7516H42.3566C43.3783 37.7516 44.2176 38.5146 44.2176 39.447C44.2176 40.3795 43.3783 41.1406 42.3566 41.1406Z" fill="#056AD4"/>
<path d="M54.3999 90.1172L54.385 90.7965L54.2324 90.147L54.3999 90.1172Z" fill="#FDC2CC"/>
<path opacity="0.05" d="M54.3999 90.1172L54.385 90.7965L54.2324 90.147L54.3999 90.1172Z" fill="black"/>
<path opacity="0.1" d="M2.2854 77.6553C5.63537 90.7108 12.728 101.996 23.9374 107.466C47.242 118.836 99.7676 112.971 138.975 106.242C159.261 102.76 177.079 93.1582 190.031 79.628L2.2854 77.6553Z" fill="#056AD4"/>
<path opacity="0.1" d="M103.447 144.714C111.179 144.714 117.448 143.307 117.448 141.571C117.448 139.835 111.179 138.427 103.447 138.427C95.7143 138.427 89.4458 139.835 89.4458 141.571C89.4458 143.307 95.7143 144.714 103.447 144.714Z" fill="#056AD4"/>
<path opacity="0.1" d="M135.981 153.627C149.931 153.627 161.239 152.699 161.239 151.554C161.239 150.409 149.931 149.48 135.981 149.48C122.031 149.48 110.722 150.409 110.722 151.554C110.722 152.699 122.031 153.627 135.981 153.627Z" fill="#056AD4"/>
<path opacity="0.1" d="M34.5642 151.554C48.5142 151.554 59.8229 150.146 59.8229 148.41C59.8229 146.674 48.5142 145.267 34.5642 145.267C20.6141 145.267 9.30542 146.674 9.30542 148.41C9.30542 150.146 20.6141 151.554 34.5642 151.554Z" fill="#056AD4"/>
<path opacity="0.1" d="M73.0758 135.818C83.5722 135.818 92.0813 134.411 92.0813 132.675C92.0813 130.939 83.5722 129.531 73.0758 129.531C62.5794 129.531 54.0703 130.939 54.0703 132.675C54.0703 134.411 62.5794 135.818 73.0758 135.818Z" fill="#056AD4"/>
<path opacity="0.1" d="M78.3817 162C86.7844 162 93.5961 160.593 93.5961 158.857C93.5961 157.12 86.7844 155.713 78.3817 155.713C69.979 155.713 63.1672 157.12 63.1672 158.857C63.1672 160.593 69.979 162 78.3817 162Z" fill="#056AD4"/>
<path d="M87.2777 57.8941C86.8757 55.1881 84.4172 48.8734 84.4172 48.8734C84.3744 48.6873 84.326 48.5012 84.272 48.3151C82.5282 42.3224 80.1144 41.8013 80.1144 41.8013L71.4677 39.9402C71.5402 39.9855 71.6034 40.0442 71.6538 40.1133C71.6082 40.1175 71.5628 40.1243 71.518 40.1337C71.1221 39.6663 70.8603 39.1003 70.7605 38.496C70.7438 38.4066 70.7289 38.3099 70.7177 38.2187C71.3387 37.6133 71.8231 36.8822 72.1384 36.0743C72.4536 35.2664 72.5925 34.4005 72.5456 33.5345C72.4987 32.6686 72.2672 31.8227 71.8665 31.0535C71.4659 30.2844 70.9054 29.6099 70.2227 29.0751C70.1315 29.0044 70.0366 28.9355 69.9454 28.8704C70.3529 28.4368 70.366 27.8338 70.0607 27.2308C69.3796 25.8163 67.8982 24.9212 66.3758 24.4838C65.2126 24.1507 63.9564 24.0427 62.7988 24.4075C62.1418 24.6159 61.5425 24.9658 60.9265 25.2766C59.7782 25.8498 58.5071 26.304 57.6491 27.2475C57.4481 27.4671 57.262 27.7482 57.3216 28.0385C57.3662 28.2544 57.5375 28.4219 57.6473 28.6136C57.8948 29.0435 57.8334 29.5851 57.664 30.0541C57.4947 30.5231 57.2471 30.9585 57.1299 31.4387C57.0126 31.9189 57.0573 32.4846 57.4183 32.8289C57.5915 32.9626 57.7716 33.0868 57.9581 33.2012C58.1556 33.3695 58.3291 33.5643 58.4736 33.78C58.816 34.239 59.1572 34.7 59.4972 35.1628C59.9772 35.7761 60.406 36.4278 60.7795 37.1113C61.0345 37.6138 61.2317 38.1498 61.5723 38.6002C61.6721 38.7317 61.7864 38.8515 61.9129 38.9575L61.8124 38.9184C61.9604 39.069 62.1376 39.1878 62.3331 39.2675C62.5287 39.3472 62.7384 39.3861 62.9495 39.3819C62.9681 39.3819 62.9849 39.3819 63.0016 39.3819C63.0793 39.3802 63.1536 39.3497 63.2101 39.2962C63.2101 39.3595 63.2101 39.4228 63.2101 39.4823C63.2305 40.1468 63.2268 40.854 63.1803 41.5184L63.1003 41.4774C62.9816 41.4184 62.8485 41.3944 62.7167 41.4083C62.5848 41.4221 62.4597 41.4732 62.3558 41.5556L54.3959 47.9429C54.3959 47.9429 52.6651 50.3102 52.9071 54.3971L51.5112 60.5257C51.5112 60.5257 49.7674 65.7256 51.1092 69.4385C52.4511 73.1514 53.229 75.2749 53.229 75.2749C53.229 75.2749 53.765 79.494 54.5709 79.8383C55.3767 80.1826 55.7248 80.3687 55.7248 80.3687L55.8848 81.3774C55.8848 81.3774 55.9388 81.4761 56.0337 81.6417C56.6199 82.6616 58.7918 86.2609 60.0537 85.8757C60.2125 86.8531 60.281 87.843 60.2584 88.8329L61.5072 97.2172C61.5072 97.2172 62.3782 99.497 62.3242 100.692C62.2702 101.887 63.3403 103.59 63.3403 103.59C62.6902 104.78 62.4995 106.167 62.8044 107.489C63.3143 109.722 63.9582 120.01 63.9582 120.01L64.8888 122.504L64.8627 125.428C64.7863 125.904 64.5875 126.353 64.2858 126.73C63.6828 127.385 63.7275 128.143 62.2739 129.038C60.8204 129.933 59.8992 130.272 59.8992 131.458C59.8974 131.623 59.8825 131.788 59.8545 131.951C59.7205 132.822 59.46 133.294 62.1325 133.548C65.2722 133.845 67.3659 131.798 67.3659 131.798C67.3659 131.798 67.8274 130.961 70.0012 130.622C70.0012 130.622 70.7456 130.583 70.7847 129.926C70.7996 129.699 70.7959 129.265 70.7847 128.787C70.7494 127.877 70.6619 126.814 70.5465 126.762C70.4013 126.697 70.1482 125.781 70.0607 125.45H70.6656C70.6656 125.45 71.2239 121.231 70.6656 118.499C70.1073 115.767 70.6116 113.829 70.6116 113.829L70.5037 106.614C70.5037 106.614 69.7593 105.817 70.3436 104.41C70.928 103.003 70.3436 96.054 70.3436 96.054C70.3436 96.054 70.5595 93.5601 71.1755 92.9757C71.7916 92.3914 71.2053 89.3224 71.1755 89.1624L72.2736 92.8455C72.2736 92.8455 72.7556 100.167 73.7774 101.492L74.0714 104.809C74.0714 104.809 76.1633 107.861 75.7613 109.504C75.3593 111.147 76.1912 117.092 76.1912 117.092V123.168C76.1912 123.168 75.2513 125.608 76.5634 126.485L77.1217 126.462C76.9356 126.635 76.7923 126.896 76.5746 127.121C76.3233 127.38 76.18 128.364 76.1 129.211C76.033 129.928 76.0107 130.544 76.0107 130.544C76.0107 130.544 76.569 131.437 77.6205 131.498C78.672 131.56 82.1374 134.195 82.1374 134.195C82.1374 134.195 85.5599 134.195 86.4458 134.009L86.4979 133.996C86.7823 133.907 87.0214 133.711 87.1661 133.451C87.3435 133.148 87.4006 132.79 87.3261 132.448C87.2163 131.925 86.8013 131.351 85.8819 130.864C83.5946 129.658 83.254 128.528 83.254 128.528L81.7521 126.274H81.9662C81.9662 126.274 81.834 123.887 83.4681 121.207L83.362 109.402C83.362 109.402 84.032 105.343 82.88 103.139C82.88 103.139 82.785 100.805 83.5555 100.089C84.326 99.3723 82.5301 92.1308 82.5301 92.1308C82.5301 92.1308 82.1579 88.243 81.7205 84.6957C83.5313 86.4135 85.4092 80.2291 85.7256 79.1292H85.7721L85.7516 79.0492C85.7646 78.9971 85.7721 78.971 85.7721 78.971C85.7721 78.971 85.3701 77.5417 85.6642 77.832C85.9582 78.1224 86.684 77.0355 86.684 77.0355C86.684 77.0355 86.5761 71.1191 87.8379 68.1376C89.0997 65.1561 87.2777 57.8941 87.2777 57.8941ZM81.8805 61.6591L81.8899 61.6424C82.076 65.2548 81.8545 72.9634 81.8545 72.9634C81.8545 72.9634 81.6051 73.9516 81.339 75.1148L81.1529 67.7914L80.9668 60.8924L81.8805 61.6591ZM58.7825 59.169C58.7825 59.169 59.6945 70.5756 58.7825 72.2208C58.5238 72.6898 58.3061 73.5236 58.1256 74.4746C57.8241 73.6837 57.1857 71.8263 57.4146 70.8418C57.7105 69.5688 56.8247 66.2244 56.8247 66.1462C56.8247 66.0681 56.7446 64.2851 57.383 62.9228C58.0213 61.5605 57.6026 60.9705 57.6026 60.9705C57.6026 60.9705 58.1386 58.7372 58.7825 59.169Z" fill="url(#paint0_linear)"/>
<path d="M61.0048 84.8596C60.2101 88.3529 57.05 83.0711 56.3297 81.8037C56.2367 81.638 56.1846 81.5412 56.1846 81.5412L56.527 79.9351L58.3379 79.1907C58.6246 79.3405 58.8963 79.5175 59.1493 79.7192C60.1413 80.499 61.6171 82.1535 61.0048 84.8596Z" fill="#D38884"/>
<path d="M85.5209 79.1441C85.5209 79.1441 85.5209 79.1701 85.5005 79.2223C85.5005 79.2446 85.4856 79.2744 85.4763 79.306C85.1655 80.3966 83.323 86.5364 81.5438 84.8316C79.5971 82.9705 80.5425 78.6676 80.5425 78.6676H80.5555L84.6499 78.2489L85.4614 79.0827L85.5209 79.1441Z" fill="#D38884"/>
<path d="M83.1517 109.359L83.2559 121.084C81.6498 123.745 81.7819 126.109 81.7819 126.109L76.489 126.317C75.1974 125.448 76.1167 123.027 76.1167 123.027V116.989C76.1167 116.989 75.2997 111.092 75.6943 109.458C76.0888 107.824 74.036 104.805 74.036 104.805L73.7457 101.513C72.7444 100.197 72.2699 92.9293 72.2699 92.9293L71.196 89.2592C71.2258 89.4174 71.7841 92.4807 71.196 93.0446C70.6079 93.6086 70.379 96.0987 70.379 96.0987C70.379 96.0987 70.9578 103 70.379 104.394C69.8002 105.788 70.5353 106.58 70.5353 106.58L70.6414 113.744C70.6414 113.744 70.1408 115.666 70.6935 118.378C71.2463 121.089 70.6935 125.279 70.6935 125.279H65.0153L65.0414 122.355L64.122 119.88C64.122 119.88 63.4892 109.662 62.9886 107.45C62.6889 106.138 62.8754 104.763 63.5134 103.578C63.5134 103.578 62.4619 101.894 62.514 100.709C62.5661 99.5231 61.7026 97.2619 61.7026 97.2619L60.478 88.9409C60.5117 87.3395 60.3072 85.742 59.8712 84.2007C59.1603 81.8297 58.1069 78.7217 58.1069 78.7217L59.2962 78.8278L65.2963 79.3619C65.2963 79.3619 79.8855 78.3811 80.5387 79.1963C80.6765 79.4628 80.7696 79.7501 80.8141 80.0468C81.4692 82.9892 82.3347 92.2072 82.3347 92.2072C82.3347 92.2072 84.099 99.3966 83.3415 100.107C82.584 100.818 82.6771 103.134 82.6771 103.134C83.8124 105.32 83.1517 109.359 83.1517 109.359Z" fill="#444053"/>
<path d="M70.8182 129.725C70.7772 130.378 70.0495 130.417 70.0495 130.417C67.9167 130.752 67.4626 131.582 67.4626 131.582C67.4626 131.582 65.4154 133.616 62.3279 133.32C59.7037 133.067 59.9587 132.6 60.0945 131.735C60.1209 131.574 60.1353 131.411 60.1374 131.247C60.1374 130.062 61.0456 129.725 62.4674 128.828C63.8893 127.931 63.8502 127.188 64.4421 126.537C65.0339 125.885 65.0953 124.622 65.0953 124.622C65.7653 123.455 67.4645 124.808 67.4645 124.808C67.5445 125.221 70.07 125.163 70.07 125.163C70.07 125.163 70.405 126.507 70.5781 126.585C70.6916 126.637 70.7772 127.691 70.8107 128.595C70.8293 129.07 70.833 129.5 70.8182 129.725Z" fill="#B07473"/>
<path opacity="0.1" d="M70.8182 129.725C70.7772 130.378 70.0495 130.417 70.0495 130.417C67.9167 130.752 67.4626 131.582 67.4626 131.582C67.4626 131.582 65.4154 133.616 62.3279 133.32C59.7037 133.067 59.9587 132.6 60.0945 131.735C61.267 132.025 63.5078 132.431 64.8161 131.72C66.6344 130.734 67.9391 130.045 67.9391 130.045L70.8126 128.599C70.8293 129.07 70.8331 129.5 70.8182 129.725Z" fill="black"/>
<path d="M86.8925 133.24C86.7525 133.499 86.5176 133.693 86.2374 133.782L86.1871 133.795C85.318 133.981 81.9587 133.981 81.9587 133.981C81.9587 133.981 78.5622 131.355 77.5349 131.296C76.5076 131.236 75.9548 130.346 75.9548 130.346C75.9548 130.346 75.9753 129.736 76.0404 129.025C76.1205 128.184 76.26 127.207 76.5076 126.95C76.9617 126.475 77.0659 125.833 78.0876 126.239C78.0876 126.239 79.5467 123.667 81.2664 125.655L83.0456 128.353C83.0456 128.353 83.3806 129.47 85.6344 130.681C86.5352 131.165 86.9372 131.735 87.0507 132.254C87.1223 132.591 87.0659 132.943 86.8925 133.24Z" fill="#B07473"/>
<path opacity="0.1" d="M86.8925 133.241C86.6915 133.41 86.47 133.592 86.2374 133.782L86.1871 133.795C85.318 133.981 81.9587 133.981 81.9587 133.981C81.9587 133.981 78.5622 131.355 77.5349 131.296C76.5076 131.236 75.9548 130.347 75.9548 130.347C75.9548 130.347 75.9753 129.736 76.0404 129.025C77.0864 129.338 78.6702 129.891 79.0945 130.486C79.7459 131.392 81.7242 132.658 81.7242 132.658C81.7242 132.658 85.4129 132.303 87.0507 132.254C87.1223 132.591 87.0659 132.943 86.8925 133.241Z" fill="black"/>
<path d="M72.5378 41.3415L67.6804 46.4763C67.6804 46.4763 61.7937 46.0427 62.821 44.3044C63.344 43.4185 63.4259 41.5649 63.3794 39.9532C63.3366 38.3992 63.1765 37.0759 63.1765 37.0759C63.1765 37.0759 71.4323 32.9666 70.807 36.7986C70.6723 37.5207 70.6647 38.2607 70.7847 38.9854C71.1364 40.9209 72.5378 41.3415 72.5378 41.3415Z" fill="#D38884"/>
<path opacity="0.1" d="M70.7996 36.7986C70.6649 37.5207 70.6573 38.2607 70.7772 38.9854C70.2126 39.5576 69.5397 40.0118 68.7977 40.3214C68.0558 40.631 67.2597 40.7899 66.4558 40.7888C65.3391 40.7888 64.1313 39.8713 63.2286 39.3409C63.1858 37.785 63.1765 37.0759 63.1765 37.0759C63.1765 37.0759 71.4324 32.9666 70.7996 36.7986Z" fill="black"/>
<path d="M72.5379 34.3885C72.5384 35.767 72.0708 37.1047 71.2116 38.1826C70.3525 39.2606 69.1528 40.0148 67.8089 40.3218C66.4651 40.6288 65.0569 40.4703 63.8149 39.8724C62.5729 39.2744 61.5708 38.2724 60.9727 37.0305C60.3746 35.7886 60.2159 34.3803 60.5227 33.0365C60.8296 31.6926 61.5837 30.4928 62.6615 29.6335C63.7393 28.7742 65.077 28.3064 66.4555 28.3068C67.8339 28.3071 69.1714 28.7755 70.2488 29.6353C70.9627 30.2049 71.5391 30.928 71.9354 31.7509C72.3317 32.5737 72.5376 33.4752 72.5379 34.3885Z" fill="#D38884"/>
<path opacity="0.1" d="M80.8143 80.0467C79.2993 83.6516 69.5547 83.7261 69.5547 83.7261V79.7955L68.9647 79.7564C69.2197 80.8823 68.6074 83.6274 68.6074 83.6274C60.9062 84.7143 59.0283 80.3259 59.0283 80.3259L59.2963 78.824L65.2965 79.3581C65.2965 79.3581 79.8856 78.3773 80.5388 79.1925C80.677 79.4601 80.7701 79.7488 80.8143 80.0467Z" fill="black"/>
<path d="M69.5547 83.2515V79.3209L68.9647 79.2837C69.2197 80.4003 68.6074 83.1547 68.6074 83.1547C62.8119 83.9717 60.3143 81.69 59.434 80.5101C59.2758 80.3069 59.1397 80.0873 59.0283 79.855L61.3807 66.6226L61.9391 47.1482L62.7821 43.7312L62.9776 42.0916V42.073H62.998L63.5973 42.3298L67.1836 43.8801L71.2576 40.8037L71.3171 40.7609L71.52 40.6064L71.8568 40.8763L72.6943 41.5482L75.3799 58.8917C75.3799 58.8917 80.0326 72.245 80.9036 77.6347C80.939 77.8506 80.9669 78.0516 80.9892 78.2396C81.5643 83.1603 69.5547 83.2515 69.5547 83.2515Z" fill="#056AD4"/>
<path d="M67.6191 44.6097C67.8103 44.6097 67.9653 44.4547 67.9653 44.2635C67.9653 44.0723 67.8103 43.9174 67.6191 43.9174C67.4279 43.9174 67.2729 44.0723 67.2729 44.2635C67.2729 44.4547 67.4279 44.6097 67.6191 44.6097Z" fill="#67647E"/>
<path d="M67.779 47.7699C67.9702 47.7699 68.1252 47.6149 68.1252 47.4237C68.1252 47.2325 67.9702 47.0775 67.779 47.0775C67.5878 47.0775 67.4329 47.2325 67.4329 47.4237C67.4329 47.6149 67.5878 47.7699 67.779 47.7699Z" fill="#67647E"/>
<path d="M68.1252 52.8859C68.3164 52.8859 68.4714 52.7309 68.4714 52.5398C68.4714 52.3486 68.3164 52.1936 68.1252 52.1936C67.934 52.1936 67.7791 52.3486 67.7791 52.5398C67.7791 52.7309 67.934 52.8859 68.1252 52.8859Z" fill="#67647E"/>
<path d="M68.6965 58.3967C68.8877 58.3967 69.0427 58.2417 69.0427 58.0505C69.0427 57.8593 68.8877 57.7043 68.6965 57.7043C68.5053 57.7043 68.3503 57.8593 68.3503 58.0505C68.3503 58.2417 68.5053 58.3967 68.6965 58.3967Z" fill="#67647E"/>
<path d="M69.0427 63.5705C69.2339 63.5705 69.3889 63.4155 69.3889 63.2243C69.3889 63.0332 69.2339 62.8782 69.0427 62.8782C68.8515 62.8782 68.6965 63.0332 68.6965 63.2243C68.6965 63.4155 68.8515 63.5705 69.0427 63.5705Z" fill="#67647E"/>
<path d="M69.3889 69.0811C69.5801 69.0811 69.735 68.9261 69.735 68.735C69.735 68.5438 69.5801 68.3888 69.3889 68.3888C69.1977 68.3888 69.0427 68.5438 69.0427 68.735C69.0427 68.9261 69.1977 69.0811 69.3889 69.0811Z" fill="#67647E"/>
<path d="M69.2512 74.5323C69.4424 74.5323 69.5974 74.3773 69.5974 74.1861C69.5974 73.9949 69.4424 73.84 69.2512 73.84C69.06 73.84 68.905 73.9949 68.905 74.1861C68.905 74.3773 69.06 74.5323 69.2512 74.5323Z" fill="#67647E"/>
<path opacity="0.1" d="M63.2083 68.547C63.2083 68.547 62.8212 73.6148 62.1102 75.0887C61.3993 76.5627 61.0829 80.6981 61.0829 80.6981L59.4321 80.512C59.2738 80.3087 59.1378 80.0891 59.0264 79.8569L61.3788 66.6245L61.9371 47.15L62.7821 43.7312L62.9775 42.0916L62.9998 42.0823C63.092 42.0387 63.193 42.0169 63.295 42.0185C63.3969 42.0201 63.4971 42.0451 63.5879 42.0916L63.6661 42.1325C63.6425 42.1995 63.6202 42.2684 63.5991 42.3391C62.9551 44.3547 62.7151 48.0694 62.7151 48.0694C62.7151 48.0694 63.6456 54.8643 63.7424 58.0244C63.8392 61.1845 63.2083 68.547 63.2083 68.547Z" fill="black"/>
<path opacity="0.1" d="M59.1493 79.7248C59.1312 79.7672 59.1101 79.8083 59.086 79.8476C58.4458 80.9289 56.8229 81.6157 56.3297 81.8037C56.2367 81.638 56.1846 81.5412 56.1846 81.5412L56.527 79.9351L58.3379 79.1907C58.6249 79.3423 58.8966 79.5211 59.1493 79.7248Z" fill="black"/>
<path d="M54.7627 53.863L53.2608 54.7582L51.8928 60.8421C51.8928 60.8421 50.1806 66.0029 51.4964 69.6898C52.8122 73.3766 53.5771 75.4871 53.5771 75.4871C53.5771 75.4871 54.1038 79.6745 54.8948 80.017C55.6858 80.3594 56.0263 80.5437 56.0263 80.5437L56.1845 81.5449C56.1845 81.5449 58.3285 80.8172 59.086 79.5349C59.8434 78.2527 58.5276 75.0683 58.5276 75.0683C58.5276 75.0683 57.3961 72.3549 57.6864 71.0912C57.9768 69.8275 57.1058 66.5092 57.1058 66.4384C57.1058 66.3677 57.0276 64.5941 57.6641 63.2374C58.3006 61.8806 57.8763 61.3018 57.8763 61.3018L57.4798 57.4308L54.7627 53.863Z" fill="#67647E"/>
<path opacity="0.1" d="M80.9388 78.9078C80.9388 78.9078 76.9617 80.4078 75.698 79.0939C74.4343 77.78 74.5646 71.6142 74.5646 71.6142C74.5646 71.6142 73.3549 60.2373 72.59 58.3688C71.8251 56.5002 72.2177 43.0148 72.2177 43.0148C72.2177 43.0148 71.7041 41.2709 71.2556 40.815C71.2272 40.7857 71.1953 40.76 71.1606 40.7386L71.3151 40.7721L71.8548 40.8875L72.6923 41.5594L75.3779 58.9029C75.3779 58.9029 80.0306 72.2563 80.9016 77.646L80.9388 78.9078Z" fill="black"/>
<path opacity="0.1" d="M85.5208 79.3023H85.4761C84.9755 79.3675 80.5572 79.9016 80.5386 78.9822C80.5379 78.8759 80.5435 78.7696 80.5554 78.664L84.6498 78.2452L85.4612 79.079C85.4761 79.133 85.4873 79.1795 85.4984 79.2167L85.5208 79.3023Z" fill="black"/>
<path d="M81.2814 47.7698L84.1847 49.2847C84.1847 49.2847 86.6041 55.5491 86.9912 58.2347C86.9912 58.2347 88.7835 65.4297 87.5496 68.3888C86.3157 71.348 86.418 77.2216 86.418 77.2216C86.418 77.2216 85.7071 78.301 85.4168 78.0125C85.1264 77.7241 85.5228 79.1441 85.5228 79.1441C85.5228 79.1441 80.5593 79.8029 80.5388 78.8277C80.5184 77.8525 81.6778 73.1923 81.6778 73.1923C81.6778 73.1923 81.9942 62.1058 81.5457 60.3675C81.0972 58.6293 81.2814 47.7698 81.2814 47.7698Z" fill="#67647E"/>
<path opacity="0.1" d="M72.618 59.5784C72.618 59.5784 70.9839 63.5797 70.4572 63.844C69.9305 64.1083 70.5633 65.1598 70.5633 65.1598C70.5633 65.1598 73.5392 61.0002 72.618 59.5784Z" fill="black"/>
<path opacity="0.1" d="M71.6427 45.542C71.6613 45.4657 69.6942 47.472 69.1675 47.7754C68.6408 48.0787 71.09 47.7567 71.6427 45.542Z" fill="black"/>
<path opacity="0.1" d="M66.1655 59.2621C66.1655 59.2621 63.1636 61.2032 63.56 61.9718C63.9564 62.7404 66.1655 59.2621 66.1655 59.2621Z" fill="black"/>
<path opacity="0.1" d="M71.6167 87.5972C71.6167 87.5972 74.172 89.2405 78.1473 89.6444L71.6167 87.5972Z" fill="black"/>
<path opacity="0.1" d="M65.4807 91.5482C65.4807 91.5482 67.8499 94.526 68.9312 94.6023C70.0124 94.6786 65.4807 91.5482 65.4807 91.5482Z" fill="black"/>
<path opacity="0.1" d="M68.799 103.217C68.6929 103.269 67.4553 105.903 66.1935 105.983C64.9317 106.063 68.799 103.217 68.799 103.217Z" fill="black"/>
<path opacity="0.1" d="M79.7793 108.987C79.7793 108.987 82.128 108.46 82.651 110.144C82.651 110.139 82.4928 109.612 79.7793 108.987Z" fill="black"/>
<path opacity="0.1" d="M78.1995 118.62C78.1995 118.62 81.0451 118.039 81.6499 118.83C82.2548 119.621 78.1995 118.62 78.1995 118.62Z" fill="black"/>
<path opacity="0.1" d="M70.1501 119.967C70.1501 119.993 67.2542 120.548 67.3585 120.916C67.4627 121.285 70.4479 121.233 70.554 120.652C70.5729 120.581 70.5775 120.506 70.5675 120.433C70.5574 120.359 70.5328 120.289 70.4953 120.225C70.4577 120.161 70.4078 120.106 70.3486 120.062C70.2893 120.017 70.2219 119.985 70.1501 119.967Z" fill="black"/>
<path opacity="0.1" d="M77.252 122.465C77.252 122.465 82.0108 121.884 81.7186 122.885C81.4264 123.887 77.252 122.465 77.252 122.465Z" fill="black"/>
<path opacity="0.1" d="M52.3394 63.8441C52.3654 63.9223 55.4734 64.3448 55.894 65.346C55.894 65.346 52.84 63.9223 52.358 63.9223" fill="black"/>
<path opacity="0.1" d="M56.7112 71.9807C56.7112 71.9807 54.1299 72.7977 54.3141 74.0279C54.4983 75.2581 54.0517 73.4584 56.7112 71.9807Z" fill="black"/>
<path opacity="0.1" d="M55.5088 78.2489C55.5088 78.2489 56.4486 76.9592 57.3438 77.1956C58.239 77.4319 55.5088 78.2489 55.5088 78.2489Z" fill="black"/>
<path opacity="0.1" d="M70.2488 29.6353C70.1584 29.723 70.057 29.7987 69.9473 29.8605C69.2028 30.2941 68.9981 30.9622 68.6445 31.7327C68.3151 32.4381 67.9522 33.1844 67.2878 33.5845C66.4298 34.1019 65.3001 33.9121 64.4086 34.3625C64.0129 34.5685 63.6879 34.8883 63.4756 35.2807C63.2633 35.6731 63.1734 36.1202 63.2175 36.5641C63.2742 36.9067 63.3588 37.2441 63.4707 37.5728C63.6734 38.2847 63.765 39.0235 63.7424 39.7633C63.7443 39.785 63.7443 39.8068 63.7424 39.8285C62.9797 39.4474 62.3056 38.9102 61.7639 38.2518C61.2222 37.5934 60.825 36.8284 60.5981 36.0065C60.3711 35.1847 60.3195 34.3243 60.4466 33.4812C60.5737 32.6381 60.8766 31.8311 61.3357 31.1127C61.7949 30.3942 62.3999 29.7803 63.1116 29.3108C63.8233 28.8413 64.6258 28.5267 65.467 28.3874C66.3081 28.2481 67.1692 28.2872 67.9942 28.5022C68.8193 28.7172 69.59 29.1032 70.2562 29.6353H70.2488Z" fill="black"/>
<path d="M70.0905 27.804C69.4223 26.4008 67.9688 25.5112 66.4744 25.0775C65.3335 24.7481 64.094 24.6402 62.9625 25.0031C62.3167 25.2078 61.7304 25.5614 61.1256 25.8648C59.9978 26.4343 58.7583 26.8846 57.9096 27.8208C57.7105 28.0385 57.5374 28.3177 57.5876 28.6062C57.6304 28.8202 57.7979 28.9784 57.9059 29.1757C58.1497 29.6037 58.092 30.1416 57.9226 30.6068C57.7533 31.0721 57.5132 31.5039 57.3978 31.9822C57.2824 32.4605 57.3271 33.0207 57.6807 33.3613C57.8389 33.512 58.0417 33.6069 58.213 33.7335C58.4065 33.9006 58.5762 34.0935 58.7173 34.3067L59.7223 35.6802C60.1944 36.2888 60.6152 36.9356 60.9804 37.6139C61.2298 38.1126 61.4234 38.6449 61.7584 39.0897C62.0933 39.5345 62.6145 39.8918 63.1691 39.8434C63.212 39.8445 63.2546 39.8355 63.2934 39.8171C63.3322 39.7986 63.3661 39.7713 63.3924 39.7374C63.413 39.6938 63.4226 39.6459 63.4203 39.5978C63.4448 38.8607 63.355 38.1243 63.1542 37.4147C63.0421 37.086 62.9575 36.7486 62.9011 36.406C62.8582 35.9622 62.9487 35.5157 63.1608 35.1235C63.373 34.7314 63.6973 34.4113 64.0922 34.2043C64.9855 33.7539 66.1152 33.9438 66.9713 33.4283C67.6375 33.0263 68.0005 32.28 68.328 31.5672C68.6872 30.7967 68.8863 30.1285 69.6308 29.6949C70.3752 29.2613 70.4608 28.5429 70.0905 27.804Z" fill="#585268"/>
<path opacity="0.1" d="M67.366 127.237C67.366 127.237 68.2965 128.422 68.0546 129.098C67.8126 129.773 67.366 127.237 67.366 127.237Z" fill="black"/>
<path opacity="0.1" d="M79.9563 130.203C79.9563 130.203 80.1629 128.614 80.9911 128.599C81.8193 128.584 81.8602 128.513 82.493 128.757C83.1257 129.001 83.7194 129.379 83.5296 129.435C83.3398 129.49 82.4409 128.526 81.5177 129.02C80.9417 129.335 80.4155 129.734 79.9563 130.203Z" fill="black"/>
<path opacity="0.1" d="M64.5892 45.8734L67.1947 44.0477C67.1947 44.0477 63.3832 41.7957 62.9291 42.1121C62.475 42.4285 62.1624 45.276 62.1624 45.276L64.5892 45.8734Z" fill="black"/>
<path d="M64.578 45.7561L67.1835 43.895C67.1835 43.895 63.372 41.643 62.9179 41.9594C62.4638 42.2758 62.1511 45.2796 62.1511 45.2796L64.578 45.7561Z" fill="#E1E7EF"/>
<path d="M64.578 45.7561L67.1835 43.895C67.1835 43.895 63.372 41.643 62.9179 41.9594C62.4638 42.2758 62.1511 45.2796 62.1511 45.2796L64.578 45.7561Z" fill="#056AD4"/>
<path d="M63.3496 41.9744L63.2714 41.9353C63.1552 41.876 63.0242 41.8517 62.8944 41.8652C62.7646 41.8788 62.6415 41.9296 62.54 42.0116L54.7234 48.3524C54.7234 48.3524 53.0242 50.7029 53.2606 54.7582L57.8705 61.2888C57.8705 61.2888 58.3972 59.0778 59.0281 59.4984C59.0281 59.4984 59.9233 70.8232 59.0281 72.4554C58.1329 74.0875 57.7384 80.1975 57.7384 80.1975L60.7664 80.54C60.7664 80.54 61.0828 76.4046 61.7937 74.9306C62.5046 73.4566 62.8918 68.3889 62.8918 68.3889C62.8918 68.3889 63.532 61.0264 63.4259 57.8663C63.3198 54.7061 62.3986 47.9113 62.3986 47.9113C62.3986 47.9113 62.6573 43.9285 63.3496 41.9744Z" fill="#67647E"/>
<path opacity="0.1" d="M71.1365 44.7194L67.8889 43.5172C67.8889 43.5172 72.0243 38.9873 72.5417 41.4997L71.1365 44.7194Z" fill="black"/>
<path d="M71.1365 44.5612L67.8889 43.359C67.8889 43.359 72.0243 38.8291 72.5417 41.3415L71.1365 44.5612Z" fill="#E1E7EF"/>
<path d="M71.1365 44.5612L67.8889 43.359C67.8889 43.359 72.0243 38.8291 72.5417 41.3415L71.1365 44.5612Z" fill="#056AD4"/>
<path opacity="0.1" d="M71.0305 40.7069C71.0774 40.6994 71.1253 40.7101 71.1645 40.7367L71.0305 40.7069Z" fill="black"/>
<path d="M71.343 40.3924L79.9599 42.2535C79.9599 42.2535 82.3309 42.7802 84.0431 48.732C85.7553 54.6838 81.6981 61.9755 81.6981 61.9755L80.803 61.2144L81.2515 78.5951C81.2515 78.5951 77.2743 80.0951 76.0106 78.7812C74.747 77.4673 74.8791 71.2959 74.8791 71.2959C74.8791 71.2959 73.6675 59.9209 72.9026 58.0505C72.1377 56.1801 72.5304 42.6983 72.5304 42.6983C72.5304 42.6983 71.8269 40.2882 71.343 40.3924Z" fill="#67647E"/>
<path opacity="0.1" d="M79.2268 51.4678C79.1058 51.5795 78.9644 56.8389 79.491 60.8422C79.813 63.28 80.3106 65.6914 80.9799 68.0576L80.1983 52.0206C80.1983 52.0206 79.5953 51.1254 79.2268 51.4678Z" fill="black"/>
<path opacity="0.1" d="M78.1733 46.9379C78.3836 47.07 79.3067 49.2549 78.8843 50.1501C78.4618 51.0453 78.1733 46.9379 78.1733 46.9379Z" fill="black"/>
<path opacity="0.1" d="M70.0403 27.804C69.6173 26.971 68.9584 26.281 68.1457 25.8201C68.75 26.2527 69.2378 26.8282 69.5657 27.4951C69.938 28.2395 69.8281 28.9839 69.1042 29.3915C68.3802 29.7991 68.155 30.4933 67.8014 31.2638C67.472 31.9691 67.1091 32.7154 66.4428 33.1249C65.5867 33.6422 64.457 33.4506 63.5637 33.9009C63.169 34.1086 62.845 34.4291 62.6329 34.8215C62.4207 35.2138 62.3302 35.6605 62.3726 36.1045C62.4299 36.4465 62.5151 36.7833 62.6276 37.1113C62.8302 37.8232 62.9219 38.562 62.8993 39.3018C62.901 39.3501 62.8908 39.398 62.8695 39.4414C62.8438 39.4756 62.8103 39.5031 62.7718 39.5215C62.7332 39.54 62.6908 39.5489 62.6481 39.5475C62.4247 39.5646 62.2008 39.5229 61.9985 39.4265C62.145 39.5718 62.3196 39.6855 62.5116 39.7607C62.7037 39.8359 62.9091 39.871 63.1152 39.8639C63.1487 39.8688 63.183 39.8658 63.2152 39.8552C63.2474 39.8447 63.2768 39.8268 63.3009 39.803C63.3251 39.7792 63.3434 39.7501 63.3544 39.7181C63.3655 39.686 63.369 39.6518 63.3646 39.6182C63.3887 38.8785 63.2976 38.1395 63.0947 37.4277C62.9812 37.0993 62.8959 36.7619 62.8397 36.419C62.7969 35.9752 62.8874 35.5287 63.0995 35.1365C63.3117 34.7443 63.6359 34.4243 64.0308 34.2173C64.9242 33.7669 66.0539 33.9568 66.91 33.4412C67.5762 33.0393 67.9391 32.293 68.2667 31.5802C68.6259 30.8097 68.825 30.1415 69.5695 29.7079C70.3139 29.2743 70.4125 28.5428 70.0403 27.804Z" fill="black"/>
<path d="M123.057 51.1756C120.493 51.1253 118.23 49.3145 116.947 47.1016C116.611 46.5751 116.4 45.9786 116.329 45.3578C116.338 45.2167 116.362 45.077 116.4 44.9409C116.479 44.7332 116.541 44.5198 116.586 44.3025C116.596 44.216 116.596 44.1285 116.586 44.042C116.586 44.042 116.586 44.042 116.586 44.0271C116.648 43.5562 116.37 43.0966 116.028 42.7746C115.686 42.4526 115.256 42.2163 114.898 41.8962C113.797 40.9284 113.462 39.3762 113.441 37.8985V37.8204C113.454 37.1876 113.504 36.553 113.499 35.9202C113.507 35.561 113.492 35.2016 113.452 34.8445C113.346 33.9493 113.006 33.0374 112.302 32.466C110.467 30.9771 107.381 32.5274 105.481 31.1204C105.02 30.7761 104.646 30.268 104.085 30.134C103.663 30.0317 103.224 30.1694 102.811 30.3071C101.411 30.7687 99.8495 31.3754 99.3023 32.7266C98.9897 33.5026 99.0771 34.3885 98.7905 35.1739C98.6044 35.7006 98.249 36.1528 97.9903 36.6516C97.7779 37.0271 97.6748 37.4545 97.6925 37.8855C97.6695 38.1086 97.7008 38.334 97.7837 38.5425C97.8809 38.7937 98.0374 39.0178 98.2397 39.1957C98.1667 39.3511 98.0754 39.4973 97.9679 39.6312C97.6106 40.0686 97.0616 40.3756 96.6894 40.8111C96.0008 41.6095 96.0268 42.6946 96.3655 43.6326C96.7043 44.5705 97.3166 45.4248 97.739 46.3386C97.9251 46.735 98.0666 47.1779 97.8786 47.5725C97.7465 47.8461 97.4729 48.0545 97.2607 48.2909C96.9503 48.6389 96.7553 49.0745 96.7024 49.5378C92.5131 50.4944 92.5094 53.8611 92.5094 53.8611L90.2463 59.5523C90.2463 59.5523 89.8834 60.5108 89.4572 61.7763L86.7791 61.2962L88.6401 64.4117C88.2884 65.6809 88.039 66.8571 88.1209 67.449C88.1209 67.449 87.289 71.3573 88.7686 72.0403L92.0329 73.5087C92.1743 73.5954 92.3263 73.6636 92.4852 73.7115L92.6173 73.7711C92.6649 73.7941 92.717 73.8061 92.7699 73.8061C92.8228 73.8061 92.875 73.7941 92.9225 73.7711H92.9318H92.9672C93.0305 73.7753 93.094 73.7658 93.1533 73.7432C93.226 73.704 93.2836 73.6418 93.3171 73.5664C93.316 73.5602 93.316 73.5539 93.3171 73.5478L94.2941 73.2649L95.1223 74.2457C95.4946 74.5081 95.8668 74.7351 96.2185 74.9399L94.9362 87.6735C94.9362 87.6735 94.7296 104.609 94.1043 108.469C93.8735 109.899 93.8717 110.874 93.9592 111.536L93.935 111.577C94.0894 112.666 94.4933 112.88 94.4933 112.88V112.865C94.5007 112.871 94.5089 112.876 94.5175 112.88C94.7058 112.386 94.9298 111.905 95.1875 111.443C95.1875 111.535 95.1875 111.629 95.1875 111.722C95.1744 113.159 95.1298 115.171 94.9809 116.479C94.7278 118.713 95.6285 126.073 95.6285 126.073L95.9393 132.773C95.9899 133.911 95.7259 135.04 95.1763 136.038C94.4319 137.376 93.4808 139.259 93.412 140.095C93.4083 140.14 93.4083 140.185 93.412 140.231L91.8152 142.151C91.8152 142.151 91.1917 143.115 92.6005 143.504C93.358 143.715 94.6645 143.504 95.7142 143.257C96.1723 143.151 96.5812 142.894 96.8743 142.526C97.1673 142.158 97.3271 141.702 97.3277 141.232C97.593 140.309 98.0411 139.449 98.6454 138.703L98.9078 140.246L100.665 140.681L100.89 136.453C100.981 136.215 101.022 135.962 101.011 135.708C101.357 132.701 100.196 132.971 100.196 132.971C100.227 132.997 100.247 133.034 100.252 133.075L100.196 132.972C99.4829 131.565 99.8235 129.25 99.8235 129.25C99.8235 129.25 100.754 122.55 101.072 120.78C101.301 119.53 101.206 115.435 101.13 113.15C101.13 113.055 101.13 112.964 101.121 112.873C103.845 112.837 107.184 112.746 109.527 112.519V112.794L109.095 128.623C109.066 129.632 108.86 130.629 108.489 131.567C108.489 131.586 108.476 131.603 108.468 131.621C107.955 132.947 107.665 134.349 107.61 135.77L107.409 140.795V140.934C107.059 141.068 106.507 141.457 106.492 142.585C106.468 144.238 109.38 143.687 109.38 143.687C112.291 143.687 112.315 140.657 112.315 140.657C112.315 140.657 112.406 137.878 112.546 136.019C112.685 134.16 112.107 134.569 112.107 134.569L112.062 139.858C112.062 139.872 112.062 139.885 112.062 139.899V135.263L112.107 134.592V134.573V134.43L112.473 128.975C112.473 128.975 115.155 119.885 115.57 118.141C115.866 116.902 115.743 113.169 115.646 111.105C115.646 111.01 115.646 110.918 115.632 110.831C116.463 110.757 117.199 110.749 117.493 110.749H117.629C117.629 110.749 117.491 96.1507 117.143 90.6493C116.795 85.1479 116.242 80.1137 114.855 78.5988C114.018 77.6831 112.851 74.8561 112.064 72.7624C113.719 73.4779 115.436 74.0387 117.195 74.4374C121.585 75.3567 120.984 71.5452 120.984 71.5452L120.539 64.3372H120.569C120.553 62.4491 120.391 60.5651 120.085 58.7018C119.853 57.2725 119.497 55.7948 118.954 54.6074C119.43 54.4213 119.901 54.2222 120.362 54.0175C121.555 53.4908 122.899 52.7445 123.07 51.4585H123.013C123.036 51.3656 123.051 51.271 123.057 51.1756ZM95.8426 61.5977C95.8519 62.3421 95.824 63.6337 95.7793 65.0612L94.3853 63.2001L95.783 60.9333L95.8426 61.5977ZM115.101 68.1934L112.779 67.449C113.19 66.8064 113.672 66.211 114.213 65.6735L114.414 65.4874L114.342 65.5023L114.454 65.3999L114.52 65.385L114.414 65.4874L114.541 65.4613C114.681 66.0448 114.951 66.5889 115.332 67.0525C116.166 67.9626 115.103 68.1934 115.103 68.1934H115.101Z" fill="url(#paint1_linear)"/>
<path d="M100.992 135.191L100.721 140.342L98.9878 139.909L98.623 137.767L100.992 135.191Z" fill="#A27772"/>
<path opacity="0.1" d="M100.992 135.191L100.721 140.342L98.9878 139.909L98.623 137.767L100.992 135.191Z" fill="black"/>
<path d="M107.352 141.025L109.994 141.573L111.954 139.842V134.964L111.999 134.298V134.277V134.136L112.363 128.714C112.363 128.714 115.008 119.69 115.419 117.957C115.71 116.729 115.589 113.022 115.492 110.973C115.453 110.133 115.419 109.571 115.419 109.571L109.585 108.159L109.462 112.644L109.036 128.359C109.006 129.361 108.804 130.35 108.438 131.283L108.418 131.337C107.911 132.653 107.624 134.044 107.571 135.453L107.374 140.45V140.588L107.352 141.025Z" fill="#CC818C"/>
<path opacity="0.1" d="M107.352 141.025L109.994 141.573L111.954 139.842V139.427C111.948 139.519 111.919 139.607 111.87 139.685C111.821 139.763 111.753 139.828 111.673 139.873L111.645 139.89C110.735 140.371 109.703 140.575 108.679 140.476L107.647 140.389C107.554 140.398 107.461 140.42 107.374 140.456V140.594L107.352 141.025Z" fill="black"/>
<path d="M111.645 140.026L111.673 140.011C111.759 139.963 111.831 139.893 111.881 139.808C111.931 139.723 111.957 139.626 111.958 139.527L112.001 134.277C112.001 134.277 112.57 133.87 112.432 135.716C112.295 137.562 112.205 140.32 112.205 140.32C112.205 140.32 112.183 143.328 109.311 143.328C109.311 143.328 106.44 143.875 106.462 142.233C106.484 140.592 107.648 140.525 107.648 140.525L108.679 140.614C109.704 140.713 110.735 140.509 111.645 140.026Z" fill="#B07473"/>
<path d="M93.5869 139.909C93.6539 141.094 97.1416 140.409 97.1416 140.409L99.4885 135.853C99.4885 135.853 101.448 134.348 100.467 133.026C100.415 132.955 100.367 132.879 100.324 132.801C100.324 132.801 100.324 132.801 100.315 132.79C100.294 132.757 100.276 132.721 100.257 132.684C99.5536 131.288 99.8998 128.999 99.8998 128.999C99.8998 128.999 100.81 122.344 101.13 120.589C101.355 119.349 101.262 115.283 101.188 113.009C101.158 112.063 101.13 111.428 101.13 111.428L95.3401 109.878C95.3401 109.878 95.3401 110.6 95.3401 111.605C95.3271 113.033 95.2824 115.03 95.1354 116.329C94.886 118.538 95.7737 125.854 95.7737 125.854L96.0808 132.511C96.134 133.639 95.8765 134.76 95.3364 135.751C94.6105 137.08 93.6614 138.952 93.5962 139.78C93.5898 139.823 93.5866 139.866 93.5869 139.909Z" fill="#CC818C"/>
<path opacity="0.1" d="M93.5868 139.909C93.6538 141.094 97.1415 140.409 97.1415 140.409L99.4883 135.853C99.4883 135.853 101.448 134.348 100.467 133.026C100.415 132.954 100.367 132.879 100.324 132.801C100.292 133.492 99.5348 135.221 99.5348 135.221C99.5348 135.221 97.5975 139.097 96.9814 139.985C96.3654 140.873 93.6892 139.819 93.5887 139.782C93.5848 139.824 93.5842 139.867 93.5868 139.909Z" fill="black"/>
<path d="M100.257 132.678C100.257 132.678 101.403 132.412 101.061 135.398C101.074 135.737 100.997 136.073 100.838 136.373C100.679 136.673 100.443 136.925 100.155 137.104C99.3339 137.62 98.0684 138.729 97.4282 140.886C97.4287 141.351 97.2718 141.803 96.9829 142.168C96.694 142.533 96.2901 142.79 95.837 142.896C94.8022 143.138 93.5125 143.35 92.7662 143.142C91.3759 142.754 91.9919 141.798 91.9919 141.798L93.5869 139.905C93.5869 139.905 96.3674 140.999 96.9815 140.11C97.5957 139.22 99.5349 135.347 99.5349 135.347C99.5349 135.347 100.598 132.93 100.257 132.678Z" fill="#B07473"/>
<path opacity="0.1" d="M109.585 108.711L109.462 113.197C111.016 113.046 112.129 112.835 112.319 112.54C112.73 111.903 114.223 111.635 115.492 111.525C115.453 110.686 115.419 110.124 115.419 110.124L109.585 108.711Z" fill="black"/>
<path opacity="0.1" d="M95.3401 112.151C95.4886 111.847 95.7075 111.583 95.9784 111.38C96.5926 111.039 96.5256 113.569 96.5256 113.569C96.5256 113.569 98.5728 113.587 101.188 113.554C101.158 112.608 101.13 111.972 101.13 111.972L95.3401 110.423C95.3401 110.423 95.3513 111.142 95.3401 112.151Z" fill="black"/>
<path d="M94.6794 112.75C94.6794 112.75 95.3643 110.889 95.9822 110.557C96.6 110.226 96.5293 112.744 96.5293 112.744C96.5293 112.744 111.571 112.882 112.323 111.719C113.074 110.556 117.45 110.624 117.45 110.624C117.45 110.624 117.314 96.1303 116.972 90.6624C116.629 85.1945 116.084 80.2012 114.716 78.6975C113.832 77.7241 112.574 74.5751 111.796 72.4758C111.373 71.3294 111.092 70.4938 111.092 70.4938L96.7359 71.3127L96.6187 72.4758L95.0944 87.7219C95.0944 87.7219 94.8897 104.541 94.2737 108.369C93.6577 112.197 94.6794 112.75 94.6794 112.75Z" fill="#444053"/>
<g opacity="0.1">
<path opacity="0.1" d="M111.154 111.719C111.898 110.558 116.281 110.625 116.281 110.625C116.281 110.625 116.145 96.1303 115.803 90.6624C115.46 85.1946 114.915 80.2012 113.547 78.6975C112.659 77.7204 111.405 74.5752 110.627 72.4758C110.271 71.5118 110.016 70.7692 109.946 70.5571L111.062 70.4938C111.062 70.4938 111.343 71.3294 111.768 72.4758C112.546 74.5752 113.802 77.7241 114.686 78.6975C116.054 80.2012 116.601 85.1927 116.942 90.6624C117.282 96.1322 117.422 110.625 117.422 110.625C117.422 110.625 113.046 110.558 112.293 111.719C111.651 112.711 100.583 112.757 97.3704 112.748C101.493 112.739 110.573 112.616 111.154 111.719Z" fill="black"/>
<path opacity="0.1" d="M94.8133 110.557C95.0906 110.403 95.2283 110.831 95.2971 111.35C95.0486 111.801 94.8328 112.268 94.6513 112.75C94.6513 112.75 94.2549 112.536 94.093 111.447C94.3201 111.058 94.5713 110.691 94.8133 110.557Z" fill="black"/>
</g>
<path d="M99.1162 35.4252C98.1224 36.78 99.1274 38.7063 98.061 40.0239C97.7093 40.4594 97.1677 40.7684 96.8011 41.1964C96.1218 41.9892 96.1478 43.0668 96.481 43.9973C96.8141 44.9279 97.4115 45.7765 97.8358 46.6848C98.0219 47.0775 98.1597 47.5185 97.9735 47.9094C97.8433 48.1811 97.5734 48.3877 97.3631 48.6222C96.6782 49.3871 96.6596 50.4498 97.0281 51.3505C97.3966 52.2513 98.1001 53.0255 98.7943 53.7886C99.0679 54.0882 99.414 54.4195 99.87 54.4102C100.11 54.392 100.342 54.316 100.546 54.1887C102.124 53.3822 103.331 51.9978 103.915 50.3237C104.499 48.6496 104.415 46.8149 103.68 45.2015C103.103 43.8187 102.141 42.4936 102.131 41.0326C102.131 39.8732 102.727 38.7658 102.833 37.6119C102.961 36.2087 102.131 33.981 100.438 33.3687C100.549 34.2694 99.6206 34.7291 99.1162 35.4252Z" fill="#585268"/>
<path opacity="0.1" d="M99.1162 35.4252C98.1224 36.78 99.1274 38.7063 98.061 40.0239C97.7093 40.4594 97.1677 40.7684 96.8011 41.1964C96.1218 41.9892 96.1478 43.0668 96.481 43.9973C96.8141 44.9279 97.4115 45.7765 97.8358 46.6848C98.0219 47.0775 98.1597 47.5185 97.9735 47.9094C97.8433 48.1811 97.5734 48.3877 97.3631 48.6222C96.6782 49.3871 96.6596 50.4498 97.0281 51.3505C97.3966 52.2513 98.1001 53.0255 98.7943 53.7886C99.0679 54.0882 99.414 54.4195 99.87 54.4102C100.11 54.392 100.342 54.316 100.546 54.1887C102.124 53.3822 103.331 51.9978 103.915 50.3237C104.499 48.6496 104.415 46.8149 103.68 45.2015C103.103 43.8187 102.141 42.4936 102.131 41.0326C102.131 39.8732 102.727 38.7658 102.833 37.6119C102.961 36.2087 102.131 33.981 100.438 33.3687C100.549 34.2694 99.6206 34.7291 99.1162 35.4252Z" fill="black"/>
<path opacity="0.1" d="M110.137 84.7087C108.148 84.813 106.276 85.6691 104.534 86.6368C102.792 87.6046 101.106 88.7008 99.2314 89.3875" fill="black"/>
<path opacity="0.1" d="M108.902 89.3969C106.934 89.5845 105.1 90.4768 103.737 91.9093C103.254 92.4211 102.837 92.9943 102.332 93.4857C101.56 94.2392 100.606 94.7797 99.563 95.0546" fill="black"/>
<path opacity="0.1" d="M109.309 92.9646C107.722 93.4051 106.286 94.2714 105.155 95.4696C104.85 95.7991 104.573 96.1508 104.268 96.4802C102.621 98.2483 100.294 99.1863 98.0479 100.074" fill="black"/>
<path d="M109.14 43.4874C109.184 45.0772 109.321 46.6631 109.549 48.2369C109.736 49.3536 109.996 50.3586 110.37 50.8034C111.465 52.1061 105.038 53.8463 105.038 53.8463L101.243 50.9057C101.243 50.9057 104.251 48.1364 102.85 45.436C101.448 42.7355 109.14 43.4874 109.14 43.4874Z" fill="#CC818C"/>
<path opacity="0.1" d="M96.6147 72.4758H111.792C111.37 71.3294 111.088 70.4938 111.088 70.4938L96.732 71.3127L96.6147 72.4758Z" fill="black"/>
<path d="M95.6377 72.2022H111.865C111.409 70.57 111.865 69.0607 112.514 67.8994C112.969 67.0855 113.542 66.3431 114.213 65.6958L114.325 65.5935L119.99 64.3391L120.295 64.2721C120.295 64.2721 120.342 53.971 116.694 52.5565C113.046 51.1421 110.86 49.2308 110.86 49.2308L105.848 50.7792L102.155 48.9181C100.97 50.1929 97.8244 49.6923 97.8244 49.6923C92.6748 50.2841 92.6748 54.1589 92.6748 54.1589C92.6748 54.1589 95.6823 61.1771 95.9112 61.1771C96.1402 61.1771 95.6377 72.2022 95.6377 72.2022Z" fill="#056AD4"/>
<path opacity="0.1" d="M101.24 65.653C101.24 65.653 97.9307 64.9197 96.8047 63.6375L101.24 65.653Z" fill="black"/>
<path opacity="0.1" d="M117.924 61.8099L114.087 64.9552C114.114 65.2056 114.157 65.4541 114.213 65.6996L114.325 65.5973L119.99 64.3429L117.924 61.8099Z" fill="black"/>
<path opacity="0.1" d="M107.534 71.108C107.534 71.108 108.373 71.5807 109.659 72.2023H111.865C111.409 70.5701 111.865 69.0608 112.514 67.8995L108.626 66.6414C109.95 67.8715 107.534 71.108 107.534 71.108Z" fill="black"/>
<path d="M94.953 52.9232L92.675 54.1534L90.4417 59.8055C90.4417 59.8055 88.1172 66.003 88.3443 67.6445C88.3443 67.6445 87.5254 71.5193 88.9826 72.2023L92.7793 73.9219C92.8464 73.9515 92.921 73.9595 92.9928 73.9448C93.0647 73.9302 93.1302 73.8935 93.1803 73.8399C93.2304 73.7864 93.2626 73.7185 93.2724 73.6459C93.2823 73.5732 93.2693 73.4993 93.2352 73.4343C92.6937 72.4089 92.0981 70.8046 93.0491 69.9224L91.9548 67.6445L95.9096 61.1716L97.231 58.9383L94.953 52.9232Z" fill="#056AD4"/>
<path opacity="0.1" d="M100.021 64.3596C100.218 65.1636 100.884 66.4068 103.09 66.8702L105.509 68.8523L108.083 70.0192L109.132 70.4938L109.577 67.2797L108.567 66.7214L107.389 66.0774C107.389 66.0774 104.731 61.2628 100.523 63.2858C100.328 63.3784 100.17 63.5363 100.079 63.7323C99.987 63.9283 99.9664 64.1501 100.021 64.3596Z" fill="black"/>
<path d="M100.158 64.086C100.356 64.8918 101.02 66.1332 103.225 66.5966L105.645 68.5787L108.221 69.7456L109.268 70.2201L109.713 67.006L108.703 66.4477L107.534 65.8093C107.534 65.8093 104.874 60.9947 100.666 63.027C100.473 63.1182 100.317 63.2733 100.224 63.4662C100.132 63.6591 100.108 63.878 100.158 64.086Z" fill="#CC818C"/>
<path opacity="0.1" d="M104.9 47.6563C108.147 47.6563 110.78 45.0241 110.78 41.7771C110.78 38.5302 108.147 35.8979 104.9 35.8979C101.653 35.8979 99.0212 38.5302 99.0212 41.7771C99.0212 45.0241 101.653 47.6563 104.9 47.6563Z" fill="black"/>
<path d="M104.9 47.5205C108.147 47.5205 110.78 44.8883 110.78 41.6413C110.78 38.3943 108.147 35.7621 104.9 35.7621C101.653 35.7621 99.0212 38.3943 99.0212 41.6413C99.0212 44.8883 101.653 47.5205 104.9 47.5205Z" fill="#CC818C"/>
<path opacity="0.1" d="M108.543 54.2036L106.775 50.768C106.775 50.768 109.362 49.7221 109.55 48.5105C109.737 47.299 112.028 49.9306 111.533 50.8034C111.038 51.6763 108.543 54.2036 108.543 54.2036Z" fill="black"/>
<path d="M108.543 53.93L106.775 50.4945C106.775 50.4945 109.362 49.4485 109.55 48.2369C109.737 47.0254 112.028 49.6588 111.533 50.5298C111.038 51.4008 108.543 53.93 108.543 53.93Z" fill="#056AD4"/>
<path d="M94.0725 62.8055L103.841 75.9393C103.841 75.9393 100.24 77.899 95.2804 74.3908L93.1383 71.8374L87.0227 61.5288L94.0725 62.8055Z" fill="#F6F8FB"/>
<path d="M92.1501 69.9466L93.0397 69.9224C93.0397 69.9224 98.474 64.6481 99.8084 67.3169C101.143 69.9857 96.4231 72.4796 96.4231 72.4796L94.9882 73.2538L93.1178 73.8121L91.9211 72.206L92.1501 69.9466Z" fill="#CC818C"/>
<path opacity="0.1" d="M93.4622 72.7959C93.5441 73.0993 93.6222 73.4343 93.4845 73.7153C93.4515 73.7905 93.3946 73.8527 93.3226 73.8921C93.2634 73.9149 93.1997 73.9238 93.1365 73.9182C92.6657 73.8781 92.2276 73.6614 91.9101 73.3115C91.5982 72.9628 91.3312 72.5764 91.1154 72.1613C90.8734 71.7388 90.6222 71.2717 90.7078 70.7915C90.8046 70.2686 91.2661 69.9057 91.7184 69.6116C92.6191 69.0161 92.6489 69.7102 92.8462 70.477C93.0435 71.2438 93.2556 72.0217 93.4622 72.7959Z" fill="black"/>
<path d="M93.3264 72.796C93.4064 73.0993 93.4864 73.4343 93.3487 73.7153C93.3157 73.7905 93.2588 73.8527 93.1868 73.8921C93.1275 73.9148 93.0639 73.9237 93.0007 73.9182C92.5297 73.879 92.0912 73.6621 91.7742 73.3115C91.4612 72.9633 91.1935 72.5768 90.9777 72.1613C90.7358 71.7388 90.4845 71.2717 90.572 70.7915C90.6669 70.2686 91.1303 69.9057 91.5807 69.6116C92.4833 69.0161 92.5112 69.7102 92.7104 70.477C92.9095 71.2438 93.1179 72.0217 93.3264 72.796Z" fill="#056AD4"/>
<path opacity="0.1" d="M95.9114 61.1716L96.3655 60.403L95.9691 61.8304L95.9114 61.1716Z" fill="black"/>
<path opacity="0.1" d="M108.228 69.7456L109.276 70.2202L109.721 67.0061L108.71 66.4478C109.408 67.248 108.798 68.7276 108.228 69.7456Z" fill="black"/>
<path opacity="0.1" d="M112.434 66.0141C112.434 66.0141 109.051 66.2207 107.614 65.2976L112.434 66.0141Z" fill="black"/>
<g opacity="0.1">
<path opacity="0.1" d="M112.014 68.173C112.469 67.3586 113.041 66.6156 113.713 65.9676C113.874 65.8667 114.041 65.7759 114.213 65.6959L119.488 64.6128L119.793 64.5457C119.793 64.5457 119.839 54.2446 116.194 52.8302C114.148 52.0525 112.231 50.9729 110.506 49.6272L110.906 49.5044C110.906 49.5044 113.093 51.4176 116.741 52.8302C120.389 54.2427 120.34 64.5457 120.34 64.5457H119.793L114.396 65.5787C114.396 65.5787 114.163 65.8039 114.092 65.869C113.416 66.547 112.835 67.3147 112.367 68.1507C111.653 69.4767 111.491 71.0308 111.915 72.4759H111.357C110.906 70.8437 111.372 69.3343 112.014 68.173Z" fill="black"/>
<path opacity="0.1" d="M97.6086 49.9901C97.6961 49.977 97.7799 49.964 97.871 49.9547C98.2411 50.0072 98.614 50.0377 98.9877 50.0459C98.5273 50.0586 98.0665 50.04 97.6086 49.9901Z" fill="black"/>
<path opacity="0.1" d="M105.345 51.0528L102.007 49.363C102.073 49.3086 102.135 49.2495 102.193 49.1862L105.677 50.9486L105.345 51.0528Z" fill="black"/>
</g>
<path d="M118.057 61.5288L120.29 64.2646L120.746 71.6941C120.746 71.6941 121.338 75.4758 117.009 74.5639C112.68 73.652 107.67 70.8343 107.67 70.8343C107.67 70.8343 110.089 67.5978 108.764 66.3677L114.964 68.3739C114.964 68.3739 116.011 68.145 115.191 67.2349C114.37 66.3248 114.225 64.6815 114.225 64.6815L118.057 61.5288Z" fill="#056AD4"/>
<path opacity="0.1" d="M119.065 69.3771L120.295 70.7896C119.979 70.6925 119.696 70.5086 119.479 70.259C119.261 70.0094 119.118 69.7039 119.065 69.3771Z" fill="black"/>
<path opacity="0.1" d="M116.968 69.1482L118.883 71.6086L117.926 71.8375L116.968 69.1482Z" fill="black"/>
<path opacity="0.1" d="M97.8785 38.9427C97.6682 38.4272 97.8301 37.826 98.0832 37.3403C98.3363 36.8545 98.6843 36.3948 98.8742 35.8719C99.1552 35.0939 99.0696 34.2136 99.3767 33.4525C99.9183 32.1032 101.457 31.5002 102.836 31.033C103.244 30.8972 103.678 30.7613 104.095 30.8618C104.653 30.9939 105.016 31.5002 105.472 31.8407C107.344 33.2366 110.389 31.6993 112.2 33.177C112.892 33.7353 113.229 34.6491 113.333 35.5369C113.437 36.4246 113.333 37.3254 113.322 38.2206C113.292 39.7876 113.586 41.5017 114.759 42.5402C115.112 42.8528 115.529 43.0873 115.875 43.4112C116.221 43.735 116.493 44.1872 116.434 44.6562C116.388 44.8716 116.326 45.0831 116.247 45.289C116.015 46.106 116.363 46.964 116.787 47.7084C118.053 49.8989 120.284 51.7042 122.813 51.7545C122.644 53.0312 121.325 53.7719 120.143 54.2948C118.654 54.963 117.068 55.6181 115.429 55.5343C113.789 55.4506 112.079 54.4009 111.792 52.7855C111.693 52.2272 111.706 51.5553 111.234 51.265C110.943 51.0882 110.567 51.1328 110.255 51.0007C109.803 50.8146 109.579 50.3065 109.43 49.8394C109.125 48.8755 108.962 47.8725 108.945 46.8616C108.924 45.6631 109.082 44.3547 108.403 43.3684C107.774 42.4546 106.657 41.9912 105.931 41.1518C105.261 40.3739 104.534 39.4359 103.436 39.2907C101.917 39.0767 98.7755 41.1406 97.8785 38.9427Z" fill="black"/>
<path d="M97.8785 38.6691C97.6682 38.1536 97.8301 37.5525 98.0832 37.0667C98.3363 36.581 98.6843 36.1213 98.8742 35.5983C99.1552 34.8204 99.0696 33.9401 99.3767 33.1789C99.9183 31.8277 101.457 31.2247 102.836 30.7595C103.244 30.6236 103.678 30.4878 104.095 30.5883C104.653 30.7204 105.016 31.2266 105.472 31.5672C107.344 32.963 110.389 31.4257 112.2 32.9035C112.892 33.4618 113.229 34.3756 113.333 35.2652C113.437 36.1548 113.333 37.0518 113.322 37.947C113.292 39.514 113.586 41.2281 114.759 42.2666C115.112 42.5793 115.529 42.8138 115.875 43.1376C116.221 43.4614 116.493 43.9137 116.434 44.3827C116.388 44.598 116.326 44.8096 116.247 45.0154C116.015 45.8325 116.363 46.6904 116.787 47.4349C118.056 49.6179 120.279 51.4288 122.808 51.479C122.638 52.7557 121.319 53.4964 120.137 54.0213C118.648 54.6875 117.063 55.3426 115.423 55.2589C113.783 55.1751 112.073 54.1255 111.786 52.5101C111.688 51.9517 111.701 51.2799 111.228 50.9895C110.938 50.8127 110.562 50.8574 110.249 50.7253C109.797 50.5392 109.574 50.0311 109.425 49.5639C109.119 48.6001 108.956 47.5971 108.939 46.5862C108.918 45.3877 109.077 44.0793 108.397 43.0929C107.768 42.1791 106.652 41.7157 105.926 40.8764C105.256 40.0984 104.528 39.1604 103.43 39.0153C101.917 38.8031 98.7755 40.8708 97.8785 38.6691Z" fill="#585268"/>
<path opacity="0.1" d="M102.051 53.7774L105.422 51.0416C105.422 51.0416 103.114 49.7909 102.838 48.7245C102.563 47.6581 100.717 49.2307 100.905 50.1873C101.093 51.144 102.051 53.7774 102.051 53.7774Z" fill="black"/>
<path d="M102.183 53.3661L105.554 50.6322C105.554 50.6322 103.246 49.3815 102.982 48.3151C102.717 47.2487 100.86 48.8213 101.048 49.7779C101.236 50.7345 102.183 53.3661 102.183 53.3661Z" fill="#056AD4"/>
<path opacity="0.1" d="M105.686 53.1893C105.834 53.1893 105.954 53.0693 105.954 52.9213C105.954 52.7733 105.834 52.6533 105.686 52.6533C105.538 52.6533 105.418 52.7733 105.418 52.9213C105.418 53.0693 105.538 53.1893 105.686 53.1893Z" fill="black"/>
<path opacity="0.1" d="M105.686 54.6782C105.834 54.6782 105.954 54.5582 105.954 54.4102C105.954 54.2622 105.834 54.1422 105.686 54.1422C105.538 54.1422 105.418 54.2622 105.418 54.4102C105.418 54.5582 105.538 54.6782 105.686 54.6782Z" fill="black"/>
<path opacity="0.1" d="M105.686 56.1651C105.834 56.1651 105.954 56.0452 105.954 55.8971C105.954 55.7491 105.834 55.6292 105.686 55.6292C105.538 55.6292 105.418 55.7491 105.418 55.8971C105.418 56.0452 105.538 56.1651 105.686 56.1651Z" fill="black"/>
<g opacity="0.1">
<path opacity="0.1" d="M99.2393 34.8687C99.5054 34.1373 99.4477 33.3166 99.6971 32.5796C99.5816 32.7425 99.486 32.9187 99.4124 33.1044C99.1034 33.8731 99.1909 34.7533 98.908 35.5238L98.8894 35.5685C99.0273 35.3465 99.1444 35.1122 99.2393 34.8687Z" fill="black"/>
<path opacity="0.1" d="M120.502 53.2917C119.013 53.958 117.428 54.6131 115.788 54.5294C114.148 54.4456 112.438 53.396 112.151 51.7824C112.053 51.2241 112.066 50.5503 111.593 50.26C111.303 50.0832 110.927 50.1279 110.614 49.9957C110.162 49.8096 109.939 49.3015 109.79 48.8344C109.484 47.8706 109.321 46.8675 109.304 45.8567C109.283 44.66 109.443 43.3516 108.764 42.3634C108.133 41.4496 107.017 40.9881 106.291 40.1468C105.621 39.3708 104.893 38.4309 103.795 38.2857C102.289 38.081 99.1423 40.1468 98.2527 37.947C98.1098 37.5314 98.1305 37.0769 98.3104 36.6759C98.2453 36.7857 98.182 36.8955 98.1243 37.0072C97.8712 37.5022 97.7111 38.0959 97.9214 38.6114C98.8166 40.8075 101.958 38.7436 103.464 38.9502C104.562 39.099 105.29 40.0389 105.96 40.8112C106.685 41.6525 107.802 42.114 108.431 43.0297C109.112 44.016 108.952 45.3244 108.973 46.5211C108.99 47.5319 109.153 48.535 109.458 49.4988C109.607 49.9678 109.831 50.4703 110.283 50.6601C110.595 50.7923 110.971 50.7495 111.262 50.9244C111.742 51.2147 111.729 51.8941 111.82 52.4468C112.11 54.0604 113.819 55.11 115.457 55.1938C117.094 55.2775 118.673 54.6243 120.171 53.9561C121.25 53.476 122.453 52.8116 122.776 51.7228C122.259 52.43 121.343 52.9176 120.502 53.2917Z" fill="black"/>
</g>
<path d="M153.393 63.7957C149.453 61.5289 147.964 60.9705 147.957 60.9705L147.875 60.9129C147.446 60.5831 147.105 60.1521 146.883 59.6585C146.878 59.5686 146.878 59.4785 146.883 59.3886C146.882 59.3973 146.882 59.406 146.883 59.4147C146.944 58.2143 147.799 57.1218 148.608 56.1689L150.68 53.7328C150.915 53.4917 151.097 53.2038 151.214 52.8878C151.256 52.718 151.274 52.5434 151.27 52.3686C151.27 52.2979 151.27 52.2271 151.27 52.1564C151.258 51.5516 151.242 50.9448 151.219 50.34C151.201 49.8114 151.065 49.1452 150.536 49.0372C150.261 48.9814 149.896 49.08 149.751 48.8511C149.702 48.754 149.689 48.6423 149.716 48.5366C149.714 48.5452 149.714 48.554 149.716 48.5626V48.5329C149.818 48.1246 149.883 47.7078 149.911 47.2878C149.922 47.074 149.893 46.8599 149.825 46.6569C149.52 45.7803 148.465 45.4193 147.532 45.2536C146.6 45.088 145.554 44.9465 144.97 44.217C144.813 43.9736 144.643 43.7393 144.46 43.5154C144.19 43.2758 143.861 43.1132 143.507 43.0445C142.35 42.7594 141.13 42.8654 140.04 43.346C139.589 43.547 139.137 43.8187 138.642 43.7889C138.147 43.7592 137.689 43.4018 137.183 43.3162C136.364 43.1766 135.581 43.7778 135.177 44.4906C134.938 44.9132 134.809 45.3896 134.804 45.8752V45.9571C134.793 46.4796 134.983 46.9864 135.337 47.3715C135.69 47.7438 136.215 47.9894 136.362 48.4714C136.422 48.6669 136.407 48.879 136.461 49.0782C136.467 49.1029 136.474 49.1271 136.483 49.1507L136.457 49.1861C135.612 50.267 135.154 51.5997 135.154 52.9716C135.164 54.3041 135.596 55.5992 136.39 56.6698C137.183 57.7403 138.297 58.5308 139.569 58.9271C139.569 58.9885 139.569 59.0499 139.569 59.1132C139.569 59.8576 139.355 60.6337 138.713 61.1976L133.131 63.4272C133.131 63.4272 129.766 63.0271 128.553 67.9441C128.359 68.7602 128.289 69.6009 128.345 70.4379C128.389 71.1824 128.287 72.4851 127.414 74.1731C126.035 76.8754 126.35 83.0785 129.171 83.6926C131.834 84.2733 132.876 84.0313 132.986 84.0034V84.1114C132.942 85.2764 132.519 95.3151 130.984 96.5286C130.559 96.8654 130.637 97.0869 130.984 97.2451C130.984 97.2451 130.984 97.3102 130.974 97.4312C130.928 98.1756 130.691 100.967 129.672 102.553C128.479 104.395 128.603 115.022 128.603 115.022L127.79 121.287C127.79 121.287 128.291 125.156 127.79 125.831C127.341 126.433 126.746 140.746 126.621 143.851H126.569C126.323 143.867 126.084 143.943 125.873 144.073C125.663 144.202 125.488 144.382 125.363 144.595C124.704 145.665 122.397 147.643 122.397 147.643C121.896 148.354 120.044 149.036 119.065 149.356C118.936 149.398 118.811 149.453 118.693 149.519C118.326 149.719 118.032 150.029 117.852 150.405C117.787 150.517 117.746 150.64 117.731 150.768C117.715 150.896 117.726 151.026 117.762 151.15C118.012 151.762 123.217 152.194 124.535 151.578C125.57 151.096 129.672 150.461 131.374 150.212C131.684 150.173 131.971 150.032 132.192 149.812C132.412 149.591 132.553 149.304 132.592 148.995C132.608 148.888 132.602 148.779 132.576 148.674C132.549 148.57 132.501 148.472 132.435 148.386C132.11 147.982 131.944 146.879 131.877 146.153C132.015 146.096 132.144 146.02 132.26 145.926C132.118 143.695 132.435 141.458 133.191 139.354C134.445 136.038 134.821 129.896 134.509 125.904C134.509 125.904 138.333 109.445 141.344 107.909C141.391 107.969 142.852 109.843 143.038 115.648C143.224 121.544 145.357 125.413 145.357 125.413C145.357 125.413 144.415 135.424 145.357 139.17L144.127 145.079C144.035 145.003 143.978 144.943 143.978 144.943C143.978 144.943 144.015 145.107 144.065 145.369L144.039 145.496L144.093 145.507C144.233 146.251 144.439 147.534 144.354 148.299C144.305 148.729 144.184 149.318 144.102 149.897C143.972 150.807 143.937 151.689 144.415 151.883C145.201 152.199 149.812 152.627 150.594 151.615C150.77 151.409 150.884 151.157 150.924 150.889C150.965 150.621 150.929 150.347 150.821 150.098C150.765 149.959 150.688 149.828 150.594 149.711C150.594 149.711 149.369 147.71 149.716 146.3C149.747 146.162 149.751 146.019 149.726 145.88C149.7 145.741 149.647 145.608 149.568 145.49C149.622 144.798 149.902 141.593 150.624 138.872C151.409 135.917 153.064 129.436 151.846 125.176C151.801 125.009 151.748 124.845 151.69 124.685C150.988 122.359 150.753 119.917 151 117.499C150.548 115.436 150.548 113.299 151 111.235C151.753 107.796 152.28 104.418 152.28 104.418C152.28 104.418 152.695 99.873 152.332 97.0869C152.332 97.0273 152.315 96.9678 152.308 96.9008L152.505 96.8561C152.505 96.8561 151.439 92.1271 151.063 89.1177C150.974 88.4068 150.858 87.5079 150.732 86.5475C151.079 86.4901 151.42 86.4048 151.753 86.2926C155.139 85.1257 156.205 74.5677 156.205 74.5677V71.2177C156.205 71.2177 157.344 66.0681 153.393 63.7957ZM128.164 145.356C128.06 145.304 127.998 145.269 127.998 145.269L128.164 145.356Z" fill="url(#paint2_linear)"/>
<path d="M151.35 124.752C152.818 128.975 151.104 135.829 150.308 138.896C149.511 141.963 149.267 145.63 149.267 145.63C146.146 146.119 143.881 145.507 143.881 145.507L145.167 139.203C144.248 135.47 145.167 125.493 145.167 125.493C145.167 125.493 143.086 121.637 142.902 115.761C142.716 109.979 141.296 108.108 141.251 108.051C138.315 109.58 134.581 125.984 134.581 125.984C134.887 129.961 134.518 136.082 133.295 139.384C132.553 141.483 132.241 143.709 132.378 145.931C131.95 146.304 131.354 146.356 130.703 146.251C128.955 145.969 126.86 144.463 126.86 144.463C126.86 144.463 127.531 126.596 128.023 125.919C128.514 125.242 128.023 121.389 128.023 121.389L128.817 115.147C128.817 115.147 128.695 104.557 129.858 102.722C130.863 101.137 131.094 98.3488 131.138 97.6173C131.138 97.502 131.138 97.4312 131.138 97.4312L132.91 95.3096C132.91 95.3096 150.047 94.0236 151.335 95.3096C151.649 95.6241 151.845 96.3425 151.96 97.2451C152.314 100.022 151.908 104.55 151.908 104.55C151.908 104.55 151.394 107.917 150.659 111.343C150.219 113.401 150.219 115.529 150.659 117.587C150.423 119.997 150.657 122.431 151.35 124.752Z" fill="#65617D"/>
<path d="M150.278 151.589C149.513 152.6 145.014 152.172 144.248 151.857C143.781 151.671 143.816 150.783 143.942 149.877C144.023 149.302 144.14 148.714 144.188 148.286C144.309 147.184 143.816 144.949 143.816 144.949C143.816 144.949 144.825 146.021 145.068 144.949C145.176 144.48 145.552 144.24 145.943 144.119C146.468 143.96 147.032 143.995 147.533 144.217C148.327 144.563 149.652 145.299 149.416 146.292C149.079 147.698 150.272 149.693 150.272 149.693C150.365 149.809 150.44 149.938 150.495 150.076C150.602 150.324 150.637 150.596 150.599 150.863C150.561 151.13 150.449 151.381 150.278 151.589Z" fill="#A27772"/>
<path opacity="0.1" d="M150.278 151.589C149.513 152.6 145.015 152.172 144.248 151.857C143.781 151.671 143.816 150.783 143.943 149.877C144.426 150.104 145.245 150.292 146.617 150.165C146.937 150.135 147.258 150.125 147.579 150.136C148.553 150.179 149.529 150.159 150.501 150.076C150.606 150.324 150.641 150.597 150.602 150.864C150.563 151.131 150.45 151.382 150.278 151.589Z" fill="black"/>
<path opacity="0.1" d="M134.579 125.977C134.884 129.954 134.516 136.075 133.293 139.376C132.55 141.475 132.238 143.702 132.376 145.924C131.948 146.296 131.352 146.348 130.701 146.244C131.073 143.663 132.644 132.541 133.651 123.753C134.799 113.746 140.164 106.861 140.164 106.861L141.235 108.039C138.313 109.573 134.579 125.977 134.579 125.977Z" fill="black"/>
<path d="M148.441 61.6498L147.696 65.3217L144.036 71.4726L139.522 69.5445C139.522 69.5445 133.381 63.1182 137.243 62.2007C137.704 62.1013 138.14 61.9074 138.523 61.6312C139.281 61.0598 139.519 60.2298 139.522 59.4165C139.494 58.5065 139.282 57.6115 138.901 56.7849L146.796 54.3059C146.473 55.3434 146.286 56.418 146.237 57.5033C146.176 59.6547 146.982 60.7136 147.631 61.2254C147.871 61.4181 148.146 61.5622 148.441 61.6498Z" fill="#FBBEBE"/>
<path opacity="0.1" d="M146.788 54.3059C146.466 55.3434 146.278 56.418 146.23 57.5033C146.086 57.6749 145.932 57.8383 145.77 57.9927C144.955 58.7712 143.944 59.3146 142.845 59.5652C141.746 59.8159 140.6 59.7645 139.528 59.4165C139.497 58.5061 139.284 57.6111 138.901 56.7849L146.788 54.3059Z" fill="black"/>
<path d="M147.694 53.2954C147.695 54.5304 147.329 55.7378 146.643 56.7649C145.957 57.7919 144.982 58.5925 143.841 59.0654C142.7 59.5383 141.445 59.6622 140.234 59.4215C139.022 59.1808 137.909 58.5862 137.036 57.7131C136.163 56.8399 135.568 55.7273 135.327 54.5161C135.086 53.3048 135.209 52.0493 135.682 50.9082C136.154 49.7672 136.954 48.7919 137.981 48.1057C139.008 47.4195 140.215 47.0533 141.451 47.0533C142.271 47.0494 143.085 47.2081 143.844 47.5204C144.603 47.8327 145.293 48.2923 145.874 48.8727C146.454 49.4531 146.914 50.1427 147.227 50.9018C147.539 51.661 147.698 52.4745 147.694 53.2954Z" fill="#FBBEBE"/>
<path opacity="0.1" d="M148.441 61.6499L147.696 65.3218L144.036 71.4727L139.522 69.5446C139.522 69.5446 133.381 63.1183 137.243 62.2008C137.704 62.1014 138.14 61.9075 138.523 61.6313C137.827 63.5445 140.701 67.5254 140.701 67.5254C141.036 68.0185 141.802 67.7115 141.802 67.7115C143.654 67.4304 147.062 62.1059 147.618 61.22C147.861 61.4161 148.141 61.5622 148.441 61.6499Z" fill="black"/>
<path opacity="0.1" d="M151.975 97.2488C150.888 97.4963 144.875 98.827 142.595 98.4938C140.086 98.1216 135.208 97.8834 135.208 97.8834C135.208 97.8834 132.102 98.0509 131.146 97.6136C131.146 97.4982 131.146 97.4275 131.146 97.4275L132.917 95.3058C132.917 95.3058 150.054 94.0198 151.342 95.3058C151.664 95.6278 151.859 96.3462 151.975 97.2488Z" fill="black"/>
<path d="M140.699 67.7095C140.699 67.7095 137.47 63.2429 138.687 61.4935L133.232 63.7268C133.232 63.7268 129.949 63.3285 128.765 68.2288C128.576 69.0432 128.508 69.8809 128.562 70.7152C128.607 71.4596 128.507 72.7624 127.663 74.4374C126.318 77.1304 126.623 83.3129 129.377 83.929C132.132 84.545 133.109 84.2342 133.109 84.2342C133.109 84.2342 132.737 95.4343 131.151 96.7203C129.565 98.0063 135.208 97.6992 135.208 97.6992C135.208 97.6992 140.086 97.9449 142.597 98.3115C145.107 98.6781 152.144 97.0255 152.144 97.0255C152.144 97.0255 151.104 92.3132 150.735 89.315C150.367 86.3168 149.509 79.9295 149.509 79.9295L155.751 71.4727C155.751 71.4727 156.853 66.3621 152.997 64.0971C149.14 61.8322 147.691 61.2776 147.691 61.2776C147.691 61.2776 143.816 67.5867 141.797 67.8919C141.8 67.8919 141.033 68.2009 140.699 67.7095Z" fill="#056AD4"/>
<path opacity="0.1" d="M133.537 69.4832C133.537 69.4832 133.478 71.5043 133.844 72.299C134.211 73.0937 135.558 77.51 135.558 77.51H132.497C132.497 77.51 134.149 75.7346 134.029 74.8766C133.908 74.0186 133.537 69.4832 133.537 69.4832Z" fill="black"/>
<path d="M142.597 84.7237C142.597 84.7237 135.837 83.071 135.208 81.664C134.579 80.257 132.843 77.1062 132.843 77.1062L133.556 76.1459L136.842 78.7254C136.842 78.7254 140.751 81.8464 142.597 82.1535C144.443 82.4606 142.597 84.7237 142.597 84.7237Z" fill="#FBBEBE"/>
<path opacity="0.05" d="M142.597 84.7237C142.597 84.7237 135.837 83.071 135.208 81.664C134.579 80.257 132.843 77.1062 132.843 77.1062L133.556 76.1459L136.842 78.7254C136.842 78.7254 140.751 81.8464 142.597 82.1535C144.443 82.4606 142.597 84.7237 142.597 84.7237Z" fill="black"/>
<path d="M148.441 76.7674V80.4338H147.853C144.94 80.4332 142.076 81.1749 139.53 82.5889L138.424 83.2012L138.129 83.3669L136.23 79.0863L138.006 77.4951H138.097C138.531 77.5379 140.408 77.6943 141.205 77.4263C141.961 77.1694 142.899 76.3561 145.124 76.9238C146.221 77.2048 147.159 78.4331 148.221 78.0497L148.441 76.7674Z" fill="#FBBEBE"/>
<path opacity="0.1" d="M154.348 70.0898L155.571 71.4671V74.804C155.571 74.804 154.53 85.3303 151.227 86.4935C147.923 87.6567 142.022 85.8198 142.022 85.8198C142.022 85.8198 140.498 81.7812 141.21 81.5393C141.923 81.2973 147.51 79.8196 147.51 79.8196C147.51 79.8196 147.432 73.6445 148.655 71.8076C148.655 71.8076 147.86 66.055 150.614 65.9322C153.369 65.8093 154.348 70.0898 154.348 70.0898Z" fill="black"/>
<path d="M154.534 70.0898L155.759 71.4671V74.804C155.759 74.804 154.718 85.3303 151.413 86.4935C148.108 87.6567 142.208 85.8198 142.208 85.8198C142.208 85.8198 140.684 81.7812 141.398 81.5393C142.113 81.2973 147.698 79.8196 147.698 79.8196C147.698 79.8196 147.618 73.6445 148.843 71.8076C148.843 71.8076 148.046 66.055 150.801 65.9322C153.555 65.8093 154.534 70.0898 154.534 70.0898Z" fill="#056AD4"/>
<path opacity="0.1" d="M145.982 55.9456C146.035 55.5425 145.987 55.1326 145.843 54.7526C145.669 54.3804 145.266 54.0994 144.871 54.1943C144.348 54.3171 144.127 54.9983 143.609 55.1621C143.176 55.2998 142.703 54.9927 142.493 54.5889C142.282 54.185 142.28 53.7104 142.28 53.2563C142.28 52.7464 142.28 52.2346 142.28 51.7228C142.28 51.1644 142.262 50.5652 141.919 50.1278C141.493 49.5844 140.49 49.3462 139.82 49.3685C139.374 49.3735 138.947 49.5455 138.622 49.8505C138.264 50.1557 137.849 50.3791 137.362 50.299C137.158 50.2687 136.968 50.1812 136.812 50.0468C136.657 49.9123 136.543 49.7365 136.483 49.5397V49.5211C137.002 48.8307 137.659 48.2556 138.412 47.8323C139.165 47.4089 139.998 47.1464 140.858 47.0614C141.717 46.9764 142.585 47.0708 143.407 47.3386C144.228 47.6064 144.985 48.0417 145.629 48.6171C146.273 49.1925 146.791 49.8953 147.15 50.6812C147.509 51.4671 147.701 52.3188 147.713 53.1826C147.726 54.0464 147.559 54.9034 147.223 55.6993C146.887 56.4953 146.39 57.2128 145.763 57.8067C145.87 57.1909 145.944 56.5695 145.982 55.9456Z" fill="black"/>
<path d="M137.362 50.1185C137.158 50.0873 136.968 49.9993 136.812 49.8647C136.656 49.73 136.542 49.5542 136.481 49.3573C136.431 49.1601 136.444 48.9498 136.386 48.7543C136.243 48.2723 135.73 48.0229 135.385 47.6563C134.697 46.9249 134.741 45.7226 135.229 44.8423C135.623 44.1333 136.386 43.5396 137.187 43.6736C137.682 43.7592 138.117 44.1109 138.612 44.1444C139.107 44.1779 139.543 43.9043 139.977 43.7033C141.04 43.2206 142.236 43.1143 143.367 43.4018C143.715 43.4716 144.036 43.6343 144.298 43.8727C144.476 44.0965 144.642 44.3294 144.795 44.5706C145.364 45.2964 146.386 45.4397 147.296 45.6035C148.206 45.7673 149.235 46.1283 149.53 47.0031C149.729 47.5837 149.53 48.2128 149.422 48.8158C149.386 48.9388 149.394 49.0706 149.446 49.188C149.589 49.4225 149.945 49.3238 150.213 49.3741C150.728 49.4839 150.86 50.1483 150.881 50.6769C150.902 51.2799 150.918 51.8835 150.929 52.4877C150.944 52.7125 150.926 52.9382 150.875 53.1577C150.763 53.4722 150.586 53.7595 150.356 54.0008L148.335 56.4295C147.438 57.5052 146.487 58.7596 146.66 60.1517C146.235 60.3378 145.729 59.9749 145.591 59.5301C145.454 59.0853 145.564 58.5995 145.658 58.151C145.823 57.3626 145.931 56.5634 145.982 55.7595C146.035 55.357 145.987 54.9478 145.843 54.5684C145.67 54.1962 145.266 53.9152 144.871 54.0101C144.346 54.1329 144.127 54.8141 143.609 54.9778C143.176 55.1156 142.703 54.8085 142.493 54.4046C142.282 54.0008 142.281 53.5281 142.281 53.0739V51.5385C142.281 50.9802 142.262 50.3809 141.92 49.9436C141.493 49.4001 140.49 49.1619 139.82 49.1843C139.375 49.1897 138.948 49.3617 138.624 49.6663C138.264 49.9734 137.849 50.1986 137.362 50.1185Z" fill="#7C5C5C"/>
<path opacity="0.1" d="M138.771 69.3306L140.687 77.2048C140.687 77.2048 142.199 77.1955 138.771 69.3306Z" fill="black"/>
<path opacity="0.1" d="M145.32 68.0148C145.32 68.0148 142.811 72.1241 143.79 76.3748L144.257 76.4083C144.257 76.4083 143.423 74.4411 145.32 68.0148Z" fill="black"/>
<path opacity="0.1" d="M146.903 91.2729C146.903 91.2729 149.985 90.253 150.209 92.6185C150.216 92.6185 149.635 90.9974 146.903 91.2729Z" fill="black"/>
<path opacity="0.1" d="M138.006 77.6849C138.006 77.6849 137.393 81.9655 138.495 83.6832C138.495 83.6832 136.262 84.6008 133.109 84.4184L132.737 77.6849H138.006Z" fill="black"/>
<path opacity="0.1" d="M138.424 83.2012L138.129 83.3669L136.23 79.0863L138.006 77.4951H138.097C138.069 77.7073 137.574 81.3867 138.424 83.2012Z" fill="black"/>
<path d="M138.005 77.5026C138.005 77.5026 137.393 81.7831 138.495 83.499C138.495 83.499 136.262 84.4184 133.109 84.2341L130.967 77.5026H138.005Z" fill="#056AD4"/>
<path d="M132.713 148.983C132.677 149.289 132.541 149.574 132.326 149.794C132.11 150.013 131.828 150.155 131.523 150.197C129.861 150.444 125.858 151.077 124.848 151.559C123.562 152.171 118.483 151.745 118.237 151.131C118.202 151.007 118.191 150.878 118.206 150.75C118.221 150.622 118.261 150.499 118.325 150.387C118.499 150.014 118.786 149.705 119.145 149.505C119.264 149.438 119.389 149.384 119.517 149.341C120.474 149.023 122.281 148.345 122.769 147.634C122.769 147.634 125.023 145.663 125.665 144.599C125.785 144.389 125.956 144.213 126.161 144.085C126.366 143.957 126.6 143.882 126.841 143.865C127.377 143.841 127.974 144.111 128.22 145.285C128.22 145.285 131.155 146.96 131.942 145.492C131.942 145.492 132.065 147.748 132.553 148.366C132.619 148.453 132.668 148.552 132.695 148.658C132.723 148.764 132.729 148.875 132.713 148.983Z" fill="#A27772"/>
<path opacity="0.1" d="M132.713 148.983C132.677 149.289 132.541 149.574 132.326 149.794C132.11 150.013 131.828 150.155 131.523 150.197C129.861 150.444 125.858 151.077 124.848 151.559C123.562 152.172 118.483 151.745 118.237 151.131C118.202 151.007 118.191 150.878 118.206 150.75C118.221 150.622 118.261 150.499 118.325 150.387C118.499 150.014 118.786 149.705 119.145 149.505C119.973 150.063 121.812 150.591 125.856 149.961C129.714 149.358 131.626 148.768 132.556 148.366C132.622 148.453 132.67 148.553 132.697 148.659C132.724 148.765 132.729 148.875 132.713 148.983Z" fill="black"/>
<g opacity="0.1">
<path opacity="0.1" d="M149.412 48.9013V48.8715C149.499 48.4137 149.632 47.941 149.598 47.4813C149.559 47.857 149.497 48.2299 149.412 48.598C149.389 48.6978 149.389 48.8015 149.412 48.9013Z" fill="black"/>
<path opacity="0.1" d="M145.841 54.6297C145.938 54.8503 145.989 55.0884 145.991 55.3295C146.019 54.9971 145.967 54.6629 145.841 54.3543C145.669 53.9821 145.266 53.7011 144.871 53.796C144.346 53.9188 144.127 54.6 143.607 54.7637C143.176 54.9015 142.703 54.5944 142.491 54.1905C142.279 53.7867 142.279 53.3121 142.279 52.858C142.279 52.3462 142.279 51.8362 142.279 51.3244C142.279 50.7661 142.26 50.1668 141.918 49.7295C141.489 49.1842 140.488 48.9478 139.818 48.9683C139.372 48.974 138.945 49.1467 138.62 49.4522C138.26 49.7574 137.847 49.9807 137.358 49.9007C137.155 49.8697 136.965 49.782 136.809 49.6477C136.654 49.5133 136.539 49.3378 136.479 49.1414C136.429 48.9441 136.442 48.7319 136.384 48.5365C136.241 48.0564 135.728 47.8051 135.383 47.4403C135.06 47.0822 134.877 46.6197 134.868 46.1376C134.842 46.4204 134.875 46.7054 134.964 46.9752C135.052 47.245 135.195 47.4938 135.383 47.7065C135.728 48.0787 136.241 48.3225 136.384 48.8027C136.442 48.9888 136.429 49.2102 136.479 49.4075C136.539 49.604 136.654 49.7795 136.809 49.9138C136.965 50.0481 137.155 50.1359 137.358 50.1668C137.847 50.2469 138.26 50.0235 138.62 49.7183C138.945 49.4128 139.372 49.2401 139.818 49.2344C140.488 49.214 141.493 49.4503 141.918 49.9956C142.26 50.433 142.277 51.0341 142.279 51.5906C142.279 52.1024 142.279 52.6123 142.279 53.1241C142.279 53.5782 142.279 54.0547 142.491 54.4548C142.703 54.8549 143.17 55.1676 143.607 55.0299C144.121 54.8661 144.352 54.1849 144.871 54.0621C145.266 53.9765 145.669 54.2706 145.841 54.6297Z" fill="black"/>
<path opacity="0.1" d="M150.871 52.9455C150.759 53.2597 150.582 53.5464 150.35 53.7867L148.329 56.2154C147.478 57.2372 146.58 58.4208 146.654 59.7254C146.715 58.5288 147.549 57.44 148.329 56.4909L150.35 54.0621C150.582 53.8219 150.759 53.5351 150.871 53.2209C150.922 53.0008 150.94 52.7745 150.925 52.5491C150.922 52.6828 150.904 52.8158 150.871 52.9455Z" fill="black"/>
<path opacity="0.1" d="M145.601 59.3161C145.568 59.2097 145.547 59.0997 145.539 58.9885C145.522 59.1916 145.543 59.396 145.601 59.5915C145.739 60.0345 146.243 60.4011 146.669 60.2113C146.657 60.1224 146.65 60.0329 146.647 59.9433C146.222 60.1126 145.731 59.7516 145.601 59.3161Z" fill="black"/>
</g>
<path opacity="0.1" d="M125.257 145.159C125.257 145.159 125.897 146.276 128.216 145.293L125.257 145.159Z" fill="black"/>
<path opacity="0.1" d="M144.856 145.431C144.856 145.431 146.855 147.785 149.375 146.203L144.856 145.431Z" fill="black"/>
<path opacity="0.1" d="M150.674 117.591C150.674 117.591 149.261 118.473 149.217 118.977C149.172 119.481 149.946 118.605 149.946 118.605L150.674 117.591Z" fill="black"/>
<path opacity="0.1" d="M151.232 124.357C150.741 124.766 150.13 125.004 149.492 125.037C148.435 125.083 148.524 126.46 149.215 126.047C149.905 125.634 151.232 124.357 151.232 124.357Z" fill="black"/>
<path opacity="0.1" d="M151.5 125.241C151.5 125.241 150.823 128.571 150.272 127.929L151.5 125.241Z" fill="black"/>
<g opacity="0.05">
<path opacity="0.05" d="M38.7201 91.0308C38.2771 90.9936 37.8342 90.9582 37.3894 90.9433C36.3956 90.9061 34.8788 90.9433 33.844 90.1822L34.205 90.1189C35.2398 90.9396 36.8106 90.9043 37.8398 90.9433C38.2846 90.9582 38.7257 90.9936 39.1705 91.0308C39.3156 91.0438 39.4645 91.0513 39.6153 91.055C39.3166 91.063 39.0178 91.0549 38.7201 91.0308Z" fill="black"/>
<path opacity="0.05" d="M41.1936 102.343V102.363H40.9517C41.0435 102.357 41.1241 102.35 41.1936 102.343Z" fill="black"/>
</g>
<g opacity="0.05">
<path opacity="0.05" d="M48.5597 65.1189C46.9834 70.3058 51.5784 70.9144 51.5784 70.9144L55.2708 80.8098C55.5704 82.496 51.7459 87.4074 51.7459 87.4074C51.4797 88.0364 50.8153 88.5147 50.0895 88.8683C50.5136 88.61 50.8547 88.2353 51.0722 87.7889C51.0722 87.7889 54.8948 82.8793 54.5952 81.1932L50.9028 71.2959C50.9028 71.2959 46.3096 70.6873 47.8841 65.5005C48.4108 63.7678 49.1869 62.9787 49.9723 62.6958C49.4307 63.1313 48.9338 63.885 48.5597 65.1189Z" fill="black"/>
</g>
<path opacity="0.1" d="M45.5445 142.449C45.5445 142.449 42.5668 143.218 41.8782 142.029L45.5445 142.449Z" fill="black"/>
<path d="M88.4838 140.784C88.5266 140.411 88.5881 140.039 88.6551 139.667C88.9491 138.059 88.5006 136.525 88.2828 135.893C88.214 135.697 88.1637 135.587 88.1637 135.587C86.9782 135.264 82.305 138.889 80.6021 140.255C80.0121 140.255 79.3719 140.281 78.6722 140.328C78.3669 140.35 78.0617 140.357 77.7565 140.352C77.4829 140.352 77.094 140.352 76.6398 140.352C75.0598 139.079 70.1688 135.25 68.9517 135.582C68.9517 135.582 68.9014 135.692 68.8326 135.887C68.6055 136.52 68.157 138.053 68.451 139.661C68.518 140.033 68.5795 140.406 68.6223 140.778C68.7135 141.595 69.0559 143.164 70.2972 144.223C70.5634 146.158 71.5591 148.702 72.3258 150.247C72.3832 150.539 72.4705 150.824 72.5864 151.098C72.27 152.319 71.9052 153.912 72.0095 154.448C72.0095 154.448 70.3568 154.048 70.1893 156.037C70.1893 156.056 70.1893 156.078 70.1893 156.098C69.5919 156.372 68.8456 156.999 69.685 158.313C69.786 158.475 69.9378 158.599 70.1167 158.665C70.2656 158.717 70.4108 158.717 70.3959 158.509L71.4288 159.672C71.4288 159.672 73.3011 159.888 73.3234 158.801L73.4332 158.817C73.6844 158.855 73.9468 158.886 74.2167 158.914L74.347 159.344C74.347 159.344 72.9419 159.314 73.3252 160.18C73.3252 160.18 73.6789 160.507 73.7998 160.388C73.7998 160.388 73.6137 160.956 74.347 160.956C74.347 160.956 75.1342 161.373 75.4413 161.075C75.7484 160.777 76.3849 160.331 76.4444 160.144C76.4612 160.094 76.4686 159.653 76.4723 159.043H76.5933C78.1622 159.08 79.8279 159.03 81.3428 158.948H81.4657C81.4657 159.608 81.475 160.096 81.4917 160.148C81.5531 160.334 82.1915 160.775 82.4967 161.079C82.8019 161.382 83.5892 160.96 83.5892 160.96C84.3187 160.96 84.1363 160.392 84.1363 160.392C84.2592 160.511 84.6128 160.184 84.6128 160.184C84.9961 159.318 83.5892 159.348 83.5892 159.348L83.7567 158.79L84.5327 158.724L84.6556 158.713C84.5811 159.895 86.5483 159.668 86.5483 159.668L87.5831 158.505C87.5663 158.713 87.7115 158.713 87.8604 158.661C88.0353 158.592 88.1825 158.467 88.2791 158.306C89.5465 156.324 87.2053 155.903 87.2053 155.903C87.1328 155.884 87.0586 155.872 86.9838 155.868C86.9838 155.834 86.9838 155.799 86.9931 155.765C87.0233 155.505 87.0283 155.242 87.008 154.98C86.9205 154.621 86.3436 154.049 85.614 153.966C85.1376 153.906 85.1283 151.717 85.1767 150.201C85.2303 149.916 85.2552 149.627 85.2511 149.337C85.2604 148.869 85.1977 148.403 85.065 147.954C85.9955 146.376 86.74 144.722 86.8237 144.232C88.0502 143.164 88.3926 141.601 88.4838 140.784Z" fill="url(#paint3_linear)"/>
<path d="M86.6822 155.868C86.6078 156.899 86.4086 158.553 86.4086 158.553C86.4086 158.553 85.5804 158.654 84.3 158.769L83.4309 158.844C82.7646 158.897 82.0164 158.95 81.2255 158.994C79.7645 159.074 78.1603 159.125 76.6472 159.087C75.8916 159.071 75.1583 159.031 74.479 158.964C74.1756 158.935 73.8816 158.899 73.6024 158.858C71.8679 158.6 70.6247 158.105 70.5186 157.236C70.4641 156.866 70.451 156.491 70.4795 156.119C70.6414 154.165 72.2327 154.559 72.2327 154.559C72.1303 154.02 72.5155 152.343 72.8282 151.129C73.0255 150.364 73.2004 149.784 73.2004 149.784L84.3893 149.039H84.4266C84.5008 149.039 84.5743 149.054 84.6426 149.083C84.7109 149.113 84.7725 149.156 84.8237 149.209C84.8749 149.263 84.9146 149.327 84.9404 149.396C84.9662 149.466 84.9775 149.54 84.9737 149.614C84.9067 150.956 84.8118 154.029 85.3608 154.098C86.0643 154.185 86.6208 154.742 86.7064 155.093C86.7223 155.352 86.7142 155.611 86.6822 155.868Z" fill="#056AD4"/>
<path d="M77.1795 141.139C77.1795 141.139 72.9604 146.218 70.9281 144.811C70.8797 144.777 70.8332 144.744 70.7885 144.709C69.4224 143.674 69.0633 142.006 68.9683 141.159C68.9274 140.787 68.8678 140.428 68.8027 140.065C68.5217 138.485 68.9516 136.981 69.1749 136.36C69.2419 136.174 69.2884 136.06 69.2884 136.06C70.6936 135.669 77.1795 141.139 77.1795 141.139Z" fill="#056AD4"/>
<path d="M74.9127 141.608C74.9127 141.608 73.5839 142.538 71.7098 144.068C71.418 144.307 71.1067 144.521 70.7792 144.708C69.4132 143.674 69.054 142.006 68.9591 141.159C68.9181 140.787 68.8586 140.428 68.7934 140.065C68.5124 138.485 68.9423 136.981 69.1656 136.36C71.7935 136.542 74.9127 141.608 74.9127 141.608Z" fill="#056AD4"/>
<path opacity="0.5" d="M74.9127 141.608C74.9127 141.608 73.5839 142.538 71.7098 144.068C71.418 144.307 71.1067 144.521 70.7792 144.708C69.4132 143.674 69.054 142.006 68.9591 141.159C68.9181 140.787 68.8586 140.428 68.7934 140.065C68.5124 138.485 68.9423 136.981 69.1656 136.36C71.7935 136.542 74.9127 141.608 74.9127 141.608Z" fill="white"/>
<path opacity="0.1" d="M73.4665 141.107C73.4665 141.107 72.7574 141.608 71.7561 142.421C71.6021 142.548 71.4377 142.662 71.2648 142.762C70.5371 142.204 70.3343 141.32 70.2933 140.869C70.2728 140.672 70.2412 140.478 70.2058 140.283C70.1103 139.617 70.1812 138.938 70.4124 138.306C71.8027 138.403 73.4665 141.107 73.4665 141.107Z" fill="black"/>
<path d="M79.9133 141.139C79.9133 141.139 84.1324 146.218 86.1648 144.811C86.2113 144.777 86.2597 144.744 86.3043 144.709C87.6704 143.674 88.0296 142.006 88.1245 141.159C88.1654 140.787 88.225 140.428 88.2883 140.065C88.5712 138.485 88.1394 136.981 87.916 136.36C87.849 136.174 87.8007 136.06 87.8007 136.06C86.3993 135.669 79.9133 141.139 79.9133 141.139Z" fill="#056AD4"/>
<path d="M82.1785 141.608C82.1785 141.608 83.5092 142.538 85.3833 144.068C85.6721 144.307 85.9802 144.521 86.3045 144.708C87.6706 143.674 88.0297 142.006 88.1247 141.159C88.1656 140.787 88.2252 140.428 88.2884 140.065C88.5713 138.485 88.1395 136.981 87.9162 136.36C85.3014 136.542 82.1785 141.608 82.1785 141.608Z" fill="#056AD4"/>
<path opacity="0.5" d="M82.1785 141.608C82.1785 141.608 83.5092 142.538 85.3833 144.068C85.6721 144.307 85.9802 144.521 86.3045 144.708C87.6706 143.674 88.0297 142.006 88.1247 141.159C88.1656 140.787 88.2252 140.428 88.2884 140.065C88.5713 138.485 88.1395 136.981 87.9162 136.36C85.3014 136.542 82.1785 141.608 82.1785 141.608Z" fill="white"/>
<path opacity="0.1" d="M83.6357 141.104C83.6357 141.104 84.3411 141.602 85.3349 142.406C85.4879 142.533 85.6517 142.647 85.8244 142.745C86.5483 142.196 86.74 141.312 86.7903 140.864C86.8108 140.677 86.8424 140.475 86.8777 140.281C86.9747 139.62 86.9076 138.945 86.6823 138.316C85.2902 138.416 83.6357 141.104 83.6357 141.104Z" fill="black"/>
<path opacity="0.1" d="M84.382 149.043C83.8497 149.884 83.2839 150.644 82.7665 151.101C81.0916 152.59 73.8594 151.998 73.3904 151.922C73.2917 151.905 73.087 151.613 72.832 151.139C73.0293 150.374 73.2042 149.793 73.2042 149.793L84.382 149.043Z" fill="black"/>
<path d="M78.6572 140.713C78.3632 140.733 78.0691 140.741 77.7732 140.735C76.2639 140.709 71.1794 140.776 70.6155 142.829C69.9511 145.248 72.9213 151.727 73.3885 151.805C73.8556 151.883 81.086 152.469 82.7665 150.984C84.4471 149.499 86.6339 144.843 86.5166 144.42C86.5166 144.42 88.601 140.024 78.6572 140.713Z" fill="#056AD4"/>
<path opacity="0.1" d="M78.4972 144.636C78.4972 144.636 74.775 144.063 73.0293 147.725C72.6794 148.437 72.5255 149.23 72.5834 150.021C72.6413 150.812 72.9089 151.574 73.3587 152.227C73.9394 153.044 74.7917 153.653 75.9773 153.158C78.6126 152.073 78.4972 144.636 78.4972 144.636Z" fill="black"/>
<path opacity="0.1" d="M78.38 144.401C78.38 144.401 74.6578 143.828 72.9121 147.491C72.5622 148.203 72.4084 148.995 72.4663 149.787C72.5242 150.578 72.7917 151.339 73.2415 151.993C73.8222 152.81 74.6746 153.418 75.8601 152.923C78.4954 151.838 78.38 144.401 78.38 144.401Z" fill="black"/>
<path d="M78.38 144.519C78.38 144.519 74.6578 143.946 72.9121 147.608C72.5622 148.32 72.4084 149.113 72.4663 149.904C72.5242 150.695 72.7917 151.457 73.2415 152.11C73.8222 152.927 74.6746 153.536 75.8601 153.041C78.4954 151.956 78.38 144.519 78.38 144.519Z" fill="#056AD4"/>
<path opacity="0.5" d="M78.38 144.519C78.38 144.519 74.6578 143.946 72.9121 147.608C72.5622 148.32 72.4084 149.113 72.4663 149.904C72.5242 150.695 72.7917 151.457 73.2415 152.11C73.8222 152.927 74.6746 153.536 75.8601 153.041C78.4954 151.956 78.38 144.519 78.38 144.519Z" fill="white"/>
<path d="M74.3654 147.722C74.3654 147.722 73.8574 148.191 74.0528 148.308C74.2482 148.425 74.3654 147.722 74.3654 147.722Z" fill="#3F2B3B"/>
<path d="M74.9126 148.321C74.9126 148.321 74.6353 148.933 74.8326 149C75.0298 149.067 75.1471 148.561 75.1471 148.561L74.9126 148.321Z" fill="#3F2B3B"/>
<path d="M73.6862 149.246C73.6862 149.246 73.4145 149.968 73.6862 149.968C73.9579 149.968 73.6862 149.246 73.6862 149.246Z" fill="#3F2B3B"/>
<path d="M73.3494 151.18C73.3494 151.18 73.8928 152.568 75.3072 152.469" stroke="#3F2B3B" stroke-miterlimit="10"/>
<path d="M74.6206 151.589C74.6206 151.589 75.1789 152.136 75.7912 151.745" stroke="#3F2B3B" stroke-miterlimit="10"/>
<path opacity="0.1" d="M78.9735 144.636C78.9735 144.636 82.6957 144.063 84.4414 147.725C84.7913 148.437 84.9452 149.23 84.8873 150.021C84.8294 150.812 84.5618 151.574 84.112 152.227C83.5332 153.044 82.679 153.653 81.4935 153.158C78.8507 152.073 78.9735 144.636 78.9735 144.636Z" fill="black"/>
<path opacity="0.1" d="M79.0834 144.401C79.0834 144.401 82.8056 143.828 84.5513 147.491C84.9012 148.203 85.0551 148.995 84.9972 149.787C84.9393 150.578 84.6717 151.339 84.2219 151.993C83.6431 152.81 82.7889 153.418 81.6033 152.923C78.9736 151.838 79.0834 144.401 79.0834 144.401Z" fill="black"/>
<path d="M79.0834 144.519C79.0834 144.519 82.8056 143.946 84.5513 147.608C84.9012 148.32 85.0551 149.113 84.9972 149.904C84.9393 150.695 84.6717 151.457 84.2219 152.11C83.6431 152.927 82.7889 153.536 81.6033 153.041C78.9736 151.956 79.0834 144.519 79.0834 144.519Z" fill="#056AD4"/>
<path opacity="0.5" d="M79.0834 144.519C79.0834 144.519 82.8056 143.946 84.5513 147.608C84.9012 148.32 85.0551 149.113 84.9972 149.904C84.9393 150.695 84.6717 151.457 84.2219 152.11C83.6431 152.927 82.7889 153.536 81.6033 153.041C78.9736 151.956 79.0834 144.519 79.0834 144.519Z" fill="white"/>
<path d="M83.0977 147.722C83.0977 147.722 83.6058 148.191 83.4103 148.308C83.2149 148.425 83.0977 147.722 83.0977 147.722Z" fill="#3F2B3B"/>
<path d="M82.5504 148.321C82.5504 148.321 82.8277 148.933 82.6304 149C82.4332 149.067 82.3159 148.561 82.3159 148.561L82.5504 148.321Z" fill="#3F2B3B"/>
<path d="M83.7789 149.246C83.7789 149.246 84.0487 149.968 83.7789 149.968C83.509 149.968 83.7789 149.246 83.7789 149.246Z" fill="#3F2B3B"/>
<path d="M84.1139 151.18C84.1139 151.18 83.5704 152.568 82.156 152.469" stroke="#3F2B3B" stroke-miterlimit="10"/>
<path d="M82.8446 151.589C82.8446 151.589 82.2863 152.136 81.6721 151.745" stroke="#3F2B3B" stroke-miterlimit="10"/>
<path d="M76.9636 155.125C77.0623 155.106 78.9178 154.304 80.831 155.125H76.9636Z" fill="#3F2B3B"/>
<path opacity="0.1" d="M73.6024 158.864C71.8679 158.605 70.6247 158.11 70.5186 157.241C70.4641 156.872 70.451 156.497 70.4795 156.125C70.6878 156.013 70.9109 155.932 71.1421 155.883C71.4566 155.795 71.8456 155.855 72.6663 156.089C73.487 156.324 73.4275 157.29 73.5968 158.55C73.6146 158.653 73.6165 158.76 73.6024 158.864Z" fill="black"/>
<path d="M71.0248 156.003C71.0248 156.003 68.7692 156.417 69.99 158.363C70.0868 158.521 70.2335 158.642 70.4069 158.708C70.5502 158.758 70.688 158.758 70.6731 158.553L71.6706 159.696C71.6706 159.696 73.662 159.93 73.487 158.67C73.3121 157.41 73.3698 156.437 72.5565 156.21C71.7432 155.983 71.3431 155.916 71.0248 156.003Z" fill="#056AD4"/>
<path d="M71.5627 157.314C71.5627 157.314 72.041 158.406 72.7055 157.489" stroke="#3F2B3B" stroke-miterlimit="10"/>
<path d="M70.4646 157.747C70.4646 157.747 70.7121 158.782 71.6501 158.012" stroke="#3F2B3B" stroke-miterlimit="10"/>
<path opacity="0.1" d="M86.6823 155.868C86.6078 156.899 86.4087 158.553 86.4087 158.553C86.4087 158.553 85.5805 158.654 84.3001 158.769C84.2929 158.697 84.2929 158.625 84.3001 158.553C84.475 157.293 84.4173 156.32 85.2306 156.093C85.9937 155.886 86.3826 155.81 86.6823 155.868Z" fill="black"/>
<path d="M86.887 156.003C86.887 156.003 89.1445 156.417 87.9236 158.363C87.8264 158.521 87.6799 158.642 87.5067 158.708C87.3634 158.758 87.2238 158.758 87.2387 158.553L86.2431 159.696C86.2431 159.696 84.2498 159.93 84.4266 158.67C84.6034 157.41 84.5439 156.437 85.3572 156.21C86.1705 155.983 86.5743 155.916 86.887 156.003Z" fill="#056AD4"/>
<path d="M86.351 157.314C86.351 157.314 85.8708 158.406 85.2083 157.489" stroke="#3F2B3B" stroke-miterlimit="10"/>
<path d="M87.4491 157.747C87.4491 157.747 87.1997 158.782 86.2617 158.012" stroke="#3F2B3B" stroke-miterlimit="10"/>
<path opacity="0.1" d="M76.6471 159.087C75.8915 159.071 75.1582 159.032 74.4789 158.965L73.8034 156.69C73.7632 156.556 73.7425 156.416 73.7419 156.275C73.7541 155.9 73.9113 155.545 74.1804 155.284C74.4494 155.022 74.8094 154.876 75.1845 154.874C75.5595 154.873 75.9204 155.018 76.1912 155.277C76.4619 155.537 76.6214 155.891 76.636 156.266C76.6434 157.152 76.6508 158.274 76.6471 159.087Z" fill="black"/>
<path d="M73.6862 156.69L74.4827 159.374C74.4827 159.374 73.1278 159.344 73.4982 160.195C73.4982 160.195 73.8388 160.517 73.956 160.399C73.956 160.399 73.7792 160.958 74.4827 160.958C74.4827 160.958 75.2421 161.369 75.5361 161.075C75.8302 160.781 76.4462 160.342 76.5057 160.167C76.543 160.051 76.5318 157.807 76.5188 156.258C76.5158 155.877 76.3621 155.512 76.0912 155.244C75.8203 154.975 75.4541 154.825 75.0727 154.825C74.8468 154.825 74.6239 154.878 74.422 154.979C74.22 155.08 74.0446 155.227 73.9098 155.409C73.775 155.59 73.6846 155.8 73.6457 156.023C73.6069 156.245 73.6208 156.474 73.6862 156.69Z" fill="#056AD4"/>
<path d="M74.7619 160.068C74.7619 160.068 74.1701 160.626 74.4828 160.956" stroke="#3F2B3B" stroke-miterlimit="10"/>
<path d="M74.5069 159.713C74.5069 159.713 73.9597 159.899 73.9597 160.399" stroke="#3F2B3B" stroke-miterlimit="10"/>
<path opacity="0.1" d="M84.1307 156.275C84.1308 156.416 84.1107 156.555 84.0712 156.69L83.4403 158.843C82.774 158.897 82.0258 158.95 81.2349 158.994C81.2349 158.19 81.2349 157.12 81.2479 156.266C81.2491 155.882 81.4027 155.515 81.6747 155.245C81.9468 154.974 82.3151 154.823 82.6986 154.824C83.0821 154.826 83.4495 154.979 83.7198 155.251C83.9901 155.523 84.1413 155.892 84.1401 156.275H84.1307Z" fill="black"/>
<path d="M84.1846 156.69L83.388 159.374C83.388 159.374 84.7448 159.344 84.3744 160.195C84.3744 160.195 84.0338 160.517 83.9166 160.399C83.9166 160.399 84.0915 160.958 83.388 160.958C83.388 160.958 82.6287 161.369 82.3347 161.075C82.0406 160.781 81.4265 160.342 81.3669 160.167C81.3297 160.051 81.3409 157.807 81.3539 156.258C81.3568 155.877 81.5106 155.512 81.7815 155.244C82.0524 154.975 82.4185 154.825 82.8 154.825C83.0257 154.825 83.2484 154.878 83.4501 154.98C83.6518 155.081 83.8269 155.228 83.9615 155.409C84.0961 155.591 84.1864 155.801 84.2251 156.023C84.2638 156.246 84.25 156.474 84.1846 156.69Z" fill="#056AD4"/>
<path d="M83.1108 160.068C83.1108 160.068 83.7027 160.626 83.39 160.956" stroke="#3F2B3B" stroke-miterlimit="10"/>
<path d="M83.3713 159.713C83.3713 159.713 83.9185 159.899 83.9185 160.399" stroke="#3F2B3B" stroke-miterlimit="10"/>
<path opacity="0.1" d="M78.3817 143.933C78.3817 143.933 75.6254 143.845 75.5379 145.98C75.4504 148.114 79.8445 147.21 79.8445 147.21C79.8445 147.21 81.6907 146.962 81.3687 145.665C81.0468 144.368 80.3749 144.05 78.3817 143.933Z" fill="black"/>
<path opacity="0.1" d="M78.3817 143.698C78.3817 143.698 75.6254 143.61 75.5379 145.745C75.4504 147.88 79.8445 146.975 79.8445 146.975C79.8445 146.975 81.6907 146.728 81.3687 145.431C81.0468 144.133 80.3749 143.815 78.3817 143.698Z" fill="black"/>
<path d="M78.3817 143.815C78.3817 143.815 75.6254 143.728 75.5379 145.862C75.4504 147.997 79.8445 147.093 79.8445 147.093C79.8445 147.093 81.6907 146.845 81.3687 145.548C81.0468 144.251 80.3749 143.932 78.3817 143.815Z" fill="#3F2B3B"/>
<path opacity="0.1" d="M72.2327 154.569C72.2327 154.569 73.1632 154.9 73.3493 155.535L72.2327 154.569Z" fill="black"/>
<path opacity="0.1" d="M85.3533 154.1C85.3533 154.1 84.6926 154.377 84.7392 155.535L85.3533 154.1Z" fill="black"/>
<path d="M72.9806 160.027C73.1872 159.908 73.1951 159.534 72.9982 159.192C72.8014 158.849 72.4744 158.668 72.2678 158.787C72.0613 158.905 72.0534 159.279 72.2502 159.622C72.447 159.964 72.7741 160.146 72.9806 160.027Z" fill="#056AD4"/>
<path d="M86.093 158.983C86.2898 158.642 86.2827 158.269 86.0771 158.151C85.8714 158.032 85.5452 158.212 85.3483 158.553C85.1515 158.894 85.1586 159.266 85.3643 159.385C85.5699 159.504 85.8961 159.324 86.093 158.983Z" fill="#056AD4"/>
<path opacity="0.5" d="M72.9806 160.027C73.1872 159.908 73.1951 159.534 72.9982 159.192C72.8014 158.849 72.4744 158.668 72.2678 158.787C72.0613 158.905 72.0534 159.279 72.2502 159.622C72.447 159.964 72.7741 160.146 72.9806 160.027Z" fill="white"/>
<path opacity="0.5" d="M86.093 158.983C86.2898 158.642 86.2827 158.269 86.0771 158.151C85.8714 158.032 85.5452 158.212 85.3483 158.553C85.1515 158.894 85.1586 159.266 85.3643 159.385C85.5699 159.504 85.8961 159.324 86.093 158.983Z" fill="white"/>
<path opacity="0.1" d="M35.8447 136.112C38.6127 136.112 40.8566 135.733 40.8566 135.265C40.8566 134.798 38.6127 134.419 35.8447 134.419C33.0767 134.419 30.8328 134.798 30.8328 135.265C30.8328 135.733 33.0767 136.112 35.8447 136.112Z" fill="#056AD4"/>
<path opacity="0.1" d="M16.1003 148.122C18.8683 148.122 21.1122 147.743 21.1122 147.275C21.1122 146.807 18.8683 146.428 16.1003 146.428C13.3323 146.428 11.0884 146.807 11.0884 147.275C11.0884 147.743 13.3323 148.122 16.1003 148.122Z" fill="#056AD4"/>
<path d="M10.8819 137.796C15.0149 137.796 18.3653 137.23 18.3653 136.531C18.3653 135.832 15.0149 135.265 10.8819 135.265C6.74889 135.265 3.39844 135.832 3.39844 136.531C3.39844 137.23 6.74889 137.796 10.8819 137.796Z" fill="#056AD4"/>
<path d="M7.78676 134.461C7.44462 134.184 7.1953 133.809 7.0721 133.386C6.98091 132.958 7.16329 132.446 7.57087 132.289C8.0287 132.114 8.51817 132.431 8.88853 132.751C9.25888 133.071 9.68507 133.438 10.1708 133.371C9.92101 133.144 9.73416 132.857 9.62848 132.536C9.52281 132.216 9.50191 131.874 9.56782 131.543C9.58789 131.406 9.6459 131.277 9.73532 131.171C9.98843 130.899 10.45 131.016 10.7552 131.23C11.7211 131.912 11.9928 133.226 11.9966 134.409C12.0952 133.981 12.0133 133.538 12.0152 133.106C12.017 132.675 12.138 132.176 12.5065 131.949C12.7341 131.823 12.9908 131.759 13.2509 131.763C13.6864 131.748 14.1703 131.791 14.4681 132.109C14.8403 132.503 14.7417 133.168 14.4197 133.598C14.0977 134.028 13.6101 134.305 13.1616 134.606C12.8003 134.821 12.4923 135.114 12.2608 135.464C12.2337 135.513 12.2113 135.564 12.1938 135.617H9.47477C8.86212 135.31 8.2942 134.922 7.78676 134.461Z" fill="#056AD4"/>
<path opacity="0.1" d="M191.661 143.196C194.429 143.196 196.673 142.816 196.673 142.349C196.673 141.881 194.429 141.502 191.661 141.502C188.893 141.502 186.649 141.881 186.649 142.349C186.649 142.816 188.893 143.196 191.661 143.196Z" fill="#056AD4"/>
<path d="M188.296 138.412C188.296 138.412 191.155 138.325 192.018 137.711C192.882 137.097 196.414 136.365 196.628 137.35C196.842 138.334 200.926 142.243 197.697 142.269C194.468 142.295 190.198 141.766 189.338 141.241C188.479 140.717 188.296 138.412 188.296 138.412Z" fill="#A8A8A8"/>
<path opacity="0.2" d="M197.752 141.928C194.525 141.954 190.254 141.426 189.394 140.901C188.739 140.503 188.479 139.071 188.391 138.411H188.296C188.296 138.411 188.482 140.717 189.336 141.24C190.191 141.763 194.468 142.293 197.695 142.267C198.625 142.267 198.949 141.928 198.93 141.437C198.802 141.742 198.447 141.928 197.752 141.928Z" fill="black"/>
</g>
<defs>
<linearGradient id="paint0_linear" x1="69.4429" y1="134.195" x2="69.4429" y2="24.1879" gradientUnits="userSpaceOnUse">
<stop stop-color="#808080" stop-opacity="0.25"/>
<stop offset="0.54" stop-color="#808080" stop-opacity="0.12"/>
<stop offset="1" stop-color="#808080" stop-opacity="0.1"/>
</linearGradient>
<linearGradient id="paint1_linear" x1="25613.7" y1="88917.1" x2="25613.7" y2="19482.4" gradientUnits="userSpaceOnUse">
<stop stop-color="#808080" stop-opacity="0.25"/>
<stop offset="0.54" stop-color="#808080" stop-opacity="0.12"/>
<stop offset="1" stop-color="#808080" stop-opacity="0.1"/>
</linearGradient>
<linearGradient id="paint2_linear" x1="33962.7" y1="90518.6" x2="33962.7" y2="26261.2" gradientUnits="userSpaceOnUse">
<stop stop-color="#808080" stop-opacity="0.25"/>
<stop offset="0.54" stop-color="#808080" stop-opacity="0.12"/>
<stop offset="1" stop-color="#808080" stop-opacity="0.1"/>
</linearGradient>
<linearGradient id="paint3_linear" x1="11525.8" y1="22570.3" x2="11525.8" y2="19043.6" gradientUnits="userSpaceOnUse">
<stop stop-color="#808080" stop-opacity="0.25"/>
<stop offset="0.54" stop-color="#808080" stop-opacity="0.12"/>
<stop offset="1" stop-color="#808080" stop-opacity="0.1"/>
</linearGradient>
<clipPath id="clip0">
<rect width="212" height="162" fill="white"/>
</clipPath>
</defs>
</svg>
