<svg width="360" height="255" viewBox="0 0 360 255" fill="none" xmlns="http://www.w3.org/2000/svg">
<g clip-path="url(#clip0)">
<path opacity="0.1" d="M44.7151 188.406C43.2474 191.381 45.3616 194.592 44.6213 197.664C43.7032 201.54 38.4371 204.557 32.7637 206.482C27.0902 208.407 20.7541 209.577 15.2229 211.65C12.8307 212.545 10.3382 214.196 11.5828 215.714C12.0128 216.241 12.821 216.609 13.6065 216.954C29.712 223.983 49.6223 227.802 69.5327 227.679C90.5713 227.546 111.177 223.157 132.199 223.66C159.315 224.306 185.539 233.047 212.348 230.528C223.731 229.459 234.305 226.409 245.383 224.507C261.683 221.706 278.826 221.425 295.704 220.505C308.38 219.813 322.859 218.02 328.92 211.282C333.297 206.411 331.461 199.976 325.293 195.851C319.125 191.726 309.272 189.963 300.165 190.764C295.271 191.193 290.406 192.308 285.515 191.865C282.673 191.607 280.041 190.838 277.459 190.082C257.416 184.203 236.632 178.337 214.372 177.484C178.149 176.086 144.606 187.999 109.334 193.151C103.838 193.952 97.8773 194.569 92.6888 193.225C87.219 191.807 83.6371 188.457 78.1641 187.046C75.5779 186.374 72.6685 186.18 70.1114 185.45C63.0866 183.441 66.3388 180.679 56.605 182.543C51.4973 183.515 46.3541 185.085 44.7151 188.406Z" fill="#002852"/>
<path d="M231.567 89.1798C231.567 89.1798 255.644 51.3604 258.554 35.2093C261.463 19.0582 266.959 4.19922 266.959 4.19922" stroke="#535461" stroke-width="2" stroke-miterlimit="10"/>
<path d="M272.454 36.5015L257.26 37.7936C257.26 37.7936 265.342 51.6835 272.454 36.5015Z" fill="#002852"/>
<path d="M245.946 28.103L257.978 37.7323C257.978 37.7323 242.39 43.9311 245.946 28.103Z" fill="#002852"/>
<path d="M274.394 23.2576L260.713 25.0891C260.713 25.0891 272.778 34.8864 274.394 23.2576Z" fill="#002852"/>
<path d="M251.765 18.4124L260.797 24.7468C260.797 24.7468 249.825 29.3951 251.765 18.4124Z" fill="#002852"/>
<path d="M264.15 12.6591C264.15 12.6591 275.364 9.69057 276.98 10.3366C278.597 10.9827 277.627 18.0891 273.101 18.4122C268.575 18.7352 264.15 12.6591 264.15 12.6591Z" fill="#002852"/>
<path d="M256.614 4.19922C256.614 4.19922 263.726 10.9827 264.049 12.5978C264.373 14.2129 258.23 18.0892 254.998 12.5978C251.765 7.10642 256.614 4.19922 256.614 4.19922Z" fill="#002852"/>
<path d="M269.868 8.07543C271.654 8.07543 273.101 6.62921 273.101 4.84521C273.101 3.06121 271.654 1.61499 269.868 1.61499C268.083 1.61499 266.635 3.06121 266.635 4.84521C266.635 6.62921 268.083 8.07543 269.868 8.07543Z" fill="#FFD037"/>
<path d="M264.049 6.46044C265.835 6.46044 267.282 5.01422 267.282 3.23022C267.282 1.44622 265.835 0 264.049 0C262.264 0 260.816 1.44622 260.816 3.23022C260.816 5.01422 262.264 6.46044 264.049 6.46044Z" fill="#FFD037"/>
<path d="M52.713 199.809C52.713 199.809 42.4264 172.83 50.5115 151.759C53.9059 142.915 54.5072 133.237 51.9145 124.125C50.6757 119.808 49.0439 115.614 47.0396 111.594" stroke="#535461" stroke-width="2" stroke-miterlimit="10"/>
<path d="M52.0535 98.273C52.3153 101.658 46.949 111.947 46.949 111.947C46.949 111.947 40.0536 102.611 39.7917 99.226C39.6653 97.6008 40.1901 95.992 41.2507 94.7535C42.3114 93.5149 43.8209 92.7481 45.4474 92.6218C47.0738 92.4954 48.6839 93.0198 49.9234 94.0796C51.1628 95.1395 51.9302 96.6479 52.0567 98.273H52.0535Z" fill="#002852"/>
<path d="M63.6459 116.23C62.0296 119.214 51.9241 124.935 51.9241 124.935C51.9241 124.935 51.2161 113.355 52.8357 110.37C53.6133 108.937 54.9287 107.872 56.4926 107.408C58.0564 106.944 59.7405 107.12 61.1745 107.897C62.6085 108.674 63.6748 109.989 64.1389 111.551C64.6029 113.114 64.4268 114.797 63.6492 116.23H63.6459Z" fill="#002852"/>
<path d="M65.6954 148.293C62.7859 150.05 51.1804 149.908 51.1804 149.908C51.1804 149.908 56.4207 139.552 59.3237 137.795C60.0146 137.377 60.7811 137.099 61.5796 136.977C62.378 136.855 63.1927 136.891 63.9771 137.084C64.7615 137.276 65.5002 137.621 66.1511 138.099C66.8021 138.577 67.3524 139.178 67.7708 139.869C68.1892 140.559 68.4674 141.325 68.5895 142.123C68.7116 142.92 68.6753 143.735 68.4825 144.518C68.2898 145.302 67.9445 146.04 67.4663 146.691C66.9881 147.341 66.3863 147.891 65.6954 148.309V148.293Z" fill="#002852"/>
<path d="M61.7772 172.904C59.2104 175.126 47.7407 176.932 47.7407 176.932C47.7407 176.932 51.1545 165.839 53.718 163.617C54.3283 163.088 55.0368 162.685 55.8031 162.429C56.5694 162.174 57.3785 162.072 58.1842 162.13C58.9899 162.187 59.7765 162.402 60.4989 162.763C61.2213 163.124 61.8655 163.624 62.3947 164.234C62.9238 164.844 63.3276 165.552 63.583 166.317C63.8383 167.083 63.9403 167.892 63.8829 168.697C63.8256 169.502 63.6101 170.288 63.2488 171.009C62.8875 171.731 62.3875 172.375 61.7772 172.904V172.904Z" fill="#002852"/>
<path d="M39.1 126.589C41.7121 128.76 53.2174 130.323 53.2174 130.323C53.2174 130.323 49.5741 119.305 46.9588 117.138C45.7045 116.096 44.0873 115.595 42.4632 115.744C40.839 115.894 39.3409 116.682 38.2983 117.935C37.2558 119.189 36.7542 120.805 36.9039 122.428C37.0537 124.05 37.8425 125.547 39.0968 126.589H39.1Z" fill="#002852"/>
<path d="M34.8845 155.428C38.0267 156.721 49.4739 154.782 49.4739 154.782C49.4739 154.782 42.6851 145.36 39.5558 144.071C38.0469 143.452 36.3536 143.457 34.8486 144.086C33.3435 144.714 32.15 145.915 31.5306 147.422C30.9111 148.93 30.9165 150.622 31.5455 152.126C32.1745 153.63 33.3756 154.822 34.8845 155.441V155.428Z" fill="#002852"/>
<path d="M34.6354 184.019C37.5158 185.819 49.1277 185.835 49.1277 185.835C49.1277 185.835 44.0394 175.401 41.1623 173.615C39.7798 172.75 38.1101 172.469 36.5205 172.835C34.9309 173.2 33.5516 174.181 32.6861 175.563C31.8206 176.944 31.5397 178.612 31.9053 180.201C32.2708 181.789 33.2529 183.167 34.6354 184.032V184.019Z" fill="#002852"/>
<path d="M52.0535 98.273C52.3153 101.658 46.949 111.947 46.949 111.947C46.949 111.947 40.0536 102.611 39.7917 99.226C39.6653 97.6008 40.1901 95.992 41.2507 94.7535C42.3114 93.5149 43.8209 92.7481 45.4474 92.6218C47.0738 92.4954 48.6839 93.0198 49.9234 94.0796C51.1628 95.1395 51.9302 96.6479 52.0567 98.273H52.0535Z" fill="#002852"/>
<path d="M63.6459 116.23C62.0296 119.214 51.9241 124.935 51.9241 124.935C51.9241 124.935 51.2161 113.355 52.8357 110.37C53.6133 108.937 54.9287 107.872 56.4926 107.408C58.0564 106.944 59.7405 107.12 61.1745 107.897C62.6085 108.674 63.6748 109.989 64.1389 111.551C64.6029 113.114 64.4268 114.797 63.6492 116.23H63.6459Z" fill="#002852"/>
<path d="M65.6954 148.293C62.7859 150.05 51.1804 149.908 51.1804 149.908C51.1804 149.908 56.4207 139.552 59.3237 137.795C60.0146 137.377 60.7811 137.099 61.5796 136.977C62.378 136.855 63.1927 136.891 63.9771 137.084C64.7615 137.276 65.5002 137.621 66.1511 138.099C66.8021 138.577 67.3524 139.178 67.7708 139.869C68.1892 140.559 68.4674 141.325 68.5895 142.123C68.7116 142.92 68.6753 143.735 68.4825 144.518C68.2898 145.302 67.9445 146.04 67.4663 146.691C66.9881 147.341 66.3863 147.891 65.6954 148.309V148.293Z" fill="#002852"/>
<path d="M61.7772 172.904C59.2104 175.126 47.7407 176.932 47.7407 176.932C47.7407 176.932 51.1545 165.839 53.718 163.617C54.3283 163.088 55.0368 162.685 55.8031 162.429C56.5694 162.174 57.3785 162.072 58.1842 162.13C58.9899 162.187 59.7765 162.402 60.4989 162.763C61.2213 163.124 61.8655 163.624 62.3947 164.234C62.9238 164.844 63.3276 165.552 63.583 166.317C63.8383 167.083 63.9403 167.892 63.8829 168.697C63.8256 169.502 63.6101 170.288 63.2488 171.009C62.8875 171.731 62.3875 172.375 61.7772 172.904V172.904Z" fill="#002852"/>
<path d="M39.1 126.589C41.7121 128.76 53.2174 130.323 53.2174 130.323C53.2174 130.323 49.5741 119.305 46.9588 117.138C45.7045 116.096 44.0873 115.595 42.4632 115.744C40.839 115.894 39.3409 116.682 38.2983 117.935C37.2558 119.189 36.7542 120.805 36.9039 122.428C37.0537 124.05 37.8425 125.547 39.0968 126.589H39.1Z" fill="#002852"/>
<path d="M34.8845 155.428C38.0267 156.721 49.4739 154.782 49.4739 154.782C49.4739 154.782 42.6851 145.36 39.5558 144.071C38.0469 143.452 36.3536 143.457 34.8486 144.086C33.3435 144.714 32.15 145.915 31.5306 147.422C30.9111 148.93 30.9165 150.622 31.5455 152.126C32.1745 153.63 33.3756 154.822 34.8845 155.441V155.428Z" fill="#002852"/>
<path d="M34.6354 184.019C37.5158 185.819 49.1277 185.835 49.1277 185.835C49.1277 185.835 44.0394 175.401 41.1623 173.615C39.7798 172.75 38.1101 172.469 36.5205 172.835C34.9309 173.2 33.5516 174.181 32.6861 175.563C31.8206 176.944 31.5397 178.612 31.9053 180.201C32.2708 181.789 33.2529 183.167 34.6354 184.032V184.019Z" fill="#002852"/>
<path d="M72.995 194.95C72.995 194.95 65.1912 194.01 62.9735 192.124C60.7558 190.237 51.2678 187.369 50.4402 190.008C49.6126 192.647 37.4867 202.341 46.312 203.204C55.1374 204.066 66.9724 203.656 69.439 202.435C71.9055 201.214 72.995 194.95 72.995 194.95Z" fill="#A8A8A8"/>
<path opacity="0.2" d="M46.2506 202.251C55.0792 203.11 66.898 202.706 69.3808 201.485C71.2719 200.555 72.3355 196.704 72.7363 194.918L72.9982 194.95C72.9982 194.95 71.9379 201.21 69.4422 202.435C66.9465 203.659 55.1406 204.05 46.312 203.2C43.7646 202.952 42.9629 201.966 43.131 200.616C43.4252 201.472 44.353 202.066 46.2506 202.251Z" fill="black"/>
<path opacity="0.1" d="M338.467 149.156C325.794 166.509 329.997 191.278 337.303 211.012C339.753 217.617 342.537 224.604 341.266 231.792C339.715 240.578 332.422 247.161 324.841 250.747C311.021 257.281 294.696 256.238 282.334 248.004C271.666 240.898 264.156 229.088 253.281 222.321C235.081 210.999 211.453 216.057 191.197 224.701C176.866 230.816 161.168 238.691 147.202 233.045C137.375 229.072 130.757 218.958 127.276 208.146C125.595 202.926 124.418 197.261 121.069 193.174C119.078 190.745 116.446 189.053 113.74 187.638C89.0455 174.717 57.2807 182.792 33.3391 168.376C17.1755 158.64 7.11523 139.747 2.93531 119.884C-1.24461 100.021 -0.210135 79.054 1.45472 58.4452C2.6379 43.7994 4.50965 28.149 13.3221 16.6397C22.642 4.46825 38.2626 -0.37062 52.2312 1.53844C66.1998 3.4475 78.7202 11.2097 89.6791 20.4481C103.383 31.9994 115.99 46.4934 133.033 50.8671C144.642 53.8518 156.975 51.7393 169.043 50.8057C189.215 49.2488 209.316 51.0415 229.294 53.0669C248.419 55.005 267.676 57.1693 285.789 63.5231C298.607 68.0196 308.768 76.5183 320.835 82.3262C328.701 86.112 337.355 86.9906 344.758 91.8812C353.893 97.9056 362.15 108.578 359.47 121.386C356.939 133.561 345.191 139.947 338.467 149.156Z" fill="#002852"/>
<path d="M278.419 26.3167H67.3539C65.1655 26.3149 63.0661 27.1817 61.5172 28.7264C59.9684 30.271 59.0968 32.3671 59.0942 34.5537V157.464C59.0968 159.65 59.9684 161.746 61.5172 163.291C63.0661 164.836 65.1655 165.702 67.3539 165.701H152.349V195.99H144.351C143.829 195.99 143.327 196.198 142.958 196.566C142.588 196.935 142.38 197.436 142.379 197.958V202.041H204.409V197.951C204.408 197.429 204.2 196.929 203.83 196.56C203.46 196.191 202.959 195.984 202.437 195.984H192.225V165.691H278.419C280.605 165.693 282.703 164.827 284.252 163.285C285.801 161.742 286.673 159.649 286.678 157.464V34.5537C286.676 32.3671 285.804 30.271 284.255 28.7264C282.707 27.1817 280.607 26.3149 278.419 26.3167V26.3167Z" fill="url(#paint0_linear)"/>
<path d="M192.072 159.954H152.869V197.754H192.072V159.954Z" fill="#474059"/>
<path opacity="0.1" d="M192.072 194.401H152.869V197.754H192.072V194.401Z" fill="black"/>
<path d="M145.007 194.782H202.113C202.628 194.782 203.121 194.986 203.485 195.35C203.849 195.713 204.053 196.206 204.053 196.72V200.752H143.068V196.72C143.068 196.206 143.272 195.713 143.636 195.35C143.999 194.986 144.493 194.782 145.007 194.782V194.782Z" fill="#474059"/>
<path d="M276.818 27.6086H69.3064C64.8215 27.6086 61.1858 31.2415 61.1858 35.723V156.811C61.1858 161.292 64.8215 164.925 69.3064 164.925H276.818C281.303 164.925 284.939 161.292 284.939 156.811V35.723C284.939 31.2415 281.303 27.6086 276.818 27.6086Z" fill="#474059"/>
<path d="M279.757 43.6467H65.896V155.826H279.757V43.6467Z" fill="#002852"/>
<path d="M172.828 39.7124C173.869 39.7124 174.713 38.8794 174.713 37.8518C174.713 36.8242 173.869 35.9912 172.828 35.9912C171.787 35.9912 170.943 36.8242 170.943 37.8518C170.943 38.8794 171.787 39.7124 172.828 39.7124Z" fill="#002852"/>
<path opacity="0.1" d="M192.034 165.019H152.953V165.756H192.034V165.019Z" fill="black"/>
<path d="M185.798 69.8438C179.556 75.01 174.84 81.778 172.158 89.4205C169.475 97.0631 168.927 105.292 170.572 113.222C172.217 121.152 175.994 128.485 181.496 134.432C186.997 140.38 194.017 144.717 201.8 146.978L214.265 104.165L185.798 69.8438Z" fill="#D6D6E3"/>
<path d="M215.235 59.5879C204.837 59.5726 194.763 63.2019 186.768 69.8439L215.235 104.165L238.808 66.3165C231.738 61.9074 223.569 59.5756 215.235 59.5879V59.5879Z" fill="#D6D6E3"/>
<path d="M215.235 104.165L202.77 146.975C209.355 148.886 216.292 149.255 223.042 148.053C229.793 146.852 236.176 144.113 241.696 140.049C247.216 135.984 251.725 130.704 254.873 124.617C258.02 118.53 259.723 111.8 259.847 104.95L215.235 104.165Z" fill="#8499F0"/>
<path d="M101.12 82.5225H84.9561V92.2131H101.12V82.5225Z" fill="#8499F0"/>
<path d="M101.12 99.3196H84.9561V109.01H101.12V99.3196Z" fill="#FC6681"/>
<path d="M101.12 116.117H84.9561V125.807H101.12V116.117Z" fill="#002852"/>
<path d="M140.236 85.4297H109.848V89.306H140.236V85.4297Z" fill="#D6D6E3"/>
<path d="M140.236 102.227H109.848V106.103H140.236V102.227Z" fill="#D6D6E3"/>
<path d="M140.236 119.024H109.848V122.9H140.236V119.024Z" fill="#D6D6E3"/>
<path d="M279.89 43.4368H65.8831V47.313H279.89V43.4368Z" fill="#D6D6E3"/>
<path d="M68.4691 46.3439C69.0047 46.3439 69.4389 45.91 69.4389 45.3748C69.4389 44.8396 69.0047 44.4058 68.4691 44.4058C67.9335 44.4058 67.4993 44.8396 67.4993 45.3748C67.4993 45.91 67.9335 46.3439 68.4691 46.3439Z" fill="#FC6681"/>
<path d="M71.0553 46.3439C71.5909 46.3439 72.0251 45.91 72.0251 45.3748C72.0251 44.8396 71.5909 44.4058 71.0553 44.4058C70.5196 44.4058 70.0854 44.8396 70.0854 45.3748C70.0854 45.91 70.5196 46.3439 71.0553 46.3439Z" fill="#FFC74C"/>
<path d="M73.6415 46.3439C74.1771 46.3439 74.6113 45.91 74.6113 45.3748C74.6113 44.8396 74.1771 44.4058 73.6415 44.4058C73.1058 44.4058 72.6716 44.8396 72.6716 45.3748C72.6716 45.91 73.1058 46.3439 73.6415 46.3439Z" fill="#85D459"/>
<path d="M294.738 174.761C294.738 174.761 296.28 176.777 294.026 179.82C291.773 182.863 289.914 185.431 290.664 187.33C290.664 187.33 294.065 181.677 296.836 181.6C299.606 181.522 297.786 178.159 294.738 174.761Z" fill="#002852"/>
<path opacity="0.1" d="M294.738 174.761C294.876 174.96 294.985 175.177 295.061 175.407C297.764 178.579 299.202 181.545 296.606 181.613C294.188 181.68 291.285 186.002 290.59 187.104C290.612 187.188 290.639 187.271 290.671 187.353C290.671 187.353 294.072 181.7 296.842 181.622C299.613 181.545 297.786 178.159 294.738 174.761Z" fill="black"/>
<path d="M297.605 177.329C297.605 178.04 297.524 178.622 297.427 178.622C297.33 178.622 297.25 178.047 297.25 177.329C297.25 176.612 297.35 176.955 297.447 176.955C297.544 176.955 297.605 176.619 297.605 177.329Z" fill="#FFD037"/>
<path d="M298.591 178.176C297.967 178.515 297.424 178.722 297.379 178.635C297.334 178.548 297.799 178.202 298.423 177.862C299.047 177.523 298.801 177.769 298.846 177.862C298.892 177.956 299.215 177.837 298.591 178.176Z" fill="#FFD037"/>
<path d="M286.591 174.761C286.591 174.761 285.049 176.777 287.303 179.82C289.556 182.863 291.415 185.431 290.665 187.33C290.665 187.33 287.264 181.677 284.493 181.6C281.723 181.522 283.546 178.159 286.591 174.761Z" fill="#002852"/>
<path opacity="0.1" d="M286.591 174.761C286.453 174.96 286.344 175.177 286.268 175.407C283.565 178.579 282.127 181.545 284.723 181.613C287.141 181.68 290.044 186.002 290.739 187.104C290.716 187.188 290.689 187.271 290.658 187.353C290.658 187.353 287.257 181.7 284.487 181.622C281.716 181.545 283.546 178.159 286.591 174.761Z" fill="black"/>
<path d="M283.724 177.329C283.724 178.04 283.804 178.622 283.901 178.622C283.998 178.622 284.079 178.047 284.079 177.329C284.079 176.612 283.979 176.955 283.882 176.955C283.785 176.955 283.724 176.619 283.724 177.329Z" fill="#FFD037"/>
<path d="M282.741 178.176C283.365 178.515 283.908 178.722 283.953 178.635C283.999 178.548 283.533 178.202 282.909 177.862C282.285 177.523 282.531 177.769 282.486 177.862C282.44 177.956 282.117 177.837 282.741 178.176Z" fill="#FFD037"/>
<path d="M301.226 187.789C301.226 187.789 296.984 186.943 295.853 185.812C294.721 184.681 289.63 182.704 289.064 184.116C288.498 185.528 281.428 190.334 286.235 191.181C291.042 192.027 297.55 192.311 298.963 191.746C300.375 191.181 301.226 187.789 301.226 187.789Z" fill="#A8A8A8"/>
<path opacity="0.2" d="M286.235 190.654C291.042 191.5 297.55 191.785 298.963 191.219C300.039 190.79 300.789 188.722 301.083 187.76L301.226 187.789C301.226 187.789 300.379 191.181 298.963 191.746C297.547 192.311 291.042 192.027 286.235 191.181C284.849 190.935 284.451 190.36 284.6 189.633C284.719 190.105 285.204 190.473 286.235 190.654Z" fill="black"/>
<path d="M270.838 132.756C270.842 124.521 268.744 116.421 264.742 109.223C260.741 102.024 254.968 95.9638 247.97 91.6155L222.347 132.756L270.838 133.608C270.838 133.327 270.838 133.043 270.838 132.756Z" fill="url(#paint1_linear)"/>
<path d="M268.898 131.147C268.902 123.571 266.972 116.12 263.29 109.497C259.609 102.874 254.298 97.2991 247.86 93.2986L224.287 131.147L268.898 131.945C268.898 131.67 268.898 131.409 268.898 131.147Z" fill="#FC6681"/>
<path d="M333.876 84.3508C333.876 84.2259 333.865 84.1064 333.841 83.9922C333.817 83.8781 333.796 83.7467 333.776 83.5981C333.729 83.3397 333.676 83.0899 333.618 82.8487C333.588 82.7281 333.556 82.6097 333.524 82.4934C333.169 81.1586 332.531 79.9158 331.652 78.8497L331.5 78.6753C331.399 78.5633 331.3 78.4556 331.203 78.3523C331.106 78.2489 331.01 78.1563 330.915 78.0745C330.821 77.9873 330.728 77.9065 330.64 77.8322C330.463 77.6836 330.298 77.5609 330.149 77.4575C330 77.3541 329.939 77.3154 329.852 77.2637C329.639 77.1347 329.401 77.0552 329.153 77.0311L327.615 76.8761L325.533 76.6693L318.013 73.704L317.716 73.8106C317.496 73.1956 317.311 72.5691 317.16 71.9338C317.389 71.8335 317.592 71.6834 317.755 71.4945C317.932 71.3531 318.072 71.17 318.162 70.9615C318.35 70.519 317.988 69.5693 318.062 69.0234C318.181 68.1545 318.628 67.3146 318.986 66.5264C319.759 64.8338 320.322 62.999 320.231 61.1417C320.141 59.2843 319.307 57.3978 317.761 56.3609C316.963 55.8247 316.022 55.5372 315.194 55.0462C314.548 54.6651 313.979 54.1676 313.361 53.738C311.855 52.7162 310.106 52.1087 308.29 51.9766C306.474 51.8445 304.655 52.1924 303.017 52.9854C301.455 53.7671 300.123 54.9235 298.649 55.8732C297.175 56.8229 295.439 57.5303 293.716 57.2557C293.692 57.326 293.675 57.3985 293.664 57.4721L293.519 57.4527C293.222 58.2765 293.949 59.0872 294.621 59.6493C295.895 60.7153 297.337 61.778 298.998 61.8168C299.645 61.8168 300.317 61.694 300.903 61.9621C301.03 62.0224 301.149 62.0984 301.258 62.1882C300.884 63.6872 300.926 65.2597 301.379 66.7366C301.833 68.2136 302.681 69.5391 303.831 70.5707L299.994 69.1688C299.994 69.1688 299.833 69.2527 299.587 69.411L294.256 65.8093C294.256 65.8093 283.572 61.8491 280.604 67.9865C277.637 74.1239 293.467 70.9421 293.467 70.9421L296.855 72.8318C296.743 73.541 296.874 74.2672 297.227 74.8927L306.463 80.6909C304.598 81.2756 301.53 82.2091 300.987 82.2091C300.195 82.2091 298.019 83.0005 296.632 86.1629C295.245 89.3253 290.299 104.75 285.948 107.318C281.597 109.886 270.108 127.09 270.108 127.09L270.159 127.225C269.955 127.279 269.754 127.34 269.558 127.406C266.687 128.356 264.754 130.356 263.594 131.977C263.397 132.25 263.275 132.57 263.239 132.905C263.204 133.24 263.256 133.578 263.391 133.886C263.526 134.195 263.739 134.463 264.009 134.664C264.28 134.865 264.598 134.992 264.932 135.033C269.458 135.614 271.937 133.495 273.127 131.893C273.205 131.79 273.276 131.686 273.344 131.59C273.697 131.744 274.096 131.762 274.462 131.641L280.009 127.1C280.009 127.1 275.687 131.428 278.215 135.379L278.021 135.653C273.724 141.884 270.578 148.833 268.73 156.171C268.73 156.171 266.354 157.951 266.144 165.067C265.934 172.184 263.558 183.654 263.558 183.654C263.558 183.654 261.974 197.295 262.963 201.449C262.963 201.449 263.076 201.614 263.287 201.866C263.212 201.957 263.131 202.05 263.041 202.15C262.178 203.097 260.62 204.412 258.806 204.017C256.035 203.423 256.035 208.369 259.992 208.763C262.54 209.018 267.55 210.174 270.793 210.966C271.15 211.053 271.523 211.054 271.88 210.967C272.238 210.88 272.569 210.709 272.846 210.467C273.122 210.225 273.337 209.92 273.471 209.578C273.605 209.236 273.654 208.866 273.615 208.501C273.421 206.731 273.069 204.586 272.429 203.061C272.39 202.968 272.348 202.874 272.306 202.784C272.422 202.674 272.539 202.561 272.655 202.438C272.655 202.438 272.655 193.739 274.039 191.365C274.039 191.365 277.798 173.372 277.595 168.824C277.439 165.271 287.348 151.41 291.66 145.567L291.625 145.344C292.766 143.832 293.467 142.928 293.467 142.928L296.833 164.48C296.833 164.48 298.417 169.225 300.389 171.796C300.389 171.796 308.897 188.206 309.886 193.348C310.636 197.247 312.182 199.55 312.886 200.438C312.805 200.522 312.718 200.606 312.628 200.69C311.729 201.53 310.397 202.37 308.897 202.05C306.127 201.456 306.127 206.401 310.084 206.795C312.631 207.051 317.642 208.207 320.884 208.998C321.241 209.086 321.614 209.087 321.971 209C322.329 208.913 322.66 208.741 322.937 208.5C323.214 208.258 323.428 207.953 323.562 207.611C323.696 207.269 323.745 206.899 323.706 206.534C323.483 204.476 323.04 201.918 322.187 200.396C322.114 200.269 322.038 200.15 321.961 200.038C322.263 199.914 322.532 199.722 322.746 199.476C322.746 199.476 317.603 187.02 317.603 183.648C317.603 183.648 315.427 170.795 308.105 166.049C308.105 166.049 308.797 149.976 310.882 141.031C310.934 140.816 310.987 140.601 311.04 140.385C312.984 140.077 314.911 139.669 316.814 139.164L317.011 133.234L318 137.979L329.082 131.06C329.082 131.06 328.985 129.813 328.798 127.901C328.704 126.932 328.588 125.824 328.449 124.606C328.339 123.637 328.213 122.6 328.074 121.544C328.039 121.279 328.004 121.014 327.967 120.749C327.822 119.683 327.663 118.604 327.492 117.551C327.427 117.155 327.36 116.763 327.291 116.375C327.201 115.858 327.107 115.351 327.01 114.86C326.961 114.615 326.911 114.372 326.861 114.133C326.812 113.894 326.761 113.66 326.709 113.429C326.658 113.199 326.605 112.974 326.551 112.754L326.47 112.431C326.416 112.216 326.361 112.007 326.305 111.804C326.074 110.961 325.939 110.094 325.904 109.22C325.892 108.871 325.892 108.524 325.904 108.177C325.917 107.83 325.95 107.483 326.001 107.137C326.025 106.964 326.053 106.792 326.086 106.62C326.213 105.932 326.402 105.256 326.648 104.601C326.771 104.272 326.909 103.949 327.062 103.632C327.421 102.886 327.805 102.075 328.2 101.222C328.398 100.792 328.598 100.355 328.801 99.914C329.004 99.4725 329.206 99.0203 329.409 98.5573C331.348 94.1997 333.236 89.3415 333.744 86.15C333.799 85.827 333.834 85.504 333.857 85.2003C333.882 84.9179 333.889 84.6341 333.876 84.3508V84.3508Z" fill="url(#paint2_linear)"/>
<path d="M300.815 72.1858L294.289 67.7733C294.289 67.7733 283.924 63.939 281.034 69.8826C278.144 75.8262 293.509 72.7608 293.509 72.7608L300.036 76.4044L300.815 72.1858Z" fill="#F7BBC3"/>
<path d="M320.121 206.65C316.972 205.885 312.117 204.761 309.644 204.515C305.806 204.131 305.806 199.347 308.493 199.912C309.951 200.235 311.241 199.408 312.114 198.594C312.385 198.34 312.64 198.068 312.876 197.78C313.193 197.395 313.63 197.127 314.118 197.021C315.556 196.698 318.553 196.233 320.396 197.224C320.821 197.489 321.164 197.866 321.388 198.313C322.216 199.78 322.646 202.26 322.862 204.257C322.901 204.612 322.853 204.971 322.723 205.303C322.593 205.636 322.385 205.932 322.116 206.167C321.847 206.402 321.525 206.569 321.178 206.653C320.83 206.737 320.468 206.736 320.121 206.65V206.65Z" fill="#B77983"/>
<path d="M271.565 208.569C268.417 207.803 263.561 206.679 261.088 206.433C257.251 206.049 257.251 201.265 259.937 201.83C261.696 202.208 263.209 200.939 264.046 200.022C264.146 199.908 264.24 199.802 264.321 199.699C264.637 199.313 265.075 199.046 265.562 198.939C267.001 198.616 269.997 198.151 271.84 199.143C272.38 199.434 272.81 200.073 273.156 200.897C273.776 202.376 274.126 204.45 274.307 206.175C274.345 206.53 274.297 206.889 274.167 207.222C274.038 207.554 273.829 207.851 273.56 208.085C273.291 208.32 272.969 208.487 272.622 208.571C272.275 208.655 271.912 208.654 271.565 208.569V208.569Z" fill="#B77983"/>
<path opacity="0.1" d="M273.149 200.897C268.565 205.616 264.638 200.81 264.043 200.015C264.143 199.902 264.237 199.796 264.318 199.692C264.634 199.307 265.071 199.039 265.559 198.933C266.997 198.61 269.994 198.145 271.837 199.137C272.373 199.434 272.807 200.073 273.149 200.897Z" fill="black"/>
<path opacity="0.1" d="M321.385 198.313C319.4 199.67 312.715 199.334 312.715 199.334C312.497 199.101 312.296 198.853 312.114 198.591C312.385 198.336 312.64 198.064 312.876 197.777C313.193 197.391 313.63 197.124 314.118 197.018C315.556 196.695 318.553 196.229 320.396 197.221C320.82 197.487 321.163 197.865 321.385 198.313V198.313Z" fill="black"/>
<path d="M321.734 197.418C320.389 199.143 312.715 198.762 312.715 198.762C312.715 198.762 310.413 196.462 309.453 191.474C308.493 186.487 300.256 170.569 300.256 170.569C298.336 168.075 296.8 163.462 296.8 163.462L293.538 142.559C293.538 142.559 277.785 163.278 277.976 167.694C278.167 172.109 274.52 189.556 274.52 189.556C273.175 191.856 273.175 200.296 273.175 200.296C268.184 205.465 263.962 199.327 263.962 199.327C262.992 195.299 264.537 182.068 264.537 182.068C264.537 182.068 266.839 170.946 267.033 164.04C267.227 157.134 269.545 155.419 269.545 155.419C271.338 148.304 274.39 141.568 278.558 135.527C279.718 133.867 280.497 132.982 280.497 132.982L311.57 136.625C310.974 137.944 310.525 139.324 310.232 140.741C308.212 149.417 307.539 165.009 307.539 165.009C314.651 169.612 316.752 182.078 316.752 182.078C316.743 185.337 321.734 197.418 321.734 197.418Z" fill="#605D82"/>
<g opacity="0.05">
<path opacity="0.05" d="M291.809 145.124L291.411 142.569C291.411 142.569 275.687 163.278 275.865 167.694C276.043 172.109 272.409 189.556 272.409 189.556C271.064 191.856 271.064 200.296 271.064 200.296C270.261 201.207 269.222 201.878 268.061 202.235C269.574 202.632 271.41 202.341 273.369 200.296C273.369 200.296 273.369 191.859 274.714 189.556C274.714 189.556 278.361 172.113 278.17 167.694C278.018 164.247 287.629 150.8 291.809 145.124Z" fill="black"/>
<path opacity="0.05" d="M316.937 182.075C316.937 182.075 314.826 169.609 307.724 165.006C307.724 165.006 308.396 149.417 310.416 140.738C310.709 139.321 311.158 137.94 311.755 136.622L280.662 132.979L280.459 133.224L309.453 136.622C308.857 137.94 308.408 139.321 308.115 140.738C306.094 149.414 305.422 165.006 305.422 165.006C312.534 169.609 314.635 182.075 314.635 182.075C314.635 185.334 319.627 197.418 319.627 197.418C318.835 198.436 315.841 198.71 313.52 198.781C315.363 198.83 320.819 198.846 321.925 197.418C321.915 197.418 316.937 185.337 316.937 182.075Z" fill="black"/>
</g>
<path d="M274.717 130.294C274.486 130.862 274.181 131.396 273.809 131.883C272.655 133.437 270.253 135.492 265.86 134.93C265.536 134.887 265.23 134.762 264.969 134.567C264.709 134.371 264.503 134.111 264.373 133.813C264.243 133.514 264.192 133.187 264.226 132.863C264.26 132.539 264.377 132.229 264.566 131.964C265.695 130.394 267.57 128.453 270.353 127.532C271.147 127.269 271.97 127.102 272.804 127.035L274.717 130.294Z" fill="#F7BBC3"/>
<path d="M315.246 76.6629L299.855 71.0391C299.855 71.0391 295.439 73.339 297.169 76.6015L312.139 85.9982L315.246 76.6629Z" fill="#D9D9EA"/>
<path opacity="0.1" d="M315.246 76.6629L299.855 71.0391C299.855 71.0391 295.439 73.339 297.169 76.6015L312.139 85.9982L315.246 76.6629Z" fill="black"/>
<path d="M315.773 67.392C315.773 67.392 315.582 76.4043 319.61 79.473C323.638 82.5417 307.901 84.2666 307.901 84.2666C307.901 84.2666 310.397 75.0605 307.901 70.2669C305.406 65.4732 315.773 67.392 315.773 67.392Z" fill="#F7BBC3"/>
<path opacity="0.1" d="M311.571 136.625C310.974 137.944 310.525 139.324 310.232 140.741C291.67 143.574 278.752 135.857 278.752 135.857C278.681 135.747 278.613 135.634 278.552 135.534C279.712 133.873 280.491 132.988 280.491 132.988L311.571 136.625Z" fill="black"/>
<path opacity="0.1" d="M274.717 130.294C274.486 130.862 274.18 131.396 273.809 131.884C272.031 131.59 270.612 128.195 270.35 127.532C271.144 127.269 271.966 127.102 272.8 127.035L274.717 130.294Z" fill="black"/>
<path d="M317.322 75.4482L310.413 77.942L307.533 81.7762C307.533 81.7762 301.585 83.695 300.815 83.695C300.046 83.695 297.935 84.4606 296.593 87.5293C295.252 90.598 290.451 105.557 286.229 108.051C282.007 110.545 270.874 127.229 270.874 127.229C270.874 127.229 272.794 132.397 275.096 131.641L280.472 127.229C280.472 127.229 276.25 131.447 278.745 135.285C278.745 135.285 294.482 144.682 316.171 138.928L316.361 133.175L317.331 137.779L328.057 131.063C328.057 131.063 327.088 118.685 325.361 112.383C324.643 109.734 324.906 106.916 326.102 104.446C328.888 98.6315 333.188 88.9409 332.664 85.4167C332.047 81.2529 329.69 79.444 328.785 78.8949C328.579 78.7714 328.348 78.6952 328.109 78.672L324.615 78.3231L317.322 75.4482Z" fill="#D9D9EA"/>
<path opacity="0.05" d="M305.519 94.7197C305.519 94.7197 301.678 112.563 297.457 115.432C293.235 118.3 281.91 127.513 281.526 129.047" fill="black"/>
<path d="M303.789 94.1514C303.789 94.1514 299.952 111.982 295.73 114.857C291.508 117.732 280.184 126.938 279.799 128.472" fill="#D9D9EA"/>
<path opacity="0.1" d="M307.436 81.6793C307.436 81.6793 320.69 77.2668 324.517 78.42Z" fill="black"/>
<g opacity="0.05">
<path opacity="0.05" d="M326.118 104.449C328.904 98.6347 333.204 88.9441 332.68 85.4199C332.063 81.2561 329.706 79.4472 328.801 78.8981C328.595 78.7746 328.364 78.6984 328.125 78.6752L326.632 78.5266C326.788 78.5641 326.937 78.6251 327.075 78.7075C327.973 79.2566 330.33 81.0623 330.954 85.2293C331.478 88.7632 327.178 98.4538 324.392 104.259C323.196 106.728 322.933 109.547 323.651 112.195C325.384 118.494 326.347 130.876 326.347 130.876L317.092 136.654L317.328 137.779L328.057 131.063C328.057 131.063 327.088 118.685 325.361 112.383C324.649 109.733 324.917 106.916 326.118 104.449V104.449Z" fill="black"/>
<path opacity="0.05" d="M322.888 78.1326L324.55 78.3005L317.321 75.4482L316.675 75.6808L322.888 78.1326Z" fill="black"/>
</g>
<path opacity="0.05" d="M303.789 112.748C303.789 112.748 309.738 109.488 311.658 110.254C313.578 111.019 320.677 110.063 320.677 110.063" fill="black"/>
<path opacity="0.05" d="M315.127 69.7889C314.907 67.8507 315.799 68.1738 315.799 68.1738C315.799 68.1738 305.428 66.2421 307.918 71.0358C308.55 72.3574 308.912 73.7914 308.984 75.2544H309.081C311.958 75.2544 313.639 72.0371 315.127 69.7889Z" fill="black"/>
<path d="M309.068 74.4889C313.626 74.4889 317.321 70.7967 317.321 66.2421C317.321 61.6876 313.626 57.9954 309.068 57.9954C304.51 57.9954 300.815 61.6876 300.815 66.2421C300.815 70.7967 304.51 74.4889 309.068 74.4889Z" fill="#F7BBC3"/>
<path opacity="0.1" d="M318.075 68.6808C318.825 67.0399 319.368 65.26 319.281 63.4576C319.193 61.6551 318.382 59.8268 316.885 58.819C316.109 58.2989 315.198 58.0179 314.396 57.543C313.769 57.1715 313.216 56.6902 312.618 56.2735C311.155 55.2801 309.456 54.6896 307.692 54.5614C305.928 54.4332 304.162 54.772 302.571 55.5435C301.055 56.3026 299.765 57.4332 298.336 58.3441C296.907 59.255 295.223 59.9592 293.548 59.6847C293.26 60.4825 293.965 61.2707 294.618 61.8166C295.853 62.8503 297.253 63.8839 298.863 63.9195C299.487 63.9195 300.156 63.8 300.709 64.0616C301.091 64.2714 301.415 64.5721 301.653 64.937C302.427 65.9659 303.083 67.0787 303.608 68.2544C303.825 68.7357 304.042 69.259 304.484 69.5465C305.225 70.0214 306.188 69.6273 307.071 69.5918C308.438 69.5401 309.657 70.3993 310.678 71.3167C311.7 72.2341 312.654 73.2871 313.931 73.7717C314.9 74.1334 316.791 74.1205 317.276 72.9835C317.461 72.5539 317.108 71.6333 317.179 71.11C317.293 70.2475 317.713 69.4464 318.075 68.6808Z" fill="black"/>
<path d="M318.265 68.4904C319.015 66.8494 319.559 65.0696 319.471 63.2671C319.384 61.4647 318.573 59.6364 317.076 58.6285C316.3 58.1085 315.388 57.8274 314.587 57.3526C313.96 56.9811 313.407 56.4998 312.809 56.0831C311.346 55.0897 309.647 54.4991 307.883 54.371C306.119 54.2428 304.352 54.5815 302.761 55.3531C301.245 56.1122 299.955 57.2428 298.526 58.1537C297.098 59.0646 295.413 59.7688 293.739 59.4942C293.451 60.2921 294.156 61.0803 294.809 61.6262C296.044 62.6598 297.443 63.6935 299.053 63.729C299.677 63.729 300.346 63.6095 300.899 63.8712C301.281 64.081 301.605 64.3817 301.843 64.7466C302.622 65.7738 303.283 66.8856 303.812 68.0608C304.029 68.5421 304.245 69.0654 304.688 69.3529C305.428 69.8277 306.392 69.4336 307.274 69.3981C308.642 69.3464 309.86 70.2056 310.882 71.123C311.903 72.0404 312.857 73.0935 314.134 73.578C315.104 73.9398 316.995 73.9269 317.48 72.7898C317.664 72.3602 317.312 71.4396 317.383 70.9163C317.483 70.0667 317.916 69.2527 318.265 68.4904Z" fill="#A1616A"/>
</g>
<defs>
<linearGradient id="paint0_linear" x1="172.886" y1="202.041" x2="172.886" y2="26.3167" gradientUnits="userSpaceOnUse">
<stop stop-color="#808080" stop-opacity="0.25"/>
<stop offset="0.54" stop-color="#808080" stop-opacity="0.12"/>
<stop offset="1" stop-color="#808080" stop-opacity="0.1"/>
</linearGradient>
<linearGradient id="paint1_linear" x1="39306" y1="19709" x2="39306" y2="14249.9" gradientUnits="userSpaceOnUse">
<stop stop-color="#808080" stop-opacity="0.25"/>
<stop offset="0.54" stop-color="#808080" stop-opacity="0.12"/>
<stop offset="1" stop-color="#808080" stop-opacity="0.1"/>
</linearGradient>
<linearGradient id="paint2_linear" x1="73964.3" y1="112493" x2="73964.3" y2="34154.5" gradientUnits="userSpaceOnUse">
<stop stop-color="#808080" stop-opacity="0.25"/>
<stop offset="0.54" stop-color="#808080" stop-opacity="0.12"/>
<stop offset="1" stop-color="#808080" stop-opacity="0.1"/>
</linearGradient>
<clipPath id="clip0">
<rect width="360" height="255" fill="white"/>
</clipPath>
</defs>
</svg>
