<svg width="566" height="547" viewBox="0 0 566 547" fill="none" xmlns="http://www.w3.org/2000/svg">
<g clip-path="url(#clip0)">
<path opacity="0.1" d="M552.729 124.513C545.458 110.378 535.924 97.53 524.504 86.4776L132.985 83.2146L455.337 44.9209C434.245 37.8598 412.175 34.1568 389.935 33.9474C358.902 12.7501 319.017 0.0317383 275.513 0.0317383C236.478 0.0317383 200.383 10.2934 170.956 27.7048C145.948 16.8069 117.44 10.6272 87.1507 10.6272C0.15966 10.6272 -72.3255 61.5889 -88.5879 129.175L552.729 124.513Z" fill="white"/>
<path opacity="0.1" d="M566.492 181.194C566.465 162.675 562.296 144.397 554.29 127.7L-124.261 187.947C-131.148 198.452 -136.501 209.888 -140.158 221.907L69.9689 248.402L-144.949 267.716C-138.483 344.228 -60.9425 404.638 33.7798 404.638C81.459 404.638 124.781 389.331 156.884 364.367C189.088 389.803 232.826 405.445 281.021 405.445C352.524 405.445 414.243 371.006 442.984 321.216C500.643 305.732 545.432 266.865 560.762 218.241L295.03 183.38H566.492C566.492 182.649 566.492 181.925 566.492 181.194Z" fill="white"/>
<path opacity="0.1" d="M169.835 546.84C270.665 546.84 352.404 543.191 352.404 538.689C352.404 534.187 270.665 530.537 169.835 530.537C69.0044 530.537 -12.7349 534.187 -12.7349 538.689C-12.7349 543.191 69.0044 546.84 169.835 546.84Z" fill="white"/>
<path d="M278.195 524.352V529.278H132.601V525.278C141.48 521.986 149.184 516.133 154.736 508.459C160.289 500.785 163.441 491.635 163.794 482.167C164.146 472.699 161.683 463.34 156.717 455.274C151.75 447.208 144.504 440.797 135.894 436.854H277.206C268.789 440.709 261.671 446.925 256.715 454.747C251.758 462.57 249.175 471.663 249.28 480.924C249.384 490.185 252.172 499.218 257.304 506.926C262.436 514.634 269.693 520.687 278.195 524.352Z" fill="#C8CAD7"/>
<path opacity="0.1" d="M277.206 436.854C270.712 439.837 264.966 444.236 260.391 449.728C255.816 455.22 252.526 461.667 250.763 468.596H162.343C160.579 461.667 157.289 455.221 152.714 449.729C148.138 444.237 142.394 439.838 135.9 436.854H277.206Z" fill="black"/>
<path d="M-34.1411 411.757V439.411C-34.1411 454.68 -22.9721 467.059 -9.19029 467.059H419.198C432.98 467.059 444.149 454.68 444.149 439.411V411.757H-34.1411Z" fill="#C8CAD7"/>
<path opacity="0.1" d="M278.195 524.351V529.278H132.601V525.277C136.592 523.791 140.368 521.779 143.827 519.293H269.267C272.054 521.293 275.047 522.989 278.195 524.351Z" fill="black"/>
<path d="M320.326 520.83H90.468C87.1647 520.83 84.4868 523.509 84.4868 526.814V529.441C84.4868 532.746 87.1647 535.425 90.468 535.425H320.326C323.63 535.425 326.308 532.746 326.308 529.441V526.814C326.308 523.509 323.63 520.83 320.326 520.83Z" fill="#C8CAD7"/>
<path d="M444.149 108.74C444.141 102.125 441.508 95.7836 436.83 91.1097C432.151 86.4358 425.81 83.8113 419.198 83.813H-9.1714C-15.786 83.8063 -22.1325 86.4285 -26.815 91.103C-31.4975 95.7774 -34.1328 102.121 -34.1411 108.74V417.137H444.149V108.74Z" fill="#474157"/>
<path d="M431.129 119.876V384.871C431.13 386.485 430.812 388.084 430.195 389.575C429.578 391.067 428.674 392.422 427.533 393.563C426.392 394.705 425.038 395.61 423.547 396.227C422.056 396.845 420.459 397.162 418.845 397.161H-8.78694C-10.4002 397.162 -11.9979 396.845 -13.4886 396.227C-14.9792 395.61 -16.3337 394.705 -17.4744 393.563C-18.6152 392.422 -19.52 391.067 -20.137 389.575C-20.754 388.084 -21.0711 386.485 -21.0703 384.871V119.876C-21.0703 116.617 -19.7762 113.491 -17.4726 111.186C-15.169 108.881 -12.0447 107.586 -8.78694 107.586H418.814C420.43 107.582 422.03 107.897 423.524 108.513C425.018 109.129 426.376 110.033 427.52 111.175C428.664 112.317 429.571 113.673 430.191 115.166C430.81 116.659 431.129 118.26 431.129 119.876Z" fill="#4C4C78"/>
<path d="M205.01 101.445C208.192 101.445 210.771 98.8642 210.771 95.6809C210.771 92.4976 208.192 89.917 205.01 89.917C201.829 89.917 199.25 92.4976 199.25 95.6809C199.25 98.8642 201.829 101.445 205.01 101.445Z" fill="white"/>
<path d="M205.01 454.775C212.855 454.775 219.214 448.413 219.214 440.564C219.214 432.715 212.855 426.353 205.01 426.353C197.166 426.353 190.807 432.715 190.807 440.564C190.807 448.413 197.166 454.775 205.01 454.775Z" fill="white"/>
<path d="M74.4832 113.735V397.161H-8.78692C-10.4002 397.162 -11.9979 396.845 -13.4886 396.228C-14.9792 395.61 -16.3336 394.705 -17.4744 393.564C-18.6152 392.422 -19.52 391.067 -20.137 389.576C-20.754 388.084 -21.0711 386.486 -21.0703 384.871V119.877L-20.6233 118.207L-19.4271 113.735H74.4832Z" fill="white"/>
<path d="M85.1675 118.207V143.719H-21.0703V119.876L-20.6233 118.207H85.1675Z" fill="#4C4C78"/>
<path d="M431.129 119.877H-21.0703C-21.0703 118.263 -20.7525 116.665 -20.1352 115.174C-19.5178 113.684 -18.6129 112.329 -17.4722 111.188C-16.3315 110.048 -14.9774 109.143 -13.4871 108.526C-11.9969 107.909 -10.3997 107.592 -8.78694 107.593H418.814C420.429 107.588 422.03 107.902 423.524 108.517C425.018 109.132 426.375 110.036 427.52 111.177C428.664 112.318 429.571 113.674 430.191 115.167C430.81 116.66 431.129 118.26 431.129 119.877Z" fill="#C8CAD7"/>
<path d="M0.423486 116.808C2.12007 116.808 3.49542 115.432 3.49542 113.734C3.49542 112.037 2.12007 110.661 0.423486 110.661C-1.27309 110.661 -2.64844 112.037 -2.64844 113.734C-2.64844 115.432 -1.27309 116.808 0.423486 116.808Z" fill="#EDEDF4"/>
<path d="M9.63396 116.808C11.3306 116.808 12.7059 115.432 12.7059 113.734C12.7059 112.037 11.3306 110.661 9.63396 110.661C7.93737 110.661 6.56201 112.037 6.56201 113.734C6.56201 115.432 7.93737 116.808 9.63396 116.808Z" fill="#EDEDF4"/>
<path d="M58.6044 129.439H-5.19238V135.316H58.6044V129.439Z" fill="white"/>
<path opacity="0.5" d="M58.6044 158.101H-5.19238V163.978H58.6044V158.101Z" fill="white"/>
<path opacity="0.5" d="M58.6044 178.366H-5.19238V184.243H58.6044V178.366Z" fill="white"/>
<path opacity="0.5" d="M58.6044 198.631H-5.19238V204.508H58.6044V198.631Z" fill="white"/>
<path opacity="0.5" d="M58.6044 218.89H-5.19238V224.767H58.6044V218.89Z" fill="white"/>
<path opacity="0.5" d="M58.6044 239.155H-5.19238V245.032H58.6044V239.155Z" fill="white"/>
<path opacity="0.5" d="M58.6044 259.419H-5.19238V265.297H58.6044V259.419Z" fill="white"/>
<path opacity="0.5" d="M58.6044 279.678H-5.19238V285.556H58.6044V279.678Z" fill="white"/>
<path opacity="0.5" d="M409.408 151.052H126.714V151.997H409.408V151.052Z" fill="#DCE0ED"/>
<path opacity="0.5" d="M409.408 172.993H126.714V173.938H409.408V172.993Z" fill="#DCE0ED"/>
<path opacity="0.5" d="M409.408 194.939H126.714V195.884H409.408V194.939Z" fill="#DCE0ED"/>
<path opacity="0.5" d="M409.408 216.88H126.714V217.825H409.408V216.88Z" fill="#DCE0ED"/>
<path opacity="0.5" d="M409.408 238.821H126.714V239.766H409.408V238.821Z" fill="#DCE0ED"/>
<path opacity="0.5" d="M409.414 239.759H126.368V196.609L152.326 209.409L179.191 213.05L202.763 205.938L231.201 183.871L245.506 175.607L255.963 173.591L265.968 174.126L282.425 182.259L304.788 196.514L322.341 198.776L336.262 193.976L365.758 169.799L380.818 164.425L396.577 166.863L409.414 174.277V239.759Z" fill="white"/>
<path d="M175.703 213.063C150.217 213.063 126.657 197.466 126.368 197.264L127.067 196.218C127.432 196.464 163.684 220.465 194.49 208.439C205.734 204.061 213.718 197.239 221.474 190.65C229.552 183.765 237.183 177.257 247.577 174.435C259.539 171.204 272.541 174.133 282.444 182.272C290.906 189.232 307.766 200.414 325.578 197.069C334.656 195.368 342.312 188.728 350.415 181.705C365.928 168.224 382.021 154.309 409.78 174.29L409.043 175.311C382.065 155.915 366.382 169.509 351.221 182.656C342.986 189.799 335.204 196.514 325.792 198.31C307.47 201.743 290.257 190.347 281.626 183.248C272.037 175.361 259.426 172.539 247.892 175.657C237.762 178.404 230.263 184.817 222.274 191.607C214.461 198.266 206.377 205.157 194.949 209.617C188.804 211.954 182.277 213.123 175.703 213.063Z" fill="white"/>
<path d="M262.744 180.476C266.614 180.476 269.752 177.337 269.752 173.465C269.752 169.593 266.614 166.454 262.744 166.454C258.874 166.454 255.737 169.593 255.737 173.465C255.737 177.337 258.874 180.476 262.744 180.476Z" fill="white"/>
<path d="M87.1312 325.827C77.555 320.309 73.9097 318.942 73.9097 318.936L73.7145 318.797C72.6685 317.994 71.8378 316.945 71.2969 315.742C71.2969 315.521 71.2969 315.301 71.2969 315.112V315.175C71.4543 312.252 73.5256 309.6 75.4963 307.282C77.1752 305.304 78.8541 303.328 80.533 301.354C81.1117 300.754 81.5541 300.037 81.83 299.25C81.9326 298.838 81.9792 298.415 81.9685 297.99C81.9685 297.814 81.9685 297.644 81.9685 297.474C81.9685 296 81.8992 294.526 81.8489 293.064C81.7985 291.773 81.4711 290.154 80.1804 289.915C79.5131 289.776 78.6316 290.015 78.2916 289.442C78.168 289.208 78.1366 288.936 78.2035 288.68C78.2035 288.68 78.2035 288.718 78.2035 288.737C78.2011 288.714 78.2011 288.69 78.2035 288.667C78.4518 287.673 78.6119 286.659 78.682 285.637C78.7047 285.119 78.6343 284.6 78.4742 284.107C77.725 281.971 75.1626 281.096 72.896 280.692C70.6295 280.289 68.0859 279.943 66.663 278.173C66.2729 277.582 65.8526 277.013 65.4039 276.465C64.7446 275.884 63.9429 275.489 63.0807 275.319C60.2688 274.622 57.305 274.881 54.6567 276.056C53.5612 276.547 52.4594 277.203 51.2569 277.133C50.0544 277.064 48.94 276.188 47.706 275.98C45.7164 275.64 43.8088 277.108 42.8266 278.84C42.2442 279.869 41.9342 281.029 41.9263 282.211C41.9263 282.274 41.9263 282.343 41.9263 282.406C41.9015 283.676 42.3658 284.908 43.2233 285.845C44.0795 286.74 45.3576 287.351 45.7416 288.522C45.8864 289.001 45.855 289.518 45.9809 289.996C45.9809 290.059 46.0187 290.116 46.0375 290.179L45.9683 290.261C43.9232 292.895 42.8153 296.136 42.8203 299.471C42.8401 302.709 43.8874 305.857 45.811 308.461C47.7347 311.065 50.4353 312.99 53.5234 313.959C53.5234 314.104 53.5234 314.255 53.5234 314.413C53.5661 315.358 53.4024 316.302 53.0436 317.178C52.6848 318.053 52.1395 318.84 51.4458 319.484L37.8591 324.939C37.8591 324.939 29.6744 323.969 26.7279 335.931C26.2556 337.916 26.0858 339.962 26.2242 341.998C26.3312 343.805 26.0794 346.98 23.9829 351.087C20.6271 357.664 21.3889 372.751 28.2515 374.244C34.73 375.655 37.2673 375.069 37.5317 375V375.264C37.4247 378.099 36.3984 402.515 32.6649 405.501C31.6261 406.314 31.8213 406.868 32.6649 407.24C32.6649 407.24 32.6649 407.397 32.6649 407.681C32.5516 409.47 31.9724 416.267 29.4729 420.141C26.602 424.607 26.9294 450.434 26.9294 450.434L24.9524 465.672C24.9524 465.672 26.1675 475.084 24.9524 476.728C23.8632 478.196 22.434 513.018 22.1067 520.565H21.9807C21.383 520.601 20.8031 520.783 20.2917 521.095C19.7803 521.407 19.3529 521.839 19.0468 522.354C17.4225 524.962 11.8191 529.768 11.8191 529.768C10.604 531.501 6.09608 533.157 3.71621 533.938C3.39775 534.041 3.08992 534.174 2.79701 534.335C1.90592 534.821 1.19007 535.575 0.750825 536.49C0.596081 536.759 0.497349 537.057 0.460564 537.365C0.423779 537.674 0.449681 537.987 0.536746 538.285C1.16634 539.778 13.8023 540.805 17.0007 539.331C19.519 538.159 29.4918 536.609 33.6345 536.005C34.3863 535.91 35.0851 535.567 35.6209 535.031C36.1567 534.495 36.4989 533.796 36.5936 533.044C36.6333 532.784 36.6204 532.52 36.5555 532.265C36.4905 532.011 36.375 531.772 36.2159 531.564C35.4226 530.581 35.0133 527.897 34.8308 526.146C35.167 526.008 35.481 525.822 35.7626 525.592C35.4227 520.162 36.2006 514.721 38.048 509.604C41.0952 501.541 42.0144 486.599 41.2526 476.885C41.2526 476.885 50.5517 436.84 57.8739 433.105C57.9872 433.243 61.5382 437.804 61.9915 451.927C62.4448 466.271 67.6263 475.682 67.6263 475.682C67.6263 475.682 65.3409 500.035 67.6263 509.151L64.6232 523.507C64.4979 523.404 64.3781 523.295 64.2643 523.179C64.2643 523.179 64.3524 523.582 64.4784 524.219L64.4154 524.521L64.5413 524.552C64.8813 526.348 65.385 529.479 65.1709 531.318C65.0513 532.37 64.7617 533.8 64.5413 535.211C64.2265 537.422 64.1384 539.57 65.3031 540.036C67.1919 540.805 78.4176 541.857 80.3252 539.406C80.7528 538.904 81.0312 538.292 81.1291 537.64C81.227 536.987 81.1405 536.321 80.8793 535.715C80.7409 535.377 80.5543 535.061 80.3252 534.776C80.3252 534.776 77.3473 529.907 78.1909 526.474C78.2682 526.139 78.2762 525.792 78.2145 525.454C78.1528 525.116 78.0226 524.794 77.8321 524.508C78.2687 519.074 79.1425 513.683 80.4449 508.388C82.3337 501.201 86.3756 485.44 83.4166 475.071C83.3032 474.668 83.1773 474.265 83.0388 473.874C81.3294 468.216 80.758 462.274 81.3578 456.394C80.2565 451.374 80.2565 446.175 81.3578 441.155C83.171 432.796 84.4491 424.607 84.4491 424.607C84.4491 424.607 85.4564 413.552 84.575 406.774L84.5183 406.339L84.9968 406.232C84.9968 406.232 82.4092 394.729 81.49 387.409C81.2759 385.677 80.9926 383.491 80.6841 381.154C81.5282 381.009 82.3596 380.799 83.171 380.524C91.4061 377.683 93.9937 351.982 93.9937 351.982V343.831C93.9937 343.831 96.7388 331.377 87.1312 325.827ZM25.7898 524.256L25.3868 524.042L25.7898 524.256Z" fill="url(#paint0_linear)"/>
<path d="M82.1639 474.12C85.7337 484.394 81.5343 501.069 79.6455 508.515C78.3736 513.899 77.5315 519.375 77.1271 524.893C72.7825 525.627 68.3378 525.524 64.0316 524.59L67.1795 509.258C64.9508 500.174 67.1795 475.903 67.1795 475.903C67.1795 475.903 62.1428 466.517 61.6769 452.224C61.2362 438.157 57.7734 433.609 57.6601 433.464C50.4638 437.206 41.4102 477.1 41.4102 477.1C42.1532 486.775 41.2591 501.667 38.2623 509.711C36.456 514.818 35.6959 520.236 36.0272 525.642C34.9884 526.518 33.5403 526.669 31.9789 526.417C27.7292 525.731 22.6357 522.064 22.6357 522.064C22.6357 522.064 24.2727 478.599 25.4626 476.948C26.6526 475.298 25.4626 465.931 25.4626 465.931L27.3955 450.743C27.3955 450.743 27.0996 424.985 29.9138 420.506C32.3567 416.645 32.917 409.867 33.0303 408.09C33.0303 407.807 33.0303 407.649 33.0303 407.649L37.3368 402.49C37.3368 402.49 79.0096 399.341 82.1324 402.49C82.9005 403.259 83.3916 405.01 83.656 407.202C84.5123 413.955 83.5301 424.973 83.5301 424.973C83.5301 424.973 82.2709 433.162 80.4954 441.496C79.4208 446.501 79.4208 451.678 80.4954 456.683C79.9139 462.549 80.4806 468.472 82.1639 474.12Z" fill="#65617D"/>
<path d="M79.5576 539.413C77.7003 541.869 66.7642 540.83 64.9006 540.043C63.7611 539.57 63.8492 537.435 64.1577 535.23C64.3529 533.825 64.6362 532.395 64.7495 531.356C65.0518 528.672 63.8618 523.236 63.8618 523.236C63.8618 523.236 66.3172 525.844 66.909 523.236C67.0459 522.739 67.3158 522.288 67.6897 521.933C68.0636 521.578 68.5273 521.331 69.0308 521.22C70.3064 520.834 71.6781 520.919 72.8965 521.46C74.8293 522.297 78.0529 524.086 77.4736 526.499C76.6552 529.92 79.5576 534.77 79.5576 534.77C79.7827 535.055 79.9651 535.371 80.099 535.709C80.3601 536.316 80.4477 536.983 80.3521 537.637C80.2566 538.291 79.9815 538.906 79.5576 539.413Z" fill="#A27772"/>
<path opacity="0.1" d="M79.5574 539.413C77.7001 541.869 66.764 540.83 64.9004 540.043C63.7609 539.57 63.849 537.435 64.1575 535.23C65.3286 535.778 67.3055 536.238 70.655 535.93C71.4332 535.854 72.2155 535.829 72.997 535.854C75.3648 535.965 77.7373 535.919 80.0989 535.715C80.3587 536.322 80.4457 536.988 80.3501 537.641C80.2545 538.293 79.9801 538.907 79.5574 539.413Z" fill="black"/>
<path opacity="0.1" d="M41.4108 477.1C42.1537 486.776 41.2597 501.667 38.2628 509.712C36.4566 514.818 35.6964 520.236 36.0278 525.643C34.989 526.518 33.5409 526.67 31.9795 526.418C32.8798 520.118 36.7015 493.075 39.1569 471.701C41.946 447.354 55.0037 430.604 55.0037 430.604L57.6103 433.471C50.4644 437.206 41.4108 477.1 41.4108 477.1Z" fill="black"/>
<path d="M75.0934 320.605L73.2739 329.538L64.3778 344.505L53.404 339.812C53.404 339.812 38.4826 324.177 47.8572 321.947C48.9811 321.707 50.0425 321.235 50.9737 320.561C52.8121 319.169 53.3914 317.153 53.404 315.175C53.3298 312.959 52.8117 310.781 51.8803 308.769L71.0766 302.74C70.2825 305.263 69.8191 307.878 69.6978 310.52C69.553 315.748 71.4922 318.331 73.085 319.559C73.6779 320.039 74.3608 320.394 75.0934 320.605Z" fill="#FBBEBE"/>
<path opacity="0.1" d="M71.0766 302.74C70.2826 305.263 69.8191 307.878 69.6978 310.52C67.7528 312.83 65.1634 314.506 62.2609 315.335C59.3584 316.165 56.2746 316.109 53.404 315.175C53.3298 312.959 52.8117 310.781 51.8804 308.769L71.0766 302.74Z" fill="black"/>
<path d="M73.2741 300.283C73.2741 303.287 72.3839 306.224 70.7159 308.721C69.048 311.219 66.6773 313.166 63.9036 314.315C61.1299 315.465 58.0778 315.765 55.1332 315.179C52.1887 314.593 49.4839 313.147 47.361 311.023C45.2381 308.899 43.7924 306.193 43.2067 303.246C42.621 300.3 42.9216 297.247 44.0705 294.471C45.2194 291.696 47.165 289.324 49.6613 287.655C52.1575 285.986 55.0924 285.096 58.0946 285.096C60.0894 285.091 62.0655 285.48 63.9094 286.242C65.7534 287.003 67.4287 288.122 68.8393 289.533C70.2498 290.944 71.3677 292.621 72.1288 294.465C72.8899 296.31 73.2791 298.288 73.2741 300.283Z" fill="#FBBEBE"/>
<path opacity="0.1" d="M75.0934 320.605L73.2739 329.538L64.3778 344.505L53.404 339.812C53.404 339.812 38.4826 324.177 47.8572 321.947C48.9811 321.707 50.0425 321.235 50.9737 320.561C49.2801 325.216 56.2686 334.898 56.2686 334.898C57.0808 336.095 58.9507 335.346 58.9507 335.346C63.446 334.665 71.7377 321.714 73.085 319.56C73.6779 320.039 74.3608 320.394 75.0934 320.605Z" fill="black"/>
<path opacity="0.1" d="M83.6876 407.215C81.0433 407.845 66.4241 411.051 60.8837 410.245C54.7829 409.35 42.915 408.758 42.915 408.758C42.915 408.758 35.3599 409.161 33.043 408.128C33.043 407.845 33.043 407.687 33.043 407.687L37.3494 402.528C37.3494 402.528 79.0223 399.379 82.1451 402.528C82.9636 403.272 83.4043 405.017 83.6876 407.215Z" fill="black"/>
<path d="M56.2686 335.346C56.2686 335.346 48.4175 324.467 51.3766 320.227L38.1111 325.67C38.1111 325.67 30.1279 324.7 27.2506 336.618C26.7895 338.601 26.6219 340.64 26.7532 342.672C26.8603 344.467 26.6147 347.629 24.5685 351.724C21.2947 358.275 22.0502 373.318 28.7364 374.805C35.4227 376.291 37.8152 375.548 37.8152 375.548C37.8152 375.548 36.9212 402.799 33.0555 405.924C29.1898 409.048 42.9212 408.305 42.9212 408.305C42.9212 408.305 54.7827 408.935 60.8835 409.798C66.9843 410.661 84.0966 406.648 84.0966 406.648C84.0966 406.648 81.5783 395.183 80.6716 387.889C79.765 380.594 77.7 365.06 77.7 365.06L92.8795 344.486C92.8795 344.486 95.5552 332.051 86.1806 326.545C76.8059 321.04 73.2739 319.679 73.2739 319.679C73.2739 319.679 63.83 335.031 58.9444 335.774C58.9444 335.787 57.0808 336.543 56.2686 335.346Z" fill="#FF748E"/>
<path opacity="0.1" d="M38.8542 339.667C38.8542 339.667 38.7094 344.581 39.6035 346.514C40.4975 348.448 43.765 359.17 43.765 359.17H36.3296C36.3296 359.17 40.3464 354.855 40.0505 352.77C39.7546 350.685 38.8542 339.667 38.8542 339.667Z" fill="black"/>
<path d="M60.8837 376.733C60.8837 376.733 44.4514 372.714 42.9215 369.293C41.3915 365.872 37.167 358.2 37.167 358.2L38.8984 355.863L46.8942 362.162C46.8942 362.162 56.4199 369.721 60.8837 370.502C65.3475 371.284 60.8837 376.733 60.8837 376.733Z" fill="#FBBEBE"/>
<path opacity="0.05" d="M60.8837 376.733C60.8837 376.733 44.4514 372.714 42.9215 369.293C41.3915 365.872 37.167 358.2 37.167 358.2L38.8984 355.863L46.8942 362.162C46.8942 362.162 56.4199 369.721 60.8837 370.502C65.3475 371.284 60.8837 376.733 60.8837 376.733Z" fill="black"/>
<path d="M75.0935 357.387V366.307H73.658C66.5777 366.307 59.6139 368.111 53.4229 371.548L50.7408 373.034L50.0168 373.438L45.4019 363.044L49.7209 359.17H49.9412C50.9989 359.27 55.5635 359.648 57.4963 359C59.4292 358.351 61.6202 356.392 67.0284 357.777C69.6979 358.458 71.9707 361.45 74.5835 360.518L75.0935 357.387Z" fill="#FBBEBE"/>
<path opacity="0.1" d="M89.4544 341.154L92.4324 344.505V352.618C92.4324 352.618 89.914 378.232 81.8678 381.06C73.8216 383.888 59.4858 379.422 59.4858 379.422C59.4858 379.422 55.7775 369.595 57.5089 368.997C59.2402 368.398 72.8331 364.814 72.8331 364.814C72.8331 364.814 72.638 349.79 75.6159 345.324C75.6159 345.324 73.6831 331.327 80.3757 331.031C87.0682 330.735 89.4544 341.154 89.4544 341.154Z" fill="black"/>
<path d="M89.8891 341.154L92.8671 344.505V352.618C92.8671 352.618 90.3487 378.232 82.2962 381.06C74.2437 383.888 59.9204 379.422 59.9204 379.422C59.9204 379.422 56.212 369.595 57.9434 368.997C59.6748 368.398 73.2615 364.814 73.2615 364.814C73.2615 364.814 73.0726 349.79 76.0506 345.324C76.0506 345.324 74.1114 331.327 80.8103 331.031C87.5092 330.735 89.8891 341.154 89.8891 341.154Z" fill="#FF748E"/>
<path opacity="0.1" d="M69.1123 306.734C69.2447 305.755 69.1278 304.758 68.7723 303.836C68.5858 303.381 68.2534 303 67.8272 302.754C67.4011 302.507 66.9053 302.41 66.4176 302.476C65.1584 302.772 64.5918 304.428 63.3452 304.825C62.2938 305.159 61.1416 304.416 60.638 303.433C60.2164 302.409 60.0396 301.3 60.1217 300.195C60.1217 298.935 60.1217 297.707 60.1217 296.46C60.1217 295.105 60.0776 293.644 59.2403 292.579C58.2014 291.257 55.7649 290.69 54.1405 290.734C53.0564 290.745 52.0161 291.163 51.2255 291.905C50.8285 292.305 50.3471 292.611 49.8165 292.801C49.286 292.991 48.7198 293.059 48.1594 293.001C47.6653 292.926 47.2027 292.711 46.8251 292.384C46.4474 292.056 46.1701 291.628 46.0251 291.149C46.0222 291.133 46.0222 291.116 46.0251 291.099C47.29 289.426 48.8878 288.033 50.7176 287.008C52.5474 285.983 54.5695 285.349 56.6565 285.145C58.7435 284.941 60.8501 285.172 62.8435 285.823C64.8368 286.475 66.6737 287.532 68.2383 288.929C69.8028 290.326 71.0612 292.032 71.9339 293.94C72.8067 295.847 73.2749 297.915 73.3091 300.013C73.3433 302.111 72.9427 304.193 72.1326 306.128C71.3225 308.063 70.1205 309.81 68.6023 311.257C68.8537 309.76 69.024 308.25 69.1123 306.734Z" fill="black"/>
<path d="M48.1532 292.554C47.6588 292.477 47.196 292.263 46.8175 291.935C46.439 291.608 46.1601 291.18 46.0126 290.702C45.893 290.223 45.9245 289.707 45.7797 289.234C45.4334 288.063 44.1868 287.451 43.3494 286.563C41.6747 284.787 41.7818 281.858 42.9654 279.716C43.9287 277.99 45.786 276.535 47.7314 276.869C48.934 277.083 49.9728 277.939 51.1942 278.015C52.4156 278.091 53.4418 277.436 54.5121 276.944C57.091 275.775 59.9902 275.518 62.7346 276.213C63.5793 276.381 64.3627 276.775 65.0012 277.354C65.4345 277.898 65.8381 278.466 66.21 279.054C67.5951 280.825 70.082 281.171 72.2919 281.574C74.5018 281.977 77.0075 282.834 77.7316 284.982C78.2164 286.393 77.7316 287.924 77.4734 289.392C77.3772 289.693 77.3975 290.019 77.5301 290.305C77.8764 290.878 78.7389 290.639 79.4189 290.771C80.6781 291.036 80.9929 292.661 81.037 293.921C81.0957 295.382 81.1356 296.852 81.1566 298.33C81.1937 298.878 81.1513 299.427 81.0307 299.962C80.7591 300.725 80.33 301.423 79.7715 302.009L74.8543 307.918C72.6759 310.539 70.3653 313.588 70.7997 316.97C69.7672 317.43 68.5458 316.542 68.2058 315.458C67.8658 314.375 68.1366 313.216 68.3695 312.107C68.7655 310.19 69.0243 308.247 69.1439 306.293C69.2766 305.312 69.1597 304.313 68.8039 303.389C68.6162 302.933 68.2827 302.552 67.8555 302.306C67.4282 302.059 66.9315 301.962 66.443 302.028C65.1838 302.324 64.6234 303.981 63.3768 304.378C62.3254 304.718 61.1733 303.968 60.6696 302.986C60.2509 301.96 60.0742 300.852 60.1533 299.748V296.012C60.1533 294.658 60.1092 293.197 59.2719 292.132C58.2393 290.809 55.7965 290.242 54.1722 290.286C53.0881 290.297 52.0477 290.716 51.2572 291.458C50.856 291.863 50.3683 292.172 49.8308 292.362C49.2933 292.552 48.7197 292.617 48.1532 292.554Z" fill="#7C5C5C"/>
<path opacity="0.1" d="M51.5786 339.295L56.2439 358.445C56.2439 358.445 59.9145 358.427 51.5786 339.295Z" fill="black"/>
<path opacity="0.1" d="M67.5069 336.089C67.5069 336.089 61.3998 346.092 63.786 356.429L64.9193 356.511C64.9193 356.511 62.892 351.724 67.5069 336.089Z" fill="black"/>
<path opacity="0.1" d="M71.3726 392.676C71.3726 392.676 78.8647 390.194 79.4125 395.952C79.4125 395.952 77.9959 392.002 71.3726 392.676Z" fill="black"/>
<path opacity="0.1" d="M49.7211 359.617C49.7211 359.617 48.2352 370.043 50.911 374.213C46.7126 375.693 42.2564 376.299 37.8154 375.995L36.9214 359.617H49.7211Z" fill="black"/>
<path opacity="0.1" d="M50.7408 373.035L50.0168 373.438L45.4019 363.044L49.7209 359.17H49.9412C49.872 359.674 48.6695 368.625 50.7408 373.035Z" fill="black"/>
<path d="M49.7208 359.17C49.7208 359.17 48.2349 369.595 50.9107 373.765C46.7123 375.245 42.2561 375.852 37.8152 375.548L32.6084 359.17H49.7208Z" fill="#FF748E"/>
<path d="M36.8458 533.076C36.7602 533.818 36.4295 534.512 35.9062 535.046C35.3829 535.579 34.6966 535.924 33.956 536.024C29.9203 536.654 20.1805 538.165 17.7251 539.337C14.5771 540.83 2.24965 539.784 1.65154 538.298C1.56765 537.999 1.54337 537.687 1.5801 537.379C1.61683 537.071 1.71384 536.773 1.8656 536.502C2.15353 535.91 2.55779 535.381 3.05429 534.948C3.55078 534.515 4.12933 534.187 4.75543 533.983C7.08492 533.202 11.4795 531.557 12.6631 529.831C12.6631 529.831 18.1406 525.031 19.702 522.442C19.9951 521.932 20.4102 521.502 20.9101 521.19C21.41 520.879 21.9791 520.697 22.5666 520.66C23.8699 520.597 25.318 521.258 25.9161 524.112C25.9161 524.112 33.0556 528.187 34.9885 524.616C34.9885 524.616 35.2844 530.102 36.468 531.608C36.6247 531.815 36.7387 532.052 36.8035 532.304C36.8683 532.556 36.8827 532.818 36.8458 533.076Z" fill="#A27772"/>
<path opacity="0.1" d="M36.8458 533.075C36.7602 533.818 36.4296 534.512 35.9062 535.045C35.3829 535.579 34.6967 535.923 33.956 536.024C29.9203 536.653 20.1805 538.165 17.7251 539.337C14.5771 540.83 2.24965 539.784 1.65154 538.298C1.56765 537.999 1.54337 537.687 1.5801 537.379C1.61683 537.071 1.71384 536.773 1.8656 536.502C2.2899 535.597 2.98809 534.847 3.8614 534.361C5.8761 535.696 10.3462 537.006 20.1805 535.469C29.5614 534.001 34.2015 532.565 36.4681 531.589C36.6271 531.799 36.7425 532.039 36.8074 532.294C36.8723 532.549 36.8853 532.815 36.8458 533.075Z" fill="black"/>
<g opacity="0.1">
<path opacity="0.1" d="M77.455 289.593C77.458 289.568 77.458 289.543 77.455 289.518C77.7494 288.416 77.9039 287.282 77.9147 286.142C77.8198 287.053 77.6662 287.958 77.455 288.85C77.3985 289.095 77.3985 289.349 77.455 289.593Z" fill="black"/>
<path opacity="0.1" d="M68.7727 303.528C69.0061 304.065 69.1303 304.643 69.1379 305.229C69.2056 304.421 69.0804 303.609 68.7727 302.86C68.5852 302.403 68.2519 302.022 67.8248 301.774C67.3977 301.527 66.9009 301.428 66.4117 301.493C65.1525 301.789 64.5922 303.452 63.3456 303.849C62.2942 304.183 61.142 303.433 60.6383 302.451C60.2138 301.427 60.0369 300.318 60.1221 299.213C60.1221 297.953 60.1221 296.724 60.1221 295.483C60.1221 294.129 60.078 292.668 59.2406 291.603C58.2018 290.274 55.7653 289.713 54.1346 289.751C53.0513 289.763 52.0125 290.184 51.2259 290.929C50.8283 291.328 50.3466 291.633 49.8161 291.821C49.2856 292.01 48.7197 292.077 48.1598 292.019C47.664 291.945 47.1993 291.732 46.8202 291.404C46.4411 291.076 46.1633 290.647 46.0191 290.167C45.8932 289.688 45.931 289.178 45.7862 288.699C45.4399 287.527 44.1933 286.923 43.3559 286.034C42.5748 285.168 42.1284 284.051 42.0967 282.885C42.037 283.573 42.1178 284.267 42.3342 284.923C42.5507 285.579 42.8983 286.185 43.3559 286.702C44.1933 287.59 45.4399 288.201 45.7862 289.373C45.931 289.846 45.8932 290.362 46.0191 290.841C46.1659 291.32 46.4446 291.747 46.8232 292.075C47.2019 292.402 47.6651 292.617 48.1598 292.693C48.7202 292.75 49.2864 292.682 49.8169 292.492C50.3474 292.303 50.8288 291.997 51.2259 291.597C52.0162 290.863 53.0502 290.448 54.1283 290.431C55.759 290.381 58.1955 290.961 59.2343 292.283C60.0717 293.348 60.1095 294.803 60.1158 296.164C60.1158 297.424 60.1158 298.652 60.1158 299.893C60.0301 301 60.207 302.112 60.632 303.137C61.1357 304.12 62.2879 304.863 63.3393 304.529C64.5985 304.132 65.1337 302.476 66.4054 302.173C66.8938 302.108 67.3901 302.206 67.8178 302.45C68.2455 302.695 68.581 303.074 68.7727 303.528Z" fill="black"/>
<path opacity="0.1" d="M81.0055 299.427C80.7325 300.191 80.3038 300.89 79.7464 301.48C78.101 303.446 76.462 305.413 74.8293 307.383C72.7642 309.871 70.5733 312.75 70.7307 315.925C70.8818 313.014 72.909 310.369 74.8293 308.057L79.7464 302.148C80.3036 301.56 80.7324 300.863 81.0055 300.101C81.1268 299.564 81.1692 299.012 81.1314 298.463C81.128 298.788 81.0857 299.112 81.0055 299.427Z" fill="black"/>
<path opacity="0.1" d="M68.1747 314.929C68.0936 314.669 68.0429 314.401 68.0236 314.129C67.9823 314.624 68.0336 315.122 68.1747 315.597C68.5084 316.681 69.7361 317.569 70.7686 317.109C70.7686 316.888 70.7245 316.668 70.7182 316.479C69.6983 316.888 68.4832 315.988 68.1747 314.929Z" fill="black"/>
</g>
<path opacity="0.1" d="M18.7446 523.771C18.7446 523.771 20.2997 526.505 25.9409 524.093L18.7446 523.771Z" fill="black"/>
<path opacity="0.1" d="M66.374 524.427C66.374 524.427 71.2407 530.152 77.3666 526.316L66.374 524.427Z" fill="black"/>
<path opacity="0.1" d="M80.5274 456.696C80.5274 456.696 77.0899 458.844 76.9766 460.073C76.8633 461.301 78.752 459.178 78.752 459.178L80.5274 456.696Z" fill="black"/>
<path opacity="0.1" d="M81.8801 473.163C80.6873 474.159 79.2019 474.738 77.6498 474.813C75.0814 474.926 75.2954 478.277 76.9762 477.269C78.657 476.261 81.8801 473.163 81.8801 473.163Z" fill="black"/>
<path opacity="0.1" d="M82.5355 475.311C82.5355 475.311 80.886 483.412 79.5449 481.849L82.5355 475.311Z" fill="black"/>
<g opacity="0.5">
<path opacity="0.5" d="M193.249 288.919H151.696V297.739H193.249V288.919Z" fill="#DCE0ED"/>
<path opacity="0.5" d="M288.665 288.919H247.111V297.739H288.665V288.919Z" fill="#DCE0ED"/>
<path opacity="0.5" d="M384.079 288.919H342.526V297.739H384.079V288.919Z" fill="#DCE0ED"/>
</g>
<path opacity="0.1" d="M454.884 507.627C464.248 507.627 471.839 506.343 471.839 504.76C471.839 503.177 464.248 501.894 454.884 501.894C445.52 501.894 437.929 503.177 437.929 504.76C437.929 506.343 445.52 507.627 454.884 507.627Z" fill="white"/>
<path d="M417.775 539.759C431.757 539.759 443.091 537.842 443.091 535.476C443.091 533.11 431.757 531.192 417.775 531.192C403.794 531.192 392.459 533.11 392.459 535.476C392.459 537.842 403.794 539.759 417.775 539.759Z" fill="white"/>
<path d="M428.239 528.477C429.395 527.535 430.236 526.263 430.651 524.83C430.965 523.381 430.348 521.648 428.97 521.119C427.421 520.527 425.765 521.598 424.506 522.688C423.247 523.778 421.817 525.006 420.174 524.779C421.018 524.013 421.649 523.041 422.006 521.958C422.364 520.875 422.435 519.718 422.214 518.6C422.144 518.136 421.948 517.7 421.647 517.34C420.785 516.42 419.23 516.81 418.197 517.535C414.923 519.841 414.01 524.288 413.992 528.294C413.664 526.852 413.941 525.346 413.935 523.885C413.929 522.423 413.519 520.735 412.273 519.96C411.499 519.547 410.631 519.343 409.754 519.368C408.281 519.311 406.638 519.456 405.637 520.533C404.378 521.875 404.711 524.118 405.794 525.573C406.877 527.028 408.539 527.967 410.057 528.987C411.276 529.716 412.317 530.708 413.104 531.891C413.193 532.058 413.267 532.234 413.324 532.414H422.554C424.617 531.362 426.529 530.038 428.239 528.477Z" fill="white"/>
<path d="M148.756 350.508C148.756 337.632 159.226 327.742 172.101 327.742H172.284V321.884H172.101C155.996 321.884 142.901 334.401 142.901 350.508C142.9 354.675 143.793 358.794 145.519 362.586C147.245 366.379 149.763 369.757 152.905 372.493L157.054 368.342C154.455 366.154 152.366 363.424 150.933 360.344C149.499 357.263 148.756 353.906 148.756 350.508Z" fill="white"/>
<path opacity="0.5" d="M172.869 321.89V327.749C176.619 327.774 180.307 328.702 183.622 330.455C186.936 332.209 189.78 334.735 191.912 337.821C194.044 340.907 195.402 344.461 195.87 348.183C196.338 351.905 195.903 355.686 194.602 359.204C193.301 362.722 191.172 365.875 188.395 368.395C185.618 370.916 182.275 372.73 178.648 373.684C175.022 374.638 171.22 374.703 167.563 373.876C163.906 373.048 160.502 371.35 157.64 368.927L153.478 373.079C157.024 376.181 161.268 378.378 165.847 379.483C170.426 380.588 175.204 380.568 179.774 379.424C184.343 378.28 188.568 376.047 192.088 372.915C195.607 369.783 198.317 365.845 199.986 361.438C201.654 357.031 202.232 352.285 201.669 347.606C201.107 342.927 199.421 338.453 196.755 334.568C194.09 330.682 190.524 327.499 186.363 325.292C182.201 323.084 177.567 321.917 172.857 321.89H172.869Z" fill="white"/>
<path opacity="0.5" d="M364.266 327.446C377.135 327.446 387.02 337.922 387.02 350.804C387.02 350.861 387.02 350.924 387.02 350.987H392.875C392.875 350.924 392.875 350.861 392.875 350.804C392.875 334.697 380.365 321.588 364.266 321.588C360.101 321.587 355.985 322.479 352.194 324.206C348.403 325.933 345.027 328.454 342.293 331.598L346.442 335.749C348.629 333.149 351.357 331.058 354.436 329.624C357.515 328.19 360.87 327.447 364.266 327.446Z" fill="white"/>
<path d="M392.869 351.573H387.013C386.988 355.324 386.06 359.014 384.308 362.331C382.556 365.647 380.031 368.493 376.946 370.626C373.862 372.759 370.31 374.118 366.59 374.586C362.87 375.055 359.092 374.619 355.575 373.317C352.059 372.016 348.908 369.885 346.389 367.107C343.869 364.328 342.056 360.983 341.103 357.355C340.15 353.727 340.084 349.922 340.911 346.263C341.739 342.604 343.435 339.199 345.857 336.335L341.727 332.184C338.626 335.732 336.43 339.978 335.326 344.559C334.221 349.141 334.242 353.921 335.385 358.493C336.528 363.065 338.76 367.293 341.89 370.814C345.02 374.336 348.956 377.047 353.361 378.717C357.766 380.386 362.509 380.964 367.186 380.401C371.862 379.838 376.333 378.151 380.217 375.484C384.101 372.817 387.281 369.25 389.488 365.086C391.694 360.922 392.861 356.286 392.887 351.573H392.869Z" fill="white"/>
<path opacity="0.5" d="M279.397 323.604L278.232 329.437C286.801 332.895 292.278 341.298 292.278 351.094C292.28 355.303 291.144 359.435 288.991 363.051C286.838 366.668 283.748 369.635 280.047 371.638C276.347 373.642 272.175 374.607 267.971 374.432C263.768 374.258 259.689 372.95 256.168 370.646C252.647 368.343 249.813 365.13 247.967 361.347C246.121 357.565 245.331 353.353 245.681 349.158C246.031 344.964 247.508 340.941 249.955 337.517C252.402 334.093 255.729 331.395 259.584 329.708L256.99 324.448C252.205 326.603 248.089 330.009 245.075 334.307C242.062 338.605 240.262 343.637 239.866 348.872C239.47 354.107 240.491 359.352 242.823 364.056C245.155 368.759 248.711 372.746 253.117 375.598C257.523 378.45 262.616 380.06 267.86 380.26C273.103 380.46 278.304 379.242 282.914 376.734C287.524 374.226 291.373 370.521 294.056 366.009C296.738 361.496 298.156 356.344 298.159 351.094C298.159 338.451 290.679 327.667 279.397 323.604Z" fill="white"/>
<path d="M269.695 327.402C272.491 327.401 275.258 327.976 277.823 329.091L278.987 323.264C276.022 322.122 272.872 321.539 269.695 321.544C265.57 321.544 261.492 322.422 257.732 324.12L260.352 329.368C263.295 328.069 266.477 327.399 269.695 327.402Z" fill="white"/>
</g>
<defs>
<linearGradient id="paint0_linear" x1="47.3912" y1="540.95" x2="47.3912" y2="274.916" gradientUnits="userSpaceOnUse">
<stop stop-color="#808080" stop-opacity="0.25"/>
<stop offset="0.54" stop-color="#808080" stop-opacity="0.12"/>
<stop offset="1" stop-color="#808080" stop-opacity="0.1"/>
</linearGradient>
<clipPath id="clip0">
<rect width="566" height="546.846" fill="white"/>
</clipPath>
</defs>
</svg>
