<svg width="382" height="300" viewBox="0 0 382 300" fill="none" xmlns="http://www.w3.org/2000/svg">
    <g clip-path="url(#clip0)">
    <path d="M197.399 28.666C199.915 45.2507 192.932 60.0676 192.932 60.0676C192.932 60.0676 181.852 47.9975 179.336 31.409C176.82 14.8205 183.802 0.00732422 183.802 0.00732422C183.802 0.00732422 194.883 12.0737 197.399 28.666Z" fill="white"/>
    <path d="M244.183 55.0916C253.313 54.9911 260.768 59.8891 260.768 59.8891C260.768 59.8891 253.421 64.9472 244.291 65.044C235.161 65.1407 227.706 60.2464 227.706 60.2464C227.706 60.2464 235.053 55.1921 244.183 55.0916Z" fill="white"/>
    <path d="M218.509 29.8794C210.012 39.2176 208.214 51.4217 208.214 51.4217C208.214 51.4217 220.191 48.4814 228.685 39.1395C237.178 29.7975 238.983 17.6008 238.983 17.6008C238.983 17.6008 227.006 20.5411 218.509 29.8794Z" fill="#46455B"/>
    <path opacity="0.1" d="M190.561 300C295.805 300 381.123 296.084 381.123 291.254C381.123 286.423 295.805 282.507 190.561 282.507C85.3172 282.507 0 286.423 0 291.254C0 296.084 85.3172 300 190.561 300Z" fill="white"/>
    <path d="M77.5272 203.119H133.594V288.57H72.9492V203.119H77.5272Z" fill="#EEEFF0"/>
    <path d="M125.934 215.371H80.6053V225.171H125.934V215.371Z" fill="white"/>
    <path d="M121.956 237.271H84.5876V237.885H121.956V237.271Z" fill="#373E46"/>
    <path d="M121.956 240.639H84.5876V241.254H121.956V240.639Z" fill="#373E46"/>
    <path d="M121.956 244.008H84.5876V244.622H121.956V244.008Z" fill="#373E46"/>
    <path d="M121.956 247.376H84.5876V247.99H121.956V247.376Z" fill="#373E46"/>
    <path d="M121.956 250.744H84.5876V251.358H121.956V250.744Z" fill="#373E46"/>
    <path d="M121.956 254.116H84.5876V254.731H121.956V254.116Z" fill="#373E46"/>
    <path d="M121.956 257.485H84.5876V258.099H121.956V257.485Z" fill="#373E46"/>
    <path d="M121.956 260.853H84.5876V261.467H121.956V260.853Z" fill="#373E46"/>
    <path d="M121.956 264.221H84.5876V264.836H121.956V264.221Z" fill="#373E46"/>
    <path d="M121.956 267.59H84.5876V268.204H121.956V267.59Z" fill="#373E46"/>
    <path d="M121.956 270.962H84.5876V271.576H121.956V270.962Z" fill="#373E46"/>
    <path d="M164.817 203.119H220.884V288.57H160.239V203.119H164.817Z" fill="#EEEFF0"/>
    <path d="M213.224 215.371H167.895V225.171H213.224V215.371Z" fill="white"/>
    <path d="M209.245 237.271H171.877V237.885H209.245V237.271Z" fill="#373E46"/>
    <path d="M209.245 240.639H171.877V241.254H209.245V240.639Z" fill="#373E46"/>
    <path d="M209.245 244.008H171.877V244.622H209.245V244.008Z" fill="#373E46"/>
    <path d="M209.245 247.376H171.877V247.99H209.245V247.376Z" fill="#373E46"/>
    <path d="M209.245 250.744H171.877V251.358H209.245V250.744Z" fill="#373E46"/>
    <path d="M209.245 254.116H171.877V254.731H209.245V254.116Z" fill="#373E46"/>
    <path d="M209.245 257.485H171.877V258.099H209.245V257.485Z" fill="#373E46"/>
    <path d="M209.245 260.853H171.877V261.467H209.245V260.853Z" fill="#373E46"/>
    <path d="M209.245 264.221H171.877V264.836H209.245V264.221Z" fill="#373E46"/>
    <path d="M209.245 267.59H171.877V268.204H209.245V267.59Z" fill="#373E46"/>
    <path d="M209.245 270.962H171.877V271.576H209.245V270.962Z" fill="#373E46"/>
    <path d="M252.106 203.119H308.173V288.57H247.529V203.119H252.106Z" fill="#EEEFF0"/>
    <path d="M300.517 215.371H255.188V225.171H300.517V215.371Z" fill="white"/>
    <path d="M296.535 237.271H259.167V237.885H296.535V237.271Z" fill="#373E46"/>
    <path d="M296.535 240.639H259.167V241.254H296.535V240.639Z" fill="#373E46"/>
    <path d="M296.535 244.008H259.167V244.622H296.535V244.008Z" fill="#373E46"/>
    <path d="M296.535 247.376H259.167V247.99H296.535V247.376Z" fill="#373E46"/>
    <path d="M296.535 250.744H259.167V251.358H296.535V250.744Z" fill="#373E46"/>
    <path d="M296.535 254.116H259.167V254.731H296.535V254.116Z" fill="#373E46"/>
    <path d="M296.535 257.485H259.167V258.099H296.535V257.485Z" fill="#373E46"/>
    <path d="M296.535 260.853H259.167V261.467H296.535V260.853Z" fill="#373E46"/>
    <path d="M296.535 264.221H259.167V264.836H296.535V264.221Z" fill="#373E46"/>
    <path d="M296.535 267.59H259.167V268.204H296.535V267.59Z" fill="#373E46"/>
    <path d="M296.535 270.962H259.167V271.576H296.535V270.962Z" fill="#373E46"/>
    <path d="M190.561 203.119V144.313L103.271 203.119" stroke="#373E46" stroke-miterlimit="10"/>
    <path d="M277.851 203.119L190.561 144.313" stroke="#373E46" stroke-miterlimit="10"/>
    <g opacity="0.1">
    <path opacity="0.1" d="M148.85 32.5815H141.432V171.036H239.69V32.5815H148.85Z" fill="black"/>
    </g>
    <g filter="url(#filter0_d)">
    <path d="M150.532 35.3728H237.71V168.245H143.412V35.3728H150.532Z" fill="white"/>
    </g>
    <path d="M225.804 54.4216H155.319V69.6628H225.804V54.4216Z" fill="white"/>
    <path d="M219.614 88.4734H161.512V89.4262H219.614V88.4734Z" fill="#373E46"/>
    <path d="M219.614 93.71H161.512V94.6628H219.614V93.71Z" fill="#373E46"/>
    <path d="M219.614 98.9504H161.512V99.9033H219.614V98.9504Z" fill="#373E46"/>
    <path d="M219.614 104.187H161.512V105.14H219.614V104.187Z" fill="#373E46"/>
    <path d="M219.614 109.427H161.512V110.38H219.614V109.427Z" fill="#373E46"/>
    <path d="M219.614 114.668H161.512V115.621H219.614V114.668Z" fill="#373E46"/>
    <path d="M219.614 119.905H161.512V120.858H219.614V119.905Z" fill="#373E46"/>
    <path d="M219.614 125.145H161.512V126.098H219.614V125.145Z" fill="#373E46"/>
    <path d="M219.614 130.382H161.512V131.335H219.614V130.382Z" fill="#373E46"/>
    <path d="M219.614 135.622H161.512V136.575H219.614V135.622Z" fill="#373E46"/>
    <path d="M219.614 140.859H161.512V141.812H219.614V140.859Z" fill="#373E46"/>
    <path d="M49.3673 261.244C49.4305 262.733 48.4889 264.039 47.5919 265.219C47.1878 265.772 46.8233 266.352 46.5014 266.957C45.5263 268.691 43.4308 269.518 42.2956 271.155C42.0239 271.553 41.8118 271.989 41.5699 272.409C40.7482 273.851 39.7157 275.162 38.5068 276.299L36.4746 278.219C35.858 278.73 35.3407 279.349 34.9486 280.047C34.6082 280.906 34.4731 281.832 34.5541 282.753V283.058C34.5541 283.129 34.5541 283.196 34.5541 283.266C34.5559 284.393 34.6807 285.516 34.9263 286.616C35.0602 286.953 35.0811 287.324 34.9858 287.673C34.8918 287.844 34.7625 287.992 34.6065 288.109C34.4506 288.226 34.2716 288.308 34.0814 288.35C33.69 288.514 33.2553 288.543 32.8457 288.432C32.4619 288.256 32.1403 287.968 31.9227 287.606C30.7243 285.961 30.2404 283.925 29.5258 282.023C29.468 281.819 29.463 281.603 29.5111 281.396C29.5593 281.189 29.6591 280.998 29.8012 280.84C30.0854 280.527 30.3982 280.242 30.7354 279.987C32.1497 278.752 32.8085 276.887 33.3408 275.089C33.873 273.292 34.4015 271.412 35.6372 270.001C36.4374 269.086 37.4981 268.427 38.3839 267.604C40.6171 265.543 41.7336 262.539 42.2994 259.561C42.9836 259.432 43.6852 259.423 44.3725 259.535L48.0274 260.019C48.4296 260.025 48.8159 260.177 49.1142 260.447C49.283 260.678 49.3718 260.958 49.3673 261.244Z" fill="#EFB7B9"/>
    <path d="M64.9732 264.262C64.8966 264.815 64.7024 265.344 64.4037 265.814C63.9635 266.492 63.4654 267.129 62.915 267.72C61.5193 269.324 61.2811 271.606 60.3915 273.537C60.1049 274.163 59.7439 274.754 59.4536 275.398C58.6869 277.04 58.404 278.845 58.2365 280.661C58.2179 280.892 58.1956 281.126 58.1807 281.361C58.1658 281.595 58.1361 281.938 58.1137 282.224C58.0579 282.969 58.0095 283.784 58.3296 284.457C58.4971 284.83 58.7651 285.105 58.7762 285.496C58.2254 286.032 57.2875 285.969 56.6473 285.537C56.0377 285.06 55.5704 284.426 55.2963 283.702C54.707 282.418 54.2807 281.065 54.0271 279.675C53.9303 279.15 53.8857 278.528 54.2653 278.149C54.4766 277.982 54.6992 277.831 54.9315 277.695C55.3967 277.323 55.5307 276.69 55.6349 276.106C55.9922 274.098 56.3508 272.092 56.7106 270.087C56.7895 269.596 56.8951 269.108 57.0269 268.628C57.3321 267.553 57.7974 266.354 58.6683 265.651C58.7806 265.547 58.8648 265.416 58.913 265.271C58.9611 265.126 58.9717 264.971 58.9437 264.821C58.8811 264.521 58.7651 264.235 58.6013 263.976C57.9537 262.815 57.1758 261.646 55.996 260.998C57.2112 259.982 58.5974 259.189 60.0901 258.657C60.3519 258.533 60.6428 258.483 60.9312 258.512C61.0862 258.546 61.2346 258.605 61.3704 258.687C62.1478 259.179 62.8279 259.81 63.3765 260.548C64.2437 261.635 65.1332 262.889 64.9732 264.262Z" fill="#EFB7B9"/>
    <path d="M36.5268 287.997C36.1647 287.653 35.7453 287.374 35.2874 287.174C35.1852 287.112 35.071 287.073 34.9524 287.059C34.6658 287.059 34.4499 287.305 34.208 287.431C34.0079 287.539 33.7841 287.596 33.5567 287.596C33.3293 287.596 33.1054 287.539 32.9053 287.431C32.5096 287.209 32.1767 286.89 31.9376 286.504C31.4166 285.734 31.3124 284.967 31.0965 284.122L33.3706 283.694C33.7839 283.597 34.183 283.447 34.5579 283.248C34.5579 283.177 34.5579 283.11 34.5579 283.039V282.734C34.1373 282.857 33.2478 283.27 33.0356 283.318C32.3512 283.473 31.6575 283.584 30.9588 283.65C30.8509 283.434 30.6945 283.248 30.5866 283.036C30.3311 282.613 30.1687 282.141 30.1102 281.651C30.1054 281.456 30.0677 281.264 29.9985 281.082C29.9626 280.991 29.898 280.915 29.8147 280.865C29.7314 280.814 29.6339 280.792 29.537 280.802C29.4626 280.821 29.3929 280.856 29.3323 280.903C28.6949 281.344 28.2006 281.963 27.9106 282.682C27.4863 283.746 27.5384 284.937 27.3783 286.073C27.2481 286.925 26.9875 287.77 27.0322 288.63C27.0313 288.676 27.0442 288.721 27.0694 288.76C27.1078 288.797 27.1576 288.821 27.2108 288.827C27.6835 288.931 28.2306 289.024 28.614 288.73C28.9974 288.436 29.0532 287.878 29.1276 287.394C29.2264 286.748 29.4208 286.121 29.7045 285.533C30.2913 286.252 30.598 287.159 30.568 288.086C30.568 288.596 30.5084 289.18 30.8583 289.553C31.03 289.718 31.2396 289.838 31.4687 289.903C31.9358 290.064 32.4206 290.169 32.9128 290.215C33.8072 290.268 34.7046 290.222 35.5888 290.077C35.868 290.044 36.1508 290.007 36.4263 289.947C36.5682 289.922 36.7029 289.866 36.8208 289.783C36.9479 289.665 37.0296 289.506 37.0515 289.333C37.0707 289.085 37.0335 288.836 36.9426 288.605C36.8517 288.373 36.7095 288.165 36.5268 287.997Z" fill="#464353"/>
    <path d="M59.9673 285.15C59.7459 284.952 59.4947 284.789 59.2229 284.67C59.0055 284.535 58.7594 284.453 58.5046 284.431C58.2179 284.46 57.9397 284.545 57.6858 284.681C57.5581 284.748 57.4172 284.786 57.2731 284.792C57.129 284.799 56.9852 284.773 56.8521 284.718C56.6533 284.573 56.5081 284.366 56.4389 284.13C56.1188 283.385 55.8806 282.574 55.6015 281.8C55.6664 281.697 55.763 281.617 55.8769 281.573C55.9635 281.546 56.0543 281.534 56.1449 281.539C56.8193 281.56 57.4935 281.494 58.151 281.342C58.151 281.108 58.1882 280.873 58.2068 280.642C57.7358 280.598 57.2606 280.639 56.8037 280.762C56.4876 280.884 56.1474 280.931 55.8099 280.899C55.5792 280.851 55.3596 280.709 55.1363 280.68C55.0321 280.482 54.9167 280.307 54.805 280.099C54.5259 279.604 54.4328 279.027 54.1649 278.543C54.123 278.461 54.0606 278.39 53.9837 278.339C53.9068 278.287 53.8179 278.257 53.7257 278.249C53.6271 278.262 53.5322 278.295 53.4465 278.346C53.3609 278.396 53.2862 278.463 53.2269 278.543C52.7451 278.976 52.3465 279.493 52.0508 280.069C51.9402 280.336 51.8555 280.613 51.7977 280.896C51.4255 282.481 51.2468 284.106 51.2655 285.734C51.6774 285.866 52.1127 285.908 52.5421 285.857C52.7629 284.76 53.0322 283.675 53.3498 282.6C53.3526 282.58 53.3593 282.561 53.3695 282.544C53.3798 282.527 53.3933 282.512 53.4093 282.5C53.48 282.462 53.5507 282.537 53.5917 282.604C53.9804 283.182 54.2943 283.808 54.5259 284.465C54.6194 284.944 54.7811 285.408 55.006 285.842C55.2967 286.239 55.7163 286.524 56.1933 286.646C56.668 286.766 57.1553 286.828 57.6448 286.832L58.3892 286.869C58.7821 286.916 59.1804 286.886 59.5616 286.78C59.7526 286.725 59.924 286.616 60.0558 286.467C60.1876 286.318 60.2743 286.135 60.306 285.939C60.3096 285.791 60.2811 285.643 60.2227 285.507C60.1642 285.371 60.0771 285.249 59.9673 285.15Z" fill="#464353"/>
    <path d="M63.3763 259.993C63.0487 260.27 62.6505 260.451 62.2263 260.515L60.9645 260.823C60.8921 260.828 60.8216 260.848 60.7575 260.882C60.6933 260.916 60.6371 260.964 60.5924 261.021C60.5216 261.155 60.57 261.318 60.5365 261.464C60.5232 261.521 60.4965 261.575 60.4584 261.62C60.2793 261.778 60.0458 261.861 59.807 261.851C59.5995 261.843 59.3924 261.875 59.1966 261.944C59.1148 261.979 59.0441 262.035 58.9919 262.108C58.9287 262.201 58.8989 262.316 58.8319 262.402C58.7179 262.526 58.5637 262.606 58.3964 262.629C58.2238 262.669 58.0484 262.696 57.8716 262.71C57.1706 262.773 56.4658 262.644 55.832 262.338C55.6838 262.234 55.5015 262.19 55.3221 262.215C55.2174 262.254 55.1284 262.326 55.0691 262.42C55.0038 262.521 54.933 262.618 54.8569 262.71C54.5331 263.06 53.9674 262.967 53.5021 262.87C53.2118 262.807 52.9215 262.755 52.6312 262.707C50.8835 262.465 49.1216 262.341 47.3573 262.335C45.0683 262.264 42.7831 262.201 40.5722 261.661C40.0884 261.545 39.5041 261.289 39.5301 260.771C39.5301 260.488 39.7683 260.247 39.7683 259.964C39.7683 259.484 39.1765 259.219 38.7039 259.145C38.8751 256.51 40.4569 254.206 41.2794 251.701C41.4841 251.079 41.6516 250.443 41.8675 249.84C42.8687 247.071 45.072 244.942 46.9032 242.635C47.1851 242.312 47.416 241.948 47.588 241.555C47.7451 241.086 47.8268 240.595 47.83 240.1L47.9304 238.362C50.6131 238.177 53.3084 238.345 55.9474 238.86C56.122 238.88 56.2842 238.96 56.4052 239.088C56.4617 239.18 56.4961 239.285 56.5057 239.393C56.6099 240.025 56.6806 240.666 56.7216 241.306C56.7244 241.447 56.7444 241.587 56.7811 241.723C56.8526 241.894 56.9505 242.054 57.0714 242.195C58.6235 244.164 59.5502 246.572 60.2946 249.003C61.039 251.433 61.6308 253.904 62.5687 256.264C62.8888 257.079 63.3131 257.995 63.3949 258.869C63.5411 259.021 63.6213 259.225 63.6178 259.435C63.6143 259.646 63.5275 259.847 63.3763 259.993Z" fill="#464353"/>
    <path opacity="0.1" d="M52.6464 262.696C50.8987 262.454 49.1368 262.329 47.3724 262.323L47.5176 257.429C47.5511 256.346 47.5846 255.259 47.7149 254.184C47.8972 252.654 48.2694 251.15 48.4592 249.624C48.5652 248.747 48.6137 247.865 48.6044 246.982C48.5528 246.085 48.5777 245.186 48.6788 244.294C48.8016 243.55 49.118 242.534 49.7954 242.136C50.2457 242.75 49.5535 244.473 49.4753 245.21C49.3078 246.747 49.721 248.277 50.0783 249.777C50.5063 251.578 50.8561 253.398 51.1948 255.218C51.6836 257.704 52.1675 260.197 52.6464 262.696Z" fill="black"/>
    <path opacity="0.1" d="M57.8866 262.71C57.1856 262.773 56.4808 262.644 55.847 262.338C55.6987 262.234 55.5165 262.19 55.3371 262.215C55.2323 262.253 55.1433 262.325 55.084 262.42C54.4848 259.576 54.5182 256.614 54.0418 253.74C53.8744 252.713 53.6399 251.667 53.8371 250.651C54.0493 249.561 54.7378 248.615 55.0058 247.54C55.1485 246.828 55.1985 246.102 55.1547 245.377C55.1188 244.734 54.9622 244.102 54.6932 243.516C55.3222 243.621 55.8358 244.238 56.0889 244.797C56.3615 245.495 56.5004 246.239 56.4983 246.989C56.5988 248.798 56.6137 250.603 56.5876 252.412C56.5541 253.254 56.5727 254.098 56.6435 254.939C56.7365 255.769 56.9412 256.58 57.0156 257.41C57.0938 258.408 56.9784 259.428 57.2204 260.388C57.4064 261.162 57.8307 261.944 57.8866 262.71Z" fill="black"/>
    <path opacity="0.1" d="M60.4734 261.62C60.2944 261.778 60.0609 261.861 59.8221 261.851C59.6146 261.843 59.4075 261.875 59.2117 261.944L58.1621 255.46C58.0175 254.665 57.9169 253.862 57.8607 253.056C57.816 252.122 57.8867 251.195 57.8234 250.253C57.7056 249.112 57.4902 247.982 57.1796 246.877C57.0158 246.219 56.2714 244.246 56.6883 243.688C57.3396 244.108 57.7378 245.009 57.9574 245.731C58.1855 246.566 58.3301 247.421 58.3892 248.284C58.5529 249.947 58.7192 251.613 58.8879 253.283C59.1633 256.052 59.4499 258.866 60.4139 261.471C60.4362 261.516 60.4548 261.568 60.4734 261.62Z" fill="black"/>
    <path d="M65.9597 230.933C66.4249 230.538 66.8939 230.14 67.3256 229.705C67.9299 229.062 68.4884 228.378 68.9967 227.658C69.567 226.939 70.0412 226.15 70.4073 225.309C70.7795 224.33 70.9061 223.217 71.5686 222.406C71.6449 222.301 71.7494 222.22 71.87 222.171C72.2422 222.052 72.5288 222.544 72.6144 222.916C72.968 224.833 72.1268 226.746 71.3043 228.499C71.0668 229.099 70.7183 229.65 70.2771 230.121C70.0192 230.343 69.7496 230.55 69.4694 230.743C69.0559 231.079 68.6746 231.453 68.3305 231.86C67.7424 232.53 67.1767 233.226 66.6445 233.944C66.0223 234.863 65.3318 235.734 64.5788 236.549C63.8205 237.367 62.8177 237.918 61.7204 238.12C62.0331 238.075 61.9288 236.237 61.8954 236.006C61.847 235.667 61.6162 235.261 61.6088 234.945C61.6088 234.543 61.7651 234.484 62.1001 234.201L65.9597 230.933Z" fill="#EFB7B9"/>
    <path opacity="0.1" d="M65.9597 230.933C66.4249 230.538 66.8939 230.14 67.3256 229.705C67.9299 229.062 68.4884 228.378 68.9967 227.658C69.567 226.939 70.0412 226.15 70.4073 225.309C70.7795 224.33 70.9061 223.217 71.5686 222.406C71.6449 222.301 71.7494 222.22 71.87 222.171C72.2422 222.052 72.5288 222.544 72.6144 222.916C72.968 224.833 72.1268 226.746 71.3043 228.499C71.0668 229.099 70.7183 229.65 70.2771 230.121C70.0192 230.343 69.7496 230.55 69.4694 230.743C69.0559 231.079 68.6746 231.453 68.3305 231.86C67.7424 232.53 67.1767 233.226 66.6445 233.944C66.0223 234.863 65.3318 235.734 64.5788 236.549C63.8205 237.367 62.8177 237.918 61.7204 238.12C62.0331 238.075 61.9288 236.237 61.8954 236.006C61.847 235.667 61.6162 235.261 61.6088 234.945C61.6088 234.543 61.7651 234.484 62.1001 234.201L65.9597 230.933Z" fill="black"/>
    <path d="M52.8063 219.335C52.8063 219.335 51.7344 224.654 50.5024 225.555C49.2705 226.455 57.2353 227.501 57.2353 227.501C57.2353 227.501 57.414 223.251 59.5392 221.3C61.6644 219.35 52.8063 219.335 52.8063 219.335Z" fill="#EFB7B9"/>
    <path d="M50.6885 225.015C50.16 225.092 49.6767 225.356 49.3263 225.759C48.4926 226.66 48.3251 228.03 48.6117 229.224C48.9642 230.404 49.5307 231.51 50.2828 232.485C51.1482 233.836 52.2165 235.046 53.4502 236.073C54.1384 236.571 54.8528 237.032 55.5903 237.453C56.8135 238.206 57.9894 239.032 59.1112 239.929C59.3586 240.15 59.6401 240.329 59.9449 240.461C60.2073 240.542 60.4818 240.577 60.7562 240.565C61.6871 240.557 62.6046 240.343 63.4435 239.94C63.5221 239.91 63.5914 239.86 63.6444 239.795C63.674 239.726 63.6893 239.652 63.6893 239.577C63.6893 239.502 63.674 239.428 63.6444 239.359C63.142 237.342 64.106 235.049 63.1494 233.203C62.111 233.538 60.9684 233.903 59.93 234.241C59.7702 234.304 59.5991 234.334 59.4275 234.327C59.2209 234.284 59.0317 234.18 58.8841 234.029C57.7676 233.054 57.0455 231.696 56.3979 230.356C55.7503 229.016 55.1213 227.628 54.1089 226.537C53.0966 225.447 52.1698 224.859 50.6885 225.015Z" fill="white"/>
    <path opacity="0.1" d="M50.6885 225.015C50.16 225.092 49.6767 225.356 49.3263 225.759C48.4926 226.66 48.3251 228.03 48.6117 229.224C48.9642 230.404 49.5307 231.51 50.2828 232.485C51.1482 233.836 52.2165 235.046 53.4502 236.073C54.1384 236.571 54.8528 237.032 55.5903 237.453C56.8135 238.206 57.9894 239.032 59.1112 239.929C59.3586 240.15 59.6401 240.329 59.9449 240.461C60.2073 240.542 60.4818 240.577 60.7562 240.565C61.6871 240.557 62.6046 240.343 63.4435 239.94C63.5221 239.91 63.5914 239.86 63.6444 239.795C63.674 239.726 63.6893 239.652 63.6893 239.577C63.6893 239.502 63.674 239.428 63.6444 239.359C63.142 237.342 64.106 235.049 63.1494 233.203C62.111 233.538 60.9684 233.903 59.93 234.241C59.7702 234.304 59.5991 234.334 59.4275 234.327C59.2209 234.284 59.0317 234.18 58.8841 234.029C57.7676 233.054 57.0455 231.696 56.3979 230.356C55.7503 229.016 55.1213 227.628 54.1089 226.537C53.0966 225.447 52.1698 224.859 50.6885 225.015Z" fill="black"/>
    <path d="M56.9711 223.321C59.9065 223.321 62.286 220.942 62.286 218.007C62.286 215.071 59.9065 212.692 56.9711 212.692C54.0358 212.692 51.6562 215.071 51.6562 218.007C51.6562 220.942 54.0358 223.321 56.9711 223.321Z" fill="#EFB7B9"/>
    <path d="M59.0927 233.307V233.33C58.7838 233.899 58.326 234.379 58.0096 234.945C57.6822 235.605 57.4599 236.312 57.3508 237.04C57.2503 237.524 57.161 238.008 57.0791 238.496C56.9973 238.983 56.9154 239.482 56.8409 239.985C55.2368 239.441 53.4577 240.357 51.794 240.022C51.3067 239.874 50.8091 239.762 50.3053 239.687C49.9331 239.687 49.5609 239.754 49.1887 239.72C48.5746 239.661 47.9642 239.274 47.3761 239.471C47.1156 239.56 46.7918 239.746 46.602 239.542C46.5589 239.487 46.5261 239.425 46.5052 239.359C46.3124 238.954 46.2437 238.501 46.308 238.057C46.4471 237.702 46.6337 237.368 46.8625 237.063C47.1469 236.464 47.2944 235.809 47.2943 235.146C47.4022 233.438 47.3985 231.714 47.6665 230.025C47.9344 228.335 48.5374 226.653 49.68 225.376C50.2075 224.712 50.9669 224.274 51.8052 224.148C54.8795 223.898 57.362 225.592 58.7056 228.283C59.4984 229.839 59.9227 231.763 59.0927 233.307Z" fill="white"/>
    <path d="M68.0845 231.644C68.5535 231.245 69.0225 230.851 69.4505 230.412C70.0559 229.771 70.6144 229.089 71.1216 228.368C71.6944 227.65 72.1699 226.859 72.5359 226.016C72.9081 225.041 73.031 223.928 73.6972 223.117C73.771 223.011 73.8746 222.929 73.9949 222.882C74.3671 222.763 74.6537 223.254 74.7393 223.627C75.1115 225.543 74.248 227.46 73.4255 229.209C73.1907 229.811 72.8433 230.361 72.402 230.832C72.1526 231.063 71.8623 231.245 71.5943 231.45C71.179 231.784 70.7975 232.158 70.4554 232.567C69.8649 233.241 69.3016 233.936 68.7657 234.651C68.1435 235.569 67.4543 236.44 66.7037 237.256C65.9431 238.074 64.9397 238.626 63.8416 238.831C64.1579 238.786 64.0537 236.944 64.0202 236.713C63.9054 236.366 63.8097 236.013 63.7336 235.656C63.7336 235.25 63.89 235.191 64.2212 234.911L68.0845 231.644Z" fill="#EFB7B9"/>
    <path opacity="0.1" d="M58.5605 233.486V233.508C58.2553 234.078 57.7937 234.554 57.4774 235.124C57.1492 235.783 56.9269 236.49 56.8186 237.219C56.7218 237.703 56.6288 238.187 56.5469 238.674C55.9044 238.309 55.2831 237.908 54.686 237.472C53.45 236.447 52.3803 235.237 51.5149 233.884C50.7628 232.909 50.1963 231.804 49.8438 230.624C49.5572 229.429 49.7247 228.059 50.5621 227.159C50.9133 226.762 51.3954 226.504 51.9206 226.433C53.4094 226.273 54.3398 226.846 55.3522 227.922C56.3645 228.997 56.9935 230.397 57.6411 231.74C57.9315 232.34 58.2255 232.928 58.5605 233.486Z" fill="black"/>
    <path d="M52.8137 225.722C52.2866 225.8 51.8047 226.064 51.4552 226.467C50.6178 227.367 50.4503 228.737 50.7406 229.932C51.0309 231.126 51.7083 232.165 52.408 233.192C53.2754 234.543 54.3449 235.753 55.5791 236.78C56.2661 237.277 56.9792 237.736 57.7155 238.157C58.9393 238.908 60.1152 239.735 61.2364 240.632C61.4827 240.855 61.7644 241.035 62.0701 241.164C62.3336 241.247 62.6093 241.283 62.8852 241.272C63.816 241.26 64.733 241.046 65.5724 240.643C65.6515 240.614 65.721 240.564 65.7734 240.498C65.8029 240.43 65.8181 240.357 65.8181 240.282C65.8181 240.208 65.8029 240.135 65.7734 240.066C65.2746 238.045 66.2386 235.753 65.2821 233.907L62.0589 234.945C61.8997 235.01 61.7282 235.039 61.5565 235.031C61.3513 234.986 61.1629 234.884 61.0131 234.737C59.8965 233.761 59.1744 232.403 58.5268 231.059C57.8792 229.716 57.2539 228.335 56.2379 227.244C55.2218 226.154 54.295 225.555 52.8137 225.722Z" fill="white"/>
    <path d="M60.4066 214.292C60.9239 213.708 60.8123 212.759 60.3619 212.122C59.8608 211.514 59.2232 211.034 58.501 210.719C57.403 210.135 56.1413 209.573 54.9614 209.975C54.5092 210.158 54.0755 210.383 53.6662 210.648C52.8846 211.084 52.0211 211.359 51.2247 211.765C50.3968 212.129 49.7225 212.772 49.319 213.581C48.9841 214.389 49.0883 215.301 49.1776 216.187C49.3481 217.532 49.3569 218.893 49.2037 220.24C49.0458 221.594 48.5235 222.88 47.6926 223.962C47.0933 224.706 46.3006 225.309 45.9396 226.195C45.7632 226.701 45.6641 227.23 45.6455 227.765L45.452 230.051C45.3775 230.963 45.2622 231.956 44.6034 232.593C45.3016 232.52 45.978 232.308 46.592 231.968C47.206 231.627 47.7449 231.166 48.1764 230.613C48.8501 229.868 49.5498 229.079 49.7508 228.097C49.9034 227.352 49.7768 226.53 50.2235 225.931C50.7483 225.223 51.8685 225.216 52.6129 225.685C53.3573 226.154 53.8151 226.958 54.2133 227.743C54.6116 228.528 55.0098 229.351 55.7021 229.906C56.2657 230.335 56.9291 230.614 57.63 230.717C57.8599 230.785 58.1016 230.804 58.3391 230.771C58.5766 230.738 58.8044 230.655 59.0071 230.527C59.517 230.118 59.4649 229.332 59.3012 228.7C59.0816 227.862 58.7429 226.991 58.9811 226.154C59.0593 225.878 59.197 225.618 59.2826 225.343C59.3869 224.942 59.4357 224.528 59.4277 224.114C59.4761 222.037 59.5729 219.801 58.8992 217.787C58.6833 217.147 58.1027 216.536 58.4005 215.844C58.7764 214.966 59.8446 214.936 60.4066 214.292Z" fill="#464353"/>
    <g opacity="0.1">
    <path opacity="0.1" d="M49.3153 217.85C49.3432 216.868 49.3022 215.886 49.1925 214.91C49.1925 214.72 49.1515 214.538 49.1366 214.333C49.0885 214.94 49.1072 215.55 49.1925 216.153C49.2483 216.715 49.293 217.281 49.3153 217.85Z" fill="black"/>
    <path opacity="0.1" d="M59.0145 229.25C58.8113 229.378 58.5836 229.46 58.3462 229.493C58.1089 229.526 57.8673 229.508 57.6374 229.44C56.9364 229.337 56.273 229.058 55.7094 228.629C55.0246 228.071 54.6301 227.248 54.2207 226.466C53.8113 225.685 53.3646 224.873 52.6202 224.408C51.8759 223.943 50.7593 223.947 50.2308 224.654C49.7842 225.253 49.9107 226.087 49.7581 226.82C49.5571 227.803 48.8574 228.595 48.1837 229.336C47.8433 229.741 47.4574 230.106 47.0337 230.423C46.5045 230.76 45.9217 231.004 45.3104 231.145C45.2257 231.675 44.9817 232.167 44.6107 232.555C45.3089 232.483 45.9854 232.27 46.5994 231.93C47.2133 231.59 47.7523 231.129 48.1837 230.575C48.8574 229.831 49.5571 229.042 49.7581 228.059C49.9107 227.315 49.7842 226.493 50.2308 225.893C50.7556 225.186 51.8759 225.179 52.6202 225.648C53.3646 226.117 53.8224 226.921 54.2207 227.706C54.6189 228.491 55.0171 229.314 55.7094 229.868C56.273 230.298 56.9364 230.577 57.6374 230.68C57.8672 230.748 58.1089 230.766 58.3464 230.734C58.5839 230.701 58.8117 230.618 59.0145 230.49C59.4909 230.118 59.476 229.373 59.3383 228.785C59.2747 228.967 59.1627 229.128 59.0145 229.25Z" fill="black"/>
    <path opacity="0.1" d="M60.4064 213.053C59.8444 213.693 58.7763 213.726 58.4078 214.579C58.3442 214.753 58.3195 214.939 58.3356 215.123C58.3517 215.308 58.4081 215.487 58.5008 215.647C58.9288 214.958 59.8854 214.903 60.4064 214.292C60.5833 214.066 60.6981 213.798 60.7392 213.514C60.7803 213.23 60.7464 212.94 60.6409 212.673C60.5859 212.813 60.5065 212.941 60.4064 213.053Z" fill="black"/>
    <path opacity="0.1" d="M59.4351 222.838C59.4431 223.252 59.3943 223.665 59.29 224.066C59.2044 224.341 59.0667 224.598 58.9885 224.877C58.888 225.297 58.888 225.734 58.9885 226.154V226.117C59.0667 225.841 59.2044 225.581 59.29 225.305C59.3943 224.904 59.4431 224.491 59.4351 224.077C59.4537 223.251 59.4798 222.402 59.4649 221.55C59.4575 221.982 59.4463 222.413 59.4351 222.838Z" fill="black"/>
    </g>
    <path d="M308.218 249.747C308.218 268.446 319.949 283.579 334.446 283.579L308.218 249.747Z" fill="#46455B"/>
    <path d="M334.446 283.583C334.446 264.672 347.54 249.371 363.719 249.371L334.446 283.583Z" fill="white"/>
    <path d="M317.724 251.444C317.724 269.209 325.205 283.583 334.446 283.583L317.724 251.444Z" fill="white"/>
    <path d="M334.446 283.583C334.446 259.42 349.58 239.865 368.278 239.865L334.446 283.583Z" fill="#46455B"/>
    <path opacity="0.1" d="M333.311 290.044C336.912 290.044 339.832 289.551 339.832 288.942C339.832 288.334 336.912 287.841 333.311 287.841C329.71 287.841 326.79 288.334 326.79 288.942C326.79 289.551 329.71 290.044 333.311 290.044Z" fill="white"/>
    <path d="M328.93 283.821C328.93 283.821 332.652 283.706 333.769 282.909C334.885 282.113 339.489 281.156 339.769 282.436C340.048 283.717 345.351 288.805 341.157 288.838C336.962 288.872 331.398 288.183 330.281 287.502C329.165 286.821 328.93 283.821 328.93 283.821Z" fill="#A8A8A8"/>
    <path opacity="0.2" d="M341.235 288.391C337.037 288.425 331.48 287.736 330.36 287.055C329.507 286.538 329.169 284.673 329.053 283.817H328.93C328.93 283.817 329.165 286.817 330.285 287.498C331.405 288.179 336.962 288.868 341.161 288.834C342.374 288.834 342.791 288.391 342.768 287.755C342.601 288.142 342.139 288.384 341.235 288.391Z" fill="black"/>
    </g>
    <defs>
    <filter id="filter0_d" x="141.412" y="33.3728" width="98.298" height="136.872" filterUnits="userSpaceOnUse" color-interpolation-filters="sRGB">
    <feFlood flood-opacity="0" result="BackgroundImageFix"/>
    <feColorMatrix in="SourceAlpha" type="matrix" values="0 0 0 0 0 0 0 0 0 0 0 0 0 0 0 0 0 0 127 0"/>
    <feOffset/>
    <feGaussianBlur stdDeviation="1"/>
    <feColorMatrix type="matrix" values="0 0 0 0 0 0 0 0 0 0 0 0 0 0 0 0 0 0 0.2 0"/>
    <feBlend mode="normal" in2="BackgroundImageFix" result="effect1_dropShadow"/>
    <feBlend mode="normal" in="SourceGraphic" in2="effect1_dropShadow" result="shape"/>
    </filter>
    <clipPath id="clip0">
    <rect width="381.123" height="300" fill="white"/>
    </clipPath>
    </defs>
    </svg>
