<svg width="530" height="320" viewBox="0 0 530 320" fill="none" xmlns="http://www.w3.org/2000/svg">
<g clip-path="url(#clip0)">
<path d="M360.569 182.68L365.114 181.892C365.55 181.815 365.983 181.722 366.418 181.643C359.225 177.166 353.765 170.369 350.934 162.369C348.103 154.369 348.071 145.641 350.841 137.62C353.612 129.599 359.022 122.762 366.182 118.231C373.341 113.7 381.825 111.746 390.239 112.689L384.282 126.901L398.395 114.546C398.427 114.554 398.46 114.565 398.491 114.578C403.112 116.21 407.368 118.739 411.014 122.019C414.661 125.3 417.627 129.269 419.744 133.7C421.861 138.13 423.086 142.935 423.351 147.841C423.616 152.746 422.914 157.655 421.286 162.289C421.05 162.963 420.769 163.606 420.499 164.257C424.483 162.25 428.305 159.914 431.422 156.922C437.732 150.86 441.189 142.494 445.053 132.187C452.707 111.762 460.076 91.0417 467.151 70.2762C459.348 66.0423 453.305 59.1574 450.11 50.8581C446.914 42.5589 446.775 33.3891 449.716 24.996C450.095 23.9162 450.535 22.8764 451 21.8552C451.117 21.5996 451.234 21.3456 451.355 21.0937C451.828 20.1147 452.328 19.1554 452.876 18.2348C452.966 18.0839 453.066 17.9427 453.157 17.7934C453.634 17.0172 454.138 16.2639 454.667 15.5337C454.864 15.2595 455.06 14.9861 455.264 14.7184C455.864 13.9321 456.485 13.167 457.14 12.4365C457.359 12.1921 457.591 11.9638 457.816 11.7257C458.319 11.1934 458.836 10.6771 459.366 10.177C459.646 9.91365 459.923 9.64843 460.21 9.39445C460.284 9.32929 460.353 9.25816 460.427 9.19354C460.431 9.1983 460.434 9.20342 460.437 9.20813C467.009 3.46618 475.379 0.214482 484.094 0.0181942C492.809 -0.178093 501.316 2.69343 508.138 8.1337L500.387 26.6275L514.339 14.4192C519.222 20.6565 521.989 28.295 522.238 36.2202C522.486 44.1455 520.202 51.9429 515.718 58.475C515.731 58.4795 515.745 58.483 515.757 58.4875C515.605 58.712 515.432 58.9175 515.275 59.138C514.981 59.5518 514.68 59.9582 514.372 60.3573C513.975 60.869 513.564 61.3636 513.144 61.8515C512.826 62.2197 512.513 62.591 512.183 62.9453C511.7 63.4634 511.194 63.9541 510.685 64.442C510.387 64.7266 510.103 65.0256 509.797 65.2997C508.995 66.018 508.165 66.6996 507.308 67.3444C507.007 67.5702 506.69 67.7694 506.383 67.9857C505.781 68.4103 505.175 68.8287 504.55 69.2161C504.163 69.4565 503.765 69.6762 503.369 69.902C502.795 70.2293 502.218 70.5465 501.629 70.8427C501.211 71.0527 500.79 71.252 500.365 71.4462C499.76 71.7227 499.148 71.9791 498.528 72.2231C498.113 72.3867 497.7 72.5524 497.279 72.7011C496.584 72.9465 495.879 73.1597 495.169 73.3638C494.811 73.467 494.459 73.585 494.098 73.6774C493.034 73.9494 491.958 74.1811 490.87 74.3585C490.665 74.392 490.457 74.4047 490.251 74.4346C489.349 74.5662 488.442 74.6724 487.528 74.7373C487.135 74.7651 486.74 74.7691 486.345 74.7845C485.606 74.8133 484.866 74.828 484.123 74.8121C483.689 74.8028 483.255 74.7803 482.821 74.7558C482.096 74.7147 481.372 74.6514 480.646 74.5661C480.217 74.5162 479.789 74.4668 479.36 74.4016C478.583 74.2834 477.807 74.1288 477.03 73.9594C476.979 73.9483 476.928 73.9416 476.877 73.9303C473.891 82.6909 470.849 91.4328 467.752 100.156C471.53 96.7506 475.961 94.155 480.774 92.5284C485.588 90.9019 490.682 90.2786 495.744 90.697C500.807 91.1154 505.73 92.5666 510.213 94.9615C514.696 97.3564 518.644 100.645 521.814 104.624L508.915 118.926L526.379 111.936C530.621 120.855 531.158 131.098 527.872 140.413C526.733 143.687 525.138 146.782 523.133 149.606C518.818 155.726 512.769 160.404 505.77 163.034C498.77 165.664 491.145 166.125 483.881 164.357C476.618 162.589 470.052 158.673 465.035 153.117C460.018 147.562 456.782 140.623 455.747 133.201C455.419 134.08 455.102 134.97 454.773 135.848C451.363 144.941 447.122 156.257 438.604 164.438C432.83 169.984 425.726 173.502 418.91 176.476C414.472 178.413 409.975 180.203 405.418 181.848C400.353 184.927 394.63 186.756 388.722 187.183C381.533 189.185 374.253 190.857 366.905 192.147L362.323 192.939C358.205 193.646 353.983 194.375 349.793 195.214C350.396 195.393 351 195.564 351.6 195.776C359.067 198.411 365.504 203.358 369.983 209.902C374.461 216.446 376.749 224.248 376.514 232.181L347.79 241.02L373.782 245.159C371.404 251.018 367.584 256.177 362.679 260.154C357.774 264.131 351.943 266.797 345.731 267.902C339.52 269.008 333.13 268.516 327.159 266.474C321.188 264.432 315.831 260.906 311.588 256.226C311.852 257.112 312.117 257.997 312.383 258.881C312.91 260.636 313.434 262.382 313.936 264.111C320.776 287.675 317.832 306.21 305.647 316.301L299.035 308.276C310.894 298.453 307.215 278.212 303.968 267.019C303.475 265.321 302.959 263.606 302.441 261.881C297.986 247.043 292.936 230.225 299.477 214.77C309.334 191.476 337.742 186.599 360.569 182.68Z" fill="#F2F2F2"/>
<path d="M352.15 319.324H150.895C144.295 319.324 137.966 316.695 133.299 312.016C128.632 307.337 126.011 300.991 126.011 294.374V201.925C126.011 200.582 126.284 199.254 126.812 198.02C127.341 196.787 128.115 195.675 129.087 194.751L235.732 93.3931C239.996 89.3407 245.648 87.0818 251.523 87.0818C257.398 87.0818 263.049 89.3407 267.313 93.3931L368.994 190.033C371.534 192.447 373.557 195.354 374.939 198.578C376.322 201.802 377.035 205.274 377.035 208.784V294.374C377.035 297.65 376.391 300.894 375.14 303.922C373.89 306.949 372.057 309.699 369.746 312.016C367.435 314.333 364.692 316.171 361.673 317.424C358.654 318.678 355.418 319.324 352.15 319.324Z" fill="#3F3D56"/>
<path opacity="0.1" d="M126.011 203.443H374.943V304.258C374.943 308.254 373.36 312.086 370.542 314.911C367.724 317.736 363.902 319.324 359.917 319.324H141.037C137.052 319.324 133.23 317.736 130.412 314.911C127.594 312.086 126.011 308.254 126.011 304.258V203.443Z" fill="black"/>
<path d="M330.135 124.004H172.388C164.826 124.004 158.696 130.15 158.696 137.732V295.895C158.696 303.477 164.826 309.623 172.388 309.623H330.135C337.696 309.623 343.826 303.477 343.826 295.895V137.732C343.826 130.15 337.696 124.004 330.135 124.004Z" fill="#002852"/>
<path opacity="0.1" d="M343.826 207.612V309.623H158.696V207.612L251.261 252.47L343.826 207.612Z" fill="black"/>
<path d="M251.261 258.237L132.656 200.76C131.922 200.404 131.111 200.241 130.297 200.286C129.484 200.331 128.695 200.582 128.004 201.016C127.314 201.451 126.745 202.053 126.351 202.768C125.956 203.483 125.75 204.287 125.75 205.104V303.996C125.75 305.974 126.138 307.933 126.893 309.761C127.648 311.589 128.755 313.25 130.151 314.649C131.546 316.048 133.202 317.158 135.025 317.915C136.848 318.672 138.802 319.062 140.776 319.062H361.747C363.721 319.062 365.675 318.672 367.498 317.915C369.321 317.158 370.977 316.048 372.372 314.649C373.768 313.25 374.875 311.589 375.63 309.761C376.385 307.933 376.773 305.974 376.773 303.996V206.798C376.773 205.801 376.521 204.82 376.04 203.948C375.558 203.076 374.864 202.34 374.022 201.81C373.18 201.281 372.217 200.974 371.224 200.919C370.231 200.864 369.241 201.063 368.346 201.497L251.261 258.237Z" fill="#3F3D56"/>
<path d="M226.421 141.045H174.647V148.386H226.421V141.045Z" fill="#F2F2F2"/>
<path d="M324.215 167.787H170.463V171.982H324.215V167.787Z" fill="#F2F2F2"/>
<path d="M324.215 181.944H170.463V186.139H324.215V181.944Z" fill="#F2F2F2"/>
<path d="M324.215 196.102H170.463V200.297H324.215V196.102Z" fill="#F2F2F2"/>
<path d="M31.877 319.062H462.802" stroke="#3F3D56" stroke-miterlimit="10"/>
<path d="M0 254.494C0 285.41 19.3438 310.426 43.249 310.426L0 254.494Z" fill="#46455B"/>
<path d="M43.249 310.426C43.249 279.163 64.8356 253.866 91.5124 253.866L43.249 310.426Z" fill="#002852"/>
<path d="M15.6699 257.297C15.6699 286.663 28.0051 310.426 43.249 310.426L15.6699 257.297Z" fill="#002852"/>
<path d="M43.249 310.426C43.249 270.479 68.1997 238.154 99.034 238.154L43.249 310.426Z" fill="#46455B"/>
<path d="M34.1504 310.821C34.1504 310.821 40.2838 310.631 42.1323 309.312C43.9807 307.992 51.567 306.416 52.0256 308.533C52.4841 310.649 61.243 319.059 54.3184 319.115C47.3938 319.171 38.2287 318.034 36.3838 316.907C34.5389 315.78 34.1504 310.821 34.1504 310.821Z" fill="#A8A8A8"/>
<path opacity="0.2" d="M54.4419 318.379C47.5173 318.435 38.3523 317.297 36.5073 316.17C35.1024 315.312 34.5425 312.233 34.3552 310.813C34.2254 310.818 34.1504 310.821 34.1504 310.821C34.1504 310.821 34.5389 315.78 36.3838 316.907C38.2287 318.034 47.3938 319.171 54.3184 319.115C56.3172 319.099 57.0077 318.386 56.9698 317.33C56.6921 317.968 55.9297 318.367 54.4419 318.379Z" fill="black"/>
<path d="M376.386 85.3485C376.072 88.1561 373.936 90.4178 373.144 93.1293C371.953 97.2106 374.013 101.59 376.83 104.769C379.104 107.306 381.857 109.366 384.93 110.829C388.003 112.292 391.335 113.129 394.733 113.292C395.732 113.38 396.737 113.27 397.693 112.968C398.547 112.624 399.315 112.097 399.945 111.425C402.067 109.289 403.206 106.329 403.66 103.349C404.114 100.369 403.938 97.3326 403.76 94.3231C403.761 93.7009 403.648 93.0839 403.427 92.5025C403.138 91.9487 402.741 91.4588 402.259 91.062C400.731 89.657 399.048 88.4314 397.244 87.4092C396.428 87.0426 395.708 86.4906 395.142 85.7969C394.801 85.2026 394.58 84.5466 394.493 83.8666L393.938 81.0357C393.84 80.2199 393.562 79.4362 393.125 78.7409C392.146 77.417 390.274 77.2369 388.631 77.1723L382.615 76.9356C380.743 76.862 378.277 76.3239 376.45 76.6924C374.744 77.0366 375.311 78.6129 375.621 80.0483C376.07 81.7813 376.327 83.5588 376.386 85.3485Z" fill="#A0616A"/>
<path opacity="0.1" d="M376.386 85.3485C376.072 88.1561 373.936 90.4178 373.144 93.1293C371.953 97.2106 374.013 101.59 376.83 104.769C379.104 107.306 381.857 109.366 384.93 110.829C388.003 112.292 391.335 113.129 394.733 113.292C395.732 113.38 396.737 113.27 397.693 112.968C398.547 112.624 399.315 112.097 399.945 111.425C402.067 109.289 403.206 106.329 403.66 103.349C404.114 100.369 403.938 97.3326 403.76 94.3231C403.761 93.7009 403.648 93.0839 403.427 92.5025C403.138 91.9487 402.741 91.4588 402.259 91.062C400.731 89.657 399.048 88.4314 397.244 87.4092C396.428 87.0426 395.708 86.4906 395.142 85.7969C394.801 85.2026 394.58 84.5466 394.493 83.8666L393.938 81.0357C393.84 80.2199 393.562 79.4362 393.125 78.7409C392.146 77.417 390.274 77.2369 388.631 77.1723L382.615 76.9356C380.743 76.862 378.277 76.3239 376.45 76.6924C374.744 77.0366 375.311 78.6129 375.621 80.0483C376.07 81.7813 376.327 83.5588 376.386 85.3485Z" fill="black"/>
<path d="M414.661 211.722C413.808 221.093 412.956 230.463 412.104 239.832C411.436 247.204 410.756 254.607 409.447 261.885C408.995 264.393 408.466 266.888 407.837 269.361C406.089 276.229 403.554 282.941 402.736 289.981C402.71 290.184 402.688 290.391 402.667 290.599C402.575 292.155 402.281 293.694 401.793 295.174C401.384 296.249 400.755 297.229 400.312 298.291C399.429 300.414 399.313 302.763 399.205 305.063C396.101 303.313 392.702 302.148 389.179 301.627C387.478 301.373 385.584 301.191 384.426 299.918C383.143 298.511 383.285 296.357 383.5 294.466C384.176 288.596 384.85 282.728 385.523 276.863C385.743 274.34 386.171 271.839 386.802 269.387C387.035 268.571 387.314 267.768 387.599 266.965C387.99 265.86 388.386 264.755 388.683 263.62C389.112 261.786 389.411 259.924 389.579 258.047C390.272 252.142 391.107 246.25 391.839 240.35L391.878 240.039C392.976 231.095 393.811 222.108 393.57 213.099C393.535 211.765 393.479 210.431 393.393 209.093C393.273 207.155 393.096 206.128 394.698 204.915C396.467 203.577 398.796 202.64 400.82 201.764C401.909 201.289 413.903 197.02 414.183 197.957C414.746 199.955 415.041 202.019 415.061 204.095C415.07 206.643 414.936 209.189 414.661 211.722Z" fill="#605D82"/>
<path opacity="0.1" d="M409.448 261.885C408.995 264.393 408.466 266.888 407.837 269.361C406.089 276.229 403.554 282.941 402.736 289.981C402.71 290.184 402.688 290.391 402.667 290.599C397.32 282.941 392.817 274.705 387.599 266.965C387.99 265.86 388.386 264.755 388.684 263.62C389.112 261.786 389.411 259.924 389.579 258.047C390.272 252.142 391.107 246.25 391.839 240.349L391.878 240.039C392.184 241.291 392.621 242.508 393.182 243.669C396.687 250.809 405.013 254.417 409.086 261.25C409.211 261.462 409.331 261.673 409.448 261.885Z" fill="black"/>
<path d="M366.059 199.105C366.236 204.831 367.15 210.506 368.062 216.161L369.945 227.83C370.975 234.216 372.047 240.733 375.062 246.453C377.317 250.732 380.565 254.383 383.504 258.222C390.729 267.659 396.157 278.35 403.008 288.064C404.999 290.887 407.845 293.941 411.244 293.351C413.474 292.964 415.094 291.102 416.848 289.667C418.915 287.974 421.406 286.736 423.032 284.614C424.659 282.493 424.977 278.967 422.774 277.457C421.976 277.014 421.13 276.667 420.252 276.422C416.836 275.12 414.625 271.775 413.218 268.394C411.812 265.012 410.959 261.376 409.085 258.23C405.013 251.397 396.685 247.789 393.18 240.647C391.217 236.646 391.03 232.036 390.879 227.58L390.497 216.222C390.455 214.979 390.422 213.688 390.926 212.552C392.267 209.528 396.315 209.247 399.593 208.864C403.313 208.426 406.918 207.286 410.215 205.504C412.103 204.481 413.947 203.178 414.957 201.28C415.879 199.548 416.006 197.517 416.114 195.557L417.249 174.973C417.347 173.202 417.436 171.37 416.813 169.71C415.25 165.541 410 164.179 405.562 164.378C397.304 164.748 389.681 168.31 381.895 170.715C379.967 171.325 378.009 171.837 376.029 172.249C374.282 172.601 372.167 172.455 370.5 173.018C367.537 174.02 367.612 180.519 367.191 183.214C366.323 188.465 365.944 193.784 366.059 199.105Z" fill="#605D82"/>
<path d="M410.123 294.214C410.851 294.951 411.089 296.029 411.279 297.048C412.33 302.703 412.877 308.439 412.913 314.191C412.865 314.727 412.971 315.267 413.221 315.744C413.426 316.028 413.704 316.252 414.025 316.392C416.13 317.398 418.573 315.996 420.326 314.456C423.577 311.601 426.328 307.768 426.513 303.439C426.479 302.324 426.518 301.207 426.629 300.097C426.915 298.468 427.864 297.048 428.7 295.621C430.124 293.193 431.272 290.612 432.123 287.928C432.443 286.919 432.656 285.649 431.867 284.946C431.588 284.726 431.27 284.56 430.931 284.457L421.424 280.918C420.6 280.611 418.55 285.891 418.225 286.468C417.429 287.88 416.637 288.682 415.041 289.008C413.411 289.34 411.471 288.863 409.95 289.678C407.377 291.058 408.666 292.741 410.123 294.214Z" fill="#535070"/>
<path d="M395.453 297.472C395.277 297.12 395.03 296.807 394.73 296.553C394.29 296.273 393.789 296.102 393.27 296.055C391.46 295.747 389.315 295.544 388.066 296.893C386.895 298.158 387.096 300.218 386.117 301.637C385.807 302.086 385.387 302.457 385.118 302.932C384.785 303.658 384.634 304.456 384.68 305.254C384.63 307.454 384.579 309.657 384.731 311.852C384.858 313.692 385.167 315.619 386.314 317.06C388.156 319.373 391.477 319.706 394.425 319.856L396.812 319.978C397.47 320.058 398.137 319.996 398.769 319.798C399.16 319.616 399.511 319.358 399.801 319.038C400.091 318.719 400.314 318.344 400.456 317.936C401.699 314.839 399.731 311.502 398.519 308.393C397.125 304.819 397.375 300.851 395.453 297.472Z" fill="#535070"/>
<path d="M375.694 69.5286C375.665 69.2146 375.711 68.8982 375.828 68.6057C376.178 67.9857 377.091 68.1544 377.78 68.3286C380.55 69.0288 383.469 68.3949 386.321 68.5585C389.173 68.7221 392.385 70.1517 392.959 72.9576C395.029 71.4861 396.813 69.6478 398.224 67.533C399.016 66.3454 399.706 64.985 399.598 63.5607C399.443 61.5063 397.724 59.9699 396.132 58.667L391.387 54.7832C390.764 54.2093 390.045 53.7508 389.262 53.4289C388.167 53.0535 386.972 53.2323 385.814 53.2331C382.36 53.2353 378.677 51.6592 375.605 53.2425C374.322 53.9038 373.356 55.0372 372.425 56.1423L368.19 61.1686C367.871 61.489 367.638 61.8849 367.513 62.3196C367.392 62.9332 367.707 63.5387 367.816 64.1542C368.016 65.2771 367.534 66.4755 367.905 67.5539C368.521 69.3441 370.688 69.5975 372.014 70.6238C372.508 71.0063 373.282 72.3026 373.87 72.2868C374.932 72.2582 375.667 70.3558 375.694 69.5286Z" fill="#3F3D56"/>
<path d="M382.88 84.3447C390.37 84.3447 396.441 78.2571 396.441 70.7476C396.441 63.238 390.37 57.1504 382.88 57.1504C375.39 57.1504 369.318 63.238 369.318 70.7476C369.318 78.2571 375.39 84.3447 382.88 84.3447Z" fill="#A0616A"/>
<path d="M386.056 100.505C385.596 99.1838 384.728 98.0437 383.578 97.2502C382.428 96.4568 381.056 96.0512 379.66 96.0924C379.261 96.1669 378.849 96.1146 378.481 95.9428C378.273 95.7825 378.106 95.5739 377.996 95.3351C377.171 93.8483 376.508 92.277 376.019 90.6482C375.802 89.9285 375.506 89.08 374.78 88.8929C374.48 88.8534 374.174 88.8967 373.896 89.0179C373.618 89.1392 373.378 89.334 373.202 89.5814C372.857 90.0794 372.48 90.5543 372.073 91.0031C370.368 92.5322 367.344 91.1385 365.534 92.5414C365.238 92.7705 364.994 93.064 364.684 93.2725C364.373 93.4601 364.038 93.6041 363.688 93.7005C360.192 94.8448 356.765 96.1905 353.424 97.731C354.628 105.002 355.862 112.4 358.685 119.206C360.028 122.444 361.55 125.616 362.626 128.954C365.009 136.349 365.115 144.262 365.142 152.033C365.16 157.352 365.134 162.785 363.417 167.818C362.956 168.93 362.63 170.094 362.448 171.285C362.344 172.485 362.693 173.807 363.662 174.518C364.224 174.886 364.866 175.112 365.535 175.177C368.509 175.615 371.507 174.821 374.435 174.141C382.284 172.319 390.289 171.276 398.278 170.236L411.666 168.493C412.626 168.427 413.565 168.184 414.436 167.775C416.886 166.43 417.118 162.735 415.597 160.387C414.868 159.261 413.839 158.337 413.226 157.144C412.613 155.95 412.561 154.281 413.616 153.454C415.762 151.772 415.122 148.652 415.224 145.923C415.51 138.292 415.471 130.659 415.108 123.022C415 121.442 414.975 119.856 415.032 118.273C415.27 115.59 415.765 112.936 416.509 110.347L420.577 94.2876C419.514 92.6039 417.479 91.5356 415.552 91.0506C413.624 90.5656 411.617 90.4228 409.718 89.8331C405.829 88.6248 402.367 85.5586 398.306 85.8444C397.999 85.8499 397.696 85.9239 397.421 86.0609C396.505 86.5812 396.65 87.9047 396.592 88.9586C396.462 91.2903 394.752 93.2391 392.863 94.6054C390.974 95.9718 388.817 96.968 387.082 98.5263C386.774 98.7585 386.523 99.0568 386.345 99.3992C386.168 99.7416 386.069 100.12 386.056 100.505Z" fill="#3F3D56"/>
<path d="M332.322 115.738C331.422 116.323 330.467 116.816 329.469 117.21C328.492 117.501 327.569 117.95 326.737 118.54C326.353 118.872 326.031 119.271 325.787 119.717C325.327 120.533 325.095 121.458 325.114 122.395C325.133 123.331 325.403 124.246 325.895 125.043C326.387 125.84 327.083 126.489 327.911 126.924C328.738 127.359 329.667 127.564 330.601 127.516C331.841 127.376 333.047 127.016 334.161 126.452L343.726 122.296C345.345 121.592 347.094 120.768 347.859 119.174C347.948 119.025 347.981 118.85 347.952 118.679C347.875 118.498 347.735 118.351 347.559 118.264C345.402 116.86 343.515 115.076 341.989 112.999C341.597 112.464 341.117 111.203 340.562 110.883C338.538 109.714 333.942 114.684 332.322 115.738Z" fill="#A0616A"/>
<path d="M434.576 112.328L438.102 116.367C438.859 117.234 439.617 118.102 440.307 119.024C442.002 121.366 443.361 123.933 444.346 126.653C445.113 128.67 445.749 130.818 445.481 132.959C445.303 134.057 445.007 135.132 444.599 136.167C443.953 138.155 443.151 140.09 442.203 141.953C441.405 143.368 440.503 144.723 439.506 146.005C436.776 149.633 433.788 153.059 430.567 156.257C429.361 157.453 428.856 159.388 428.331 161.006C427.363 163.989 425.06 166.313 422.832 168.516C422.116 169.274 421.325 169.957 420.471 170.553C419.192 171.38 417.696 171.807 416.174 171.78C415.508 171.785 414.849 171.648 414.239 171.378C412.715 170.653 411.94 168.886 411.781 167.201C411.639 165.673 411.895 164.133 412.523 162.733C414.546 158.239 419.743 156.291 423.416 153.012C425.57 151.089 427.217 148.673 428.841 146.284C429.945 144.792 430.866 143.174 431.585 141.462C432.405 139.267 432.086 136.669 432.803 134.439C433.106 133.496 433.644 132.644 433.97 131.709C434.296 130.774 434.378 129.664 433.808 128.854C433.378 128.34 432.83 127.938 432.211 127.682C429.865 126.488 427.237 124.951 426.788 122.352C426.609 120.91 426.985 119.454 427.838 118.281C428.689 117.123 429.684 116.078 430.797 115.171C431.824 114.261 433.549 113.238 434.576 112.328Z" fill="#A0616A"/>
<path d="M330.058 121.376C329.435 120.115 328.656 118.829 327.4 118.201C326.791 117.936 326.134 117.798 325.47 117.795C324.806 117.793 324.148 117.925 323.537 118.185C322.319 118.712 321.178 119.403 320.147 120.241L317.107 122.487C316.418 122.941 315.808 123.505 315.303 124.157C314.823 124.949 314.504 125.828 314.363 126.743C313.833 128.83 313.671 130.995 313.885 133.138C314.367 136.575 316.434 139.575 318.708 142.191C320.13 143.826 321.885 145.476 324.046 145.546C324.98 145.576 326.017 145.207 326.406 144.355C326.54 144.018 326.611 143.658 326.616 143.295C326.85 139.462 325.482 135.717 323.887 132.226C323.379 131.311 323.078 130.295 323.007 129.251C322.996 129.075 323.041 128.901 323.137 128.753C323.275 128.609 323.459 128.519 323.656 128.499C325.839 128.066 329.599 129.766 331.13 127.336C332.123 125.76 330.763 122.805 330.058 121.376Z" fill="#A0616A"/>
<path d="M374.983 65.25C374.953 64.9361 374.999 64.6196 375.117 64.3271C375.467 63.7072 376.38 63.8759 377.069 64.05C379.839 64.7502 382.757 64.1164 385.609 64.28C388.461 64.4436 391.674 65.8731 392.247 68.6791C394.318 67.2076 396.102 65.3692 397.513 63.2545C398.305 62.0669 398.994 60.7065 398.887 59.2822C398.731 57.2278 397.012 55.6914 395.42 54.3885L390.675 50.5046C390.053 49.9308 389.333 49.4722 388.551 49.1503C387.455 48.7749 386.26 48.9538 385.102 48.9545C381.648 48.9567 377.966 47.3807 374.894 48.9639C373.61 49.6253 372.645 50.7586 371.713 51.8637L367.478 56.8901C367.16 57.2104 366.927 57.6064 366.801 58.0411C366.681 58.6546 366.995 59.2601 367.105 59.8757C367.305 60.9986 366.823 62.197 367.193 63.2753C367.809 65.0655 369.977 65.3189 371.302 66.3453C371.796 66.7278 372.57 68.0241 373.159 68.0082C374.221 67.9797 374.955 66.0772 374.983 65.25Z" fill="#3F3D56"/>
<path d="M346.18 102.513C345.632 102.867 345.152 103.315 344.76 103.838C344.263 104.591 344.162 105.543 343.735 106.339C342.821 108.041 340.683 108.647 339.35 110.044C339.138 110.236 338.991 110.49 338.928 110.769C338.922 111.148 339.049 111.518 339.287 111.812L345.717 121.949C347.859 122.138 349.913 120.793 352.055 120.971C352.855 121.038 353.673 121.315 354.44 121.078C354.989 120.834 355.504 120.518 355.971 120.14C357.248 119.329 358.951 119.235 360.023 118.166C361.052 117.14 361.183 115.535 361.171 114.08C361.188 112.817 361.06 111.556 360.788 110.322C359.842 106.431 356.874 103.445 355.013 99.9989C354.107 98.321 353.615 97.3387 351.697 98.4908C349.77 99.6489 347.994 101.183 346.18 102.513Z" fill="#3F3D56"/>
<path d="M424.28 97.3866C425.489 98.1734 426.578 99.1303 427.515 100.228C428.495 101.494 429.05 103.044 429.991 104.34C430.903 105.596 432.145 106.569 433.179 107.725C434.748 109.479 435.811 111.618 436.855 113.729C434.306 117.063 431.526 120.213 428.537 123.156C428.204 123.549 427.765 123.838 427.273 123.988C426.939 124.024 426.601 123.976 426.289 123.848C425.978 123.721 425.702 123.518 425.488 123.258C425.025 122.771 424.696 122.17 424.254 121.664C423.209 120.584 421.816 119.908 420.322 119.758C418.841 119.614 417.352 119.594 415.868 119.696C415.542 119.733 415.212 119.677 414.916 119.536C414.696 119.384 414.518 119.179 414.397 118.939C412.656 115.969 413.216 112.239 413.83 108.849L415.24 101.07C415.444 99.5844 415.838 98.1313 416.413 96.7467C416.947 95.6027 418.141 93.6627 419.609 94.0052C421.088 94.3504 423.035 96.4887 424.28 97.3866Z" fill="#3F3D56"/>
<path d="M166.28 148.464C178.121 148.464 187.721 138.822 187.721 126.927C187.721 115.032 178.121 105.39 166.28 105.39C154.438 105.39 144.838 115.032 144.838 126.927C144.838 138.822 154.438 148.464 166.28 148.464Z" fill="white"/>
<path d="M166.279 101.719C161.211 101.719 156.257 103.226 152.043 106.049C147.828 108.872 144.544 112.885 142.604 117.58C140.665 122.275 140.157 127.441 141.146 132.425C142.135 137.409 144.576 141.987 148.159 145.58C151.743 149.173 156.309 151.62 161.28 152.612C166.251 153.603 171.403 153.094 176.086 151.149C180.768 149.205 184.77 145.912 187.586 141.686C190.402 137.461 191.905 132.494 191.905 127.412C191.885 120.604 189.179 114.081 184.377 109.266C179.576 104.452 173.069 101.739 166.279 101.719ZM161.019 141.111L147.886 127.943L151.569 124.25L161.031 133.737L181.001 113.713L184.685 117.407L161.019 141.111L161.019 141.111Z" fill="#57B894"/>
</g>
<defs>
<clipPath id="clip0">
<rect width="530" height="320" fill="white"/>
</clipPath>
</defs>
</svg>
