<svg width="99" height="112" viewBox="0 0 99 112" fill="none" xmlns="http://www.w3.org/2000/svg">
  <g clip-path="url(#clip0)" filter="url(#filter0_d)">
    <path d="M85.7459 72.1081C83.1656 79.1013 79.2632 85.1819 74.1458 90.1792C68.3208 95.8672 60.6934 100.387 51.4751 103.611C51.1726 103.717 50.8569 103.803 50.5398 103.867C50.1209 103.949 49.6946 103.994 49.272 104H49.1892C48.7388 104 48.2861 103.955 47.8372 103.867C47.52 103.803 47.2087 103.717 46.9077 103.613C37.6785 100.394 30.0415 95.8767 24.2107 90.1887C19.091 85.1914 15.1894 79.1145 12.6128 72.1213C7.92746 59.4065 8.19407 45.3996 8.40866 34.1438L8.41233 33.9709C8.45554 33.0415 8.48337 32.0651 8.49875 30.987C8.57712 25.6938 12.7856 21.3147 18.0796 21.0195C29.1172 20.4035 37.6558 16.8037 44.9514 9.69258L45.0151 9.63398C46.2266 8.5229 47.7529 7.97798 49.272 8.00068C50.7368 8.01972 52.1958 8.56391 53.364 9.63398L53.4263 9.69258C60.7234 16.8037 69.262 20.4035 80.2996 21.0195C85.5935 21.3147 89.802 25.6938 89.8804 30.987C89.8958 32.0725 89.9236 33.0473 89.9668 33.9709L89.969 34.0442C90.1829 45.3213 90.448 59.3559 85.7459 72.1081Z" fill="#1F8BFD" />
    <path d="M85.7458 72.1082C83.1654 79.1014 79.2631 85.182 74.1457 90.1793C68.3207 95.8673 60.6933 100.387 51.475 103.611C51.1725 103.717 50.8568 103.803 50.5397 103.867C50.1207 103.95 49.6945 103.994 49.2719 104V8.00073C50.7367 8.01978 52.1957 8.56397 53.3639 9.63403L53.4262 9.69263C60.7233 16.8037 69.2619 20.4036 80.2995 21.0195C85.5934 21.3147 89.8019 25.6939 89.8803 30.9871C89.8957 32.0725 89.9235 33.0474 89.9667 33.971L89.9689 34.0442C90.1828 45.3213 90.4479 59.356 85.7458 72.1082Z" fill="#056AD4" />
    <path d="M73.1128 56C73.1128 69.1639 62.4246 79.8792 49.2718 79.9261H49.1875C35.9959 79.9261 25.2615 69.1924 25.2615 56C25.2615 42.8084 35.9959 32.0747 49.1875 32.0747H49.2718C62.4246 32.1216 73.1128 42.8369 73.1128 56Z" fill="white" />
    <path d="M73.113 56C73.113 69.1639 62.4247 79.8792 49.2719 79.9261V32.0747C62.4247 32.1216 73.113 42.8369 73.113 56Z" fill="#E1EBF0" />
    <path d="M52.0872 46.175V57.2353C52.0872 58.7903 50.8252 60.0522 49.2703 60.0522C47.7139 60.0522 46.4534 58.7903 46.4534 57.2353V46.175C46.4534 44.6179 47.7139 43.3582 49.2703 43.3582C50.8252 43.3582 52.0872 44.6179 52.0872 46.175Z" fill="#B4D2D7" />
    <path d="M52.0872 65.8247C52.0872 65.917 52.0813 66.0107 52.074 66.103C52.0645 66.1931 52.0498 66.2847 52.033 66.377C52.0139 66.4648 51.9912 66.5549 51.9648 66.6436C51.937 66.7314 51.907 66.8179 51.8711 66.9028C51.8359 66.9871 51.7964 67.072 51.7532 67.1526C51.71 67.2332 51.6631 67.3123 51.6118 67.3892C51.5613 67.4661 51.5071 67.5415 51.4485 67.6104C51.3906 67.6836 51.3269 67.7517 51.2632 67.8169C51.1973 67.8828 51.1277 67.9451 51.0566 68.0029C50.9849 68.0615 50.9102 68.1157 50.8347 68.1663C50.7578 68.2175 50.6787 68.2659 50.5959 68.3091C50.5154 68.3523 50.4326 68.3918 50.3484 68.4255C50.2642 68.4614 50.1755 68.4929 50.0876 68.5193C50.0012 68.5457 49.9111 68.5684 49.821 68.5874C49.7302 68.6057 49.6387 68.6189 49.5486 68.6284C49.4563 68.6379 49.3625 68.6416 49.2703 68.6416C49.1787 68.6416 49.0864 68.6379 48.9941 68.6284C48.9026 68.6189 48.8103 68.6057 48.7202 68.5874C48.6301 68.5684 48.54 68.5457 48.4536 68.5193C48.365 68.4929 48.2771 68.4614 48.1929 68.4255C48.1079 68.3918 48.0251 68.3523 47.9446 68.3091C47.8618 68.2659 47.7834 68.2175 47.7065 68.1663C47.6311 68.1157 47.5557 68.0615 47.4846 68.0029C47.4136 67.9451 47.344 67.8828 47.2781 67.8169C47.2144 67.7517 47.1506 67.6836 47.092 67.6104C47.0342 67.5415 46.9792 67.4661 46.9287 67.3892C46.8782 67.3123 46.8313 67.2332 46.7881 67.1526C46.7449 67.072 46.7053 66.9871 46.6694 66.9028C46.6343 66.8179 46.6042 66.7314 46.5757 66.6436C46.5493 66.5549 46.5266 66.4648 46.5083 66.377C46.4915 66.2847 46.4761 66.1931 46.4666 66.103C46.4592 66.0107 46.4534 65.917 46.4534 65.8247C46.4534 65.7332 46.4592 65.6409 46.4666 65.5486C46.4761 65.457 46.4915 65.3647 46.5083 65.2747C46.5266 65.186 46.5493 65.0959 46.5757 65.0081C46.6042 64.9194 46.6343 64.833 46.6694 64.7488C46.7053 64.6646 46.7449 64.5796 46.7881 64.499C46.8313 64.4185 46.8782 64.3379 46.9287 64.2625C46.9792 64.1855 47.0342 64.1101 47.092 64.0391C47.1506 63.9673 47.2144 63.8984 47.2781 63.834C47.344 63.7688 47.4136 63.7065 47.4846 63.6465C47.5557 63.5901 47.6311 63.5337 47.7065 63.4832C47.7834 63.4326 47.8618 63.3857 47.9446 63.3425C48.0251 63.2993 48.1079 63.2598 48.1929 63.2239C48.2771 63.1902 48.365 63.158 48.4536 63.1323C48.54 63.1038 48.6301 63.0811 48.7202 63.0642C48.8103 63.0459 48.9026 63.0327 48.9941 63.0232C49.0842 63.0137 49.1787 63.0078 49.2703 63.0078C49.3625 63.0078 49.4563 63.0137 49.5486 63.0232C49.6387 63.0327 49.7302 63.0459 49.821 63.0642C49.9111 63.0811 50.0012 63.1038 50.0876 63.1323C50.1755 63.158 50.2642 63.1902 50.3484 63.2239C50.4326 63.2598 50.5154 63.2993 50.5959 63.3425C50.6787 63.3857 50.7578 63.4326 50.8347 63.4832C50.9102 63.5337 50.9849 63.5901 51.0566 63.6465C51.1277 63.7065 51.1973 63.7688 51.2632 63.834C51.3269 63.8984 51.3906 63.9673 51.4485 64.0391C51.5071 64.1101 51.5613 64.1855 51.6118 64.2625C51.6631 64.3379 51.71 64.4185 51.7532 64.499C51.7964 64.5796 51.8359 64.6646 51.8711 64.7488C51.907 64.833 51.937 64.9194 51.9648 65.0081C51.9912 65.0959 52.0139 65.186 52.033 65.2747C52.0498 65.3647 52.0645 65.457 52.074 65.5486C52.0813 65.6409 52.0872 65.7332 52.0872 65.8247Z" fill="#B4D2D7" />
    <path d="M52.0748 65.5486C52.0822 65.6409 52.088 65.7332 52.088 65.8247C52.088 65.917 52.0822 66.0107 52.0748 66.103C52.0653 66.1931 52.0507 66.2847 52.0338 66.377C52.0148 66.4648 51.9921 66.5549 51.9657 66.6436C51.9379 66.7314 51.9078 66.8179 51.8719 66.9028C51.8368 66.9871 51.7972 67.072 51.754 67.1526C51.7108 67.2332 51.6639 67.3123 51.6127 67.3892C51.5621 67.4661 51.5079 67.5415 51.4493 67.6104C51.3915 67.6836 51.3278 67.7517 51.264 67.8169C51.1981 67.8828 51.1285 67.9451 51.0575 68.0029C50.9857 68.0615 50.911 68.1157 50.8356 68.1663C50.7587 68.2175 50.6796 68.2659 50.5968 68.3091C50.5162 68.3523 50.4335 68.3918 50.3492 68.4255C50.265 68.4614 50.1764 68.4929 50.0885 68.5193C50.0021 68.5457 49.912 68.5684 49.8219 68.5874C49.7311 68.6057 49.6395 68.6189 49.5494 68.6284C49.4572 68.6379 49.3634 68.6416 49.2711 68.6416V63.0078C49.3634 63.0078 49.4572 63.0137 49.5494 63.0232C49.6395 63.0327 49.7311 63.0459 49.8219 63.0642C49.912 63.0811 50.0021 63.1038 50.0885 63.1323C50.1764 63.158 50.265 63.1902 50.3492 63.2239C50.4335 63.2598 50.5162 63.2993 50.5968 63.3425C50.6796 63.3857 50.7587 63.4326 50.8356 63.4832C50.911 63.5337 50.9857 63.5901 51.0575 63.6465C51.1285 63.7065 51.1981 63.7688 51.264 63.834C51.3278 63.8984 51.3915 63.9673 51.4493 64.0391C51.5079 64.1101 51.5621 64.1855 51.6127 64.2625C51.6639 64.3379 51.7108 64.4185 51.754 64.499C51.7972 64.5796 51.8368 64.6646 51.8719 64.7488C51.9078 64.833 51.9379 64.9194 51.9657 65.0081C51.9921 65.0959 52.0148 65.186 52.0338 65.2747C52.0507 65.3647 52.0653 65.457 52.0748 65.5486Z" fill="#6FA5AA" />
    <path d="M52.088 46.175V57.2353C52.088 58.7903 50.826 60.0522 49.2711 60.0522V43.3582C50.826 43.3582 52.088 44.6179 52.088 46.175Z" fill="#6FA5AA" />
  </g>
  <defs>
    <filter id="filter0_d" x="-7" y="0" width="112" height="112" filterUnits="userSpaceOnUse" color-interpolation-filters="sRGB">
      <feFlood flood-opacity="0" result="BackgroundImageFix" />
      <feColorMatrix in="SourceAlpha" type="matrix" values="0 0 0 0 0 0 0 0 0 0 0 0 0 0 0 0 0 0 127 0" />
      <feOffset />
      <feGaussianBlur stdDeviation="4" />
      <feColorMatrix type="matrix" values="0 0 0 0 0 0 0 0 0 0 0 0 0 0 0 0 0 0 0.25 0" />
      <feBlend mode="normal" in2="BackgroundImageFix" result="effect1_dropShadow" />
      <feBlend mode="normal" in="SourceGraphic" in2="effect1_dropShadow" result="shape" />
    </filter>
    <clipPath id="clip0">
      <rect width="96" height="96" fill="white" transform="translate(1 8)" />
    </clipPath>
  </defs>
</svg>
