<svg width="82" height="82" viewBox="0 0 82 82" fill="none" xmlns="http://www.w3.org/2000/svg">
    <path d="M62.7812 78.1562H19.2188C17.1799 78.1562 15.2246 77.3463 13.7829 75.9046C12.3412 74.463 11.5312 72.5076 11.5312 70.4688V11.5312C11.5312 9.4924 12.3412 7.53705 13.7829 6.09537C15.2246 4.65368 17.1799 3.84375 19.2188 3.84375H55.0938L70.4688 19.2188V70.4688C70.4688 72.5076 69.6588 74.463 68.2171 75.9046C66.7754 77.3463 64.8201 78.1562 62.7812 78.1562Z" fill="#CFD2FC"/>
    <path d="M25.625 24.3438H56.375V47.4062H25.625V24.3438Z" fill="#8690FA"/>
    <path d="M25.625 24.3438H56.375V29.4688H25.625V24.3438Z" fill="white"/>
    <path d="M11.5312 57.6562H70.4688V70.4688C70.4688 72.5076 69.6588 74.4629 68.2171 75.9046C66.7754 77.3463 64.8201 78.1562 62.7812 78.1562H19.2188C17.1799 78.1562 15.2246 77.3463 13.7829 75.9046C12.3412 74.4629 11.5312 72.5076 11.5312 70.4688V57.6562Z" fill="#5153FF"/>
    <path d="M70.4688 19.2188H62.7812C60.7424 19.2188 58.7871 18.4088 57.3454 16.9671C55.9037 15.5254 55.0938 13.5701 55.0938 11.5312V3.84375L70.4688 19.2188Z" fill="#8690FA"/>
    <path d="M38.5896 29.4688H35.7245L33.162 24.3438H36.0271L38.5896 29.4688Z" fill="#B5BAFC"/>
    <path d="M33.3117 29.4688H30.4465L27.884 24.3438H30.7492L33.3117 29.4688Z" fill="#B5BAFC"/>
    <path d="M43.7131 29.4688H40.8479L38.287 24.3438H41.1522L43.7131 29.4688Z" fill="#B5BAFC"/>
    <path d="M48.8381 29.4688H45.9745L43.412 24.3438H46.2756L48.8381 29.4688Z" fill="#B5BAFC"/>
    <path d="M53.9647 29.4688H51.0995L48.537 24.3438H51.4022L53.9647 29.4688Z" fill="#B5BAFC"/>
    <path d="M49.9688 43.5625H32.0312C31.6914 43.5625 31.3655 43.4275 31.1253 43.1872C30.885 42.947 30.75 42.6211 30.75 42.2812C30.75 41.9414 30.885 41.6155 31.1253 41.3753C31.3655 41.135 31.6914 41 32.0312 41H49.9688C50.3086 41 50.6345 41.135 50.8747 41.3753C51.115 41.6155 51.25 41.9414 51.25 42.2812C51.25 42.6211 51.115 42.947 50.8747 43.1872C50.6345 43.4275 50.3086 43.5625 49.9688 43.5625Z" fill="white"/>
    <path d="M30.75 64.0625H33.3125C33.6523 64.0625 33.9782 63.9275 34.2185 63.6872C34.4588 63.447 34.5938 63.1211 34.5938 62.7812C34.5938 62.4414 34.4588 62.1155 34.2185 61.8753C33.9782 61.635 33.6523 61.5 33.3125 61.5H30.75C29.7306 61.5 28.7529 61.905 28.0321 62.6258C27.3112 63.3467 26.9063 64.3243 26.9062 65.3438C26.9063 66.3632 27.3112 67.3408 28.0321 68.0617C28.7529 68.7825 29.7306 69.1875 30.75 69.1875C31.0898 69.1875 31.4157 69.3225 31.656 69.5628C31.8963 69.803 32.0312 70.1289 32.0312 70.4688C32.0312 70.8086 31.8963 71.1345 31.656 71.3747C31.4157 71.615 31.0898 71.75 30.75 71.75H28.1875C27.8477 71.75 27.5218 71.885 27.2815 72.1253C27.0412 72.3655 26.9062 72.6914 26.9062 73.0312C26.9062 73.3711 27.0412 73.697 27.2815 73.9372C27.5218 74.1775 27.8477 74.3125 28.1875 74.3125H30.75C31.7694 74.3125 32.7471 73.9075 33.4679 73.1867C34.1888 72.4658 34.5938 71.4882 34.5938 70.4688C34.5938 69.4493 34.1888 68.4717 33.4679 67.7508C32.7471 67.03 31.7694 66.625 30.75 66.625C30.4102 66.625 30.0843 66.49 29.844 66.2497C29.6037 66.0095 29.4688 65.6836 29.4688 65.3438C29.4688 65.0039 29.6037 64.678 29.844 64.4378C30.0843 64.1975 30.4102 64.0625 30.75 64.0625Z" fill="white"/>
    <path d="M41.4974 69.1542C42.464 69.0261 43.3457 68.5355 43.9642 67.7818C44.5826 67.028 44.8914 66.0674 44.8282 65.0945C44.765 64.1215 44.3344 63.209 43.6236 62.5416C42.9128 61.8742 41.975 61.5019 41 61.5H38.4375C38.0977 61.5 37.7718 61.635 37.5315 61.8753C37.2912 62.1155 37.1562 62.4414 37.1562 62.7812V73.0312C37.1562 73.3711 37.2912 73.6969 37.5315 73.9372C37.7718 74.1775 38.0977 74.3125 38.4375 74.3125C38.7773 74.3125 39.1032 74.1775 39.3435 73.9372C39.5838 73.6969 39.7188 73.3711 39.7188 73.0312V70.9995L42.6565 73.9373C42.7755 74.0562 42.9167 74.1506 43.0722 74.215C43.2276 74.2794 43.3942 74.3125 43.5625 74.3125C43.7308 74.3125 43.8974 74.2794 44.0528 74.215C44.2083 74.1506 44.3495 74.0562 44.4685 73.9373C44.5875 73.8183 44.6819 73.677 44.7463 73.5216C44.8106 73.3661 44.8438 73.1995 44.8438 73.0312C44.8438 72.863 44.8106 72.6964 44.7463 72.5409C44.6819 72.3855 44.5875 72.2442 44.4685 72.1252L41.4974 69.1542ZM39.7188 64.0625H41C41.3398 64.0625 41.6657 64.1975 41.906 64.4378C42.1463 64.678 42.2812 65.0039 42.2812 65.3437C42.2812 65.6836 42.1463 66.0094 41.906 66.2497C41.6657 66.49 41.3398 66.625 41 66.625H39.7188V64.0625Z" fill="white"/>
    <path d="M53.8125 61.5H48.6875C48.3477 61.5 48.0218 61.635 47.7815 61.8753C47.5412 62.1155 47.4062 62.4414 47.4062 62.7812C47.4062 63.1211 47.5412 63.447 47.7815 63.6872C48.0218 63.9275 48.3477 64.0625 48.6875 64.0625H49.9688V73.0312H49.9699C49.9699 73.3708 50.1047 73.6964 50.3448 73.9364C50.5849 74.1765 50.9105 74.3114 51.25 74.3114C51.5895 74.3114 51.9151 74.1765 52.1552 73.9364C52.3953 73.6964 52.5301 73.3708 52.5301 73.0312H52.5312V64.0625H53.8125C54.1523 64.0625 54.4782 63.9275 54.7185 63.6872C54.9588 63.447 55.0938 63.1211 55.0938 62.7812C55.0938 62.4414 54.9588 62.1155 54.7185 61.8753C54.4782 61.635 54.1523 61.5 53.8125 61.5Z" fill="white"/>
    </svg>
