<svg width="499" height="300" viewBox="0 0 499 300" fill="none" xmlns="http://www.w3.org/2000/svg">
<g clip-path="url(#clip0)">
<path d="M338.926 171.262L343.198 170.524C343.608 170.452 344.015 170.364 344.424 170.29C337.663 166.093 332.53 159.721 329.869 152.221C327.208 144.721 327.178 136.539 329.782 129.019C332.387 121.499 337.472 115.089 344.202 110.842C350.932 106.594 358.906 104.762 366.815 105.646L361.216 118.97L374.481 107.387C374.512 107.394 374.542 107.404 374.572 107.417C378.916 108.947 382.916 111.317 386.344 114.393C389.771 117.469 392.56 121.19 394.549 125.344C396.539 129.497 397.691 134.002 397.94 138.601C398.188 143.199 397.529 147.802 395.999 152.146C395.777 152.778 395.513 153.381 395.259 153.991C399.004 152.11 402.597 149.919 405.526 147.114C411.458 141.431 414.707 133.588 418.339 123.925C425.534 104.777 432.46 85.3516 439.111 65.884C431.776 61.9147 426.096 55.46 423.093 47.6795C420.089 39.8989 419.958 31.3023 422.723 23.4337C423.079 22.4214 423.492 21.4466 423.929 20.4892C424.039 20.2496 424.149 20.0115 424.263 19.7754C424.708 18.8575 425.177 17.9582 425.693 17.0951C425.777 16.9536 425.871 16.8212 425.957 16.6813C426.406 15.9536 426.878 15.2474 427.376 14.5628C427.561 14.3057 427.746 14.0494 427.937 13.7985C428.501 13.0613 429.085 12.344 429.701 11.6592C429.906 11.4301 430.125 11.216 430.336 10.9928C430.809 10.4938 431.295 10.0098 431.794 9.54089C432.057 9.29403 432.317 9.04539 432.587 8.80728C432.656 8.74619 432.721 8.67951 432.79 8.61892C432.794 8.62339 432.797 8.62819 432.8 8.63261C438.977 3.24953 446.845 0.201059 455.037 0.0170399C463.228 -0.16698 471.225 2.52508 477.638 7.62533L470.352 24.9633L483.467 13.518C488.057 19.3655 490.658 26.5265 490.891 33.9565C491.124 41.3864 488.977 48.6965 484.763 54.8203C484.775 54.8245 484.788 54.8278 484.8 54.8321C484.657 55.0425 484.494 55.2351 484.347 55.4418C484.07 55.8298 483.787 56.2108 483.497 56.5849C483.125 57.0647 482.738 57.5284 482.343 57.9858C482.045 58.331 481.751 58.6791 481.44 59.0112C480.986 59.497 480.51 59.9569 480.031 60.4143C479.752 60.6812 479.484 60.9615 479.197 61.2185C478.443 61.8919 477.663 62.5308 476.857 63.1353C476.574 63.3471 476.276 63.5338 475.988 63.7366C475.422 64.1347 474.853 64.5269 474.265 64.8901C473.901 65.1154 473.527 65.3214 473.154 65.5331C472.616 65.84 472.073 66.1373 471.519 66.415C471.127 66.6119 470.731 66.7987 470.331 66.9808C469.763 67.24 469.187 67.4804 468.605 67.7091C468.214 67.8625 467.826 68.0179 467.43 68.1573C466.777 68.3874 466.114 68.5872 465.447 68.7786C465.111 68.8753 464.78 68.9859 464.44 69.0725C463.44 69.3276 462.429 69.5447 461.406 69.7111C461.213 69.7425 461.018 69.7544 460.824 69.7824C459.976 69.9058 459.124 70.0054 458.265 70.0662C457.895 70.0923 457.524 70.096 457.153 70.1105C456.458 70.1375 455.763 70.1513 455.064 70.1363C454.656 70.1277 454.249 70.1066 453.84 70.0835C453.159 70.045 452.478 69.9857 451.796 69.9057C451.393 69.859 450.991 69.8126 450.587 69.7515C449.857 69.6407 449.127 69.4957 448.397 69.337C448.349 69.3266 448.301 69.3203 448.253 69.3097C445.446 77.5227 442.587 85.7183 439.676 93.8963C443.227 90.7037 447.392 88.2703 451.916 86.7454C456.441 85.2205 461.229 84.6362 465.988 85.0285C470.747 85.4207 475.375 86.7812 479.589 89.0264C483.802 91.2717 487.513 94.3543 490.492 98.0851L478.368 111.494L494.784 104.94C498.771 113.302 499.276 122.904 496.187 131.637C495.117 134.706 493.617 137.608 491.732 140.256C487.676 145.993 481.99 150.379 475.411 152.844C468.832 155.31 461.664 155.742 454.837 154.085C448.009 152.427 441.838 148.756 437.122 143.547C432.406 138.339 429.365 131.834 428.391 124.876C428.083 125.7 427.785 126.534 427.476 127.357C424.271 135.882 420.284 146.491 412.277 154.161C406.85 159.36 400.172 162.658 393.766 165.446C389.594 167.262 385.366 168.941 381.084 170.482C376.322 173.369 370.943 175.083 365.389 175.484C358.631 177.361 351.788 178.928 344.881 180.138L340.575 180.88C336.704 181.544 332.735 182.226 328.797 183.013C329.364 183.181 329.932 183.341 330.496 183.54C337.514 186.01 343.565 190.648 347.775 196.783C351.985 202.918 354.135 210.232 353.914 217.669L326.914 225.957L351.346 229.836C349.111 235.329 345.52 240.166 340.909 243.894C336.298 247.623 330.818 250.122 324.979 251.158C319.14 252.195 313.134 251.734 307.522 249.82C301.909 247.905 296.874 244.6 292.885 240.212C293.133 241.043 293.382 241.872 293.632 242.7C294.128 244.347 294.62 245.983 295.093 247.604C301.521 269.695 298.755 287.072 287.3 296.532L281.085 289.009C292.233 279.8 288.774 260.824 285.722 250.33C285.259 248.738 284.774 247.13 284.287 245.514C280.1 231.603 275.353 215.836 281.501 201.347C290.766 179.509 317.47 174.936 338.926 171.262Z" fill="#F2F2F2"/>
<path d="M331.013 299.366H141.838C135.634 299.366 129.685 296.902 125.298 292.515C120.912 288.128 118.447 282.179 118.447 275.975V189.304C118.447 188.046 118.704 186.8 119.201 185.644C119.698 184.488 120.425 183.445 121.339 182.579L221.583 87.5561C225.591 83.7569 230.903 81.6392 236.426 81.6392C241.948 81.6392 247.26 83.7569 251.268 87.5561L346.846 178.156C349.233 180.419 351.135 183.145 352.434 186.167C353.734 189.189 354.404 192.445 354.404 195.735V275.975C354.404 279.047 353.799 282.089 352.624 284.926C351.448 287.764 349.725 290.343 347.553 292.515C345.381 294.687 342.802 296.41 339.965 297.585C337.127 298.761 334.085 299.366 331.013 299.366Z" fill="#3F3D56"/>
<path opacity="0.1" d="M118.447 190.728H352.438V285.242C352.438 288.988 350.95 292.58 348.301 295.229C345.652 297.878 342.06 299.366 338.314 299.366H132.571C128.825 299.366 125.233 297.878 122.584 295.229C119.935 292.58 118.447 288.988 118.447 285.242V190.728Z" fill="black"/>
<path d="M310.319 116.254H162.041C154.933 116.254 149.171 122.016 149.171 129.124V277.402C149.171 284.51 154.933 290.272 162.041 290.272H310.319C317.427 290.272 323.189 284.51 323.189 277.402V129.124C323.189 122.016 317.427 116.254 310.319 116.254Z" fill="white"/>
<path opacity="0.1" d="M323.189 194.636V290.272H149.171V194.636L236.18 236.69L323.189 194.636Z" fill="black"/>
<path d="M236.18 242.097L124.693 188.212C124.003 187.879 123.241 187.726 122.476 187.768C121.711 187.81 120.97 188.046 120.321 188.453C119.672 188.86 119.137 189.425 118.766 190.095C118.396 190.766 118.201 191.519 118.201 192.285V284.996C118.201 286.851 118.566 288.688 119.276 290.401C119.986 292.115 121.026 293.672 122.338 294.983C123.65 296.295 125.207 297.335 126.92 298.045C128.634 298.755 130.47 299.12 132.325 299.12H340.034C341.889 299.12 343.725 298.755 345.439 298.045C347.152 297.335 348.71 296.295 350.021 294.983C351.333 293.672 352.373 292.115 353.083 290.401C353.793 288.688 354.158 286.851 354.158 284.996V193.873C354.158 192.938 353.921 192.019 353.468 191.201C353.016 190.383 352.363 189.694 351.572 189.197C350.78 188.7 349.875 188.413 348.942 188.362C348.009 188.31 347.078 188.497 346.236 188.903L236.18 242.097Z" fill="#3F3D56"/>
<path d="M212.83 132.23H164.164V139.112H212.83V132.23Z" fill="#F2F2F2"/>
<path d="M304.755 157.3H160.231V161.233H304.755V157.3Z" fill="#F2F2F2"/>
<path d="M304.755 170.573H160.231V174.506H304.755V170.573Z" fill="#F2F2F2"/>
<path d="M304.755 183.845H160.231V187.778H304.755V183.845Z" fill="#F2F2F2"/>
<path d="M29.9639 299.12H435.023" stroke="#3F3D56" stroke-miterlimit="10"/>
<path d="M0 238.588C0 267.572 18.1827 291.025 40.6531 291.025L0 238.588Z" fill="#46455B"/>
<path d="M40.6528 291.025C40.6528 261.716 60.9437 237.999 86.0193 237.999L40.6528 291.025Z" fill="white"/>
<path d="M14.7295 241.216C14.7295 268.747 26.3243 291.025 40.6532 291.025L14.7295 241.216Z" fill="white"/>
<path d="M40.6528 291.025C40.6528 253.574 64.1059 223.27 93.0894 223.27L40.6528 291.025Z" fill="#46455B"/>
<path d="M32.1006 291.394C32.1006 291.394 37.8659 291.217 39.6034 289.98C41.3409 288.742 48.4718 287.265 48.9028 289.249C49.3339 291.234 57.567 299.118 51.058 299.171C44.549 299.223 35.9341 298.157 34.1999 297.1C32.4657 296.044 32.1006 291.394 32.1006 291.394Z" fill="#A8A8A8"/>
<path opacity="0.2" d="M51.1742 298.48C44.6652 298.533 36.0502 297.466 34.3161 296.41C32.9954 295.605 32.4691 292.719 32.2931 291.387C32.1711 291.392 32.1006 291.394 32.1006 291.394C32.1006 291.394 32.4657 296.044 34.1999 297.101C35.9341 298.157 44.5491 299.223 51.058 299.171C52.9369 299.156 53.5859 298.487 53.5503 297.497C53.2892 298.095 52.5726 298.469 51.1742 298.48Z" fill="black"/>
<path d="M353.794 80.0142C353.498 82.6464 351.491 84.7667 350.747 87.3088C349.627 91.1349 351.563 95.2408 354.211 98.2206C356.348 100.6 358.936 102.531 361.825 103.903C364.714 105.274 367.846 106.059 371.04 106.211C371.978 106.293 372.924 106.19 373.822 105.908C374.625 105.585 375.347 105.091 375.939 104.461C377.934 102.458 379.004 99.6837 379.431 96.8897C379.858 94.0958 379.692 91.2493 379.525 88.4279C379.526 87.8446 379.42 87.2662 379.212 86.7211C378.94 86.2019 378.567 85.7426 378.114 85.3706C376.678 84.0534 375.096 82.9044 373.4 81.9461C372.633 81.6024 371.956 81.0849 371.424 80.4346C371.104 79.8774 370.896 79.2624 370.814 78.6249L370.293 75.9709C370.2 75.2061 369.939 74.4714 369.528 73.8196C368.608 72.5785 366.848 72.4096 365.304 72.349L359.649 72.1272C357.889 72.0581 355.571 71.5537 353.854 71.8992C352.25 72.2218 352.783 73.6996 353.074 75.0453C353.497 76.6699 353.738 78.3364 353.794 80.0142Z" fill="#A0616A"/>
<path opacity="0.1" d="M353.794 80.0142C353.498 82.6464 351.491 84.7667 350.747 87.3088C349.627 91.1349 351.563 95.2408 354.211 98.2206C356.348 100.6 358.936 102.531 361.825 103.903C364.714 105.274 367.846 106.059 371.04 106.211C371.978 106.293 372.924 106.19 373.822 105.908C374.625 105.585 375.347 105.091 375.939 104.461C377.934 102.458 379.004 99.6837 379.431 96.8897C379.858 94.0958 379.692 91.2493 379.525 88.4279C379.526 87.8446 379.42 87.2662 379.212 86.7211C378.94 86.2019 378.567 85.7426 378.114 85.3706C376.678 84.0534 375.096 82.9044 373.4 81.9461C372.633 81.6024 371.956 81.0849 371.424 80.4346C371.104 79.8774 370.896 79.2624 370.814 78.6249L370.293 75.9709C370.2 75.2061 369.939 74.4714 369.528 73.8196C368.608 72.5785 366.848 72.4096 365.304 72.349L359.649 72.1272C357.889 72.0581 355.571 71.5537 353.854 71.8992C352.25 72.2218 352.783 73.6996 353.074 75.0453C353.497 76.6699 353.738 78.3364 353.794 80.0142Z" fill="black"/>
<path d="M389.772 198.489C388.971 207.275 388.169 216.059 387.368 224.842C386.741 231.754 386.101 238.694 384.871 245.517C384.446 247.868 383.949 250.207 383.358 252.526C381.715 258.964 379.331 265.257 378.562 271.858C378.538 272.048 378.518 272.242 378.498 272.436C378.412 273.896 378.135 275.338 377.676 276.726C377.292 277.733 376.701 278.652 376.284 279.648C375.454 281.639 375.345 283.84 375.244 285.997C372.326 284.356 369.131 283.264 365.819 282.776C364.221 282.537 362.44 282.367 361.351 281.173C360.145 279.854 360.279 277.835 360.481 276.062C361.117 270.559 361.751 265.058 362.383 259.559C362.59 257.194 362.992 254.85 363.585 252.55C363.804 251.786 364.067 251.033 364.334 250.28C364.702 249.244 365.074 248.208 365.354 247.144C365.756 245.424 366.037 243.678 366.195 241.919C366.847 236.383 367.632 230.86 368.32 225.328L368.356 225.036C369.388 216.651 370.173 208.226 369.947 199.78C369.914 198.53 369.862 197.279 369.781 196.025C369.667 194.208 369.502 193.245 371.007 192.108C372.67 190.853 374.859 189.975 376.761 189.154C377.785 188.708 389.06 184.706 389.323 185.584C389.852 187.457 390.129 189.393 390.148 191.339C390.156 193.728 390.031 196.115 389.772 198.489Z" fill="#605D82"/>
<path opacity="0.1" d="M384.871 245.517C384.446 247.868 383.949 250.207 383.358 252.526C381.715 258.964 379.331 265.257 378.562 271.857C378.538 272.048 378.518 272.242 378.498 272.436C373.472 265.257 369.239 257.536 364.334 250.28C364.702 249.244 365.075 248.208 365.354 247.144C365.756 245.424 366.037 243.678 366.195 241.919C366.847 236.383 367.632 230.86 368.32 225.328L368.356 225.036C368.644 226.211 369.055 227.352 369.583 228.44C372.877 235.133 380.703 238.516 384.531 244.922C384.649 245.12 384.762 245.319 384.871 245.517Z" fill="black"/>
<path d="M344.087 186.661C344.253 192.029 345.113 197.349 345.97 202.651L347.739 213.591C348.708 219.578 349.716 225.687 352.549 231.05C354.669 235.061 357.723 238.484 360.485 242.083C367.276 250.931 372.378 260.953 378.818 270.06C380.69 272.707 383.365 275.569 386.56 275.017C388.656 274.654 390.179 272.908 391.827 271.563C393.77 269.976 396.112 268.815 397.641 266.826C399.169 264.837 399.469 261.531 397.398 260.116C396.648 259.701 395.853 259.375 395.027 259.146C391.816 257.925 389.738 254.789 388.416 251.619C387.094 248.449 386.292 245.04 384.53 242.091C380.703 235.685 372.875 232.302 369.58 225.606C367.735 221.856 367.559 217.534 367.418 213.356L367.058 202.708C367.019 201.543 366.988 200.332 367.461 199.267C368.722 196.433 372.527 196.169 375.608 195.81C379.105 195.4 382.493 194.331 385.592 192.66C387.367 191.701 389.101 190.48 390.05 188.7C390.916 187.077 391.036 185.172 391.138 183.335L392.204 164.037C392.296 162.377 392.38 160.66 391.795 159.103C390.325 155.195 385.39 153.918 381.219 154.104C373.457 154.451 366.291 157.79 358.973 160.045C357.16 160.617 355.32 161.097 353.459 161.484C351.816 161.813 349.828 161.676 348.262 162.204C345.476 163.144 345.547 169.236 345.152 171.763C344.336 176.685 343.979 181.673 344.087 186.661Z" fill="#605D82"/>
<path d="M385.506 275.826C386.19 276.516 386.414 277.527 386.592 278.483C387.581 283.784 388.095 289.162 388.129 294.554C388.083 295.057 388.184 295.562 388.418 296.01C388.611 296.277 388.872 296.487 389.174 296.617C391.153 297.56 393.449 296.246 395.097 294.802C398.153 292.125 400.739 288.533 400.912 284.474C400.88 283.428 400.917 282.382 401.022 281.341C401.29 279.813 402.182 278.482 402.969 277.145C404.307 274.868 405.386 272.449 406.186 269.932C406.487 268.987 406.686 267.796 405.946 267.137C405.683 266.931 405.384 266.775 405.065 266.679L396.129 263.361C395.354 263.073 393.427 268.023 393.122 268.564C392.374 269.888 391.63 270.639 390.129 270.945C388.597 271.257 386.773 270.809 385.343 271.573C382.925 272.866 384.137 274.445 385.506 275.826Z" fill="#535070"/>
<path d="M371.717 278.88C371.551 278.55 371.319 278.257 371.037 278.018C370.623 277.756 370.153 277.596 369.665 277.552C367.963 277.263 365.947 277.073 364.773 278.337C363.672 279.523 363.861 281.454 362.941 282.785C362.65 283.206 362.255 283.553 362.002 283.999C361.689 284.68 361.547 285.427 361.59 286.176C361.543 288.238 361.496 290.304 361.638 292.362C361.757 294.086 362.048 295.893 363.126 297.244C364.857 299.413 367.979 299.724 370.75 299.865L372.994 299.979C373.612 300.054 374.239 299.997 374.833 299.81C375.201 299.64 375.531 299.398 375.803 299.099C376.076 298.799 376.285 298.447 376.42 298.065C377.588 295.162 375.738 292.033 374.598 289.119C373.288 285.768 373.524 282.048 371.717 278.88Z" fill="#535070"/>
<path d="M353.143 65.1831C353.116 64.8887 353.159 64.5921 353.27 64.3178C353.598 63.7366 354.456 63.8948 355.104 64.058C357.708 64.7145 360.451 64.1203 363.132 64.2736C365.813 64.427 368.833 65.7672 369.372 68.3978C371.318 67.0183 372.995 65.2948 374.321 63.3122C375.065 62.1988 375.714 60.9235 375.613 59.5882C375.466 57.6622 373.851 56.2218 372.354 55.0003L367.894 51.3592C367.309 50.8212 366.633 50.3914 365.897 50.0896C364.867 49.7376 363.744 49.9053 362.655 49.906C359.409 49.9081 355.947 48.4305 353.06 49.9148C351.853 50.5349 350.945 51.5974 350.07 52.6334L346.09 57.3456C345.79 57.6459 345.571 58.0171 345.453 58.4247C345.34 58.9999 345.635 59.5675 345.738 60.1446C345.926 61.1973 345.473 62.3208 345.822 63.3318C346.4 65.0101 348.438 65.2476 349.684 66.2098C350.148 66.5684 350.876 67.7837 351.429 67.7689C352.427 67.7421 353.117 65.9585 353.143 65.1831Z" fill="#3F3D56"/>
<path d="M359.899 79.0732C366.939 79.0732 372.646 73.366 372.646 66.3258C372.646 59.2857 366.939 53.5785 359.899 53.5785C352.859 53.5785 347.151 59.2857 347.151 66.3258C347.151 73.366 352.859 79.0732 359.899 79.0732Z" fill="#A0616A"/>
<path d="M362.884 94.2236C362.451 92.9848 361.636 91.9159 360.555 91.1721C359.474 90.4282 358.184 90.048 356.872 90.0866C356.497 90.1565 356.109 90.1074 355.763 89.9464C355.568 89.7961 355.411 89.6006 355.308 89.3766C354.533 87.9828 353.909 86.5097 353.449 84.9827C353.246 84.308 352.968 83.5125 352.285 83.3371C352.002 83.3001 351.715 83.3406 351.454 83.4543C351.192 83.568 350.967 83.7506 350.801 83.9825C350.477 84.4494 350.123 84.8947 349.741 85.3154C348.138 86.7489 345.296 85.4424 343.594 86.7575C343.316 86.9723 343.087 87.2475 342.795 87.4429C342.502 87.6188 342.188 87.7538 341.859 87.8442C338.573 88.917 335.351 90.1786 332.211 91.6229C333.343 98.4395 334.503 105.375 337.156 111.755C338.418 114.791 339.849 117.765 340.86 120.894C343.101 127.827 343.2 135.245 343.225 142.531C343.242 147.518 343.217 152.611 341.604 157.329C341.17 158.372 340.864 159.464 340.693 160.58C340.596 161.704 340.923 162.944 341.834 163.61C342.362 163.956 342.966 164.168 343.594 164.229C346.39 164.639 349.208 163.895 351.961 163.257C359.338 161.549 366.863 160.571 374.373 159.596L386.957 157.962C387.859 157.901 388.742 157.672 389.561 157.289C391.863 156.028 392.082 152.564 390.652 150.363C389.966 149.307 388.999 148.441 388.423 147.322C387.847 146.203 387.798 144.638 388.79 143.863C390.807 142.286 390.205 139.361 390.301 136.803C390.57 129.649 390.534 122.493 390.192 115.333C390.091 113.851 390.067 112.365 390.121 110.881C390.345 108.365 390.809 105.877 391.509 103.451L395.333 88.3946C394.334 86.8161 392.421 85.8146 390.609 85.3599C388.797 84.9052 386.91 84.7714 385.126 84.2185C381.471 83.0858 378.216 80.2112 374.399 80.4791C374.11 80.4843 373.826 80.5536 373.567 80.6821C372.706 81.1699 372.842 82.4106 372.787 83.3987C372.666 85.5847 371.058 87.4116 369.282 88.6926C367.507 89.9735 365.479 90.9075 363.848 92.3684C363.559 92.5861 363.323 92.8657 363.156 93.1867C362.989 93.5078 362.896 93.862 362.884 94.2236Z" fill="#3F3D56"/>
<path d="M312.374 108.505C311.529 109.053 310.631 109.515 309.693 109.884C308.775 110.158 307.907 110.579 307.125 111.131C306.764 111.443 306.461 111.816 306.231 112.234C305.8 113 305.582 113.867 305.6 114.745C305.618 115.623 305.871 116.481 306.333 117.228C306.795 117.975 307.45 118.584 308.228 118.992C309.006 119.399 309.879 119.591 310.757 119.546C311.923 119.415 313.056 119.078 314.103 118.548L323.094 114.652C324.616 113.993 326.26 113.22 326.979 111.726C327.063 111.586 327.094 111.421 327.066 111.261C326.994 111.092 326.863 110.954 326.697 110.873C324.669 109.556 322.896 107.883 321.462 105.936C321.093 105.435 320.642 104.253 320.12 103.953C318.217 102.857 313.898 107.516 312.374 108.505Z" fill="#A0616A"/>
<path d="M408.491 105.308L411.806 109.094C412.518 109.907 413.23 110.721 413.879 111.585C415.472 113.78 416.75 116.188 417.675 118.737C418.396 120.628 418.994 122.642 418.742 124.649C418.575 125.679 418.297 126.687 417.913 127.656C417.305 129.521 416.552 131.335 415.661 133.081C414.911 134.408 414.063 135.677 413.126 136.879C410.559 140.281 407.751 143.493 404.723 146.491C403.59 147.613 403.115 149.427 402.621 150.943C401.711 153.74 399.546 155.918 397.453 157.984C396.78 158.694 396.036 159.334 395.233 159.894C394.031 160.668 392.625 161.069 391.195 161.044C390.568 161.048 389.948 160.92 389.375 160.667C387.943 159.987 387.214 158.33 387.065 156.751C386.932 155.318 387.172 153.875 387.762 152.563C389.664 148.349 394.549 146.523 398.001 143.449C400.026 141.646 401.574 139.381 403.101 137.142C404.138 135.743 405.004 134.225 405.68 132.621C406.451 130.563 406.151 128.128 406.825 126.036C407.11 125.152 407.616 124.354 407.922 123.477C408.228 122.6 408.305 121.56 407.77 120.801C407.366 120.319 406.851 119.942 406.269 119.702C404.063 118.583 401.593 117.142 401.171 114.705C401.003 113.353 401.356 111.988 402.159 110.888C402.958 109.802 403.893 108.823 404.94 107.973C405.904 107.12 407.527 106.161 408.491 105.308Z" fill="#A0616A"/>
<path d="M310.247 113.79C309.662 112.608 308.93 111.402 307.749 110.814C307.176 110.565 306.559 110.436 305.935 110.433C305.311 110.43 304.692 110.555 304.118 110.799C302.972 111.292 301.9 111.941 300.931 112.726L298.074 114.832C297.426 115.257 296.853 115.786 296.378 116.398C295.927 117.14 295.626 117.963 295.494 118.821C294.996 120.779 294.844 122.808 295.045 124.817C295.498 128.039 297.441 130.852 299.579 133.304C300.915 134.837 302.564 136.384 304.597 136.449C305.474 136.477 306.449 136.131 306.814 135.333C306.94 135.017 307.008 134.68 307.012 134.339C307.232 130.745 305.946 127.235 304.447 123.961C303.969 123.104 303.687 122.152 303.62 121.173C303.609 121.008 303.652 120.844 303.742 120.706C303.871 120.571 304.044 120.487 304.23 120.468C306.282 120.062 309.816 121.656 311.255 119.377C312.188 117.9 310.91 115.13 310.247 113.79Z" fill="#A0616A"/>
<path d="M352.475 61.1719C352.448 60.8776 352.491 60.5809 352.602 60.3067C352.93 59.7255 353.789 59.8837 354.436 60.0469C357.04 60.7033 359.783 60.1091 362.464 60.2625C365.145 60.4159 368.165 61.7561 368.704 64.3866C370.65 63.0071 372.327 61.2837 373.653 59.3011C374.397 58.1877 375.046 56.9124 374.945 55.577C374.798 53.6511 373.182 52.2107 371.686 50.9892L367.226 47.3481C366.641 46.8101 365.965 46.3803 365.229 46.0785C364.199 45.7265 363.076 45.8942 361.988 45.8949C358.741 45.897 355.279 44.4194 352.392 45.9037C351.185 46.5237 350.278 47.5863 349.402 48.6223L345.422 53.3345C345.122 53.6348 344.903 54.006 344.785 54.4136C344.672 54.9887 344.967 55.5564 345.07 56.1335C345.258 57.1862 344.805 58.3097 345.154 59.3207C345.732 60.999 347.77 61.2365 349.016 62.1987C349.48 62.5573 350.208 63.7726 350.761 63.7577C351.759 63.731 352.449 61.9474 352.475 61.1719Z" fill="#3F3D56"/>
<path d="M325.401 96.1056C324.887 96.4375 324.435 96.858 324.067 97.3477C323.6 98.0543 323.505 98.9464 323.103 99.6924C322.244 101.289 320.235 101.857 318.981 103.166C318.782 103.347 318.644 103.584 318.585 103.846C318.579 104.201 318.698 104.548 318.922 104.824L324.967 114.327C326.979 114.504 328.91 113.243 330.924 113.411C331.675 113.473 332.445 113.733 333.166 113.511C333.682 113.282 334.165 112.986 334.604 112.631C335.806 111.871 337.405 111.783 338.413 110.781C339.38 109.819 339.504 108.314 339.492 106.95C339.508 105.766 339.388 104.584 339.133 103.427C338.243 99.7792 335.453 96.9801 333.704 93.749C332.853 92.1759 332.39 91.2551 330.588 92.3352C328.776 93.4208 327.106 94.8589 325.401 96.1056Z" fill="#3F3D56"/>
<path d="M398.814 91.2999C399.95 92.0376 400.974 92.9347 401.855 93.9636C402.776 95.151 403.297 96.6041 404.182 97.8188C405.039 98.9962 406.207 99.908 407.179 100.992C408.654 102.636 409.653 104.642 410.634 106.621C408.238 109.746 405.625 112.699 402.815 115.458C402.502 115.827 402.09 116.098 401.628 116.239C401.313 116.272 400.995 116.227 400.703 116.108C400.41 115.988 400.151 115.798 399.949 115.555C399.514 115.098 399.206 114.535 398.789 114.06C397.807 113.047 396.498 112.414 395.094 112.273C393.702 112.139 392.301 112.119 390.907 112.215C390.6 112.25 390.291 112.197 390.012 112.065C389.805 111.922 389.638 111.73 389.524 111.505C387.888 108.721 388.414 105.224 388.992 102.046L390.317 94.7532C390.508 93.3604 390.879 91.9981 391.419 90.7C391.921 89.6275 393.043 87.8089 394.423 88.1299C395.814 88.4536 397.644 90.4582 398.814 91.2999Z" fill="#3F3D56"/>
<path d="M156.299 139.185C167.43 139.185 176.454 130.145 176.454 118.994C176.454 107.843 167.43 98.8027 156.299 98.8027C145.168 98.8027 136.145 107.843 136.145 118.994C136.145 130.145 145.168 139.185 156.299 139.185Z" fill="white"/>
<path d="M156.299 95.3617C151.535 95.3617 146.878 96.7744 142.917 99.4211C138.956 102.068 135.869 105.83 134.045 110.231C132.222 114.633 131.745 119.476 132.675 124.148C133.604 128.821 135.898 133.113 139.267 136.481C142.636 139.85 146.928 142.144 151.6 143.073C156.272 144.003 161.116 143.526 165.517 141.703C169.918 139.88 173.68 136.792 176.327 132.831C178.974 128.87 180.386 124.213 180.386 119.449C180.368 113.066 177.824 106.951 173.311 102.437C168.798 97.9241 162.682 95.3804 156.299 95.3617ZM151.354 132.292L139.01 119.947L142.472 116.484L151.366 125.378L170.138 106.606L173.6 110.069L151.354 132.292L151.354 132.292Z" fill="#57B894"/>
</g>
<defs>
<clipPath id="clip0">
<rect width="498.188" height="300" fill="white"/>
</clipPath>
</defs>
</svg>
