<svg width="82" height="82" viewBox="0 0 82 82" fill="none" xmlns="http://www.w3.org/2000/svg">
<path d="M74.9807 71.6618H7.01935C3.14244 71.6618 0 68.5187 0 64.6424V17.4295C0 13.5526 3.14244 10.4102 7.01935 10.4102H74.9807C78.8576 10.4102 82 13.5526 82 17.4295V64.6424C82 68.5187 78.8576 71.6618 74.9807 71.6618Z" fill="#EEEEED"/>
<path d="M20.6639 10.4102H7.01935C3.14244 10.4102 0 13.5526 0 17.4295V64.6424C0 68.5187 3.14244 71.6618 7.01935 71.6618H43.2847C29.8091 63.1923 24.3331 45.7941 22.1266 30.8764H82V25.5474H21.4559C20.8228 19.4915 20.6827 14.1488 20.6639 10.4102V10.4102Z" fill="#DFDFDD"/>
<path d="M10.7561 37.5742H7.22394C6.56079 37.5742 6.02277 37.0368 6.02277 36.373C6.02277 35.7098 6.56079 35.1718 7.22394 35.1718H10.7561C11.4193 35.1718 11.9573 35.7098 11.9573 36.373C11.9573 37.0368 11.4199 37.5742 10.7561 37.5742Z" fill="#7BD0A7"/>
<path d="M31.9906 37.5742H16.3985C15.7354 37.5742 15.1973 37.0368 15.1973 36.373C15.1973 35.7098 15.7354 35.1718 16.3985 35.1718H31.9906C32.6537 35.1718 33.1918 35.7098 33.1918 36.373C33.1918 37.0368 32.6537 37.5742 31.9906 37.5742Z" fill="#495059"/>
<path d="M31.9906 43.2397H28.4584C27.7952 43.2397 27.2572 42.7023 27.2572 42.0385C27.2572 41.3754 27.7952 40.8373 28.4584 40.8373H31.9906C32.6537 40.8373 33.1917 41.3754 33.1917 42.0385C33.1917 42.7023 32.6537 43.2397 31.9906 43.2397Z" fill="#7BD0A7"/>
<path d="M22.816 43.2397H7.22394C6.56079 43.2397 6.02277 42.7023 6.02277 42.0385C6.02277 41.3754 6.56079 40.8373 7.22394 40.8373H22.816C23.4798 40.8373 24.0172 41.3754 24.0172 42.0385C24.0172 42.7023 23.4798 43.2397 22.816 43.2397Z" fill="#7397DA"/>
<path d="M31.9906 48.9052H18.9185C18.2547 48.9052 17.7173 48.3678 17.7173 47.704C17.7173 47.0409 18.2547 46.5029 18.9185 46.5029H31.9906C32.6537 46.5029 33.1918 47.0409 33.1918 47.704C33.1918 48.3678 32.6537 48.9052 31.9906 48.9052Z" fill="white"/>
<path d="M13.2761 48.9052H7.22394C6.56079 48.9052 6.02277 48.3678 6.02277 47.704C6.02277 47.0409 6.56079 46.5029 7.22394 46.5029H13.2761C13.9392 46.5029 14.4773 47.0409 14.4773 47.704C14.4773 48.3678 13.9392 48.9052 13.2761 48.9052Z" fill="#495059"/>
<path d="M18.9773 54.5707H7.22394C6.56079 54.5707 6.02277 54.0333 6.02277 53.3696C6.02277 52.7058 6.56079 52.1684 7.22394 52.1684H18.9773C19.6411 52.1684 20.1785 52.7058 20.1785 53.3696C20.1785 54.0327 19.6411 54.5707 18.9773 54.5707Z" fill="#7BD0A7"/>
<path d="M31.9906 54.5707H24.6196C23.9565 54.5707 23.4185 54.0333 23.4185 53.3696C23.4185 52.7058 23.9565 52.1684 24.6196 52.1684H31.9906C32.6537 52.1684 33.1917 52.7058 33.1917 53.3696C33.1917 54.0327 32.6537 54.5707 31.9906 54.5707Z" fill="#7397DA"/>
<path d="M9.63504 60.2363H7.22394C6.56079 60.2363 6.02277 59.6989 6.02277 59.0351C6.02277 58.3713 6.56079 57.8339 7.22394 57.8339H9.63504C10.2982 57.8339 10.8362 58.3713 10.8362 59.0351C10.8362 59.6982 10.2988 60.2363 9.63504 60.2363Z" fill="white"/>
<path d="M31.9906 60.2363H15.2774C14.6143 60.2363 14.0762 59.6989 14.0762 59.0351C14.0762 58.3713 14.6143 57.8339 15.2774 57.8339H31.9906C32.6537 57.8339 33.1918 58.3713 33.1918 59.0351C33.1918 59.6982 32.6537 60.2363 31.9906 60.2363Z" fill="#495059"/>
<path d="M52.3586 56.2042C52.0508 56.2042 51.7436 56.0866 51.509 55.852L44.2106 48.5536C43.7414 48.0844 43.7414 47.3237 44.2106 46.8545L51.509 39.5561C51.9782 39.0869 52.739 39.0869 53.2075 39.5561C53.6768 40.0253 53.6768 40.7854 53.2075 41.2546L46.7581 47.704L53.2075 54.1535C53.6768 54.6227 53.6768 55.3834 53.2075 55.852C52.9736 56.0866 52.6658 56.2042 52.3586 56.2042Z" fill="#7BD0A7"/>
<path d="M65.0666 56.2042C64.7594 56.2042 64.4516 56.0866 64.217 55.852C63.7478 55.3828 63.7478 54.6227 64.217 54.1535L70.6664 47.704L64.217 41.2546C63.7478 40.7854 63.7478 40.0253 64.217 39.5561C64.6862 39.0869 65.447 39.0869 65.9162 39.5561L73.2145 46.8545C73.6838 47.3237 73.6838 48.0844 73.2145 48.5536L65.9162 55.852C65.6816 56.0866 65.3738 56.2042 65.0666 56.2042Z" fill="#7BD0A7"/>
<path d="M56.128 58.8743C56.0247 58.8743 55.9196 58.8605 55.8145 58.8323C55.1745 58.6597 54.7948 58.0003 54.9675 57.3603L60.3427 37.4227C60.5154 36.7821 61.1754 36.4023 61.8147 36.5756C62.4554 36.7483 62.8345 37.4077 62.6618 38.0477L57.2866 57.9853C57.1427 58.5214 56.6578 58.8743 56.128 58.8743Z" fill="#7BD0A7"/>
<path d="M82 25.5474H0V17.4295C0 13.5532 3.14244 10.4102 7.01935 10.4102H74.9807C78.8576 10.4102 82 13.5526 82 17.4295V25.5474Z" fill="#495059"/>
<path d="M20.6639 10.4102H7.01935C3.14244 10.4102 0 13.5526 0 17.4295V25.5474H21.4559C20.8228 19.4928 20.6821 14.1488 20.6639 10.4102Z" fill="#41464F"/>
<path d="M26.2656 17.9788C26.2656 19.9857 24.639 21.613 22.6315 21.613C20.6245 21.613 18.9973 19.9857 18.9973 17.9788C18.9973 15.9718 20.6245 14.3446 22.6315 14.3446C24.639 14.3446 26.2656 15.9718 26.2656 17.9788Z" fill="#F8E47C"/>
<path d="M20.744 14.8776C19.698 15.5158 18.9973 16.6644 18.9973 17.9788C18.9973 19.4283 19.8481 20.6758 21.0756 21.2589C20.9066 18.9572 20.8047 16.8114 20.744 14.8776Z" fill="#EDD35F"/>
<path d="M8.1711 22.0102C7.86393 22.0102 7.55676 21.8926 7.32215 21.6586C6.85294 21.1894 6.85294 20.4287 7.32215 19.9595L12.9827 14.2989C13.4513 13.8304 14.212 13.8304 14.6812 14.2989C15.1504 14.7688 15.1504 15.5289 14.6812 15.9981L9.02068 21.6586C8.78608 21.8926 8.4789 22.0102 8.1711 22.0102Z" fill="#EB8D9A"/>
<path d="M13.8316 22.0102C13.5245 22.0102 13.2167 21.8926 12.9827 21.6586L7.32215 15.9981C6.85294 15.5289 6.85294 14.7682 7.32215 14.2989C7.79136 13.8304 8.55148 13.8304 9.02068 14.2989L14.6812 19.9595C15.1504 20.4287 15.1504 21.1894 14.6812 21.6586C14.4466 21.8926 14.1394 22.0102 13.8316 22.0102Z" fill="#EB8D9A"/>
</svg>
