<svg width="82" height="82" viewBox="0 0 82 82" fill="none" xmlns="http://www.w3.org/2000/svg">
    <path d="M71.75 21.4625V61.5C71.7498 62.8592 71.2098 64.1626 70.2487 65.1237C69.2876 66.0848 67.9842 66.6248 66.625 66.625H32.0312C30.6721 66.6248 29.3686 66.0848 28.4075 65.1237C27.4464 64.1626 26.9064 62.8592 26.9062 61.5V8.96875C26.9064 7.60957 27.4464 6.3061 28.4075 5.34502C29.3686 4.38393 30.6721 3.84392 32.0312 3.84375H53.0902C54.378 3.84599 55.6182 4.33119 56.5656 5.20348L70.1004 17.6973C70.6199 18.1774 71.0346 18.7597 71.3184 19.4076C71.6023 20.0555 71.7492 20.7551 71.75 21.4625Z" fill="#486BE0"/>
    <path d="M61.5 32.9938V73.0312C61.4998 74.3904 60.9598 75.6939 59.9987 76.655C59.0376 77.6161 57.7342 78.1561 56.375 78.1562H15.375C14.0158 78.1561 12.7124 77.6161 11.7513 76.655C10.7902 75.6939 10.2502 74.3904 10.25 73.0312V20.5C10.2502 19.1408 10.7902 17.8374 11.7513 16.8763C12.7124 15.9152 14.0158 15.3752 15.375 15.375H42.8402C44.128 15.3772 45.3682 15.8624 46.3156 16.7347L59.8504 29.2285C60.3699 29.7086 60.7846 30.2909 61.0684 30.9389C61.3523 31.5868 61.4992 32.2864 61.5 32.9938Z" fill="#548AFF"/>
    <path d="M60.9811 30.75H49.9688C48.6096 30.7498 47.3061 30.2098 46.345 29.2487C45.3839 28.2876 44.8439 26.9842 44.8438 25.625V15.785C45.3856 16.014 45.8836 16.3353 46.3156 16.7347L59.8504 29.2285C60.3197 29.66 60.7034 30.1762 60.9811 30.75Z" fill="#7DAFFF"/>
    <path d="M25.625 25.625H35.875V28.1875H25.625V25.625Z" fill="#3B57C4"/>
    <path d="M17.9375 25.625H21.7812V28.1875H17.9375V25.625Z" fill="#3B57C4"/>
    <path d="M30.75 33.3125H35.875V35.875H30.75V33.3125Z" fill="#3B57C4"/>
    <path d="M39.7188 41H53.8125V43.5625H39.7188V41Z" fill="#3B57C4"/>
    <path d="M26.9062 41H35.875V43.5625H26.9062V41Z" fill="#3B57C4"/>
    <path d="M17.9375 41H23.0625V43.5625H17.9375V41Z" fill="#3B57C4"/>
    <path d="M35.875 48.6875H53.8125V51.25H35.875V48.6875Z" fill="#3B57C4"/>
    <path d="M17.9375 48.6875H32.0312V51.25H17.9375V48.6875Z" fill="#3B57C4"/>
    <path d="M46.125 56.375H53.8125V58.9375H46.125V56.375Z" fill="#3B57C4"/>
    <path d="M26.9062 56.375H42.2812V58.9375H26.9062V56.375Z" fill="#3B57C4"/>
    <path d="M17.9375 56.375H23.0625V58.9375H17.9375V56.375Z" fill="#3B57C4"/>
    <path d="M33.3125 64.0625H53.8125V66.625H33.3125V64.0625Z" fill="#3B57C4"/>
    <path d="M17.9375 64.0625H29.4688V66.625H17.9375V64.0625Z" fill="#3B57C4"/>
    <path d="M17.9375 33.3125H26.9062V35.875H17.9375V33.3125Z" fill="#3B57C4"/>
    <path d="M71.2311 19.2188H60.2188C58.8596 19.2186 57.5561 18.6786 56.595 17.7175C55.6339 16.7564 55.0939 15.453 55.0938 14.0938V4.25377C55.6356 4.48278 56.1336 4.80413 56.5656 5.2035L70.1004 17.6973C70.5697 18.1287 70.9534 18.6449 71.2311 19.2188Z" fill="#7DAFFF"/>
    </svg>
