<svg width="82" height="82" viewBox="0 0 82 82" fill="none" xmlns="http://www.w3.org/2000/svg">
    <g clip-path="url(#clip0)">
    <path d="M6.41908 56.7645C4.55566 58.6279 4.38878 61.482 6.04639 63.1396C7.70385 64.7971 10.5582 64.6304 12.4216 62.767C14.285 60.9035 13.2992 59.2019 11.6416 57.5444C9.98416 55.8868 8.2825 54.9011 6.41908 56.7645Z" fill="#51B4DB"/>
    <path d="M34.1396 41.1336L28.0516 35.0456L17.8118 45.2853L23.8998 51.3733L34.1396 41.1336Z" fill="#E7EEEF"/>
    <path opacity="0.15" d="M34.1396 41.1336L28.0516 35.0456L17.8118 45.2853L23.8998 51.3733L34.1396 41.1336Z" fill="black"/>
    <path d="M14.4104 59.8415L9.34431 54.7752L17.8116 45.2861L23.8996 51.3742L14.4104 59.8415Z" fill="#E7EEEF"/>
    <path opacity="0.15" d="M14.4104 59.8415L9.34431 54.7752L17.8116 45.2861L23.8996 51.3742L14.4104 59.8415Z" fill="black"/>
    <path d="M21.4159 51.7668L17.4192 47.7701C16.8417 47.1926 16.8417 46.2563 17.4192 45.6788L18.2048 44.8932C18.7823 44.3157 19.7186 44.3157 20.2961 44.8932L24.2928 48.8899C24.8703 49.4675 24.8703 50.4037 24.2928 50.9813L23.5072 51.7668C22.9299 52.3444 21.9934 52.3444 21.4159 51.7668Z" fill="#E7EEEF"/>
    <path d="M14.7503 61.4393C16.6844 59.5053 16.6844 56.3696 14.7503 54.4355C12.8163 52.5015 9.6806 52.5015 7.74655 54.4355C5.81251 56.3696 7.00887 58.3089 8.94292 60.2429C10.877 62.177 12.8163 63.3734 14.7503 61.4393Z" fill="#E7EEEF"/>
    <path d="M4.29782 54.4162C4.29782 53.4808 5.056 52.7225 5.99148 52.7225H9.78846C10.7238 52.7225 11.4821 53.4807 11.4821 54.4162C11.4821 55.3515 10.7239 56.1098 9.78846 56.1098H5.99148C5.05616 56.1096 4.29782 55.3515 4.29782 54.4162Z" fill="#51B4DB"/>
    <path d="M75.5813 56.7645C77.4447 58.6279 77.6116 61.482 75.9539 63.1396C74.2965 64.7971 71.4422 64.6304 69.5788 62.767C67.7153 60.9035 68.7011 59.2019 70.3587 57.5444C72.0162 55.8868 73.7178 54.9011 75.5813 56.7645Z" fill="#51B4DB"/>
    <path d="M58.1008 51.3732L64.1889 45.2851L53.9491 35.0454L47.8611 41.1334L58.1008 51.3732Z" fill="#E7EEEF"/>
    <path opacity="0.15" d="M58.1008 51.3732L64.1889 45.2851L53.9491 35.0454L47.8611 41.1334L58.1008 51.3732Z" fill="black"/>
    <path d="M67.5895 59.8415L72.6555 54.7752L64.1882 45.2861L58.1002 51.3742L67.5895 59.8415Z" fill="#E7EEEF"/>
    <path opacity="0.15" d="M67.5895 59.8415L72.6555 54.7752L64.1882 45.2861L58.1002 51.3742L67.5895 59.8415Z" fill="black"/>
    <path d="M60.5842 51.7668L64.5809 47.7701C65.1584 47.1926 65.1584 46.2563 64.5809 45.6788L63.7953 44.8932C63.2178 44.3157 62.2815 44.3157 61.704 44.8932L57.7073 48.8899C57.1298 49.4675 57.1298 50.4037 57.7073 50.9813L58.4929 51.7668C59.0703 52.3444 60.0067 52.3444 60.5842 51.7668Z" fill="#E7EEEF"/>
    <path d="M67.2496 61.4393C65.3155 59.5053 65.3155 56.3696 67.2496 54.4355C69.1836 52.5015 72.3193 52.5015 74.2533 54.4355C76.1874 56.3696 74.991 58.3089 73.057 60.2429C71.1229 62.177 69.1836 63.3734 67.2496 61.4393Z" fill="#E7EEEF"/>
    <path d="M77.7021 54.4162C77.7021 53.4808 76.9439 52.7225 76.0084 52.7225H72.2115C71.2762 52.7225 70.5178 53.4807 70.5178 54.4162C70.5178 55.3515 71.276 56.1098 72.2115 56.1098H76.0084C76.9439 56.1096 77.7021 55.3515 77.7021 54.4162Z" fill="#51B4DB"/>
    <path d="M53.2134 57.2398H44.6035V68.7759H53.2134V57.2398Z" fill="#E7EEEF"/>
    <path opacity="0.15" d="M53.2134 57.2398H44.6035V68.7759H53.2134V57.2398Z" fill="black"/>
    <path d="M53.2134 68.7759H44.6035V78.6095H53.2134V68.7759Z" fill="#E7EEEF"/>
    <path opacity="0.15" d="M53.2134 68.7759H44.6035V78.6095H53.2134V68.7759Z" fill="black"/>
    <path d="M46.0817 70.8094H51.7339C52.5506 70.8094 53.2127 70.1473 53.2127 69.3305V68.2195C53.2127 67.4027 52.5506 66.7408 51.7339 66.7408H46.0817C45.2651 66.7408 44.603 67.4029 44.603 68.2195V69.3305C44.603 70.1473 45.2651 70.8094 46.0817 70.8094Z" fill="#E7EEEF"/>
    <path d="M44.8189 82H52.9972C53.8799 82 54.5627 81.2258 54.4522 80.3499L54.3004 79.146C54.14 77.875 53.059 76.9218 51.7779 76.9218H46.0381C44.757 76.9218 43.6759 77.875 43.5156 79.146L43.3638 80.3499C43.2534 81.2258 43.9362 82 44.8189 82Z" fill="#51B4DB"/>
    <path d="M37.3961 57.2398H28.7863V68.7759H37.3961V57.2398Z" fill="#E7EEEF"/>
    <path opacity="0.15" d="M37.3961 57.2398H28.7863V68.7759H37.3961V57.2398Z" fill="black"/>
    <path d="M37.3961 68.7759H28.7863V78.6095H37.3961V68.7759Z" fill="#E7EEEF"/>
    <path opacity="0.15" d="M37.3961 68.7759H28.7863V78.6095H37.3961V68.7759Z" fill="black"/>
    <path d="M35.9181 70.8094H30.2659C29.4491 70.8094 28.7872 70.1473 28.7872 69.3305V68.2195C28.7872 67.4027 29.4493 66.7408 30.2659 66.7408H35.9181C36.7349 66.7408 37.3969 67.4029 37.3969 68.2195V69.3305C37.3969 70.1473 36.7348 70.8094 35.9181 70.8094Z" fill="#E7EEEF"/>
    <path d="M49.5822 33.2308H32.4179C28.7182 33.2308 25.7191 36.2301 25.7191 39.9297V54.4719C25.7191 58.1717 28.7183 61.1707 32.4179 61.1707H49.5822C53.282 61.1707 56.2811 58.1715 56.2811 54.4719V39.9297C56.2811 36.2301 53.282 33.2308 49.5822 33.2308Z" fill="#E7EEEF"/>
    <path d="M34.334 54.1847C34.1425 54.1847 33.9482 54.1387 33.7676 54.042C33.1828 53.7286 32.9629 53.0007 33.2764 52.4159C33.6463 51.7257 33.8419 50.9468 33.8419 50.1637V47.2621C33.8419 45.2895 34.6537 43.3615 36.0695 41.9726C37.4625 40.606 39.2825 39.8678 41.202 39.9015C43.1197 39.8699 44.9413 40.6058 46.3345 41.9726C47.7502 43.3615 48.5621 45.2895 48.5621 47.2621V50.1637C48.5621 50.9468 48.7577 51.7257 49.1277 52.4161C49.4409 53.0008 49.221 53.7289 48.6363 54.0422C48.0519 54.3556 47.3237 54.1355 47.0102 53.5508C46.454 52.5127 46.16 51.3414 46.16 50.1638V47.2621C46.16 45.9304 45.6105 44.6275 44.6523 43.6876C43.7177 42.7708 42.4972 42.2803 41.2252 42.3038L41.2022 42.3043L41.1793 42.3038C39.906 42.2784 38.6866 42.7708 37.7522 43.6876C36.7942 44.6275 36.2447 45.9304 36.2447 47.2623V50.1638C36.2447 51.3416 35.9506 52.5128 35.3943 53.551C35.1773 53.9549 34.7626 54.1847 34.334 54.1847Z" fill="#51B4DB"/>
    <path d="M41.2017 49.7165C42.5573 49.7165 43.6561 48.6176 43.6561 47.2621C43.6561 45.9066 42.5573 44.8077 41.2017 44.8077C39.8462 44.8077 38.7474 45.9066 38.7474 47.2621C38.7474 48.6176 39.8462 49.7165 41.2017 49.7165Z" fill="#51B4DB"/>
    <path d="M43.3521 55.2418H39.0523C38.3889 55.2418 37.8511 54.704 37.8511 54.0406C37.8511 53.3773 38.3889 52.8394 39.0523 52.8394H43.3521C44.0155 52.8394 44.5533 53.3773 44.5533 54.0406C44.5533 54.704 44.0155 55.2418 43.3521 55.2418Z" fill="#51B4DB"/>
    <path opacity="0.15" d="M35.3627 54.472V39.9299C35.3627 38.5796 35.7636 37.3236 36.4508 36.2717C42.3701 36.7001 48.3351 36.2927 54.1667 35.0475C52.9682 33.9217 51.3564 33.2308 49.5824 33.2308H32.4179C28.7182 33.2308 25.7191 36.2301 25.7191 39.9297V54.4719C25.7191 58.1717 28.7183 61.1707 32.4179 61.1707H42.0616C38.3618 61.1709 35.3627 58.1717 35.3627 54.472Z" fill="#51B4DB"/>
    <path d="M37.1812 82H29.003C28.1202 82 27.4375 81.2258 27.548 80.3499L27.6998 79.146C27.8602 77.875 28.9412 76.9218 30.2223 76.9218H35.9621C37.2432 76.9218 38.3243 77.875 38.4846 79.146L38.6364 80.3499C38.7468 81.2258 38.064 82 37.1812 82Z" fill="#51B4DB"/>
    <path d="M61.6811 30.6058C48.2858 35.2568 33.714 35.2568 20.3189 30.6058C18.2601 29.8911 16.8798 27.9508 16.8798 25.7714V9.84478C16.8798 7.66537 18.2601 5.72508 20.3189 5.0103C33.714 0.35936 48.286 0.35936 61.6811 5.0103C63.74 5.72508 65.1202 7.66537 65.1202 9.84478V25.7714C65.1202 27.9508 63.74 29.8911 61.6811 30.6058Z" fill="#E7EEEF"/>
    <path opacity="0.1" d="M27.0033 30.6059C24.9445 29.8911 23.5643 27.9508 23.5643 25.7714V9.84484C23.5643 7.66544 24.9445 5.72514 27.0033 5.01037C32.6333 3.05566 38.4713 1.92576 44.3423 1.61425C36.2446 1.18439 28.0842 2.3143 20.3189 5.01037C18.2601 5.72514 16.8798 7.66544 16.8798 9.84484V25.7714C16.8798 27.9508 18.2601 29.8911 20.3189 30.6059C28.084 33.302 36.2446 34.4319 44.3423 34.002C38.4713 33.6905 32.6333 32.5606 27.0033 30.6059Z" fill="#51B4DB"/>
    <path d="M28.6644 9.15245L26.885 4.26624C26.3942 2.91837 27.2257 1.45134 28.6343 1.18003C32.6992 0.397027 36.8597 0 40.9999 0C45.1401 0 49.3007 0.397027 53.3656 1.17987C54.7741 1.45118 55.6057 2.91821 55.1148 4.26608L53.3355 9.15229C52.3348 11.8999 49.7228 13.7286 46.7985 13.7286H35.2011C32.277 13.7288 29.6649 11.9001 28.6644 9.15245Z" fill="#51B4DB"/>
    <path d="M31.3562 22.6409C30.6929 22.6409 30.1551 22.1031 30.1551 21.4398V19.795C30.1551 19.1316 30.6929 18.5938 31.3562 18.5938C32.0196 18.5938 32.5574 19.1316 32.5574 19.795V21.4398C32.5574 22.1031 32.0196 22.6409 31.3562 22.6409Z" fill="#485358"/>
    <path d="M50.6433 22.6409C49.98 22.6409 49.4422 22.1031 49.4422 21.4398V19.795C49.4422 19.1316 49.98 18.5938 50.6433 18.5938C51.3067 18.5938 51.8445 19.1316 51.8445 19.795V21.4398C51.8445 22.1031 51.3067 22.6409 50.6433 22.6409Z" fill="#485358"/>
    <path d="M43.8772 22.6983C43.8772 24.2653 42.5792 25.5291 40.9997 25.4729C39.4952 25.4194 38.3246 24.1372 38.3246 22.6318V20.6791C38.3246 20.261 38.6635 19.922 39.0817 19.922H43.1203C43.5385 19.922 43.8774 20.2609 43.8774 20.6791L43.8772 22.6983Z" fill="#485358"/>
    </g>
    <defs>
    <clipPath id="clip0">
    <rect width="82" height="82" fill="white"/>
    </clipPath>
    </defs>
    </svg>
