<svg width="82" height="82" viewBox="0 0 82 82" fill="none" xmlns="http://www.w3.org/2000/svg">
    <path d="M22.3527 31.9726H15.64C13.5611 31.9726 11.8758 33.658 11.8758 35.7367V55.1278L11.477 64.6531L6.09275 77.7214C5.44122 79.3031 6.19509 81.1137 7.77698 81.7654C8.16312 81.9246 8.56255 81.9997 8.95574 81.9997C10.1734 81.9997 11.3283 81.2771 11.8211 80.0813L17.4134 66.5082C17.551 66.1741 17.6291 65.8187 17.6442 65.4577L18.0745 55.1786C18.0777 55.1027 18.0748 55.0282 18.0726 54.9534C20.4076 54.4782 22.5795 53.3504 24.3204 51.6734L26.1169 49.9427V35.7362C26.1167 33.6578 24.4314 31.9726 22.3527 31.9726Z" fill="#414B82"/>
    <path d="M74.2562 56.7132L68.8719 43.6449L68.4646 33.9114C68.4606 33.8165 68.4508 33.7231 68.4387 33.6307L64.2483 14.7781C63.7957 12.7491 61.7841 11.4712 59.7552 11.9234L53.2034 13.3846C51.1744 13.8372 49.8965 15.8488 50.3488 17.8777L54.5523 36.7272L62.3092 34.9973L62.7048 44.4495C62.7199 44.8105 62.798 45.1659 62.9358 45.5L68.528 59.0731C69.0207 60.2689 70.1756 60.9913 71.3933 60.9913C71.7864 60.9913 72.186 60.9161 72.572 60.757C74.1539 60.1055 74.9078 58.2949 74.2562 56.7132Z" fill="#695A6E"/>
    <path d="M33.4184 71.9114C31.9976 71.9114 30.7175 70.9282 30.397 69.4837L27.5212 56.5166L17.3814 54.5878C15.7007 54.2681 14.5975 52.6465 14.9172 50.9658C15.2369 49.2851 16.8588 48.1818 18.5392 48.5016L30.6826 50.8117C31.8985 51.043 32.8599 51.9758 33.1279 53.1842L36.4451 68.1425C36.8155 69.8128 35.7618 71.4669 34.0915 71.8374C33.8662 71.8873 33.6405 71.9114 33.4184 71.9114Z" fill="#343E6B"/>
    <path d="M11.8761 55.2094V35.7366C11.8761 33.6578 13.5614 31.9724 15.6403 31.9724H22.3528C24.4317 31.9724 26.117 33.6578 26.117 35.7366V49.943L24.3205 51.6737C21.9657 53.9422 18.8233 55.2095 15.5538 55.2095L11.8761 55.2094Z" fill="#64AFFF"/>
    <path d="M19.8934 30.0884C22.9708 30.0884 25.4656 27.5936 25.4656 24.5161C25.4656 21.4387 22.9708 18.9439 19.8934 18.9439C16.8159 18.9439 14.3212 21.4387 14.3212 24.5161C14.3212 27.5936 16.8159 30.0884 19.8934 30.0884Z" fill="#FFB69E"/>
    <path d="M28.1829 43.3391C27.8112 43.3391 27.4404 43.2554 27.0988 43.0894L17.1522 38.2513C15.9214 37.6526 15.409 36.1697 16.0077 34.9389C16.6065 33.7082 18.0894 33.1957 19.3201 33.7944L28.2837 38.1544L37.1548 34.6291C38.4265 34.1237 39.8674 34.7451 40.3729 36.0169C40.8784 37.2887 40.2569 38.7295 38.9851 39.235L29.0981 43.1642C28.8037 43.2808 28.493 43.3391 28.1829 43.3391Z" fill="#FFB69E"/>
    <path d="M24.8669 36.4923L19.3198 33.7941C18.089 33.1954 16.6061 33.7079 16.0074 34.9386C15.4088 36.1694 15.9211 37.6525 17.1519 38.251L22.6135 40.9075L24.8669 36.4923Z" fill="#78BEFF"/>
    <path d="M52.2564 60.9917C52.1172 60.9917 51.9763 60.9822 51.8347 60.963C50.1394 60.7322 48.9523 59.171 49.1831 57.4759L51.2194 42.5175C51.2495 42.296 51.3035 42.0786 51.3805 41.8687L55.6932 30.1107C56.2825 28.5046 58.062 27.68 59.6682 28.2691C61.2744 28.8583 62.0988 30.6378 61.5099 32.2439L57.3129 43.6862L55.322 58.3114C55.1103 59.8649 53.7816 60.9917 52.2564 60.9917Z" fill="#50374B"/>
    <path d="M62.0528 35.3393L68.4388 33.6312L68.3587 33.2101L64.2483 14.7781C63.7957 12.7491 61.7841 11.4712 59.7552 11.9234L53.2034 13.3846C51.1744 13.8372 49.8965 15.8488 50.3488 17.8777L54.0476 34.4648L54.31 34.5926C56.7168 35.7661 59.4663 36.031 62.0528 35.3393Z" fill="#FF3C3C"/>
    <path d="M53.9821 11.1445C57.0596 11.1445 59.5544 8.64969 59.5544 5.57223C59.5544 2.49477 57.0596 0 53.9821 0C50.9047 0 48.4099 2.49477 48.4099 5.57223C48.4099 8.64969 50.9047 11.1445 53.9821 11.1445Z" fill="#BA6746"/>
    <path d="M47.4946 62.1178V70.741C47.4946 71.3735 46.9818 71.8865 46.3492 71.8865H19.9933C19.3609 71.8865 18.8479 72.3993 18.8479 73.0319V80.8545C18.8479 81.4872 19.3607 82 19.9933 82H47.4948H74.9962C75.6287 82 76.1417 81.4872 76.1417 80.8545V71.4062V62.1178C76.1417 61.4851 75.6288 60.9723 74.9962 60.9723H48.6401C48.0076 60.9723 47.4946 61.4851 47.4946 62.1178Z" fill="#A5C8CD"/>
    <path d="M41.4687 31.4087C40.5223 31.2458 39.7167 30.5376 39.4782 29.5444C39.1586 28.2137 39.9781 26.8757 41.309 26.5559L50.5909 24.3258L55.4047 15.5977C56.0654 14.3994 57.5728 13.9632 58.7714 14.6245C59.9699 15.2855 60.4057 16.7928 59.7446 17.9912L54.4026 27.6766C54.0663 28.2865 53.4889 28.7266 52.8116 28.8894L42.4668 31.375C42.1287 31.4562 41.7905 31.4639 41.4687 31.4087Z" fill="#BA6746"/>
    <path d="M56.7958 23.3378L59.7447 17.9914C60.4057 16.7929 59.97 15.2857 58.7715 14.6247C57.5729 13.9637 56.0657 14.3995 55.4048 15.5978L52.4555 20.9452L56.7958 23.3378Z" fill="#FF4F38"/>
    </svg>
